%TF.GenerationSoftware,KiCad,Pcbnew,9.0.7*%
%TF.CreationDate,2026-04-25T14:13:09+02:00*%
%TF.ProjectId,playLight_rev_A,706c6179-4c69-4676-9874-5f7265765f41,rev?*%
%TF.SameCoordinates,Original*%
%TF.FileFunction,Legend,Top*%
%TF.FilePolarity,Positive*%
%FSLAX46Y46*%
G04 Gerber Fmt 4.6, Leading zero omitted, Abs format (unit mm)*
G04 Created by KiCad (PCBNEW 9.0.7) date 2026-04-25 14:13:09*
%MOMM*%
%LPD*%
G01*
G04 APERTURE LIST*
%ADD10C,0.125000*%
%ADD11C,0.200000*%
%ADD12C,0.150000*%
%ADD13C,0.120000*%
G04 APERTURE END LIST*
D10*
X207844140Y-109668738D02*
X207748902Y-109621119D01*
X207748902Y-109621119D02*
X207606045Y-109621119D01*
X207606045Y-109621119D02*
X207463188Y-109668738D01*
X207463188Y-109668738D02*
X207367950Y-109763976D01*
X207367950Y-109763976D02*
X207320331Y-109859214D01*
X207320331Y-109859214D02*
X207272712Y-110049690D01*
X207272712Y-110049690D02*
X207272712Y-110192547D01*
X207272712Y-110192547D02*
X207320331Y-110383023D01*
X207320331Y-110383023D02*
X207367950Y-110478261D01*
X207367950Y-110478261D02*
X207463188Y-110573500D01*
X207463188Y-110573500D02*
X207606045Y-110621119D01*
X207606045Y-110621119D02*
X207701283Y-110621119D01*
X207701283Y-110621119D02*
X207844140Y-110573500D01*
X207844140Y-110573500D02*
X207891759Y-110525880D01*
X207891759Y-110525880D02*
X207891759Y-110192547D01*
X207891759Y-110192547D02*
X207701283Y-110192547D01*
X208320331Y-110621119D02*
X208320331Y-109621119D01*
X208320331Y-109621119D02*
X208891759Y-110621119D01*
X208891759Y-110621119D02*
X208891759Y-109621119D01*
X209367950Y-110621119D02*
X209367950Y-109621119D01*
X209367950Y-109621119D02*
X209606045Y-109621119D01*
X209606045Y-109621119D02*
X209748902Y-109668738D01*
X209748902Y-109668738D02*
X209844140Y-109763976D01*
X209844140Y-109763976D02*
X209891759Y-109859214D01*
X209891759Y-109859214D02*
X209939378Y-110049690D01*
X209939378Y-110049690D02*
X209939378Y-110192547D01*
X209939378Y-110192547D02*
X209891759Y-110383023D01*
X209891759Y-110383023D02*
X209844140Y-110478261D01*
X209844140Y-110478261D02*
X209748902Y-110573500D01*
X209748902Y-110573500D02*
X209606045Y-110621119D01*
X209606045Y-110621119D02*
X209367950Y-110621119D01*
X54022712Y-115073500D02*
X54165569Y-115121119D01*
X54165569Y-115121119D02*
X54403664Y-115121119D01*
X54403664Y-115121119D02*
X54498902Y-115073500D01*
X54498902Y-115073500D02*
X54546521Y-115025880D01*
X54546521Y-115025880D02*
X54594140Y-114930642D01*
X54594140Y-114930642D02*
X54594140Y-114835404D01*
X54594140Y-114835404D02*
X54546521Y-114740166D01*
X54546521Y-114740166D02*
X54498902Y-114692547D01*
X54498902Y-114692547D02*
X54403664Y-114644928D01*
X54403664Y-114644928D02*
X54213188Y-114597309D01*
X54213188Y-114597309D02*
X54117950Y-114549690D01*
X54117950Y-114549690D02*
X54070331Y-114502071D01*
X54070331Y-114502071D02*
X54022712Y-114406833D01*
X54022712Y-114406833D02*
X54022712Y-114311595D01*
X54022712Y-114311595D02*
X54070331Y-114216357D01*
X54070331Y-114216357D02*
X54117950Y-114168738D01*
X54117950Y-114168738D02*
X54213188Y-114121119D01*
X54213188Y-114121119D02*
X54451283Y-114121119D01*
X54451283Y-114121119D02*
X54594140Y-114168738D01*
X55022712Y-115121119D02*
X55022712Y-114121119D01*
X55022712Y-114121119D02*
X55260807Y-114121119D01*
X55260807Y-114121119D02*
X55403664Y-114168738D01*
X55403664Y-114168738D02*
X55498902Y-114263976D01*
X55498902Y-114263976D02*
X55546521Y-114359214D01*
X55546521Y-114359214D02*
X55594140Y-114549690D01*
X55594140Y-114549690D02*
X55594140Y-114692547D01*
X55594140Y-114692547D02*
X55546521Y-114883023D01*
X55546521Y-114883023D02*
X55498902Y-114978261D01*
X55498902Y-114978261D02*
X55403664Y-115073500D01*
X55403664Y-115073500D02*
X55260807Y-115121119D01*
X55260807Y-115121119D02*
X55022712Y-115121119D01*
X55975093Y-114835404D02*
X56451283Y-114835404D01*
X55879855Y-115121119D02*
X56213188Y-114121119D01*
X56213188Y-114121119D02*
X56546521Y-115121119D01*
X177522712Y-113085404D02*
X177998902Y-113085404D01*
X177427474Y-113371119D02*
X177760807Y-112371119D01*
X177760807Y-112371119D02*
X178094140Y-113371119D01*
X178427474Y-112704452D02*
X178427474Y-113704452D01*
X178427474Y-112752071D02*
X178522712Y-112704452D01*
X178522712Y-112704452D02*
X178713188Y-112704452D01*
X178713188Y-112704452D02*
X178808426Y-112752071D01*
X178808426Y-112752071D02*
X178856045Y-112799690D01*
X178856045Y-112799690D02*
X178903664Y-112894928D01*
X178903664Y-112894928D02*
X178903664Y-113180642D01*
X178903664Y-113180642D02*
X178856045Y-113275880D01*
X178856045Y-113275880D02*
X178808426Y-113323500D01*
X178808426Y-113323500D02*
X178713188Y-113371119D01*
X178713188Y-113371119D02*
X178522712Y-113371119D01*
X178522712Y-113371119D02*
X178427474Y-113323500D01*
X179332236Y-113371119D02*
X179332236Y-112704452D01*
X179332236Y-112894928D02*
X179379855Y-112799690D01*
X179379855Y-112799690D02*
X179427474Y-112752071D01*
X179427474Y-112752071D02*
X179522712Y-112704452D01*
X179522712Y-112704452D02*
X179617950Y-112704452D01*
X179951284Y-113371119D02*
X179951284Y-112704452D01*
X179951284Y-112371119D02*
X179903665Y-112418738D01*
X179903665Y-112418738D02*
X179951284Y-112466357D01*
X179951284Y-112466357D02*
X179998903Y-112418738D01*
X179998903Y-112418738D02*
X179951284Y-112371119D01*
X179951284Y-112371119D02*
X179951284Y-112466357D01*
X180570331Y-113371119D02*
X180475093Y-113323500D01*
X180475093Y-113323500D02*
X180427474Y-113228261D01*
X180427474Y-113228261D02*
X180427474Y-112371119D01*
X181665570Y-112466357D02*
X181713189Y-112418738D01*
X181713189Y-112418738D02*
X181808427Y-112371119D01*
X181808427Y-112371119D02*
X182046522Y-112371119D01*
X182046522Y-112371119D02*
X182141760Y-112418738D01*
X182141760Y-112418738D02*
X182189379Y-112466357D01*
X182189379Y-112466357D02*
X182236998Y-112561595D01*
X182236998Y-112561595D02*
X182236998Y-112656833D01*
X182236998Y-112656833D02*
X182189379Y-112799690D01*
X182189379Y-112799690D02*
X181617951Y-113371119D01*
X181617951Y-113371119D02*
X182236998Y-113371119D01*
X182856046Y-112371119D02*
X182951284Y-112371119D01*
X182951284Y-112371119D02*
X183046522Y-112418738D01*
X183046522Y-112418738D02*
X183094141Y-112466357D01*
X183094141Y-112466357D02*
X183141760Y-112561595D01*
X183141760Y-112561595D02*
X183189379Y-112752071D01*
X183189379Y-112752071D02*
X183189379Y-112990166D01*
X183189379Y-112990166D02*
X183141760Y-113180642D01*
X183141760Y-113180642D02*
X183094141Y-113275880D01*
X183094141Y-113275880D02*
X183046522Y-113323500D01*
X183046522Y-113323500D02*
X182951284Y-113371119D01*
X182951284Y-113371119D02*
X182856046Y-113371119D01*
X182856046Y-113371119D02*
X182760808Y-113323500D01*
X182760808Y-113323500D02*
X182713189Y-113275880D01*
X182713189Y-113275880D02*
X182665570Y-113180642D01*
X182665570Y-113180642D02*
X182617951Y-112990166D01*
X182617951Y-112990166D02*
X182617951Y-112752071D01*
X182617951Y-112752071D02*
X182665570Y-112561595D01*
X182665570Y-112561595D02*
X182713189Y-112466357D01*
X182713189Y-112466357D02*
X182760808Y-112418738D01*
X182760808Y-112418738D02*
X182856046Y-112371119D01*
X183570332Y-112466357D02*
X183617951Y-112418738D01*
X183617951Y-112418738D02*
X183713189Y-112371119D01*
X183713189Y-112371119D02*
X183951284Y-112371119D01*
X183951284Y-112371119D02*
X184046522Y-112418738D01*
X184046522Y-112418738D02*
X184094141Y-112466357D01*
X184094141Y-112466357D02*
X184141760Y-112561595D01*
X184141760Y-112561595D02*
X184141760Y-112656833D01*
X184141760Y-112656833D02*
X184094141Y-112799690D01*
X184094141Y-112799690D02*
X183522713Y-113371119D01*
X183522713Y-113371119D02*
X184141760Y-113371119D01*
X184998903Y-112371119D02*
X184808427Y-112371119D01*
X184808427Y-112371119D02*
X184713189Y-112418738D01*
X184713189Y-112418738D02*
X184665570Y-112466357D01*
X184665570Y-112466357D02*
X184570332Y-112609214D01*
X184570332Y-112609214D02*
X184522713Y-112799690D01*
X184522713Y-112799690D02*
X184522713Y-113180642D01*
X184522713Y-113180642D02*
X184570332Y-113275880D01*
X184570332Y-113275880D02*
X184617951Y-113323500D01*
X184617951Y-113323500D02*
X184713189Y-113371119D01*
X184713189Y-113371119D02*
X184903665Y-113371119D01*
X184903665Y-113371119D02*
X184998903Y-113323500D01*
X184998903Y-113323500D02*
X185046522Y-113275880D01*
X185046522Y-113275880D02*
X185094141Y-113180642D01*
X185094141Y-113180642D02*
X185094141Y-112942547D01*
X185094141Y-112942547D02*
X185046522Y-112847309D01*
X185046522Y-112847309D02*
X184998903Y-112799690D01*
X184998903Y-112799690D02*
X184903665Y-112752071D01*
X184903665Y-112752071D02*
X184713189Y-112752071D01*
X184713189Y-112752071D02*
X184617951Y-112799690D01*
X184617951Y-112799690D02*
X184570332Y-112847309D01*
X184570332Y-112847309D02*
X184522713Y-112942547D01*
X207272712Y-113073500D02*
X207415569Y-113121119D01*
X207415569Y-113121119D02*
X207653664Y-113121119D01*
X207653664Y-113121119D02*
X207748902Y-113073500D01*
X207748902Y-113073500D02*
X207796521Y-113025880D01*
X207796521Y-113025880D02*
X207844140Y-112930642D01*
X207844140Y-112930642D02*
X207844140Y-112835404D01*
X207844140Y-112835404D02*
X207796521Y-112740166D01*
X207796521Y-112740166D02*
X207748902Y-112692547D01*
X207748902Y-112692547D02*
X207653664Y-112644928D01*
X207653664Y-112644928D02*
X207463188Y-112597309D01*
X207463188Y-112597309D02*
X207367950Y-112549690D01*
X207367950Y-112549690D02*
X207320331Y-112502071D01*
X207320331Y-112502071D02*
X207272712Y-112406833D01*
X207272712Y-112406833D02*
X207272712Y-112311595D01*
X207272712Y-112311595D02*
X207320331Y-112216357D01*
X207320331Y-112216357D02*
X207367950Y-112168738D01*
X207367950Y-112168738D02*
X207463188Y-112121119D01*
X207463188Y-112121119D02*
X207701283Y-112121119D01*
X207701283Y-112121119D02*
X207844140Y-112168738D01*
X208844140Y-113025880D02*
X208796521Y-113073500D01*
X208796521Y-113073500D02*
X208653664Y-113121119D01*
X208653664Y-113121119D02*
X208558426Y-113121119D01*
X208558426Y-113121119D02*
X208415569Y-113073500D01*
X208415569Y-113073500D02*
X208320331Y-112978261D01*
X208320331Y-112978261D02*
X208272712Y-112883023D01*
X208272712Y-112883023D02*
X208225093Y-112692547D01*
X208225093Y-112692547D02*
X208225093Y-112549690D01*
X208225093Y-112549690D02*
X208272712Y-112359214D01*
X208272712Y-112359214D02*
X208320331Y-112263976D01*
X208320331Y-112263976D02*
X208415569Y-112168738D01*
X208415569Y-112168738D02*
X208558426Y-112121119D01*
X208558426Y-112121119D02*
X208653664Y-112121119D01*
X208653664Y-112121119D02*
X208796521Y-112168738D01*
X208796521Y-112168738D02*
X208844140Y-112216357D01*
X209748902Y-113121119D02*
X209272712Y-113121119D01*
X209272712Y-113121119D02*
X209272712Y-112121119D01*
X203820331Y-105240166D02*
X204582236Y-105240166D01*
X204201283Y-105621119D02*
X204201283Y-104859214D01*
X205534616Y-104621119D02*
X205058426Y-104621119D01*
X205058426Y-104621119D02*
X205010807Y-105097309D01*
X205010807Y-105097309D02*
X205058426Y-105049690D01*
X205058426Y-105049690D02*
X205153664Y-105002071D01*
X205153664Y-105002071D02*
X205391759Y-105002071D01*
X205391759Y-105002071D02*
X205486997Y-105049690D01*
X205486997Y-105049690D02*
X205534616Y-105097309D01*
X205534616Y-105097309D02*
X205582235Y-105192547D01*
X205582235Y-105192547D02*
X205582235Y-105430642D01*
X205582235Y-105430642D02*
X205534616Y-105525880D01*
X205534616Y-105525880D02*
X205486997Y-105573500D01*
X205486997Y-105573500D02*
X205391759Y-105621119D01*
X205391759Y-105621119D02*
X205153664Y-105621119D01*
X205153664Y-105621119D02*
X205058426Y-105573500D01*
X205058426Y-105573500D02*
X205010807Y-105525880D01*
X205867950Y-104621119D02*
X206201283Y-105621119D01*
X206201283Y-105621119D02*
X206534616Y-104621119D01*
X208106045Y-105621119D02*
X207629855Y-105621119D01*
X207629855Y-105621119D02*
X207629855Y-104621119D01*
X208439379Y-105097309D02*
X208772712Y-105097309D01*
X208915569Y-105621119D02*
X208439379Y-105621119D01*
X208439379Y-105621119D02*
X208439379Y-104621119D01*
X208439379Y-104621119D02*
X208915569Y-104621119D01*
X209344141Y-105621119D02*
X209344141Y-104621119D01*
X209344141Y-104621119D02*
X209582236Y-104621119D01*
X209582236Y-104621119D02*
X209725093Y-104668738D01*
X209725093Y-104668738D02*
X209820331Y-104763976D01*
X209820331Y-104763976D02*
X209867950Y-104859214D01*
X209867950Y-104859214D02*
X209915569Y-105049690D01*
X209915569Y-105049690D02*
X209915569Y-105192547D01*
X209915569Y-105192547D02*
X209867950Y-105383023D01*
X209867950Y-105383023D02*
X209820331Y-105478261D01*
X209820331Y-105478261D02*
X209725093Y-105573500D01*
X209725093Y-105573500D02*
X209582236Y-105621119D01*
X209582236Y-105621119D02*
X209344141Y-105621119D01*
X193070331Y-106871119D02*
X193070331Y-106204452D01*
X193070331Y-106394928D02*
X193117950Y-106299690D01*
X193117950Y-106299690D02*
X193165569Y-106252071D01*
X193165569Y-106252071D02*
X193260807Y-106204452D01*
X193260807Y-106204452D02*
X193356045Y-106204452D01*
X194070331Y-106823500D02*
X193975093Y-106871119D01*
X193975093Y-106871119D02*
X193784617Y-106871119D01*
X193784617Y-106871119D02*
X193689379Y-106823500D01*
X193689379Y-106823500D02*
X193641760Y-106728261D01*
X193641760Y-106728261D02*
X193641760Y-106347309D01*
X193641760Y-106347309D02*
X193689379Y-106252071D01*
X193689379Y-106252071D02*
X193784617Y-106204452D01*
X193784617Y-106204452D02*
X193975093Y-106204452D01*
X193975093Y-106204452D02*
X194070331Y-106252071D01*
X194070331Y-106252071D02*
X194117950Y-106347309D01*
X194117950Y-106347309D02*
X194117950Y-106442547D01*
X194117950Y-106442547D02*
X193641760Y-106537785D01*
X194451284Y-106204452D02*
X194689379Y-106871119D01*
X194689379Y-106871119D02*
X194927474Y-106204452D01*
X196022713Y-106585404D02*
X196498903Y-106585404D01*
X195927475Y-106871119D02*
X196260808Y-105871119D01*
X196260808Y-105871119D02*
X196594141Y-106871119D01*
X76085404Y-109227287D02*
X76085404Y-108751097D01*
X76371119Y-109322525D02*
X75371119Y-108989192D01*
X75371119Y-108989192D02*
X76371119Y-108655859D01*
X75371119Y-108132049D02*
X75371119Y-108036811D01*
X75371119Y-108036811D02*
X75418738Y-107941573D01*
X75418738Y-107941573D02*
X75466357Y-107893954D01*
X75466357Y-107893954D02*
X75561595Y-107846335D01*
X75561595Y-107846335D02*
X75752071Y-107798716D01*
X75752071Y-107798716D02*
X75990166Y-107798716D01*
X75990166Y-107798716D02*
X76180642Y-107846335D01*
X76180642Y-107846335D02*
X76275880Y-107893954D01*
X76275880Y-107893954D02*
X76323500Y-107941573D01*
X76323500Y-107941573D02*
X76371119Y-108036811D01*
X76371119Y-108036811D02*
X76371119Y-108132049D01*
X76371119Y-108132049D02*
X76323500Y-108227287D01*
X76323500Y-108227287D02*
X76275880Y-108274906D01*
X76275880Y-108274906D02*
X76180642Y-108322525D01*
X76180642Y-108322525D02*
X75990166Y-108370144D01*
X75990166Y-108370144D02*
X75752071Y-108370144D01*
X75752071Y-108370144D02*
X75561595Y-108322525D01*
X75561595Y-108322525D02*
X75466357Y-108274906D01*
X75466357Y-108274906D02*
X75418738Y-108227287D01*
X75418738Y-108227287D02*
X75371119Y-108132049D01*
X80835404Y-109227287D02*
X80835404Y-108751097D01*
X81121119Y-109322525D02*
X80121119Y-108989192D01*
X80121119Y-108989192D02*
X81121119Y-108655859D01*
X81121119Y-107798716D02*
X81121119Y-108370144D01*
X81121119Y-108084430D02*
X80121119Y-108084430D01*
X80121119Y-108084430D02*
X80263976Y-108179668D01*
X80263976Y-108179668D02*
X80359214Y-108274906D01*
X80359214Y-108274906D02*
X80406833Y-108370144D01*
X54594140Y-109668738D02*
X54498902Y-109621119D01*
X54498902Y-109621119D02*
X54356045Y-109621119D01*
X54356045Y-109621119D02*
X54213188Y-109668738D01*
X54213188Y-109668738D02*
X54117950Y-109763976D01*
X54117950Y-109763976D02*
X54070331Y-109859214D01*
X54070331Y-109859214D02*
X54022712Y-110049690D01*
X54022712Y-110049690D02*
X54022712Y-110192547D01*
X54022712Y-110192547D02*
X54070331Y-110383023D01*
X54070331Y-110383023D02*
X54117950Y-110478261D01*
X54117950Y-110478261D02*
X54213188Y-110573500D01*
X54213188Y-110573500D02*
X54356045Y-110621119D01*
X54356045Y-110621119D02*
X54451283Y-110621119D01*
X54451283Y-110621119D02*
X54594140Y-110573500D01*
X54594140Y-110573500D02*
X54641759Y-110525880D01*
X54641759Y-110525880D02*
X54641759Y-110192547D01*
X54641759Y-110192547D02*
X54451283Y-110192547D01*
X55070331Y-110621119D02*
X55070331Y-109621119D01*
X55070331Y-109621119D02*
X55641759Y-110621119D01*
X55641759Y-110621119D02*
X55641759Y-109621119D01*
X56117950Y-110621119D02*
X56117950Y-109621119D01*
X56117950Y-109621119D02*
X56356045Y-109621119D01*
X56356045Y-109621119D02*
X56498902Y-109668738D01*
X56498902Y-109668738D02*
X56594140Y-109763976D01*
X56594140Y-109763976D02*
X56641759Y-109859214D01*
X56641759Y-109859214D02*
X56689378Y-110049690D01*
X56689378Y-110049690D02*
X56689378Y-110192547D01*
X56689378Y-110192547D02*
X56641759Y-110383023D01*
X56641759Y-110383023D02*
X56594140Y-110478261D01*
X56594140Y-110478261D02*
X56498902Y-110573500D01*
X56498902Y-110573500D02*
X56356045Y-110621119D01*
X56356045Y-110621119D02*
X56117950Y-110621119D01*
X54022712Y-113073500D02*
X54165569Y-113121119D01*
X54165569Y-113121119D02*
X54403664Y-113121119D01*
X54403664Y-113121119D02*
X54498902Y-113073500D01*
X54498902Y-113073500D02*
X54546521Y-113025880D01*
X54546521Y-113025880D02*
X54594140Y-112930642D01*
X54594140Y-112930642D02*
X54594140Y-112835404D01*
X54594140Y-112835404D02*
X54546521Y-112740166D01*
X54546521Y-112740166D02*
X54498902Y-112692547D01*
X54498902Y-112692547D02*
X54403664Y-112644928D01*
X54403664Y-112644928D02*
X54213188Y-112597309D01*
X54213188Y-112597309D02*
X54117950Y-112549690D01*
X54117950Y-112549690D02*
X54070331Y-112502071D01*
X54070331Y-112502071D02*
X54022712Y-112406833D01*
X54022712Y-112406833D02*
X54022712Y-112311595D01*
X54022712Y-112311595D02*
X54070331Y-112216357D01*
X54070331Y-112216357D02*
X54117950Y-112168738D01*
X54117950Y-112168738D02*
X54213188Y-112121119D01*
X54213188Y-112121119D02*
X54451283Y-112121119D01*
X54451283Y-112121119D02*
X54594140Y-112168738D01*
X55594140Y-113025880D02*
X55546521Y-113073500D01*
X55546521Y-113073500D02*
X55403664Y-113121119D01*
X55403664Y-113121119D02*
X55308426Y-113121119D01*
X55308426Y-113121119D02*
X55165569Y-113073500D01*
X55165569Y-113073500D02*
X55070331Y-112978261D01*
X55070331Y-112978261D02*
X55022712Y-112883023D01*
X55022712Y-112883023D02*
X54975093Y-112692547D01*
X54975093Y-112692547D02*
X54975093Y-112549690D01*
X54975093Y-112549690D02*
X55022712Y-112359214D01*
X55022712Y-112359214D02*
X55070331Y-112263976D01*
X55070331Y-112263976D02*
X55165569Y-112168738D01*
X55165569Y-112168738D02*
X55308426Y-112121119D01*
X55308426Y-112121119D02*
X55403664Y-112121119D01*
X55403664Y-112121119D02*
X55546521Y-112168738D01*
X55546521Y-112168738D02*
X55594140Y-112216357D01*
X56498902Y-113121119D02*
X56022712Y-113121119D01*
X56022712Y-113121119D02*
X56022712Y-112121119D01*
D11*
X171298244Y-108450552D02*
X171298244Y-109260076D01*
X171298244Y-109260076D02*
X171250625Y-109355314D01*
X171250625Y-109355314D02*
X171203006Y-109402933D01*
X171203006Y-109402933D02*
X171107768Y-109450552D01*
X171107768Y-109450552D02*
X170964911Y-109450552D01*
X170964911Y-109450552D02*
X170869673Y-109402933D01*
X171298244Y-109069600D02*
X171203006Y-109117219D01*
X171203006Y-109117219D02*
X171012530Y-109117219D01*
X171012530Y-109117219D02*
X170917292Y-109069600D01*
X170917292Y-109069600D02*
X170869673Y-109021980D01*
X170869673Y-109021980D02*
X170822054Y-108926742D01*
X170822054Y-108926742D02*
X170822054Y-108641028D01*
X170822054Y-108641028D02*
X170869673Y-108545790D01*
X170869673Y-108545790D02*
X170917292Y-108498171D01*
X170917292Y-108498171D02*
X171012530Y-108450552D01*
X171012530Y-108450552D02*
X171203006Y-108450552D01*
X171203006Y-108450552D02*
X171298244Y-108498171D01*
X172203006Y-109117219D02*
X172203006Y-108593409D01*
X172203006Y-108593409D02*
X172155387Y-108498171D01*
X172155387Y-108498171D02*
X172060149Y-108450552D01*
X172060149Y-108450552D02*
X171869673Y-108450552D01*
X171869673Y-108450552D02*
X171774435Y-108498171D01*
X172203006Y-109069600D02*
X172107768Y-109117219D01*
X172107768Y-109117219D02*
X171869673Y-109117219D01*
X171869673Y-109117219D02*
X171774435Y-109069600D01*
X171774435Y-109069600D02*
X171726816Y-108974361D01*
X171726816Y-108974361D02*
X171726816Y-108879123D01*
X171726816Y-108879123D02*
X171774435Y-108783885D01*
X171774435Y-108783885D02*
X171869673Y-108736266D01*
X171869673Y-108736266D02*
X172107768Y-108736266D01*
X172107768Y-108736266D02*
X172203006Y-108688647D01*
X172679197Y-108450552D02*
X172679197Y-109117219D01*
X172679197Y-108545790D02*
X172726816Y-108498171D01*
X172726816Y-108498171D02*
X172822054Y-108450552D01*
X172822054Y-108450552D02*
X172964911Y-108450552D01*
X172964911Y-108450552D02*
X173060149Y-108498171D01*
X173060149Y-108498171D02*
X173107768Y-108593409D01*
X173107768Y-108593409D02*
X173107768Y-109117219D01*
X174012530Y-108450552D02*
X174012530Y-109260076D01*
X174012530Y-109260076D02*
X173964911Y-109355314D01*
X173964911Y-109355314D02*
X173917292Y-109402933D01*
X173917292Y-109402933D02*
X173822054Y-109450552D01*
X173822054Y-109450552D02*
X173679197Y-109450552D01*
X173679197Y-109450552D02*
X173583959Y-109402933D01*
X174012530Y-109069600D02*
X173917292Y-109117219D01*
X173917292Y-109117219D02*
X173726816Y-109117219D01*
X173726816Y-109117219D02*
X173631578Y-109069600D01*
X173631578Y-109069600D02*
X173583959Y-109021980D01*
X173583959Y-109021980D02*
X173536340Y-108926742D01*
X173536340Y-108926742D02*
X173536340Y-108641028D01*
X173536340Y-108641028D02*
X173583959Y-108545790D01*
X173583959Y-108545790D02*
X173631578Y-108498171D01*
X173631578Y-108498171D02*
X173726816Y-108450552D01*
X173726816Y-108450552D02*
X173917292Y-108450552D01*
X173917292Y-108450552D02*
X174012530Y-108498171D01*
X175155387Y-109212457D02*
X175060149Y-109164838D01*
X175060149Y-109164838D02*
X174964911Y-109069600D01*
X174964911Y-109069600D02*
X174822054Y-108926742D01*
X174822054Y-108926742D02*
X174726816Y-108879123D01*
X174726816Y-108879123D02*
X174631578Y-108879123D01*
X174679197Y-109117219D02*
X174583959Y-109069600D01*
X174583959Y-109069600D02*
X174488721Y-108974361D01*
X174488721Y-108974361D02*
X174441102Y-108783885D01*
X174441102Y-108783885D02*
X174441102Y-108450552D01*
X174441102Y-108450552D02*
X174488721Y-108260076D01*
X174488721Y-108260076D02*
X174583959Y-108164838D01*
X174583959Y-108164838D02*
X174679197Y-108117219D01*
X174679197Y-108117219D02*
X174869673Y-108117219D01*
X174869673Y-108117219D02*
X174964911Y-108164838D01*
X174964911Y-108164838D02*
X175060149Y-108260076D01*
X175060149Y-108260076D02*
X175107768Y-108450552D01*
X175107768Y-108450552D02*
X175107768Y-108783885D01*
X175107768Y-108783885D02*
X175060149Y-108974361D01*
X175060149Y-108974361D02*
X174964911Y-109069600D01*
X174964911Y-109069600D02*
X174869673Y-109117219D01*
X174869673Y-109117219D02*
X174679197Y-109117219D01*
X175536340Y-109117219D02*
X175536340Y-108450552D01*
X175536340Y-108117219D02*
X175488721Y-108164838D01*
X175488721Y-108164838D02*
X175536340Y-108212457D01*
X175536340Y-108212457D02*
X175583959Y-108164838D01*
X175583959Y-108164838D02*
X175536340Y-108117219D01*
X175536340Y-108117219D02*
X175536340Y-108212457D01*
X176012530Y-108450552D02*
X176012530Y-109117219D01*
X176012530Y-108545790D02*
X176060149Y-108498171D01*
X176060149Y-108498171D02*
X176155387Y-108450552D01*
X176155387Y-108450552D02*
X176298244Y-108450552D01*
X176298244Y-108450552D02*
X176393482Y-108498171D01*
X176393482Y-108498171D02*
X176441101Y-108593409D01*
X176441101Y-108593409D02*
X176441101Y-109117219D01*
X177679197Y-108450552D02*
X177679197Y-109450552D01*
X177679197Y-108498171D02*
X177774435Y-108450552D01*
X177774435Y-108450552D02*
X177964911Y-108450552D01*
X177964911Y-108450552D02*
X178060149Y-108498171D01*
X178060149Y-108498171D02*
X178107768Y-108545790D01*
X178107768Y-108545790D02*
X178155387Y-108641028D01*
X178155387Y-108641028D02*
X178155387Y-108926742D01*
X178155387Y-108926742D02*
X178107768Y-109021980D01*
X178107768Y-109021980D02*
X178060149Y-109069600D01*
X178060149Y-109069600D02*
X177964911Y-109117219D01*
X177964911Y-109117219D02*
X177774435Y-109117219D01*
X177774435Y-109117219D02*
X177679197Y-109069600D01*
X178726816Y-109117219D02*
X178631578Y-109069600D01*
X178631578Y-109069600D02*
X178583959Y-108974361D01*
X178583959Y-108974361D02*
X178583959Y-108117219D01*
X179536340Y-109117219D02*
X179536340Y-108593409D01*
X179536340Y-108593409D02*
X179488721Y-108498171D01*
X179488721Y-108498171D02*
X179393483Y-108450552D01*
X179393483Y-108450552D02*
X179203007Y-108450552D01*
X179203007Y-108450552D02*
X179107769Y-108498171D01*
X179536340Y-109069600D02*
X179441102Y-109117219D01*
X179441102Y-109117219D02*
X179203007Y-109117219D01*
X179203007Y-109117219D02*
X179107769Y-109069600D01*
X179107769Y-109069600D02*
X179060150Y-108974361D01*
X179060150Y-108974361D02*
X179060150Y-108879123D01*
X179060150Y-108879123D02*
X179107769Y-108783885D01*
X179107769Y-108783885D02*
X179203007Y-108736266D01*
X179203007Y-108736266D02*
X179441102Y-108736266D01*
X179441102Y-108736266D02*
X179536340Y-108688647D01*
X179917293Y-108450552D02*
X180155388Y-109117219D01*
X180393483Y-108450552D02*
X180155388Y-109117219D01*
X180155388Y-109117219D02*
X180060150Y-109355314D01*
X180060150Y-109355314D02*
X180012531Y-109402933D01*
X180012531Y-109402933D02*
X179917293Y-109450552D01*
X181250626Y-109117219D02*
X180774436Y-109117219D01*
X180774436Y-109117219D02*
X180774436Y-108117219D01*
X181583960Y-109117219D02*
X181583960Y-108450552D01*
X181583960Y-108117219D02*
X181536341Y-108164838D01*
X181536341Y-108164838D02*
X181583960Y-108212457D01*
X181583960Y-108212457D02*
X181631579Y-108164838D01*
X181631579Y-108164838D02*
X181583960Y-108117219D01*
X181583960Y-108117219D02*
X181583960Y-108212457D01*
X182488721Y-108450552D02*
X182488721Y-109260076D01*
X182488721Y-109260076D02*
X182441102Y-109355314D01*
X182441102Y-109355314D02*
X182393483Y-109402933D01*
X182393483Y-109402933D02*
X182298245Y-109450552D01*
X182298245Y-109450552D02*
X182155388Y-109450552D01*
X182155388Y-109450552D02*
X182060150Y-109402933D01*
X182488721Y-109069600D02*
X182393483Y-109117219D01*
X182393483Y-109117219D02*
X182203007Y-109117219D01*
X182203007Y-109117219D02*
X182107769Y-109069600D01*
X182107769Y-109069600D02*
X182060150Y-109021980D01*
X182060150Y-109021980D02*
X182012531Y-108926742D01*
X182012531Y-108926742D02*
X182012531Y-108641028D01*
X182012531Y-108641028D02*
X182060150Y-108545790D01*
X182060150Y-108545790D02*
X182107769Y-108498171D01*
X182107769Y-108498171D02*
X182203007Y-108450552D01*
X182203007Y-108450552D02*
X182393483Y-108450552D01*
X182393483Y-108450552D02*
X182488721Y-108498171D01*
X182964912Y-109117219D02*
X182964912Y-108117219D01*
X183393483Y-109117219D02*
X183393483Y-108593409D01*
X183393483Y-108593409D02*
X183345864Y-108498171D01*
X183345864Y-108498171D02*
X183250626Y-108450552D01*
X183250626Y-108450552D02*
X183107769Y-108450552D01*
X183107769Y-108450552D02*
X183012531Y-108498171D01*
X183012531Y-108498171D02*
X182964912Y-108545790D01*
X183726817Y-108450552D02*
X184107769Y-108450552D01*
X183869674Y-108117219D02*
X183869674Y-108974361D01*
X183869674Y-108974361D02*
X183917293Y-109069600D01*
X183917293Y-109069600D02*
X184012531Y-109117219D01*
X184012531Y-109117219D02*
X184107769Y-109117219D01*
D10*
X207272712Y-114823500D02*
X207415569Y-114871119D01*
X207415569Y-114871119D02*
X207653664Y-114871119D01*
X207653664Y-114871119D02*
X207748902Y-114823500D01*
X207748902Y-114823500D02*
X207796521Y-114775880D01*
X207796521Y-114775880D02*
X207844140Y-114680642D01*
X207844140Y-114680642D02*
X207844140Y-114585404D01*
X207844140Y-114585404D02*
X207796521Y-114490166D01*
X207796521Y-114490166D02*
X207748902Y-114442547D01*
X207748902Y-114442547D02*
X207653664Y-114394928D01*
X207653664Y-114394928D02*
X207463188Y-114347309D01*
X207463188Y-114347309D02*
X207367950Y-114299690D01*
X207367950Y-114299690D02*
X207320331Y-114252071D01*
X207320331Y-114252071D02*
X207272712Y-114156833D01*
X207272712Y-114156833D02*
X207272712Y-114061595D01*
X207272712Y-114061595D02*
X207320331Y-113966357D01*
X207320331Y-113966357D02*
X207367950Y-113918738D01*
X207367950Y-113918738D02*
X207463188Y-113871119D01*
X207463188Y-113871119D02*
X207701283Y-113871119D01*
X207701283Y-113871119D02*
X207844140Y-113918738D01*
X208272712Y-114871119D02*
X208272712Y-113871119D01*
X208272712Y-113871119D02*
X208510807Y-113871119D01*
X208510807Y-113871119D02*
X208653664Y-113918738D01*
X208653664Y-113918738D02*
X208748902Y-114013976D01*
X208748902Y-114013976D02*
X208796521Y-114109214D01*
X208796521Y-114109214D02*
X208844140Y-114299690D01*
X208844140Y-114299690D02*
X208844140Y-114442547D01*
X208844140Y-114442547D02*
X208796521Y-114633023D01*
X208796521Y-114633023D02*
X208748902Y-114728261D01*
X208748902Y-114728261D02*
X208653664Y-114823500D01*
X208653664Y-114823500D02*
X208510807Y-114871119D01*
X208510807Y-114871119D02*
X208272712Y-114871119D01*
X209225093Y-114585404D02*
X209701283Y-114585404D01*
X209129855Y-114871119D02*
X209463188Y-113871119D01*
X209463188Y-113871119D02*
X209796521Y-114871119D01*
X54070331Y-105240166D02*
X54832236Y-105240166D01*
X54451283Y-105621119D02*
X54451283Y-104859214D01*
X55784616Y-104621119D02*
X55308426Y-104621119D01*
X55308426Y-104621119D02*
X55260807Y-105097309D01*
X55260807Y-105097309D02*
X55308426Y-105049690D01*
X55308426Y-105049690D02*
X55403664Y-105002071D01*
X55403664Y-105002071D02*
X55641759Y-105002071D01*
X55641759Y-105002071D02*
X55736997Y-105049690D01*
X55736997Y-105049690D02*
X55784616Y-105097309D01*
X55784616Y-105097309D02*
X55832235Y-105192547D01*
X55832235Y-105192547D02*
X55832235Y-105430642D01*
X55832235Y-105430642D02*
X55784616Y-105525880D01*
X55784616Y-105525880D02*
X55736997Y-105573500D01*
X55736997Y-105573500D02*
X55641759Y-105621119D01*
X55641759Y-105621119D02*
X55403664Y-105621119D01*
X55403664Y-105621119D02*
X55308426Y-105573500D01*
X55308426Y-105573500D02*
X55260807Y-105525880D01*
X56117950Y-104621119D02*
X56451283Y-105621119D01*
X56451283Y-105621119D02*
X56784616Y-104621119D01*
X58356045Y-105621119D02*
X57879855Y-105621119D01*
X57879855Y-105621119D02*
X57879855Y-104621119D01*
X58689379Y-105097309D02*
X59022712Y-105097309D01*
X59165569Y-105621119D02*
X58689379Y-105621119D01*
X58689379Y-105621119D02*
X58689379Y-104621119D01*
X58689379Y-104621119D02*
X59165569Y-104621119D01*
X59594141Y-105621119D02*
X59594141Y-104621119D01*
X59594141Y-104621119D02*
X59832236Y-104621119D01*
X59832236Y-104621119D02*
X59975093Y-104668738D01*
X59975093Y-104668738D02*
X60070331Y-104763976D01*
X60070331Y-104763976D02*
X60117950Y-104859214D01*
X60117950Y-104859214D02*
X60165569Y-105049690D01*
X60165569Y-105049690D02*
X60165569Y-105192547D01*
X60165569Y-105192547D02*
X60117950Y-105383023D01*
X60117950Y-105383023D02*
X60070331Y-105478261D01*
X60070331Y-105478261D02*
X59975093Y-105573500D01*
X59975093Y-105573500D02*
X59832236Y-105621119D01*
X59832236Y-105621119D02*
X59594141Y-105621119D01*
X54070331Y-107740166D02*
X54832236Y-107740166D01*
X54451283Y-108121119D02*
X54451283Y-107359214D01*
X55213188Y-107121119D02*
X55832235Y-107121119D01*
X55832235Y-107121119D02*
X55498902Y-107502071D01*
X55498902Y-107502071D02*
X55641759Y-107502071D01*
X55641759Y-107502071D02*
X55736997Y-107549690D01*
X55736997Y-107549690D02*
X55784616Y-107597309D01*
X55784616Y-107597309D02*
X55832235Y-107692547D01*
X55832235Y-107692547D02*
X55832235Y-107930642D01*
X55832235Y-107930642D02*
X55784616Y-108025880D01*
X55784616Y-108025880D02*
X55736997Y-108073500D01*
X55736997Y-108073500D02*
X55641759Y-108121119D01*
X55641759Y-108121119D02*
X55356045Y-108121119D01*
X55356045Y-108121119D02*
X55260807Y-108073500D01*
X55260807Y-108073500D02*
X55213188Y-108025880D01*
X56117950Y-107121119D02*
X56451283Y-108121119D01*
X56451283Y-108121119D02*
X56784616Y-107121119D01*
X57022712Y-107121119D02*
X57641759Y-107121119D01*
X57641759Y-107121119D02*
X57308426Y-107502071D01*
X57308426Y-107502071D02*
X57451283Y-107502071D01*
X57451283Y-107502071D02*
X57546521Y-107549690D01*
X57546521Y-107549690D02*
X57594140Y-107597309D01*
X57594140Y-107597309D02*
X57641759Y-107692547D01*
X57641759Y-107692547D02*
X57641759Y-107930642D01*
X57641759Y-107930642D02*
X57594140Y-108025880D01*
X57594140Y-108025880D02*
X57546521Y-108073500D01*
X57546521Y-108073500D02*
X57451283Y-108121119D01*
X57451283Y-108121119D02*
X57165569Y-108121119D01*
X57165569Y-108121119D02*
X57070331Y-108073500D01*
X57070331Y-108073500D02*
X57022712Y-108025880D01*
X206320331Y-107740166D02*
X207082236Y-107740166D01*
X206701283Y-108121119D02*
X206701283Y-107359214D01*
X207463188Y-107121119D02*
X208082235Y-107121119D01*
X208082235Y-107121119D02*
X207748902Y-107502071D01*
X207748902Y-107502071D02*
X207891759Y-107502071D01*
X207891759Y-107502071D02*
X207986997Y-107549690D01*
X207986997Y-107549690D02*
X208034616Y-107597309D01*
X208034616Y-107597309D02*
X208082235Y-107692547D01*
X208082235Y-107692547D02*
X208082235Y-107930642D01*
X208082235Y-107930642D02*
X208034616Y-108025880D01*
X208034616Y-108025880D02*
X207986997Y-108073500D01*
X207986997Y-108073500D02*
X207891759Y-108121119D01*
X207891759Y-108121119D02*
X207606045Y-108121119D01*
X207606045Y-108121119D02*
X207510807Y-108073500D01*
X207510807Y-108073500D02*
X207463188Y-108025880D01*
X208367950Y-107121119D02*
X208701283Y-108121119D01*
X208701283Y-108121119D02*
X209034616Y-107121119D01*
X209272712Y-107121119D02*
X209891759Y-107121119D01*
X209891759Y-107121119D02*
X209558426Y-107502071D01*
X209558426Y-107502071D02*
X209701283Y-107502071D01*
X209701283Y-107502071D02*
X209796521Y-107549690D01*
X209796521Y-107549690D02*
X209844140Y-107597309D01*
X209844140Y-107597309D02*
X209891759Y-107692547D01*
X209891759Y-107692547D02*
X209891759Y-107930642D01*
X209891759Y-107930642D02*
X209844140Y-108025880D01*
X209844140Y-108025880D02*
X209796521Y-108073500D01*
X209796521Y-108073500D02*
X209701283Y-108121119D01*
X209701283Y-108121119D02*
X209415569Y-108121119D01*
X209415569Y-108121119D02*
X209320331Y-108073500D01*
X209320331Y-108073500D02*
X209272712Y-108025880D01*
D12*
X97761905Y-109954819D02*
X97761905Y-108954819D01*
X97761905Y-108954819D02*
X98000000Y-108954819D01*
X98000000Y-108954819D02*
X98142857Y-109002438D01*
X98142857Y-109002438D02*
X98238095Y-109097676D01*
X98238095Y-109097676D02*
X98285714Y-109192914D01*
X98285714Y-109192914D02*
X98333333Y-109383390D01*
X98333333Y-109383390D02*
X98333333Y-109526247D01*
X98333333Y-109526247D02*
X98285714Y-109716723D01*
X98285714Y-109716723D02*
X98238095Y-109811961D01*
X98238095Y-109811961D02*
X98142857Y-109907200D01*
X98142857Y-109907200D02*
X98000000Y-109954819D01*
X98000000Y-109954819D02*
X97761905Y-109954819D01*
X99190476Y-109288152D02*
X99190476Y-109954819D01*
X98952381Y-108907200D02*
X98714286Y-109621485D01*
X98714286Y-109621485D02*
X99333333Y-109621485D01*
X111761905Y-114954819D02*
X111761905Y-113954819D01*
X111761905Y-113954819D02*
X112000000Y-113954819D01*
X112000000Y-113954819D02*
X112142857Y-114002438D01*
X112142857Y-114002438D02*
X112238095Y-114097676D01*
X112238095Y-114097676D02*
X112285714Y-114192914D01*
X112285714Y-114192914D02*
X112333333Y-114383390D01*
X112333333Y-114383390D02*
X112333333Y-114526247D01*
X112333333Y-114526247D02*
X112285714Y-114716723D01*
X112285714Y-114716723D02*
X112238095Y-114811961D01*
X112238095Y-114811961D02*
X112142857Y-114907200D01*
X112142857Y-114907200D02*
X112000000Y-114954819D01*
X112000000Y-114954819D02*
X111761905Y-114954819D01*
X113238095Y-113954819D02*
X112761905Y-113954819D01*
X112761905Y-113954819D02*
X112714286Y-114431009D01*
X112714286Y-114431009D02*
X112761905Y-114383390D01*
X112761905Y-114383390D02*
X112857143Y-114335771D01*
X112857143Y-114335771D02*
X113095238Y-114335771D01*
X113095238Y-114335771D02*
X113190476Y-114383390D01*
X113190476Y-114383390D02*
X113238095Y-114431009D01*
X113238095Y-114431009D02*
X113285714Y-114526247D01*
X113285714Y-114526247D02*
X113285714Y-114764342D01*
X113285714Y-114764342D02*
X113238095Y-114859580D01*
X113238095Y-114859580D02*
X113190476Y-114907200D01*
X113190476Y-114907200D02*
X113095238Y-114954819D01*
X113095238Y-114954819D02*
X112857143Y-114954819D01*
X112857143Y-114954819D02*
X112761905Y-114907200D01*
X112761905Y-114907200D02*
X112714286Y-114859580D01*
X126833333Y-104359580D02*
X126785714Y-104407200D01*
X126785714Y-104407200D02*
X126642857Y-104454819D01*
X126642857Y-104454819D02*
X126547619Y-104454819D01*
X126547619Y-104454819D02*
X126404762Y-104407200D01*
X126404762Y-104407200D02*
X126309524Y-104311961D01*
X126309524Y-104311961D02*
X126261905Y-104216723D01*
X126261905Y-104216723D02*
X126214286Y-104026247D01*
X126214286Y-104026247D02*
X126214286Y-103883390D01*
X126214286Y-103883390D02*
X126261905Y-103692914D01*
X126261905Y-103692914D02*
X126309524Y-103597676D01*
X126309524Y-103597676D02*
X126404762Y-103502438D01*
X126404762Y-103502438D02*
X126547619Y-103454819D01*
X126547619Y-103454819D02*
X126642857Y-103454819D01*
X126642857Y-103454819D02*
X126785714Y-103502438D01*
X126785714Y-103502438D02*
X126833333Y-103550057D01*
X127214286Y-103550057D02*
X127261905Y-103502438D01*
X127261905Y-103502438D02*
X127357143Y-103454819D01*
X127357143Y-103454819D02*
X127595238Y-103454819D01*
X127595238Y-103454819D02*
X127690476Y-103502438D01*
X127690476Y-103502438D02*
X127738095Y-103550057D01*
X127738095Y-103550057D02*
X127785714Y-103645295D01*
X127785714Y-103645295D02*
X127785714Y-103740533D01*
X127785714Y-103740533D02*
X127738095Y-103883390D01*
X127738095Y-103883390D02*
X127166667Y-104454819D01*
X127166667Y-104454819D02*
X127785714Y-104454819D01*
X193285714Y-109954819D02*
X193285714Y-108954819D01*
X193285714Y-108954819D02*
X193523809Y-108954819D01*
X193523809Y-108954819D02*
X193666666Y-109002438D01*
X193666666Y-109002438D02*
X193761904Y-109097676D01*
X193761904Y-109097676D02*
X193809523Y-109192914D01*
X193809523Y-109192914D02*
X193857142Y-109383390D01*
X193857142Y-109383390D02*
X193857142Y-109526247D01*
X193857142Y-109526247D02*
X193809523Y-109716723D01*
X193809523Y-109716723D02*
X193761904Y-109811961D01*
X193761904Y-109811961D02*
X193666666Y-109907200D01*
X193666666Y-109907200D02*
X193523809Y-109954819D01*
X193523809Y-109954819D02*
X193285714Y-109954819D01*
X194809523Y-109954819D02*
X194238095Y-109954819D01*
X194523809Y-109954819D02*
X194523809Y-108954819D01*
X194523809Y-108954819D02*
X194428571Y-109097676D01*
X194428571Y-109097676D02*
X194333333Y-109192914D01*
X194333333Y-109192914D02*
X194238095Y-109240533D01*
X195761904Y-109954819D02*
X195190476Y-109954819D01*
X195476190Y-109954819D02*
X195476190Y-108954819D01*
X195476190Y-108954819D02*
X195380952Y-109097676D01*
X195380952Y-109097676D02*
X195285714Y-109192914D01*
X195285714Y-109192914D02*
X195190476Y-109240533D01*
X62583333Y-110204819D02*
X62250000Y-109728628D01*
X62011905Y-110204819D02*
X62011905Y-109204819D01*
X62011905Y-109204819D02*
X62392857Y-109204819D01*
X62392857Y-109204819D02*
X62488095Y-109252438D01*
X62488095Y-109252438D02*
X62535714Y-109300057D01*
X62535714Y-109300057D02*
X62583333Y-109395295D01*
X62583333Y-109395295D02*
X62583333Y-109538152D01*
X62583333Y-109538152D02*
X62535714Y-109633390D01*
X62535714Y-109633390D02*
X62488095Y-109681009D01*
X62488095Y-109681009D02*
X62392857Y-109728628D01*
X62392857Y-109728628D02*
X62011905Y-109728628D01*
X63535714Y-110204819D02*
X62964286Y-110204819D01*
X63250000Y-110204819D02*
X63250000Y-109204819D01*
X63250000Y-109204819D02*
X63154762Y-109347676D01*
X63154762Y-109347676D02*
X63059524Y-109442914D01*
X63059524Y-109442914D02*
X62964286Y-109490533D01*
X153261905Y-114954819D02*
X153261905Y-113954819D01*
X153261905Y-113954819D02*
X153500000Y-113954819D01*
X153500000Y-113954819D02*
X153642857Y-114002438D01*
X153642857Y-114002438D02*
X153738095Y-114097676D01*
X153738095Y-114097676D02*
X153785714Y-114192914D01*
X153785714Y-114192914D02*
X153833333Y-114383390D01*
X153833333Y-114383390D02*
X153833333Y-114526247D01*
X153833333Y-114526247D02*
X153785714Y-114716723D01*
X153785714Y-114716723D02*
X153738095Y-114811961D01*
X153738095Y-114811961D02*
X153642857Y-114907200D01*
X153642857Y-114907200D02*
X153500000Y-114954819D01*
X153500000Y-114954819D02*
X153261905Y-114954819D01*
X154404762Y-114383390D02*
X154309524Y-114335771D01*
X154309524Y-114335771D02*
X154261905Y-114288152D01*
X154261905Y-114288152D02*
X154214286Y-114192914D01*
X154214286Y-114192914D02*
X154214286Y-114145295D01*
X154214286Y-114145295D02*
X154261905Y-114050057D01*
X154261905Y-114050057D02*
X154309524Y-114002438D01*
X154309524Y-114002438D02*
X154404762Y-113954819D01*
X154404762Y-113954819D02*
X154595238Y-113954819D01*
X154595238Y-113954819D02*
X154690476Y-114002438D01*
X154690476Y-114002438D02*
X154738095Y-114050057D01*
X154738095Y-114050057D02*
X154785714Y-114145295D01*
X154785714Y-114145295D02*
X154785714Y-114192914D01*
X154785714Y-114192914D02*
X154738095Y-114288152D01*
X154738095Y-114288152D02*
X154690476Y-114335771D01*
X154690476Y-114335771D02*
X154595238Y-114383390D01*
X154595238Y-114383390D02*
X154404762Y-114383390D01*
X154404762Y-114383390D02*
X154309524Y-114431009D01*
X154309524Y-114431009D02*
X154261905Y-114478628D01*
X154261905Y-114478628D02*
X154214286Y-114573866D01*
X154214286Y-114573866D02*
X154214286Y-114764342D01*
X154214286Y-114764342D02*
X154261905Y-114859580D01*
X154261905Y-114859580D02*
X154309524Y-114907200D01*
X154309524Y-114907200D02*
X154404762Y-114954819D01*
X154404762Y-114954819D02*
X154595238Y-114954819D01*
X154595238Y-114954819D02*
X154690476Y-114907200D01*
X154690476Y-114907200D02*
X154738095Y-114859580D01*
X154738095Y-114859580D02*
X154785714Y-114764342D01*
X154785714Y-114764342D02*
X154785714Y-114573866D01*
X154785714Y-114573866D02*
X154738095Y-114478628D01*
X154738095Y-114478628D02*
X154690476Y-114431009D01*
X154690476Y-114431009D02*
X154595238Y-114383390D01*
X139761905Y-109954819D02*
X139761905Y-108954819D01*
X139761905Y-108954819D02*
X140000000Y-108954819D01*
X140000000Y-108954819D02*
X140142857Y-109002438D01*
X140142857Y-109002438D02*
X140238095Y-109097676D01*
X140238095Y-109097676D02*
X140285714Y-109192914D01*
X140285714Y-109192914D02*
X140333333Y-109383390D01*
X140333333Y-109383390D02*
X140333333Y-109526247D01*
X140333333Y-109526247D02*
X140285714Y-109716723D01*
X140285714Y-109716723D02*
X140238095Y-109811961D01*
X140238095Y-109811961D02*
X140142857Y-109907200D01*
X140142857Y-109907200D02*
X140000000Y-109954819D01*
X140000000Y-109954819D02*
X139761905Y-109954819D01*
X140666667Y-108954819D02*
X141333333Y-108954819D01*
X141333333Y-108954819D02*
X140904762Y-109954819D01*
X201285714Y-118704819D02*
X201285714Y-117704819D01*
X201285714Y-117704819D02*
X201523809Y-117704819D01*
X201523809Y-117704819D02*
X201666666Y-117752438D01*
X201666666Y-117752438D02*
X201761904Y-117847676D01*
X201761904Y-117847676D02*
X201809523Y-117942914D01*
X201809523Y-117942914D02*
X201857142Y-118133390D01*
X201857142Y-118133390D02*
X201857142Y-118276247D01*
X201857142Y-118276247D02*
X201809523Y-118466723D01*
X201809523Y-118466723D02*
X201761904Y-118561961D01*
X201761904Y-118561961D02*
X201666666Y-118657200D01*
X201666666Y-118657200D02*
X201523809Y-118704819D01*
X201523809Y-118704819D02*
X201285714Y-118704819D01*
X202809523Y-118704819D02*
X202238095Y-118704819D01*
X202523809Y-118704819D02*
X202523809Y-117704819D01*
X202523809Y-117704819D02*
X202428571Y-117847676D01*
X202428571Y-117847676D02*
X202333333Y-117942914D01*
X202333333Y-117942914D02*
X202238095Y-117990533D01*
X203190476Y-117800057D02*
X203238095Y-117752438D01*
X203238095Y-117752438D02*
X203333333Y-117704819D01*
X203333333Y-117704819D02*
X203571428Y-117704819D01*
X203571428Y-117704819D02*
X203666666Y-117752438D01*
X203666666Y-117752438D02*
X203714285Y-117800057D01*
X203714285Y-117800057D02*
X203761904Y-117895295D01*
X203761904Y-117895295D02*
X203761904Y-117990533D01*
X203761904Y-117990533D02*
X203714285Y-118133390D01*
X203714285Y-118133390D02*
X203142857Y-118704819D01*
X203142857Y-118704819D02*
X203761904Y-118704819D01*
X104833333Y-105954819D02*
X104500000Y-105478628D01*
X104261905Y-105954819D02*
X104261905Y-104954819D01*
X104261905Y-104954819D02*
X104642857Y-104954819D01*
X104642857Y-104954819D02*
X104738095Y-105002438D01*
X104738095Y-105002438D02*
X104785714Y-105050057D01*
X104785714Y-105050057D02*
X104833333Y-105145295D01*
X104833333Y-105145295D02*
X104833333Y-105288152D01*
X104833333Y-105288152D02*
X104785714Y-105383390D01*
X104785714Y-105383390D02*
X104738095Y-105431009D01*
X104738095Y-105431009D02*
X104642857Y-105478628D01*
X104642857Y-105478628D02*
X104261905Y-105478628D01*
X105166667Y-104954819D02*
X105785714Y-104954819D01*
X105785714Y-104954819D02*
X105452381Y-105335771D01*
X105452381Y-105335771D02*
X105595238Y-105335771D01*
X105595238Y-105335771D02*
X105690476Y-105383390D01*
X105690476Y-105383390D02*
X105738095Y-105431009D01*
X105738095Y-105431009D02*
X105785714Y-105526247D01*
X105785714Y-105526247D02*
X105785714Y-105764342D01*
X105785714Y-105764342D02*
X105738095Y-105859580D01*
X105738095Y-105859580D02*
X105690476Y-105907200D01*
X105690476Y-105907200D02*
X105595238Y-105954819D01*
X105595238Y-105954819D02*
X105309524Y-105954819D01*
X105309524Y-105954819D02*
X105214286Y-105907200D01*
X105214286Y-105907200D02*
X105166667Y-105859580D01*
X60511905Y-118954819D02*
X60511905Y-117954819D01*
X60511905Y-117954819D02*
X60750000Y-117954819D01*
X60750000Y-117954819D02*
X60892857Y-118002438D01*
X60892857Y-118002438D02*
X60988095Y-118097676D01*
X60988095Y-118097676D02*
X61035714Y-118192914D01*
X61035714Y-118192914D02*
X61083333Y-118383390D01*
X61083333Y-118383390D02*
X61083333Y-118526247D01*
X61083333Y-118526247D02*
X61035714Y-118716723D01*
X61035714Y-118716723D02*
X60988095Y-118811961D01*
X60988095Y-118811961D02*
X60892857Y-118907200D01*
X60892857Y-118907200D02*
X60750000Y-118954819D01*
X60750000Y-118954819D02*
X60511905Y-118954819D01*
X62035714Y-118954819D02*
X61464286Y-118954819D01*
X61750000Y-118954819D02*
X61750000Y-117954819D01*
X61750000Y-117954819D02*
X61654762Y-118097676D01*
X61654762Y-118097676D02*
X61559524Y-118192914D01*
X61559524Y-118192914D02*
X61464286Y-118240533D01*
X111083333Y-105859580D02*
X111035714Y-105907200D01*
X111035714Y-105907200D02*
X110892857Y-105954819D01*
X110892857Y-105954819D02*
X110797619Y-105954819D01*
X110797619Y-105954819D02*
X110654762Y-105907200D01*
X110654762Y-105907200D02*
X110559524Y-105811961D01*
X110559524Y-105811961D02*
X110511905Y-105716723D01*
X110511905Y-105716723D02*
X110464286Y-105526247D01*
X110464286Y-105526247D02*
X110464286Y-105383390D01*
X110464286Y-105383390D02*
X110511905Y-105192914D01*
X110511905Y-105192914D02*
X110559524Y-105097676D01*
X110559524Y-105097676D02*
X110654762Y-105002438D01*
X110654762Y-105002438D02*
X110797619Y-104954819D01*
X110797619Y-104954819D02*
X110892857Y-104954819D01*
X110892857Y-104954819D02*
X111035714Y-105002438D01*
X111035714Y-105002438D02*
X111083333Y-105050057D01*
X112035714Y-105954819D02*
X111464286Y-105954819D01*
X111750000Y-105954819D02*
X111750000Y-104954819D01*
X111750000Y-104954819D02*
X111654762Y-105097676D01*
X111654762Y-105097676D02*
X111559524Y-105192914D01*
X111559524Y-105192914D02*
X111464286Y-105240533D01*
X119138095Y-104587319D02*
X119138095Y-105396842D01*
X119138095Y-105396842D02*
X119185714Y-105492080D01*
X119185714Y-105492080D02*
X119233333Y-105539700D01*
X119233333Y-105539700D02*
X119328571Y-105587319D01*
X119328571Y-105587319D02*
X119519047Y-105587319D01*
X119519047Y-105587319D02*
X119614285Y-105539700D01*
X119614285Y-105539700D02*
X119661904Y-105492080D01*
X119661904Y-105492080D02*
X119709523Y-105396842D01*
X119709523Y-105396842D02*
X119709523Y-104587319D01*
X120709523Y-105587319D02*
X120138095Y-105587319D01*
X120423809Y-105587319D02*
X120423809Y-104587319D01*
X120423809Y-104587319D02*
X120328571Y-104730176D01*
X120328571Y-104730176D02*
X120233333Y-104825414D01*
X120233333Y-104825414D02*
X120138095Y-104873033D01*
X69761905Y-109954819D02*
X69761905Y-108954819D01*
X69761905Y-108954819D02*
X70000000Y-108954819D01*
X70000000Y-108954819D02*
X70142857Y-109002438D01*
X70142857Y-109002438D02*
X70238095Y-109097676D01*
X70238095Y-109097676D02*
X70285714Y-109192914D01*
X70285714Y-109192914D02*
X70333333Y-109383390D01*
X70333333Y-109383390D02*
X70333333Y-109526247D01*
X70333333Y-109526247D02*
X70285714Y-109716723D01*
X70285714Y-109716723D02*
X70238095Y-109811961D01*
X70238095Y-109811961D02*
X70142857Y-109907200D01*
X70142857Y-109907200D02*
X70000000Y-109954819D01*
X70000000Y-109954819D02*
X69761905Y-109954819D01*
X70714286Y-109050057D02*
X70761905Y-109002438D01*
X70761905Y-109002438D02*
X70857143Y-108954819D01*
X70857143Y-108954819D02*
X71095238Y-108954819D01*
X71095238Y-108954819D02*
X71190476Y-109002438D01*
X71190476Y-109002438D02*
X71238095Y-109050057D01*
X71238095Y-109050057D02*
X71285714Y-109145295D01*
X71285714Y-109145295D02*
X71285714Y-109240533D01*
X71285714Y-109240533D02*
X71238095Y-109383390D01*
X71238095Y-109383390D02*
X70666667Y-109954819D01*
X70666667Y-109954819D02*
X71285714Y-109954819D01*
X179785714Y-114954819D02*
X179785714Y-113954819D01*
X179785714Y-113954819D02*
X180023809Y-113954819D01*
X180023809Y-113954819D02*
X180166666Y-114002438D01*
X180166666Y-114002438D02*
X180261904Y-114097676D01*
X180261904Y-114097676D02*
X180309523Y-114192914D01*
X180309523Y-114192914D02*
X180357142Y-114383390D01*
X180357142Y-114383390D02*
X180357142Y-114526247D01*
X180357142Y-114526247D02*
X180309523Y-114716723D01*
X180309523Y-114716723D02*
X180261904Y-114811961D01*
X180261904Y-114811961D02*
X180166666Y-114907200D01*
X180166666Y-114907200D02*
X180023809Y-114954819D01*
X180023809Y-114954819D02*
X179785714Y-114954819D01*
X181309523Y-114954819D02*
X180738095Y-114954819D01*
X181023809Y-114954819D02*
X181023809Y-113954819D01*
X181023809Y-113954819D02*
X180928571Y-114097676D01*
X180928571Y-114097676D02*
X180833333Y-114192914D01*
X180833333Y-114192914D02*
X180738095Y-114240533D01*
X181928571Y-113954819D02*
X182023809Y-113954819D01*
X182023809Y-113954819D02*
X182119047Y-114002438D01*
X182119047Y-114002438D02*
X182166666Y-114050057D01*
X182166666Y-114050057D02*
X182214285Y-114145295D01*
X182214285Y-114145295D02*
X182261904Y-114335771D01*
X182261904Y-114335771D02*
X182261904Y-114573866D01*
X182261904Y-114573866D02*
X182214285Y-114764342D01*
X182214285Y-114764342D02*
X182166666Y-114859580D01*
X182166666Y-114859580D02*
X182119047Y-114907200D01*
X182119047Y-114907200D02*
X182023809Y-114954819D01*
X182023809Y-114954819D02*
X181928571Y-114954819D01*
X181928571Y-114954819D02*
X181833333Y-114907200D01*
X181833333Y-114907200D02*
X181785714Y-114859580D01*
X181785714Y-114859580D02*
X181738095Y-114764342D01*
X181738095Y-114764342D02*
X181690476Y-114573866D01*
X181690476Y-114573866D02*
X181690476Y-114335771D01*
X181690476Y-114335771D02*
X181738095Y-114145295D01*
X181738095Y-114145295D02*
X181785714Y-114050057D01*
X181785714Y-114050057D02*
X181833333Y-114002438D01*
X181833333Y-114002438D02*
X181928571Y-113954819D01*
X84261905Y-114954819D02*
X84261905Y-113954819D01*
X84261905Y-113954819D02*
X84500000Y-113954819D01*
X84500000Y-113954819D02*
X84642857Y-114002438D01*
X84642857Y-114002438D02*
X84738095Y-114097676D01*
X84738095Y-114097676D02*
X84785714Y-114192914D01*
X84785714Y-114192914D02*
X84833333Y-114383390D01*
X84833333Y-114383390D02*
X84833333Y-114526247D01*
X84833333Y-114526247D02*
X84785714Y-114716723D01*
X84785714Y-114716723D02*
X84738095Y-114811961D01*
X84738095Y-114811961D02*
X84642857Y-114907200D01*
X84642857Y-114907200D02*
X84500000Y-114954819D01*
X84500000Y-114954819D02*
X84261905Y-114954819D01*
X85166667Y-113954819D02*
X85785714Y-113954819D01*
X85785714Y-113954819D02*
X85452381Y-114335771D01*
X85452381Y-114335771D02*
X85595238Y-114335771D01*
X85595238Y-114335771D02*
X85690476Y-114383390D01*
X85690476Y-114383390D02*
X85738095Y-114431009D01*
X85738095Y-114431009D02*
X85785714Y-114526247D01*
X85785714Y-114526247D02*
X85785714Y-114764342D01*
X85785714Y-114764342D02*
X85738095Y-114859580D01*
X85738095Y-114859580D02*
X85690476Y-114907200D01*
X85690476Y-114907200D02*
X85595238Y-114954819D01*
X85595238Y-114954819D02*
X85309524Y-114954819D01*
X85309524Y-114954819D02*
X85214286Y-114907200D01*
X85214286Y-114907200D02*
X85166667Y-114859580D01*
X127261905Y-114954819D02*
X127261905Y-113954819D01*
X127261905Y-113954819D02*
X127500000Y-113954819D01*
X127500000Y-113954819D02*
X127642857Y-114002438D01*
X127642857Y-114002438D02*
X127738095Y-114097676D01*
X127738095Y-114097676D02*
X127785714Y-114192914D01*
X127785714Y-114192914D02*
X127833333Y-114383390D01*
X127833333Y-114383390D02*
X127833333Y-114526247D01*
X127833333Y-114526247D02*
X127785714Y-114716723D01*
X127785714Y-114716723D02*
X127738095Y-114811961D01*
X127738095Y-114811961D02*
X127642857Y-114907200D01*
X127642857Y-114907200D02*
X127500000Y-114954819D01*
X127500000Y-114954819D02*
X127261905Y-114954819D01*
X128690476Y-113954819D02*
X128500000Y-113954819D01*
X128500000Y-113954819D02*
X128404762Y-114002438D01*
X128404762Y-114002438D02*
X128357143Y-114050057D01*
X128357143Y-114050057D02*
X128261905Y-114192914D01*
X128261905Y-114192914D02*
X128214286Y-114383390D01*
X128214286Y-114383390D02*
X128214286Y-114764342D01*
X128214286Y-114764342D02*
X128261905Y-114859580D01*
X128261905Y-114859580D02*
X128309524Y-114907200D01*
X128309524Y-114907200D02*
X128404762Y-114954819D01*
X128404762Y-114954819D02*
X128595238Y-114954819D01*
X128595238Y-114954819D02*
X128690476Y-114907200D01*
X128690476Y-114907200D02*
X128738095Y-114859580D01*
X128738095Y-114859580D02*
X128785714Y-114764342D01*
X128785714Y-114764342D02*
X128785714Y-114526247D01*
X128785714Y-114526247D02*
X128738095Y-114431009D01*
X128738095Y-114431009D02*
X128690476Y-114383390D01*
X128690476Y-114383390D02*
X128595238Y-114335771D01*
X128595238Y-114335771D02*
X128404762Y-114335771D01*
X128404762Y-114335771D02*
X128309524Y-114383390D01*
X128309524Y-114383390D02*
X128261905Y-114431009D01*
X128261905Y-114431009D02*
X128214286Y-114526247D01*
X59583333Y-110204819D02*
X59250000Y-109728628D01*
X59011905Y-110204819D02*
X59011905Y-109204819D01*
X59011905Y-109204819D02*
X59392857Y-109204819D01*
X59392857Y-109204819D02*
X59488095Y-109252438D01*
X59488095Y-109252438D02*
X59535714Y-109300057D01*
X59535714Y-109300057D02*
X59583333Y-109395295D01*
X59583333Y-109395295D02*
X59583333Y-109538152D01*
X59583333Y-109538152D02*
X59535714Y-109633390D01*
X59535714Y-109633390D02*
X59488095Y-109681009D01*
X59488095Y-109681009D02*
X59392857Y-109728628D01*
X59392857Y-109728628D02*
X59011905Y-109728628D01*
X59964286Y-109300057D02*
X60011905Y-109252438D01*
X60011905Y-109252438D02*
X60107143Y-109204819D01*
X60107143Y-109204819D02*
X60345238Y-109204819D01*
X60345238Y-109204819D02*
X60440476Y-109252438D01*
X60440476Y-109252438D02*
X60488095Y-109300057D01*
X60488095Y-109300057D02*
X60535714Y-109395295D01*
X60535714Y-109395295D02*
X60535714Y-109490533D01*
X60535714Y-109490533D02*
X60488095Y-109633390D01*
X60488095Y-109633390D02*
X59916667Y-110204819D01*
X59916667Y-110204819D02*
X60535714Y-110204819D01*
X166761905Y-109954819D02*
X166761905Y-108954819D01*
X166761905Y-108954819D02*
X167000000Y-108954819D01*
X167000000Y-108954819D02*
X167142857Y-109002438D01*
X167142857Y-109002438D02*
X167238095Y-109097676D01*
X167238095Y-109097676D02*
X167285714Y-109192914D01*
X167285714Y-109192914D02*
X167333333Y-109383390D01*
X167333333Y-109383390D02*
X167333333Y-109526247D01*
X167333333Y-109526247D02*
X167285714Y-109716723D01*
X167285714Y-109716723D02*
X167238095Y-109811961D01*
X167238095Y-109811961D02*
X167142857Y-109907200D01*
X167142857Y-109907200D02*
X167000000Y-109954819D01*
X167000000Y-109954819D02*
X166761905Y-109954819D01*
X167809524Y-109954819D02*
X168000000Y-109954819D01*
X168000000Y-109954819D02*
X168095238Y-109907200D01*
X168095238Y-109907200D02*
X168142857Y-109859580D01*
X168142857Y-109859580D02*
X168238095Y-109716723D01*
X168238095Y-109716723D02*
X168285714Y-109526247D01*
X168285714Y-109526247D02*
X168285714Y-109145295D01*
X168285714Y-109145295D02*
X168238095Y-109050057D01*
X168238095Y-109050057D02*
X168190476Y-109002438D01*
X168190476Y-109002438D02*
X168095238Y-108954819D01*
X168095238Y-108954819D02*
X167904762Y-108954819D01*
X167904762Y-108954819D02*
X167809524Y-109002438D01*
X167809524Y-109002438D02*
X167761905Y-109050057D01*
X167761905Y-109050057D02*
X167714286Y-109145295D01*
X167714286Y-109145295D02*
X167714286Y-109383390D01*
X167714286Y-109383390D02*
X167761905Y-109478628D01*
X167761905Y-109478628D02*
X167809524Y-109526247D01*
X167809524Y-109526247D02*
X167904762Y-109573866D01*
X167904762Y-109573866D02*
X168095238Y-109573866D01*
X168095238Y-109573866D02*
X168190476Y-109526247D01*
X168190476Y-109526247D02*
X168238095Y-109478628D01*
X168238095Y-109478628D02*
X168285714Y-109383390D01*
D13*
%TO.C,D4*%
X95950000Y-110850000D02*
X95950000Y-113500000D01*
X95950000Y-113500000D02*
X101000000Y-113500000D01*
X96300000Y-110500000D02*
X95950000Y-110850000D01*
X96300000Y-110500000D02*
X101000000Y-110500000D01*
X101000000Y-110500000D02*
X101000000Y-113500000D01*
%TO.C,D5*%
X109950000Y-115850000D02*
X109950000Y-118500000D01*
X109950000Y-118500000D02*
X115000000Y-118500000D01*
X110300000Y-115500000D02*
X109950000Y-115850000D01*
X110300000Y-115500000D02*
X115000000Y-115500000D01*
X115000000Y-115500000D02*
X115000000Y-118500000D01*
%TO.C,JP2*%
X81500000Y-109650000D02*
X81500000Y-106850000D01*
X82200000Y-106200000D02*
X82800000Y-106200000D01*
X82800000Y-110300000D02*
X82200000Y-110300000D01*
X83500000Y-106850000D02*
X83500000Y-109650000D01*
X83700000Y-109450000D02*
X84000000Y-109150000D01*
X83700000Y-109450000D02*
X84000000Y-109750000D01*
X84000000Y-109750000D02*
X84000000Y-109150000D01*
X81500000Y-106900000D02*
G75*
G02*
X82200000Y-106200000I700000J0D01*
G01*
X82200000Y-110300000D02*
G75*
G02*
X81500000Y-109600000I-1J699999D01*
G01*
X82800000Y-106200000D02*
G75*
G02*
X83500000Y-106900000I0J-700000D01*
G01*
X83500000Y-109600000D02*
G75*
G02*
X82800000Y-110300000I-699999J-1D01*
G01*
%TO.C,C2*%
X123738748Y-103265000D02*
X124261252Y-103265000D01*
X123738748Y-104735000D02*
X124261252Y-104735000D01*
%TO.C,D11*%
X191950000Y-110850000D02*
X191950000Y-113500000D01*
X191950000Y-113500000D02*
X197000000Y-113500000D01*
X192300000Y-110500000D02*
X191950000Y-110850000D01*
X192300000Y-110500000D02*
X197000000Y-110500000D01*
X197000000Y-110500000D02*
X197000000Y-113500000D01*
%TO.C,R1*%
X62227500Y-107504724D02*
X62227500Y-106995276D01*
X63272500Y-107504724D02*
X63272500Y-106995276D01*
%TO.C,D8*%
X151450000Y-115850000D02*
X151450000Y-118500000D01*
X151450000Y-118500000D02*
X156500000Y-118500000D01*
X151800000Y-115500000D02*
X151450000Y-115850000D01*
X151800000Y-115500000D02*
X156500000Y-115500000D01*
X156500000Y-115500000D02*
X156500000Y-118500000D01*
%TO.C,D7*%
X137950000Y-110850000D02*
X137950000Y-113500000D01*
X137950000Y-113500000D02*
X143000000Y-113500000D01*
X138300000Y-110500000D02*
X137950000Y-110850000D01*
X138300000Y-110500000D02*
X143000000Y-110500000D01*
X143000000Y-110500000D02*
X143000000Y-113500000D01*
%TO.C,D12*%
X204950000Y-115850000D02*
X204950000Y-118500000D01*
X204950000Y-118500000D02*
X210000000Y-118500000D01*
X205300000Y-115500000D02*
X204950000Y-115850000D01*
X205300000Y-115500000D02*
X210000000Y-115500000D01*
X210000000Y-115500000D02*
X210000000Y-118500000D01*
%TO.C,R3*%
X108754724Y-104977500D02*
X108245276Y-104977500D01*
X108754724Y-106022500D02*
X108245276Y-106022500D01*
%TO.C,D1*%
X54950000Y-115850000D02*
X54950000Y-118500000D01*
X54950000Y-118500000D02*
X60000000Y-118500000D01*
X55300000Y-115500000D02*
X54950000Y-115850000D01*
X55300000Y-115500000D02*
X60000000Y-115500000D01*
X60000000Y-115500000D02*
X60000000Y-118500000D01*
%TO.C,C1*%
X114511252Y-104765000D02*
X113988748Y-104765000D01*
X114511252Y-106235000D02*
X113988748Y-106235000D01*
%TO.C,U1*%
X117290000Y-106352500D02*
X117740000Y-106352500D01*
X117290000Y-106702500D02*
X117290000Y-106352500D01*
X117290000Y-112572500D02*
X117290000Y-112222500D01*
X117740000Y-112572500D02*
X117290000Y-112572500D01*
X122060000Y-106352500D02*
X122510000Y-106352500D01*
X122510000Y-106352500D02*
X122510000Y-106702500D01*
X122510000Y-112222500D02*
X122510000Y-112572500D01*
X122510000Y-112572500D02*
X122060000Y-112572500D01*
X116760000Y-107052500D02*
X116430000Y-107292500D01*
X116430000Y-106812500D01*
X116760000Y-107052500D01*
G36*
X116760000Y-107052500D02*
G01*
X116430000Y-107292500D01*
X116430000Y-106812500D01*
X116760000Y-107052500D01*
G37*
%TO.C,D2*%
X67950000Y-110850000D02*
X67950000Y-113500000D01*
X67950000Y-113500000D02*
X73000000Y-113500000D01*
X68300000Y-110500000D02*
X67950000Y-110850000D01*
X68300000Y-110500000D02*
X73000000Y-110500000D01*
X73000000Y-110500000D02*
X73000000Y-113500000D01*
%TO.C,D10*%
X178450000Y-115850000D02*
X178450000Y-118500000D01*
X178450000Y-118500000D02*
X183500000Y-118500000D01*
X178800000Y-115500000D02*
X178450000Y-115850000D01*
X178800000Y-115500000D02*
X183500000Y-115500000D01*
X183500000Y-115500000D02*
X183500000Y-118500000D01*
%TO.C,D3*%
X82450000Y-115850000D02*
X82450000Y-118500000D01*
X82450000Y-118500000D02*
X87500000Y-118500000D01*
X82800000Y-115500000D02*
X82450000Y-115850000D01*
X82800000Y-115500000D02*
X87500000Y-115500000D01*
X87500000Y-115500000D02*
X87500000Y-118500000D01*
%TO.C,D6*%
X125450000Y-115850000D02*
X125450000Y-118500000D01*
X125450000Y-118500000D02*
X130500000Y-118500000D01*
X125800000Y-115500000D02*
X125450000Y-115850000D01*
X125800000Y-115500000D02*
X130500000Y-115500000D01*
X130500000Y-115500000D02*
X130500000Y-118500000D01*
%TO.C,R2*%
X59227500Y-107504724D02*
X59227500Y-106995276D01*
X60272500Y-107504724D02*
X60272500Y-106995276D01*
%TO.C,D9*%
X164950000Y-110850000D02*
X164950000Y-113500000D01*
X164950000Y-113500000D02*
X170000000Y-113500000D01*
X165300000Y-110500000D02*
X164950000Y-110850000D01*
X165300000Y-110500000D02*
X170000000Y-110500000D01*
X170000000Y-110500000D02*
X170000000Y-113500000D01*
%TO.C,JP1*%
X76750000Y-109650000D02*
X76750000Y-106850000D01*
X77450000Y-106200000D02*
X78050000Y-106200000D01*
X78050000Y-110300000D02*
X77450000Y-110300000D01*
X78750000Y-106850000D02*
X78750000Y-109650000D01*
X78950000Y-109450000D02*
X79250000Y-109150000D01*
X78950000Y-109450000D02*
X79250000Y-109750000D01*
X79250000Y-109750000D02*
X79250000Y-109150000D01*
X76750000Y-106900000D02*
G75*
G02*
X77450000Y-106200000I700000J0D01*
G01*
X77450000Y-110300000D02*
G75*
G02*
X76750000Y-109600000I-1J699999D01*
G01*
X78050000Y-106200000D02*
G75*
G02*
X78750000Y-106900000I0J-700000D01*
G01*
X78750000Y-109600000D02*
G75*
G02*
X78050000Y-110300000I-699999J-1D01*
G01*
%TD*%
M02*
