%TF.GenerationSoftware,KiCad,Pcbnew,9.0.7*%
%TF.CreationDate,2026-04-25T13:14:42+02:00*%
%TF.ProjectId,playLight_rev_A,706c6179-4c69-4676-9874-5f7265765f41,rev?*%
%TF.SameCoordinates,Original*%
%TF.FileFunction,Soldermask,Top*%
%TF.FilePolarity,Negative*%
%FSLAX46Y46*%
G04 Gerber Fmt 4.6, Leading zero omitted, Abs format (unit mm)*
G04 Created by KiCad (PCBNEW 9.0.7) date 2026-04-25 13:14:42*
%MOMM*%
%LPD*%
G01*
G04 APERTURE LIST*
G04 Aperture macros list*
%AMRoundRect*
0 Rectangle with rounded corners*
0 $1 Rounding radius*
0 $2 $3 $4 $5 $6 $7 $8 $9 X,Y pos of 4 corners*
0 Add a 4 corners polygon primitive as box body*
4,1,4,$2,$3,$4,$5,$6,$7,$8,$9,$2,$3,0*
0 Add four circle primitives for the rounded corners*
1,1,$1+$1,$2,$3*
1,1,$1+$1,$4,$5*
1,1,$1+$1,$6,$7*
1,1,$1+$1,$8,$9*
0 Add four rect primitives between the rounded corners*
20,1,$1+$1,$2,$3,$4,$5,0*
20,1,$1+$1,$4,$5,$6,$7,0*
20,1,$1+$1,$6,$7,$8,$9,0*
20,1,$1+$1,$8,$9,$2,$3,0*%
%AMFreePoly0*
4,1,23,0.550000,-0.750000,0.000000,-0.750000,0.000000,-0.745722,-0.065263,-0.745722,-0.191342,-0.711940,-0.304381,-0.646677,-0.396677,-0.554381,-0.461940,-0.441342,-0.495722,-0.315263,-0.495722,-0.250000,-0.500000,-0.250000,-0.500000,0.250000,-0.495722,0.250000,-0.495722,0.315263,-0.461940,0.441342,-0.396677,0.554381,-0.304381,0.646677,-0.191342,0.711940,-0.065263,0.745722,0.000000,0.745722,
0.000000,0.750000,0.550000,0.750000,0.550000,-0.750000,0.550000,-0.750000,$1*%
%AMFreePoly1*
4,1,23,0.000000,0.745722,0.065263,0.745722,0.191342,0.711940,0.304381,0.646677,0.396677,0.554381,0.461940,0.441342,0.495722,0.315263,0.495722,0.250000,0.500000,0.250000,0.500000,-0.250000,0.495722,-0.250000,0.495722,-0.315263,0.461940,-0.441342,0.396677,-0.554381,0.304381,-0.646677,0.191342,-0.711940,0.065263,-0.745722,0.000000,-0.745722,0.000000,-0.750000,-0.550000,-0.750000,
-0.550000,0.750000,0.000000,0.750000,0.000000,0.745722,0.000000,0.745722,$1*%
G04 Aperture macros list end*
%ADD10RoundRect,0.375000X1.125000X-0.375000X1.125000X0.375000X-1.125000X0.375000X-1.125000X-0.375000X0*%
%ADD11R,1.600000X0.500000*%
%ADD12FreePoly0,90.000000*%
%ADD13R,1.500000X1.000000*%
%ADD14FreePoly1,90.000000*%
%ADD15RoundRect,0.375000X-1.125000X0.375000X-1.125000X-0.375000X1.125000X-0.375000X1.125000X0.375000X0*%
%ADD16RoundRect,0.250000X-0.337500X-0.475000X0.337500X-0.475000X0.337500X0.475000X-0.337500X0.475000X0*%
%ADD17RoundRect,0.237500X0.237500X-0.250000X0.237500X0.250000X-0.237500X0.250000X-0.237500X-0.250000X0*%
%ADD18RoundRect,0.237500X0.250000X0.237500X-0.250000X0.237500X-0.250000X-0.237500X0.250000X-0.237500X0*%
%ADD19RoundRect,0.250000X0.337500X0.475000X-0.337500X0.475000X-0.337500X-0.475000X0.337500X-0.475000X0*%
%ADD20RoundRect,0.050000X-0.362500X-0.050000X0.362500X-0.050000X0.362500X0.050000X-0.362500X0.050000X0*%
%ADD21RoundRect,0.050000X-0.050000X-0.362500X0.050000X-0.362500X0.050000X0.362500X-0.050000X0.362500X0*%
%ADD22R,2.800000X3.800000*%
G04 APERTURE END LIST*
%TO.C,JP2*%
G36*
X81750000Y-109000000D02*
G01*
X83250000Y-109000000D01*
X83250000Y-107500000D01*
X81750000Y-107500000D01*
X81750000Y-109000000D01*
G37*
%TO.C,JP1*%
G36*
X77000000Y-109000000D02*
G01*
X78500000Y-109000000D01*
X78500000Y-107500000D01*
X77000000Y-107500000D01*
X77000000Y-109000000D01*
G37*
%TD*%
D10*
%TO.C,J9*%
X212000000Y-110500000D03*
%TD*%
D11*
%TO.C,D4*%
X97025000Y-111100000D03*
X97025000Y-112000000D03*
X97025000Y-112900000D03*
X99975000Y-112900000D03*
X99975000Y-112000000D03*
X99975000Y-111100000D03*
%TD*%
%TO.C,D5*%
X111025000Y-116100000D03*
X111025000Y-117000000D03*
X111025000Y-117900000D03*
X113975000Y-117900000D03*
X113975000Y-117000000D03*
X113975000Y-116100000D03*
%TD*%
D12*
%TO.C,JP2*%
X82500000Y-109550000D03*
D13*
X82500000Y-108250000D03*
D14*
X82500000Y-106950000D03*
%TD*%
D15*
%TO.C,J3*%
X52000000Y-108000000D03*
%TD*%
D16*
%TO.C,C2*%
X122962500Y-104000000D03*
X125037500Y-104000000D03*
%TD*%
D11*
%TO.C,D11*%
X193025000Y-111100000D03*
X193025000Y-112000000D03*
X193025000Y-112900000D03*
X195975000Y-112900000D03*
X195975000Y-112000000D03*
X195975000Y-111100000D03*
%TD*%
D17*
%TO.C,R1*%
X62750000Y-108162500D03*
X62750000Y-106337500D03*
%TD*%
D11*
%TO.C,D8*%
X152525000Y-116100000D03*
X152525000Y-117000000D03*
X152525000Y-117900000D03*
X155475000Y-117900000D03*
X155475000Y-117000000D03*
X155475000Y-116100000D03*
%TD*%
%TO.C,D7*%
X139025000Y-111100000D03*
X139025000Y-112000000D03*
X139025000Y-112900000D03*
X141975000Y-112900000D03*
X141975000Y-112000000D03*
X141975000Y-111100000D03*
%TD*%
D10*
%TO.C,J10*%
X212000000Y-113000000D03*
%TD*%
D11*
%TO.C,D12*%
X206025000Y-116100000D03*
X206025000Y-117000000D03*
X206025000Y-117900000D03*
X208975000Y-117900000D03*
X208975000Y-117000000D03*
X208975000Y-116100000D03*
%TD*%
D18*
%TO.C,R3*%
X109412500Y-105500000D03*
X107587500Y-105500000D03*
%TD*%
D11*
%TO.C,D1*%
X56025000Y-116100000D03*
X56025000Y-117000000D03*
X56025000Y-117900000D03*
X58975000Y-117900000D03*
X58975000Y-117000000D03*
X58975000Y-116100000D03*
%TD*%
D19*
%TO.C,C1*%
X115287500Y-105500000D03*
X113212500Y-105500000D03*
%TD*%
D15*
%TO.C,J2*%
X52000000Y-105500000D03*
%TD*%
D10*
%TO.C,J7*%
X212000000Y-105500000D03*
%TD*%
D20*
%TO.C,U1*%
X117437500Y-107062500D03*
X117437500Y-107462500D03*
X117437500Y-107862500D03*
X117437500Y-108262500D03*
X117437500Y-108662500D03*
X117437500Y-109062500D03*
X117437500Y-109462500D03*
X117437500Y-109862500D03*
X117437500Y-110262500D03*
X117437500Y-110662500D03*
X117437500Y-111062500D03*
X117437500Y-111462500D03*
X117437500Y-111862500D03*
D21*
X118100000Y-112425000D03*
X118500000Y-112425000D03*
X118900000Y-112425000D03*
X119300000Y-112425000D03*
X119700000Y-112425000D03*
X120100000Y-112425000D03*
X120500000Y-112425000D03*
X120900000Y-112425000D03*
X121300000Y-112425000D03*
X121700000Y-112425000D03*
D20*
X122362500Y-111862500D03*
X122362500Y-111462500D03*
X122362500Y-111062500D03*
X122362500Y-110662500D03*
X122362500Y-110262500D03*
X122362500Y-109862500D03*
X122362500Y-109462500D03*
X122362500Y-109062500D03*
X122362500Y-108662500D03*
X122362500Y-108262500D03*
X122362500Y-107862500D03*
X122362500Y-107462500D03*
X122362500Y-107062500D03*
D21*
X121700000Y-106500000D03*
X121300000Y-106500000D03*
X120900000Y-106500000D03*
X120500000Y-106500000D03*
X120100000Y-106500000D03*
X119700000Y-106500000D03*
X119300000Y-106500000D03*
X118900000Y-106500000D03*
X118500000Y-106500000D03*
X118100000Y-106500000D03*
D22*
X119900000Y-109462500D03*
%TD*%
D15*
%TO.C,J4*%
X52000000Y-110500000D03*
%TD*%
D11*
%TO.C,D2*%
X69025000Y-111100000D03*
X69025000Y-112000000D03*
X69025000Y-112900000D03*
X71975000Y-112900000D03*
X71975000Y-112000000D03*
X71975000Y-111100000D03*
%TD*%
%TO.C,D10*%
X179525000Y-116100000D03*
X179525000Y-117000000D03*
X179525000Y-117900000D03*
X182475000Y-117900000D03*
X182475000Y-117000000D03*
X182475000Y-116100000D03*
%TD*%
%TO.C,D3*%
X83525000Y-116100000D03*
X83525000Y-117000000D03*
X83525000Y-117900000D03*
X86475000Y-117900000D03*
X86475000Y-117000000D03*
X86475000Y-116100000D03*
%TD*%
D15*
%TO.C,J5*%
X52000000Y-113000000D03*
%TD*%
D11*
%TO.C,D6*%
X126525000Y-116100000D03*
X126525000Y-117000000D03*
X126525000Y-117900000D03*
X129475000Y-117900000D03*
X129475000Y-117000000D03*
X129475000Y-116100000D03*
%TD*%
D17*
%TO.C,R2*%
X59750000Y-108162500D03*
X59750000Y-106337500D03*
%TD*%
D11*
%TO.C,D9*%
X166025000Y-111100000D03*
X166025000Y-112000000D03*
X166025000Y-112900000D03*
X168975000Y-112900000D03*
X168975000Y-112000000D03*
X168975000Y-111100000D03*
%TD*%
D12*
%TO.C,JP1*%
X77750000Y-109550000D03*
D13*
X77750000Y-108250000D03*
D14*
X77750000Y-106950000D03*
%TD*%
D10*
%TO.C,J6*%
X212000000Y-103000000D03*
%TD*%
%TO.C,J8*%
X212000000Y-108000000D03*
%TD*%
D15*
%TO.C,J1*%
X52000000Y-103000000D03*
%TD*%
M02*
