%TF.GenerationSoftware,KiCad,Pcbnew,9.0.7*%
%TF.CreationDate,2026-04-25T14:13:09+02:00*%
%TF.ProjectId,playLight_rev_A,706c6179-4c69-4676-9874-5f7265765f41,rev?*%
%TF.SameCoordinates,Original*%
%TF.FileFunction,Copper,L1,Top*%
%TF.FilePolarity,Positive*%
%FSLAX46Y46*%
G04 Gerber Fmt 4.6, Leading zero omitted, Abs format (unit mm)*
G04 Created by KiCad (PCBNEW 9.0.7) date 2026-04-25 14:13:09*
%MOMM*%
%LPD*%
G01*
G04 APERTURE LIST*
G04 Aperture macros list*
%AMRoundRect*
0 Rectangle with rounded corners*
0 $1 Rounding radius*
0 $2 $3 $4 $5 $6 $7 $8 $9 X,Y pos of 4 corners*
0 Add a 4 corners polygon primitive as box body*
4,1,4,$2,$3,$4,$5,$6,$7,$8,$9,$2,$3,0*
0 Add four circle primitives for the rounded corners*
1,1,$1+$1,$2,$3*
1,1,$1+$1,$4,$5*
1,1,$1+$1,$6,$7*
1,1,$1+$1,$8,$9*
0 Add four rect primitives between the rounded corners*
20,1,$1+$1,$2,$3,$4,$5,0*
20,1,$1+$1,$4,$5,$6,$7,0*
20,1,$1+$1,$6,$7,$8,$9,0*
20,1,$1+$1,$8,$9,$2,$3,0*%
%AMFreePoly0*
4,1,23,0.550000,-0.750000,0.000000,-0.750000,0.000000,-0.745722,-0.065263,-0.745722,-0.191342,-0.711940,-0.304381,-0.646677,-0.396677,-0.554381,-0.461940,-0.441342,-0.495722,-0.315263,-0.495722,-0.250000,-0.500000,-0.250000,-0.500000,0.250000,-0.495722,0.250000,-0.495722,0.315263,-0.461940,0.441342,-0.396677,0.554381,-0.304381,0.646677,-0.191342,0.711940,-0.065263,0.745722,0.000000,0.745722,
0.000000,0.750000,0.550000,0.750000,0.550000,-0.750000,0.550000,-0.750000,$1*%
%AMFreePoly1*
4,1,23,0.000000,0.745722,0.065263,0.745722,0.191342,0.711940,0.304381,0.646677,0.396677,0.554381,0.461940,0.441342,0.495722,0.315263,0.495722,0.250000,0.500000,0.250000,0.500000,-0.250000,0.495722,-0.250000,0.495722,-0.315263,0.461940,-0.441342,0.396677,-0.554381,0.304381,-0.646677,0.191342,-0.711940,0.065263,-0.745722,0.000000,-0.745722,0.000000,-0.750000,-0.550000,-0.750000,
-0.550000,0.750000,0.000000,0.750000,0.000000,0.745722,0.000000,0.745722,$1*%
G04 Aperture macros list end*
%TA.AperFunction,SMDPad,CuDef*%
%ADD10RoundRect,0.375000X1.125000X-0.375000X1.125000X0.375000X-1.125000X0.375000X-1.125000X-0.375000X0*%
%TD*%
%TA.AperFunction,SMDPad,CuDef*%
%ADD11R,1.600000X0.500000*%
%TD*%
%TA.AperFunction,SMDPad,CuDef*%
%ADD12FreePoly0,90.000000*%
%TD*%
%TA.AperFunction,SMDPad,CuDef*%
%ADD13R,1.500000X1.000000*%
%TD*%
%TA.AperFunction,SMDPad,CuDef*%
%ADD14FreePoly1,90.000000*%
%TD*%
%TA.AperFunction,SMDPad,CuDef*%
%ADD15RoundRect,0.375000X-1.125000X0.375000X-1.125000X-0.375000X1.125000X-0.375000X1.125000X0.375000X0*%
%TD*%
%TA.AperFunction,SMDPad,CuDef*%
%ADD16RoundRect,0.250000X-0.337500X-0.475000X0.337500X-0.475000X0.337500X0.475000X-0.337500X0.475000X0*%
%TD*%
%TA.AperFunction,SMDPad,CuDef*%
%ADD17RoundRect,0.237500X0.237500X-0.250000X0.237500X0.250000X-0.237500X0.250000X-0.237500X-0.250000X0*%
%TD*%
%TA.AperFunction,SMDPad,CuDef*%
%ADD18RoundRect,0.237500X0.250000X0.237500X-0.250000X0.237500X-0.250000X-0.237500X0.250000X-0.237500X0*%
%TD*%
%TA.AperFunction,SMDPad,CuDef*%
%ADD19RoundRect,0.250000X0.337500X0.475000X-0.337500X0.475000X-0.337500X-0.475000X0.337500X-0.475000X0*%
%TD*%
%TA.AperFunction,SMDPad,CuDef*%
%ADD20RoundRect,0.050000X-0.362500X-0.050000X0.362500X-0.050000X0.362500X0.050000X-0.362500X0.050000X0*%
%TD*%
%TA.AperFunction,SMDPad,CuDef*%
%ADD21RoundRect,0.050000X-0.050000X-0.362500X0.050000X-0.362500X0.050000X0.362500X-0.050000X0.362500X0*%
%TD*%
%TA.AperFunction,HeatsinkPad*%
%ADD22R,2.800000X3.800000*%
%TD*%
%TA.AperFunction,ViaPad*%
%ADD23C,0.600000*%
%TD*%
%TA.AperFunction,Conductor*%
%ADD24C,0.200000*%
%TD*%
%TA.AperFunction,Conductor*%
%ADD25C,1.000000*%
%TD*%
%TA.AperFunction,Conductor*%
%ADD26C,0.150000*%
%TD*%
%TA.AperFunction,Conductor*%
%ADD27C,0.120000*%
%TD*%
G04 APERTURE END LIST*
D10*
%TO.P,J9,1,Pin_1*%
%TO.N,Net-(J4-Pin_1)*%
X212000000Y-112750000D03*
%TD*%
D11*
%TO.P,D4,1,KB*%
%TO.N,Net-(D4-KB)*%
X97025000Y-111100000D03*
%TO.P,D4,2,KG*%
%TO.N,Net-(D4-KG)*%
X97025000Y-112000000D03*
%TO.P,D4,3,KR*%
%TO.N,Net-(D4-KR)*%
X97025000Y-112900000D03*
%TO.P,D4,4,AR*%
%TO.N,Net-(D1-AB)*%
X99975000Y-112900000D03*
%TO.P,D4,5,AG*%
X99975000Y-112000000D03*
%TO.P,D4,6,AB*%
X99975000Y-111100000D03*
%TD*%
%TO.P,D5,1,KB*%
%TO.N,Net-(D5-KB)*%
X111025000Y-116100000D03*
%TO.P,D5,2,KG*%
%TO.N,Net-(D5-KG)*%
X111025000Y-117000000D03*
%TO.P,D5,3,KR*%
%TO.N,Net-(D5-KR)*%
X111025000Y-117900000D03*
%TO.P,D5,4,AR*%
%TO.N,Net-(D1-AB)*%
X113975000Y-117900000D03*
%TO.P,D5,5,AG*%
X113975000Y-117000000D03*
%TO.P,D5,6,AB*%
X113975000Y-116100000D03*
%TD*%
D12*
%TO.P,JP2,1,A*%
%TO.N,GND*%
X82500000Y-109550000D03*
D13*
%TO.P,JP2,2,C*%
%TO.N,Net-(JP2-C)*%
X82500000Y-108250000D03*
D14*
%TO.P,JP2,3,B*%
%TO.N,Net-(J2-Pin_1)*%
X82500000Y-106950000D03*
%TD*%
D15*
%TO.P,J3,1,Pin_1*%
%TO.N,GND*%
X52000000Y-110250000D03*
%TD*%
D16*
%TO.P,C2,1*%
%TO.N,Net-(J2-Pin_1)*%
X122962500Y-104000000D03*
%TO.P,C2,2*%
%TO.N,GND*%
X125037500Y-104000000D03*
%TD*%
D11*
%TO.P,D11,1,KB*%
%TO.N,Net-(D11-KB)*%
X193025000Y-111100000D03*
%TO.P,D11,2,KG*%
%TO.N,Net-(D11-KG)*%
X193025000Y-112000000D03*
%TO.P,D11,3,KR*%
%TO.N,Net-(D11-KR)*%
X193025000Y-112900000D03*
%TO.P,D11,4,AR*%
%TO.N,Net-(D1-AB)*%
X195975000Y-112900000D03*
%TO.P,D11,5,AG*%
X195975000Y-112000000D03*
%TO.P,D11,6,AB*%
X195975000Y-111100000D03*
%TD*%
D17*
%TO.P,R1,1*%
%TO.N,Net-(J2-Pin_1)*%
X62750000Y-108162500D03*
%TO.P,R1,2*%
%TO.N,Net-(J4-Pin_1)*%
X62750000Y-106337500D03*
%TD*%
D11*
%TO.P,D8,1,KB*%
%TO.N,Net-(D8-KB)*%
X152525000Y-116100000D03*
%TO.P,D8,2,KG*%
%TO.N,Net-(D8-KG)*%
X152525000Y-117000000D03*
%TO.P,D8,3,KR*%
%TO.N,Net-(D8-KR)*%
X152525000Y-117900000D03*
%TO.P,D8,4,AR*%
%TO.N,Net-(D1-AB)*%
X155475000Y-117900000D03*
%TO.P,D8,5,AG*%
X155475000Y-117000000D03*
%TO.P,D8,6,AB*%
X155475000Y-116100000D03*
%TD*%
%TO.P,D7,1,KB*%
%TO.N,Net-(D7-KB)*%
X139025000Y-111100000D03*
%TO.P,D7,2,KG*%
%TO.N,Net-(D7-KG)*%
X139025000Y-112000000D03*
%TO.P,D7,3,KR*%
%TO.N,Net-(D7-KR)*%
X139025000Y-112900000D03*
%TO.P,D7,4,AR*%
%TO.N,Net-(D1-AB)*%
X141975000Y-112900000D03*
%TO.P,D7,5,AG*%
X141975000Y-112000000D03*
%TO.P,D7,6,AB*%
X141975000Y-111100000D03*
%TD*%
D10*
%TO.P,J10,1,Pin_1*%
%TO.N,Net-(J10-Pin_1)*%
X212000000Y-115250000D03*
%TD*%
D11*
%TO.P,D12,1,KB*%
%TO.N,Net-(D12-KB)*%
X206025000Y-116100000D03*
%TO.P,D12,2,KG*%
%TO.N,Net-(D12-KG)*%
X206025000Y-117000000D03*
%TO.P,D12,3,KR*%
%TO.N,Net-(D12-KR)*%
X206025000Y-117900000D03*
%TO.P,D12,4,AR*%
%TO.N,Net-(D1-AB)*%
X208975000Y-117900000D03*
%TO.P,D12,5,AG*%
X208975000Y-117000000D03*
%TO.P,D12,6,AB*%
X208975000Y-116100000D03*
%TD*%
D18*
%TO.P,R3,1*%
%TO.N,Net-(U1-IREF)*%
X109412500Y-105500000D03*
%TO.P,R3,2*%
%TO.N,GND*%
X107587500Y-105500000D03*
%TD*%
D11*
%TO.P,D1,1,KB*%
%TO.N,Net-(D1-KB)*%
X56025000Y-116100000D03*
%TO.P,D1,2,KG*%
%TO.N,Net-(D1-KG)*%
X56025000Y-117000000D03*
%TO.P,D1,3,KR*%
%TO.N,Net-(D1-KR)*%
X56025000Y-117900000D03*
%TO.P,D1,4,AR*%
%TO.N,Net-(D1-AB)*%
X58975000Y-117900000D03*
%TO.P,D1,5,AG*%
X58975000Y-117000000D03*
%TO.P,D1,6,AB*%
X58975000Y-116100000D03*
%TD*%
D19*
%TO.P,C1,1*%
%TO.N,Net-(U1-VCAP)*%
X115287500Y-105500000D03*
%TO.P,C1,2*%
%TO.N,GND*%
X113212500Y-105500000D03*
%TD*%
D15*
%TO.P,J2,1,Pin_1*%
%TO.N,Net-(J2-Pin_1)*%
X52000000Y-107750000D03*
%TD*%
D10*
%TO.P,J7,1,Pin_1*%
%TO.N,Net-(J2-Pin_1)*%
X212000000Y-107750000D03*
%TD*%
D20*
%TO.P,U1,1,OUT0*%
%TO.N,Net-(D2-KR)*%
X117437500Y-107062500D03*
%TO.P,U1,2,OUT1*%
%TO.N,Net-(D2-KG)*%
X117437500Y-107462500D03*
%TO.P,U1,3,OUT2*%
%TO.N,Net-(D2-KB)*%
X117437500Y-107862500D03*
%TO.P,U1,4,OUT3*%
%TO.N,Net-(D1-KR)*%
X117437500Y-108262500D03*
%TO.P,U1,5,OUT4*%
%TO.N,Net-(D1-KG)*%
X117437500Y-108662500D03*
%TO.P,U1,6,OUT5*%
%TO.N,Net-(D1-KB)*%
X117437500Y-109062500D03*
%TO.P,U1,7,OUT6*%
%TO.N,Net-(D4-KR)*%
X117437500Y-109462500D03*
%TO.P,U1,8,OUT7*%
%TO.N,Net-(D4-KG)*%
X117437500Y-109862500D03*
%TO.P,U1,9,OUT8*%
%TO.N,Net-(D4-KB)*%
X117437500Y-110262500D03*
%TO.P,U1,10,OUT9*%
%TO.N,Net-(D3-KR)*%
X117437500Y-110662500D03*
%TO.P,U1,11,OUT10*%
%TO.N,Net-(D3-KG)*%
X117437500Y-111062500D03*
%TO.P,U1,12,OUT11*%
%TO.N,Net-(D3-KB)*%
X117437500Y-111462500D03*
%TO.P,U1,13,OUT12*%
%TO.N,Net-(D5-KR)*%
X117437500Y-111862500D03*
D21*
%TO.P,U1,14,OUT13*%
%TO.N,Net-(D5-KG)*%
X118100000Y-112425000D03*
%TO.P,U1,15,OUT14*%
%TO.N,Net-(D5-KB)*%
X118500000Y-112425000D03*
%TO.P,U1,16,OUT15*%
%TO.N,Net-(D6-KR)*%
X118900000Y-112425000D03*
%TO.P,U1,17,OUT16*%
%TO.N,Net-(D6-KG)*%
X119300000Y-112425000D03*
%TO.P,U1,18,OUT17*%
%TO.N,Net-(D6-KB)*%
X119700000Y-112425000D03*
%TO.P,U1,19,OUT18*%
%TO.N,Net-(D8-KR)*%
X120100000Y-112425000D03*
%TO.P,U1,20,OUT19*%
%TO.N,Net-(D8-KG)*%
X120500000Y-112425000D03*
%TO.P,U1,21,OUT20*%
%TO.N,Net-(D8-KB)*%
X120900000Y-112425000D03*
%TO.P,U1,22,OUT21*%
%TO.N,Net-(D10-KR)*%
X121300000Y-112425000D03*
%TO.P,U1,23,OUT22*%
%TO.N,Net-(D10-KG)*%
X121700000Y-112425000D03*
D20*
%TO.P,U1,24,OUT23*%
%TO.N,Net-(D10-KB)*%
X122362500Y-111862500D03*
%TO.P,U1,25,OUT24*%
%TO.N,Net-(D7-KR)*%
X122362500Y-111462500D03*
%TO.P,U1,26,OUT25*%
%TO.N,Net-(D7-KG)*%
X122362500Y-111062500D03*
%TO.P,U1,27,OUT26*%
%TO.N,Net-(D7-KB)*%
X122362500Y-110662500D03*
%TO.P,U1,28,OUT27*%
%TO.N,Net-(D12-KR)*%
X122362500Y-110262500D03*
%TO.P,U1,29,OUT28*%
%TO.N,Net-(D12-KG)*%
X122362500Y-109862500D03*
%TO.P,U1,30,OUT29*%
%TO.N,Net-(D12-KB)*%
X122362500Y-109462500D03*
%TO.P,U1,31,OUT30*%
%TO.N,Net-(D9-KR)*%
X122362500Y-109062500D03*
%TO.P,U1,32,OUT31*%
%TO.N,Net-(D9-KG)*%
X122362500Y-108662500D03*
%TO.P,U1,33,OUT32*%
%TO.N,Net-(D9-KB)*%
X122362500Y-108262500D03*
%TO.P,U1,34,OUT33*%
%TO.N,Net-(D11-KR)*%
X122362500Y-107862500D03*
%TO.P,U1,35,OUT34*%
%TO.N,Net-(D11-KG)*%
X122362500Y-107462500D03*
%TO.P,U1,36,OUT35*%
%TO.N,Net-(D11-KB)*%
X122362500Y-107062500D03*
D21*
%TO.P,U1,37,GND*%
%TO.N,GND*%
X121700000Y-106500000D03*
%TO.P,U1,38,ADDR0*%
%TO.N,Net-(JP1-C)*%
X121300000Y-106500000D03*
%TO.P,U1,39,ADDR1*%
%TO.N,Net-(JP2-C)*%
X120900000Y-106500000D03*
%TO.P,U1,40,VCC*%
%TO.N,Net-(J2-Pin_1)*%
X120500000Y-106500000D03*
%TO.P,U1,41,SDA*%
%TO.N,Net-(J10-Pin_1)*%
X120100000Y-106500000D03*
%TO.P,U1,42,SCL*%
%TO.N,Net-(J4-Pin_1)*%
X119700000Y-106500000D03*
%TO.P,U1,43,EN*%
%TO.N,Net-(J2-Pin_1)*%
X119300000Y-106500000D03*
%TO.P,U1,44,IREF*%
%TO.N,Net-(U1-IREF)*%
X118900000Y-106500000D03*
%TO.P,U1,45,VCAP*%
%TO.N,Net-(U1-VCAP)*%
X118500000Y-106500000D03*
%TO.P,U1,46,GND*%
%TO.N,GND*%
X118100000Y-106500000D03*
D22*
%TO.P,U1,47,GND*%
X119900000Y-109462500D03*
%TD*%
D15*
%TO.P,J4,1,Pin_1*%
%TO.N,Net-(J4-Pin_1)*%
X52000000Y-112750000D03*
%TD*%
D11*
%TO.P,D2,1,KB*%
%TO.N,Net-(D2-KB)*%
X69025000Y-111100000D03*
%TO.P,D2,2,KG*%
%TO.N,Net-(D2-KG)*%
X69025000Y-112000000D03*
%TO.P,D2,3,KR*%
%TO.N,Net-(D2-KR)*%
X69025000Y-112900000D03*
%TO.P,D2,4,AR*%
%TO.N,Net-(D1-AB)*%
X71975000Y-112900000D03*
%TO.P,D2,5,AG*%
X71975000Y-112000000D03*
%TO.P,D2,6,AB*%
X71975000Y-111100000D03*
%TD*%
%TO.P,D10,1,KB*%
%TO.N,Net-(D10-KB)*%
X179525000Y-116100000D03*
%TO.P,D10,2,KG*%
%TO.N,Net-(D10-KG)*%
X179525000Y-117000000D03*
%TO.P,D10,3,KR*%
%TO.N,Net-(D10-KR)*%
X179525000Y-117900000D03*
%TO.P,D10,4,AR*%
%TO.N,Net-(D1-AB)*%
X182475000Y-117900000D03*
%TO.P,D10,5,AG*%
X182475000Y-117000000D03*
%TO.P,D10,6,AB*%
X182475000Y-116100000D03*
%TD*%
%TO.P,D3,1,KB*%
%TO.N,Net-(D3-KB)*%
X83525000Y-116100000D03*
%TO.P,D3,2,KG*%
%TO.N,Net-(D3-KG)*%
X83525000Y-117000000D03*
%TO.P,D3,3,KR*%
%TO.N,Net-(D3-KR)*%
X83525000Y-117900000D03*
%TO.P,D3,4,AR*%
%TO.N,Net-(D1-AB)*%
X86475000Y-117900000D03*
%TO.P,D3,5,AG*%
X86475000Y-117000000D03*
%TO.P,D3,6,AB*%
X86475000Y-116100000D03*
%TD*%
D15*
%TO.P,J5,1,Pin_1*%
%TO.N,Net-(J10-Pin_1)*%
X52000000Y-115250000D03*
%TD*%
D11*
%TO.P,D6,1,KB*%
%TO.N,Net-(D6-KB)*%
X126525000Y-116100000D03*
%TO.P,D6,2,KG*%
%TO.N,Net-(D6-KG)*%
X126525000Y-117000000D03*
%TO.P,D6,3,KR*%
%TO.N,Net-(D6-KR)*%
X126525000Y-117900000D03*
%TO.P,D6,4,AR*%
%TO.N,Net-(D1-AB)*%
X129475000Y-117900000D03*
%TO.P,D6,5,AG*%
X129475000Y-117000000D03*
%TO.P,D6,6,AB*%
X129475000Y-116100000D03*
%TD*%
D17*
%TO.P,R2,1*%
%TO.N,Net-(J2-Pin_1)*%
X59750000Y-108162500D03*
%TO.P,R2,2*%
%TO.N,Net-(J10-Pin_1)*%
X59750000Y-106337500D03*
%TD*%
D11*
%TO.P,D9,1,KB*%
%TO.N,Net-(D9-KB)*%
X166025000Y-111100000D03*
%TO.P,D9,2,KG*%
%TO.N,Net-(D9-KG)*%
X166025000Y-112000000D03*
%TO.P,D9,3,KR*%
%TO.N,Net-(D9-KR)*%
X166025000Y-112900000D03*
%TO.P,D9,4,AR*%
%TO.N,Net-(D1-AB)*%
X168975000Y-112900000D03*
%TO.P,D9,5,AG*%
X168975000Y-112000000D03*
%TO.P,D9,6,AB*%
X168975000Y-111100000D03*
%TD*%
D12*
%TO.P,JP1,1,A*%
%TO.N,GND*%
X77750000Y-109550000D03*
D13*
%TO.P,JP1,2,C*%
%TO.N,Net-(JP1-C)*%
X77750000Y-108250000D03*
D14*
%TO.P,JP1,3,B*%
%TO.N,Net-(J2-Pin_1)*%
X77750000Y-106950000D03*
%TD*%
D10*
%TO.P,J6,1,Pin_1*%
%TO.N,Net-(D1-AB)*%
X212000000Y-105250000D03*
%TD*%
%TO.P,J8,1,Pin_1*%
%TO.N,GND*%
X212000000Y-110250000D03*
%TD*%
D15*
%TO.P,J1,1,Pin_1*%
%TO.N,Net-(D1-AB)*%
X52000000Y-105250000D03*
%TD*%
D23*
%TO.N,GND*%
X186250000Y-114750000D03*
X187500000Y-115750000D03*
X202500000Y-119000000D03*
X200000000Y-119000000D03*
X197500000Y-119000000D03*
X195000000Y-119000000D03*
X192500000Y-119000000D03*
X190000000Y-119000000D03*
X187500000Y-119000000D03*
X185000000Y-119000000D03*
X200750000Y-105000000D03*
X54250000Y-109000000D03*
X56000000Y-111250000D03*
X56250000Y-106250000D03*
X56250000Y-108750000D03*
X54500000Y-111250000D03*
X80500000Y-119000000D03*
X77500000Y-119000000D03*
X74500000Y-119000000D03*
X72484592Y-119011046D03*
X70000000Y-119000000D03*
X67500000Y-119000000D03*
X65000000Y-119000000D03*
X51000000Y-117000000D03*
X52750000Y-119000000D03*
X52750000Y-117000000D03*
X202500000Y-110250000D03*
X210750000Y-118750000D03*
X213000000Y-117000000D03*
%TO.N,Net-(D1-AB)*%
X131150000Y-117000000D03*
X88000000Y-117000000D03*
X73750000Y-112000000D03*
X157250000Y-117000000D03*
X174000000Y-114150000D03*
X60750000Y-117000000D03*
X101750000Y-112000000D03*
X57250000Y-104000000D03*
X57250000Y-115000000D03*
X143650000Y-112000000D03*
X115750000Y-117000000D03*
%TO.N,Net-(J4-Pin_1)*%
X98750000Y-104500000D03*
X61250000Y-109500000D03*
X129750000Y-105250000D03*
X119500000Y-104250000D03*
X61250000Y-107250000D03*
%TO.N,Net-(J2-Pin_1)*%
X121750000Y-104000000D03*
X133750000Y-101800000D03*
X207000000Y-105500000D03*
X202750000Y-101800000D03*
%TO.N,GND*%
X137500000Y-119000000D03*
X170000000Y-119000000D03*
X205750000Y-107500000D03*
X190000000Y-115750000D03*
X56000000Y-109500000D03*
X207500000Y-104500000D03*
X200750000Y-107500000D03*
X92500000Y-116500000D03*
X157500000Y-110000000D03*
X65000000Y-115000000D03*
X197500000Y-115750000D03*
X187500000Y-110000000D03*
X176000000Y-113500000D03*
X197000000Y-107500000D03*
X180000000Y-110000000D03*
X165000000Y-119000000D03*
X145000000Y-119000000D03*
X118000000Y-119000000D03*
X134750000Y-119000000D03*
X147500000Y-110000000D03*
X162750000Y-113750000D03*
X186250000Y-113500000D03*
X60000000Y-112500000D03*
X92000000Y-110500000D03*
X167500000Y-110000000D03*
X75000000Y-107500000D03*
X162500000Y-119000000D03*
X79500000Y-106750000D03*
X109500000Y-112250000D03*
X97500000Y-116500000D03*
X172250000Y-119000000D03*
X195000000Y-115750000D03*
X62500000Y-115000000D03*
X185000000Y-107500000D03*
X155000000Y-110000000D03*
X134000000Y-115250000D03*
X110750000Y-105000000D03*
X195000000Y-107500000D03*
X175000000Y-119000000D03*
X65000000Y-112500000D03*
X170000000Y-107500000D03*
X134000000Y-106000000D03*
X55000000Y-106250000D03*
X150000000Y-111500000D03*
X70000000Y-107500000D03*
X70000000Y-116000000D03*
X102500000Y-116500000D03*
X198250000Y-113250000D03*
X150000000Y-119000000D03*
X67500000Y-116000000D03*
X92000000Y-115250000D03*
X140000000Y-119000000D03*
X127800000Y-106800000D03*
X182500000Y-107500000D03*
X172500000Y-110000000D03*
X202500000Y-107500000D03*
X130000000Y-106800000D03*
X67500000Y-110000000D03*
X117500000Y-115000000D03*
X116750000Y-106100000D03*
X155000000Y-111500000D03*
X80750000Y-106750000D03*
X167500000Y-119000000D03*
X177500000Y-119000000D03*
X106000000Y-105500000D03*
X84500000Y-109500000D03*
X192500000Y-107500000D03*
X123250000Y-106250000D03*
X182500000Y-110000000D03*
X132000000Y-106000000D03*
X116000000Y-115000000D03*
X150000000Y-110000000D03*
X62500000Y-112500000D03*
X177500000Y-107500000D03*
X192500000Y-115750000D03*
X67500000Y-107500000D03*
X160000000Y-110000000D03*
X120750000Y-109000000D03*
X160000000Y-119000000D03*
X127000000Y-103750000D03*
X132500000Y-119000000D03*
X187500000Y-107500000D03*
X105250000Y-116750000D03*
X167500000Y-107500000D03*
X152500000Y-111500000D03*
X202500000Y-105000000D03*
X206000000Y-110250000D03*
X210750000Y-117000000D03*
X147500000Y-119000000D03*
X74250000Y-116000000D03*
X120750000Y-110750000D03*
X208750000Y-104500000D03*
X116750000Y-112750000D03*
X152500000Y-110000000D03*
X77500000Y-116000000D03*
X170000000Y-110000000D03*
X200750000Y-110250000D03*
X119000000Y-109000000D03*
X202500000Y-115750000D03*
X175000000Y-107500000D03*
X105250000Y-114750000D03*
X172500000Y-107500000D03*
X180000000Y-107500000D03*
X185000000Y-110000000D03*
X77500000Y-113500000D03*
X95000000Y-116500000D03*
X80750000Y-109500000D03*
X120500000Y-119000000D03*
X100000000Y-116500000D03*
X165000000Y-107500000D03*
X105250000Y-112000000D03*
X204250000Y-110250000D03*
X65000000Y-110000000D03*
X165000000Y-110000000D03*
X160000000Y-111500000D03*
X110750000Y-106250000D03*
X55000000Y-108750000D03*
X157500000Y-111500000D03*
X72500000Y-107500000D03*
X147500000Y-111500000D03*
X142500000Y-119000000D03*
X177500000Y-110000000D03*
X92000000Y-112750000D03*
X108750000Y-119000000D03*
X75000000Y-110000000D03*
X175000000Y-110000000D03*
X123750000Y-119000000D03*
X128500000Y-103750000D03*
X116000000Y-119000000D03*
X131250000Y-119000000D03*
X204250000Y-107500000D03*
X72500000Y-116000000D03*
X113000000Y-112250000D03*
X119000000Y-110750000D03*
X54250000Y-119000000D03*
X200000000Y-115750000D03*
%TO.N,Net-(J10-Pin_1)*%
X58250000Y-107250000D03*
X97750000Y-104000000D03*
X120731671Y-104213343D03*
X58250000Y-111250000D03*
X132500000Y-105000000D03*
%TO.N,Net-(JP1-C)*%
X103750000Y-105500000D03*
X124750000Y-106000000D03*
%TO.N,Net-(JP2-C)*%
X101750000Y-105250000D03*
X126000000Y-106000000D03*
%TD*%
D24*
%TO.N,GND*%
X205500000Y-108000000D02*
X205000000Y-107500000D01*
X205000000Y-107500000D02*
X204250000Y-107500000D01*
X205750000Y-107500000D02*
X207500000Y-107500000D01*
X207500000Y-107500000D02*
X208000000Y-108000000D01*
%TO.N,Net-(J10-Pin_1)*%
X212000000Y-115250000D02*
X211000000Y-115250000D01*
X211000000Y-115250000D02*
X208500000Y-112750000D01*
X208500000Y-112750000D02*
X199000000Y-112750000D01*
X199000000Y-112750000D02*
X198500000Y-112250000D01*
X198500000Y-112250000D02*
X198500000Y-105750000D01*
X198500000Y-105750000D02*
X197750000Y-105000000D01*
X197750000Y-105000000D02*
X132500000Y-105000000D01*
%TO.N,Net-(J4-Pin_1)*%
X129750000Y-105250000D02*
X130250000Y-105250000D01*
X130250000Y-105250000D02*
X131250000Y-104250000D01*
X131250000Y-104250000D02*
X198375000Y-104250000D01*
X198375000Y-104250000D02*
X199250000Y-105125000D01*
X199250000Y-105125000D02*
X199250000Y-111750000D01*
X199250000Y-111750000D02*
X199750000Y-112250000D01*
X199750000Y-112250000D02*
X209000000Y-112250000D01*
X209000000Y-112250000D02*
X209500000Y-112750000D01*
X209500000Y-112750000D02*
X212000000Y-112750000D01*
%TO.N,Net-(D1-AB)*%
X182475000Y-117900000D02*
X203400000Y-117900000D01*
X203400000Y-117900000D02*
X204000000Y-118500000D01*
X208375000Y-118500000D02*
X208975000Y-117900000D01*
X204000000Y-118500000D02*
X208375000Y-118500000D01*
%TO.N,Net-(J2-Pin_1)*%
X209750000Y-106000000D02*
X209750000Y-107000000D01*
X207000000Y-105500000D02*
X209250000Y-105500000D01*
X209250000Y-105500000D02*
X209750000Y-106000000D01*
X209750000Y-107000000D02*
X210500000Y-107750000D01*
X210500000Y-107750000D02*
X212000000Y-107750000D01*
%TO.N,GND*%
X212000000Y-110250000D02*
X210500000Y-110250000D01*
X210500000Y-110250000D02*
X209750000Y-109500000D01*
X209750000Y-109500000D02*
X209750000Y-108500000D01*
X209750000Y-108500000D02*
X209250000Y-108000000D01*
X209250000Y-108000000D02*
X208000000Y-108000000D01*
D25*
%TO.N,Net-(D1-AB)*%
X57000000Y-103000000D02*
X106750000Y-103000000D01*
X106750000Y-103000000D02*
X107500000Y-102250000D01*
X131250000Y-103000000D02*
X211500000Y-103000000D01*
X107500000Y-102250000D02*
X130500000Y-102250000D01*
X211500000Y-103000000D02*
X212000000Y-103500000D01*
X130500000Y-102250000D02*
X131250000Y-103000000D01*
X212000000Y-103500000D02*
X212000000Y-105250000D01*
D24*
%TO.N,Net-(J10-Pin_1)*%
X52000000Y-115250000D02*
X52500000Y-115250000D01*
X52500000Y-115250000D02*
X54500000Y-113250000D01*
X54500000Y-113250000D02*
X57750000Y-113250000D01*
X57750000Y-113250000D02*
X58250000Y-112750000D01*
X58250000Y-112750000D02*
X58250000Y-111250000D01*
%TO.N,Net-(J4-Pin_1)*%
X52000000Y-112750000D02*
X57000000Y-112750000D01*
X57000000Y-112750000D02*
X57500000Y-112250000D01*
X57500000Y-112250000D02*
X57500000Y-111000000D01*
X57500000Y-111000000D02*
X58000000Y-110500000D01*
X58000000Y-110500000D02*
X60750000Y-110500000D01*
X60750000Y-110500000D02*
X61250000Y-110000000D01*
X61250000Y-110000000D02*
X61250000Y-109500000D01*
%TO.N,GND*%
X55000000Y-108750000D02*
X55000000Y-106250000D01*
X55000000Y-108750000D02*
X56250000Y-108750000D01*
X54250000Y-109000000D02*
X54750000Y-109000000D01*
X54750000Y-109000000D02*
X55000000Y-108750000D01*
X54500000Y-111250000D02*
X56000000Y-111250000D01*
X56000000Y-109500000D02*
X56000000Y-109000000D01*
X56000000Y-109000000D02*
X56250000Y-108750000D01*
%TO.N,Net-(J2-Pin_1)*%
X53750000Y-106500000D02*
X53250000Y-106500000D01*
X53250000Y-106500000D02*
X52000000Y-107750000D01*
X59750000Y-108162500D02*
X57662500Y-108162500D01*
X56250000Y-104000000D02*
X55000000Y-104000000D01*
X57662500Y-108162500D02*
X57250000Y-107750000D01*
X57250000Y-107750000D02*
X57250000Y-105000000D01*
X54000000Y-105000000D02*
X54000000Y-106250000D01*
X57250000Y-105000000D02*
X56250000Y-104000000D01*
X55000000Y-104000000D02*
X54000000Y-105000000D01*
X54000000Y-106250000D02*
X53750000Y-106500000D01*
%TO.N,Net-(D1-AB)*%
X57250000Y-104000000D02*
X57250000Y-103250000D01*
X57250000Y-103250000D02*
X57000000Y-103000000D01*
%TO.N,GND*%
X52000000Y-110250000D02*
X55250000Y-110250000D01*
X55250000Y-110250000D02*
X56000000Y-109500000D01*
D25*
%TO.N,Net-(D1-AB)*%
X57000000Y-103000000D02*
X54250000Y-103000000D01*
X54250000Y-103000000D02*
X52000000Y-105250000D01*
D26*
%TO.N,Net-(D2-KR)*%
X86400000Y-111200000D02*
X86400000Y-107400000D01*
X75250000Y-113500000D02*
X75250000Y-112000000D01*
X75850000Y-111400000D02*
X86200000Y-111400000D01*
X116800000Y-107000000D02*
X116862500Y-107062500D01*
X86800000Y-107000000D02*
X116800000Y-107000000D01*
X86200000Y-111400000D02*
X86400000Y-111200000D01*
X75250000Y-112000000D02*
X75850000Y-111400000D01*
X69025000Y-112900000D02*
X69025000Y-113525000D01*
X74750000Y-114000000D02*
X75250000Y-113500000D01*
X69025000Y-113525000D02*
X69500000Y-114000000D01*
X116862500Y-107062500D02*
X117437500Y-107062500D01*
X86400000Y-107400000D02*
X86800000Y-107000000D01*
X69500000Y-114000000D02*
X74750000Y-114000000D01*
%TO.N,Net-(D2-KB)*%
X76250000Y-114500000D02*
X76250000Y-112750000D01*
X87200000Y-111800000D02*
X87200000Y-108200000D01*
X87200000Y-108200000D02*
X87600000Y-107800000D01*
X66750000Y-111750000D02*
X66750000Y-114500000D01*
X117413500Y-107838500D02*
X117437500Y-107862500D01*
X116400000Y-107800000D02*
X116462500Y-107862500D01*
X69025000Y-111100000D02*
X67400000Y-111100000D01*
X76800000Y-112200000D02*
X86800000Y-112200000D01*
X87600000Y-107800000D02*
X116400000Y-107800000D01*
X116462500Y-107862500D02*
X117437500Y-107862500D01*
X66750000Y-114500000D02*
X67250000Y-115000000D01*
X75750000Y-115000000D02*
X76250000Y-114500000D01*
X76250000Y-112750000D02*
X76800000Y-112200000D01*
X67250000Y-115000000D02*
X75750000Y-115000000D01*
X67400000Y-111100000D02*
X66750000Y-111750000D01*
X86800000Y-112200000D02*
X87200000Y-111800000D01*
%TO.N,Net-(D2-KG)*%
X67750000Y-114500000D02*
X75250000Y-114500000D01*
X67250000Y-112500000D02*
X67250000Y-114000000D01*
X117413500Y-107438500D02*
X117437500Y-107462500D01*
X76200000Y-111800000D02*
X86450000Y-111800000D01*
X67750000Y-112000000D02*
X67250000Y-112500000D01*
X86800000Y-111450000D02*
X86800000Y-107800000D01*
X116600000Y-107400000D02*
X116662500Y-107462500D01*
X86800000Y-107800000D02*
X87200000Y-107400000D01*
X67250000Y-114000000D02*
X67750000Y-114500000D01*
X87200000Y-107400000D02*
X116600000Y-107400000D01*
X116662500Y-107462500D02*
X117437500Y-107462500D01*
X75750000Y-112250000D02*
X76200000Y-111800000D01*
X75250000Y-114500000D02*
X75750000Y-114000000D01*
X86450000Y-111800000D02*
X86800000Y-111450000D01*
X75750000Y-114000000D02*
X75750000Y-112250000D01*
X69025000Y-112000000D02*
X67750000Y-112000000D01*
%TO.N,Net-(D1-KB)*%
X115662500Y-109062500D02*
X117437500Y-109062500D01*
X56025000Y-116100000D02*
X57100000Y-116100000D01*
X89200000Y-109600000D02*
X89800000Y-109000000D01*
X57250000Y-116250000D02*
X57250000Y-118250000D01*
X57100000Y-116100000D02*
X57250000Y-116250000D01*
X79500000Y-117750000D02*
X79500000Y-114375000D01*
X89800000Y-109000000D02*
X115600000Y-109000000D01*
X61750000Y-118500000D02*
X62250000Y-118000000D01*
X57250000Y-118250000D02*
X57500000Y-118500000D01*
X89200000Y-113200000D02*
X89200000Y-109600000D01*
X79250000Y-118000000D02*
X79500000Y-117750000D01*
X62250000Y-118000000D02*
X79250000Y-118000000D01*
X88598000Y-113802000D02*
X89200000Y-113200000D01*
X80073000Y-113802000D02*
X88598000Y-113802000D01*
X57500000Y-118500000D02*
X61750000Y-118500000D01*
X79500000Y-114375000D02*
X80073000Y-113802000D01*
X115600000Y-109000000D02*
X115662500Y-109062500D01*
%TO.N,Net-(D1-KR)*%
X79000000Y-113000000D02*
X88000000Y-113000000D01*
X89000000Y-108200000D02*
X116200000Y-108200000D01*
X61500000Y-114500000D02*
X61500000Y-116250000D01*
X78250000Y-117000000D02*
X78500000Y-116750000D01*
X116200000Y-108200000D02*
X116262500Y-108262500D01*
X62250000Y-117000000D02*
X78250000Y-117000000D01*
X60750000Y-113750000D02*
X61500000Y-114500000D01*
X116262500Y-108262500D02*
X117437500Y-108262500D01*
X54000000Y-117500000D02*
X54000000Y-114500000D01*
X56025000Y-117900000D02*
X54400000Y-117900000D01*
X54750000Y-113750000D02*
X60750000Y-113750000D01*
X88400000Y-112600000D02*
X88400000Y-108800000D01*
X78500000Y-116750000D02*
X78500000Y-113500000D01*
X54000000Y-114500000D02*
X54750000Y-113750000D01*
X88400000Y-108800000D02*
X89000000Y-108200000D01*
X54400000Y-117900000D02*
X54000000Y-117500000D01*
X117413500Y-108238500D02*
X117437500Y-108262500D01*
X61500000Y-116250000D02*
X62250000Y-117000000D01*
X78500000Y-113500000D02*
X79000000Y-113000000D01*
X88000000Y-113000000D02*
X88400000Y-112600000D01*
%TO.N,Net-(D1-KG)*%
X117413500Y-108638500D02*
X117437500Y-108662500D01*
X61000000Y-116317100D02*
X62182900Y-117500000D01*
X60500000Y-114250000D02*
X61000000Y-114750000D01*
X56025000Y-117000000D02*
X55000000Y-117000000D01*
X88399000Y-113401000D02*
X88800000Y-113000000D01*
D24*
X56750000Y-117000000D02*
X56025000Y-117000000D01*
D26*
X62182900Y-117500000D02*
X78750000Y-117500000D01*
X88800000Y-113000000D02*
X88800000Y-109200000D01*
X61000000Y-114750000D02*
X61000000Y-116317100D01*
X89400000Y-108600000D02*
X116000000Y-108600000D01*
X79000000Y-117250000D02*
X79000000Y-114000000D01*
X54500000Y-114750000D02*
X55000000Y-114250000D01*
X55000000Y-117000000D02*
X54500000Y-116500000D01*
X55000000Y-114250000D02*
X60500000Y-114250000D01*
X78750000Y-117500000D02*
X79000000Y-117250000D01*
X54500000Y-116500000D02*
X54500000Y-114750000D01*
X79000000Y-114000000D02*
X79599000Y-113401000D01*
X79599000Y-113401000D02*
X88399000Y-113401000D01*
X116062500Y-108662500D02*
X117437500Y-108662500D01*
X88800000Y-109200000D02*
X89400000Y-108600000D01*
X116000000Y-108600000D02*
X116062500Y-108662500D01*
%TO.N,Net-(D3-KG)*%
X83525000Y-117000000D02*
X82000000Y-117000000D01*
X117413500Y-111038500D02*
X117437500Y-111062500D01*
X106800000Y-118000000D02*
X107200000Y-117600000D01*
X115000000Y-111200000D02*
X115137500Y-111062500D01*
X88800000Y-117600000D02*
X89200000Y-118000000D01*
X82000000Y-117000000D02*
X81600000Y-116600000D01*
X107200000Y-117600000D02*
X107200000Y-111600000D01*
X115137500Y-111062500D02*
X117437500Y-111062500D01*
X81600000Y-116600000D02*
X81600000Y-115400000D01*
X88800000Y-115300000D02*
X88800000Y-117600000D01*
X107200000Y-111600000D02*
X107600000Y-111200000D01*
X107600000Y-111200000D02*
X115000000Y-111200000D01*
X89200000Y-118000000D02*
X106800000Y-118000000D01*
X81600000Y-115400000D02*
X82000000Y-115000000D01*
X88500000Y-115000000D02*
X88800000Y-115300000D01*
X82000000Y-115000000D02*
X88500000Y-115000000D01*
%TO.N,Net-(D3-KR)*%
X89600000Y-117600000D02*
X106400000Y-117600000D01*
X106800000Y-117200000D02*
X106800000Y-111200000D01*
X83525000Y-117900000D02*
X81700000Y-117900000D01*
X106800000Y-111200000D02*
X107200000Y-110800000D01*
X81700000Y-117900000D02*
X81200000Y-117400000D01*
X81650000Y-114600000D02*
X88850000Y-114600000D01*
X106400000Y-117600000D02*
X106800000Y-117200000D01*
X89200000Y-117200000D02*
X89600000Y-117600000D01*
X81200000Y-117400000D02*
X81200000Y-115050000D01*
X114800000Y-110800000D02*
X114937500Y-110662500D01*
X88850000Y-114600000D02*
X89200000Y-114950000D01*
X114937500Y-110662500D02*
X117437500Y-110662500D01*
X89200000Y-114950000D02*
X89200000Y-117200000D01*
X117413500Y-110638500D02*
X117437500Y-110662500D01*
X81200000Y-115050000D02*
X81650000Y-114600000D01*
X107200000Y-110800000D02*
X114800000Y-110800000D01*
%TO.N,Net-(D3-KB)*%
X115337500Y-111462500D02*
X117437500Y-111462500D01*
X107600000Y-112000000D02*
X108000000Y-111600000D01*
X89000000Y-118600000D02*
X89200000Y-118400000D01*
X85400000Y-118600000D02*
X89000000Y-118600000D01*
X107200000Y-118400000D02*
X107600000Y-118000000D01*
X89200000Y-118400000D02*
X107200000Y-118400000D01*
X85000000Y-116400000D02*
X85000000Y-118200000D01*
X108000000Y-111600000D02*
X115200000Y-111600000D01*
X85000000Y-118200000D02*
X85400000Y-118600000D01*
X84700000Y-116100000D02*
X85000000Y-116400000D01*
X115200000Y-111600000D02*
X115337500Y-111462500D01*
X83525000Y-116100000D02*
X84700000Y-116100000D01*
X107600000Y-118000000D02*
X107600000Y-112000000D01*
%TO.N,Net-(D4-KG)*%
X97025000Y-112000000D02*
X95800000Y-112000000D01*
X115200000Y-109800000D02*
X115262500Y-109862500D01*
X103200000Y-113600000D02*
X103200000Y-110200000D01*
X96000000Y-114400000D02*
X102400000Y-114400000D01*
X103200000Y-110200000D02*
X103600000Y-109800000D01*
X102400000Y-114400000D02*
X103200000Y-113600000D01*
X95400000Y-112400000D02*
X95400000Y-113800000D01*
X95800000Y-112000000D02*
X95400000Y-112400000D01*
X95400000Y-113800000D02*
X96000000Y-114400000D01*
X115262500Y-109862500D02*
X117437500Y-109862500D01*
X103600000Y-109800000D02*
X115200000Y-109800000D01*
%TO.N,Net-(D4-KR)*%
X102200000Y-114000000D02*
X102800000Y-113400000D01*
X102800000Y-113400000D02*
X102800000Y-109800000D01*
X97025000Y-113625000D02*
X97400000Y-114000000D01*
X97400000Y-114000000D02*
X102200000Y-114000000D01*
X102800000Y-109800000D02*
X103200000Y-109400000D01*
X103200000Y-109400000D02*
X115400000Y-109400000D01*
X115462500Y-109462500D02*
X117437500Y-109462500D01*
X115400000Y-109400000D02*
X115462500Y-109462500D01*
X97025000Y-112900000D02*
X97025000Y-113625000D01*
%TO.N,Net-(D4-KB)*%
X95000000Y-114400000D02*
X95400000Y-114800000D01*
X114800000Y-110200000D02*
X114862500Y-110262500D01*
X103600000Y-114000000D02*
X103600000Y-110600000D01*
X102800000Y-114800000D02*
X103600000Y-114000000D01*
X104000000Y-110200000D02*
X114800000Y-110200000D01*
X97025000Y-111100000D02*
X95300000Y-111100000D01*
X95000000Y-111400000D02*
X95000000Y-114400000D01*
X103600000Y-110600000D02*
X104000000Y-110200000D01*
X95300000Y-111100000D02*
X95000000Y-111400000D01*
X95400000Y-114800000D02*
X102800000Y-114800000D01*
X114862500Y-110262500D02*
X117437500Y-110262500D01*
%TO.N,Net-(D5-KG)*%
X109400000Y-116600000D02*
X109400000Y-114200000D01*
X109800000Y-117000000D02*
X109400000Y-116600000D01*
X109400000Y-114200000D02*
X109800000Y-113800000D01*
X111025000Y-117000000D02*
X109800000Y-117000000D01*
X117800000Y-113800000D02*
X118100000Y-113500000D01*
X118100000Y-113500000D02*
X118100000Y-112425000D01*
X109800000Y-113800000D02*
X117800000Y-113800000D01*
%TO.N,Net-(D5-KR)*%
X115400000Y-112200000D02*
X115737500Y-111862500D01*
X109500000Y-117900000D02*
X109000000Y-117400000D01*
X109000000Y-117400000D02*
X109000000Y-113800000D01*
X115200000Y-113400000D02*
X115400000Y-113200000D01*
X109400000Y-113400000D02*
X115200000Y-113400000D01*
X109000000Y-113800000D02*
X109400000Y-113400000D01*
X115737500Y-111862500D02*
X117437500Y-111862500D01*
X111025000Y-117900000D02*
X109500000Y-117900000D01*
X115400000Y-113200000D02*
X115400000Y-112200000D01*
%TO.N,Net-(D5-KB)*%
X118500000Y-112425000D02*
X118500000Y-113900000D01*
X118200000Y-114200000D02*
X111200000Y-114200000D01*
X111000000Y-116075000D02*
X111025000Y-116100000D01*
X118500000Y-113900000D02*
X118200000Y-114200000D01*
X111000000Y-114400000D02*
X111000000Y-116075000D01*
X111200000Y-114200000D02*
X111000000Y-114400000D01*
%TO.N,Net-(D6-KG)*%
X119600000Y-117000000D02*
X126525000Y-117000000D01*
X119300000Y-116700000D02*
X119600000Y-117000000D01*
X119300000Y-112425000D02*
X119300000Y-116700000D01*
%TO.N,Net-(D6-KB)*%
X124600000Y-116600000D02*
X120000000Y-116600000D01*
X119700000Y-116300000D02*
X119700000Y-112425000D01*
X125100000Y-116100000D02*
X124600000Y-116600000D01*
X120000000Y-116600000D02*
X119700000Y-116300000D01*
X126525000Y-116100000D02*
X125100000Y-116100000D01*
%TO.N,Net-(D6-KR)*%
X126525000Y-117900000D02*
X125100000Y-117900000D01*
X124600000Y-117400000D02*
X119200000Y-117400000D01*
X119200000Y-117400000D02*
X118900000Y-117100000D01*
X118900000Y-117100000D02*
X118900000Y-112425000D01*
X125100000Y-117900000D02*
X124600000Y-117400000D01*
%TO.N,Net-(D7-KG)*%
X139025000Y-112000000D02*
X124000000Y-112000000D01*
X123062500Y-111062500D02*
X122362500Y-111062500D01*
X124000000Y-112000000D02*
X123062500Y-111062500D01*
%TO.N,Net-(D7-KR)*%
X139025000Y-112900000D02*
X137500000Y-112900000D01*
X122937500Y-111462500D02*
X122362500Y-111462500D01*
X137000000Y-112400000D02*
X123875000Y-112400000D01*
X123875000Y-112400000D02*
X122937500Y-111462500D01*
X137500000Y-112900000D02*
X137000000Y-112400000D01*
%TO.N,Net-(D7-KB)*%
X139025000Y-111100000D02*
X137500000Y-111100000D01*
X123262500Y-110662500D02*
X122362500Y-110662500D01*
X137000000Y-111600000D02*
X124200000Y-111600000D01*
X137500000Y-111100000D02*
X137000000Y-111600000D01*
X124200000Y-111600000D02*
X123262500Y-110662500D01*
%TO.N,Net-(D8-KR)*%
X120100000Y-115100000D02*
X120100000Y-112425000D01*
X131400000Y-115400000D02*
X120400000Y-115400000D01*
X132200000Y-117400000D02*
X131800000Y-117000000D01*
X131800000Y-115800000D02*
X131400000Y-115400000D01*
X131800000Y-117000000D02*
X131800000Y-115800000D01*
X120400000Y-115400000D02*
X120100000Y-115100000D01*
X150400000Y-117400000D02*
X132200000Y-117400000D01*
X150900000Y-117900000D02*
X150400000Y-117400000D01*
X152525000Y-117900000D02*
X150900000Y-117900000D01*
%TO.N,Net-(D8-KB)*%
X132000000Y-114600000D02*
X121300000Y-114600000D01*
X132600000Y-116200000D02*
X132600000Y-115200000D01*
X133000000Y-116600000D02*
X132600000Y-116200000D01*
X132600000Y-115200000D02*
X132000000Y-114600000D01*
X121300000Y-114600000D02*
X120900000Y-114200000D01*
X150400000Y-116600000D02*
X133000000Y-116600000D01*
X120900000Y-114200000D02*
X120900000Y-112425000D01*
X150900000Y-116100000D02*
X150400000Y-116600000D01*
X152525000Y-116100000D02*
X150900000Y-116100000D01*
%TO.N,Net-(D8-KG)*%
X132200000Y-115400000D02*
X131800000Y-115000000D01*
X132600000Y-117000000D02*
X132200000Y-116600000D01*
X152525000Y-117000000D02*
X132600000Y-117000000D01*
X120500000Y-114700000D02*
X120500000Y-112425000D01*
X131800000Y-115000000D02*
X120800000Y-115000000D01*
X132200000Y-116600000D02*
X132200000Y-115400000D01*
X120800000Y-115000000D02*
X120500000Y-114700000D01*
%TO.N,Net-(D9-KG)*%
X162800000Y-108600000D02*
X135800000Y-108600000D01*
X166025000Y-112000000D02*
X164200000Y-112000000D01*
X135800000Y-108600000D02*
X134800000Y-109600000D01*
X122362500Y-108662500D02*
X122386500Y-108638500D01*
X164200000Y-112000000D02*
X163400000Y-111200000D01*
X163400000Y-109200000D02*
X162800000Y-108600000D01*
X125200000Y-109600000D02*
X124262500Y-108662500D01*
X124262500Y-108662500D02*
X122362500Y-108662500D01*
X134800000Y-109600000D02*
X125200000Y-109600000D01*
X163400000Y-111200000D02*
X163400000Y-109200000D01*
%TO.N,Net-(D9-KB)*%
X124462500Y-108262500D02*
X125400000Y-109200000D01*
X134600000Y-109200000D02*
X135600000Y-108200000D01*
X125400000Y-109200000D02*
X134600000Y-109200000D01*
X164000000Y-110600000D02*
X164500000Y-111100000D01*
X135600000Y-108200000D02*
X163200000Y-108200000D01*
X164500000Y-111100000D02*
X166025000Y-111100000D01*
X163200000Y-108200000D02*
X164000000Y-109000000D01*
X164000000Y-109000000D02*
X164000000Y-110600000D01*
X122362500Y-108262500D02*
X124462500Y-108262500D01*
%TO.N,Net-(D9-KR)*%
X135950000Y-109000000D02*
X162200000Y-109000000D01*
X162800000Y-109600000D02*
X162800000Y-111700000D01*
X124158888Y-109062500D02*
X125096388Y-110000000D01*
X162200000Y-109000000D02*
X162800000Y-109600000D01*
X164000000Y-112900000D02*
X166025000Y-112900000D01*
X125096388Y-110000000D02*
X134950000Y-110000000D01*
X134950000Y-110000000D02*
X135950000Y-109000000D01*
X162800000Y-111700000D02*
X164000000Y-112900000D01*
X122362500Y-109062500D02*
X124158888Y-109062500D01*
%TO.N,Net-(D10-KR)*%
X177551000Y-117351000D02*
X159151000Y-117351000D01*
X121600000Y-114000000D02*
X121300000Y-113700000D01*
X158600000Y-115400000D02*
X158000000Y-114800000D01*
X158600000Y-116800000D02*
X158600000Y-115400000D01*
X121300000Y-113700000D02*
X121300000Y-112425000D01*
X158000000Y-114800000D02*
X136600000Y-114800000D01*
X136600000Y-114800000D02*
X135800000Y-114000000D01*
X135800000Y-114000000D02*
X121600000Y-114000000D01*
X179525000Y-117900000D02*
X178100000Y-117900000D01*
X178100000Y-117900000D02*
X177551000Y-117351000D01*
X159151000Y-117351000D02*
X158600000Y-116800000D01*
%TO.N,Net-(D10-KG)*%
X159000000Y-115000000D02*
X158400000Y-114400000D01*
X136000000Y-113600000D02*
X122000000Y-113600000D01*
X179525000Y-117000000D02*
X159400000Y-117000000D01*
X136800000Y-114400000D02*
X136000000Y-113600000D01*
X158400000Y-114400000D02*
X136800000Y-114400000D01*
X122000000Y-113600000D02*
X121700000Y-113300000D01*
X159400000Y-117000000D02*
X159000000Y-116600000D01*
X159000000Y-116600000D02*
X159000000Y-115000000D01*
X121700000Y-113300000D02*
X121700000Y-112425000D01*
%TO.N,Net-(D10-KB)*%
X177600000Y-116600000D02*
X159850000Y-116600000D01*
X159400000Y-114600000D02*
X158800000Y-114000000D01*
X122600000Y-113200000D02*
X122362500Y-112962500D01*
X159850000Y-116600000D02*
X159400000Y-116150000D01*
X137000000Y-114000000D02*
X136200000Y-113200000D01*
X158800000Y-114000000D02*
X137000000Y-114000000D01*
X178100000Y-116100000D02*
X177600000Y-116600000D01*
X159400000Y-116150000D02*
X159400000Y-114600000D01*
X136200000Y-113200000D02*
X122600000Y-113200000D01*
X179525000Y-116100000D02*
X178100000Y-116100000D01*
X122362500Y-112962500D02*
X122362500Y-111862500D01*
%TO.N,Net-(D11-KB)*%
X162800000Y-106800000D02*
X135000000Y-106800000D01*
X125900000Y-108000000D02*
X124962500Y-107062500D01*
X191200000Y-110800000D02*
X191200000Y-106000000D01*
X190800000Y-105600000D02*
X164000000Y-105600000D01*
X133800000Y-108000000D02*
X125900000Y-108000000D01*
X191200000Y-106000000D02*
X190800000Y-105600000D01*
X191500000Y-111100000D02*
X191200000Y-110800000D01*
X164000000Y-105600000D02*
X162800000Y-106800000D01*
X193025000Y-111100000D02*
X191500000Y-111100000D01*
X135000000Y-106800000D02*
X133800000Y-108000000D01*
X124962500Y-107062500D02*
X122362500Y-107062500D01*
%TO.N,Net-(D11-KG)*%
X134000000Y-108400000D02*
X135200000Y-107200000D01*
X191200000Y-112000000D02*
X193025000Y-112000000D01*
X135200000Y-107200000D02*
X163000000Y-107200000D01*
X124662500Y-107462500D02*
X125600000Y-108400000D01*
X190800000Y-111600000D02*
X191200000Y-112000000D01*
X163000000Y-107200000D02*
X164200000Y-106000000D01*
X125600000Y-108400000D02*
X134000000Y-108400000D01*
X122362500Y-107462500D02*
X124662500Y-107462500D01*
X190400000Y-106000000D02*
X190800000Y-106400000D01*
X164200000Y-106000000D02*
X190400000Y-106000000D01*
X190800000Y-106400000D02*
X190800000Y-111600000D01*
%TO.N,Net-(D11-KR)*%
X190000000Y-106400000D02*
X190400000Y-106800000D01*
X164400000Y-106400000D02*
X190000000Y-106400000D01*
X190400000Y-112400000D02*
X190900000Y-112900000D01*
X190900000Y-112900000D02*
X193025000Y-112900000D01*
X122386500Y-107838500D02*
X122362500Y-107862500D01*
X122362500Y-107862500D02*
X124558888Y-107862500D01*
X190400000Y-106800000D02*
X190400000Y-112400000D01*
X135400000Y-107600000D02*
X163200000Y-107600000D01*
X124558888Y-107862500D02*
X125496388Y-108800000D01*
X163200000Y-107600000D02*
X164400000Y-106400000D01*
X134200000Y-108800000D02*
X135400000Y-107600000D01*
X125496388Y-108800000D02*
X134200000Y-108800000D01*
%TO.N,Net-(D12-KG)*%
X145000000Y-113000000D02*
X144600000Y-112600000D01*
X136000000Y-110800000D02*
X124800000Y-110800000D01*
X178000000Y-114600000D02*
X177400000Y-115200000D01*
X184600000Y-116600000D02*
X184600000Y-115000000D01*
X160200000Y-113000000D02*
X145000000Y-113000000D01*
X177400000Y-115200000D02*
X161200000Y-115200000D01*
X160800000Y-113600000D02*
X160200000Y-113000000D01*
X160800000Y-114800000D02*
X160800000Y-113600000D01*
X123862500Y-109862500D02*
X122362500Y-109862500D01*
X144200000Y-110000000D02*
X136800000Y-110000000D01*
X184200000Y-114600000D02*
X178000000Y-114600000D01*
X144600000Y-110400000D02*
X144200000Y-110000000D01*
X136800000Y-110000000D02*
X136000000Y-110800000D01*
X184600000Y-115000000D02*
X184200000Y-114600000D01*
X185000000Y-117000000D02*
X184600000Y-116600000D01*
X124800000Y-110800000D02*
X123862500Y-109862500D01*
X206025000Y-117000000D02*
X185000000Y-117000000D01*
X144600000Y-112600000D02*
X144600000Y-110400000D01*
X161200000Y-115200000D02*
X160800000Y-114800000D01*
%TO.N,Net-(D12-KB)*%
X145400000Y-112600000D02*
X145000000Y-112200000D01*
X144400000Y-109600000D02*
X136600000Y-109600000D01*
X161200000Y-113200000D02*
X160600000Y-112600000D01*
X161600000Y-114800000D02*
X161200000Y-114400000D01*
X161200000Y-114400000D02*
X161200000Y-113200000D01*
X145000000Y-112200000D02*
X145000000Y-110200000D01*
X124062500Y-109462500D02*
X122362500Y-109462500D01*
X203800000Y-116600000D02*
X185400000Y-116600000D01*
X185000000Y-114600000D02*
X184600000Y-114200000D01*
X185400000Y-116600000D02*
X185000000Y-116200000D01*
X125000000Y-110400000D02*
X124062500Y-109462500D01*
X184600000Y-114200000D02*
X177800000Y-114200000D01*
X177800000Y-114200000D02*
X177200000Y-114800000D01*
X145000000Y-110200000D02*
X144400000Y-109600000D01*
X204300000Y-116100000D02*
X203800000Y-116600000D01*
X136600000Y-109600000D02*
X135800000Y-110400000D01*
X160600000Y-112600000D02*
X145400000Y-112600000D01*
X206025000Y-116100000D02*
X204300000Y-116100000D01*
X135800000Y-110400000D02*
X125000000Y-110400000D01*
X185000000Y-116200000D02*
X185000000Y-114600000D01*
X177200000Y-114800000D02*
X161600000Y-114800000D01*
%TO.N,Net-(D12-KR)*%
X160000000Y-113400000D02*
X144600000Y-113400000D01*
X183800000Y-115000000D02*
X178200000Y-115000000D01*
X136200000Y-111200000D02*
X124296388Y-111200000D01*
X144600000Y-113400000D02*
X144226000Y-113026000D01*
X160800000Y-115600000D02*
X160400000Y-115200000D01*
X137000000Y-110400000D02*
X136200000Y-111200000D01*
X144226000Y-110826000D02*
X143800000Y-110400000D01*
X160400000Y-115200000D02*
X160400000Y-113800000D01*
X143800000Y-110400000D02*
X137000000Y-110400000D01*
X123358888Y-110262500D02*
X122362500Y-110262500D01*
X184600000Y-117400000D02*
X184200000Y-117000000D01*
X204300000Y-117900000D02*
X203800000Y-117400000D01*
X178200000Y-115000000D02*
X177600000Y-115600000D01*
X124296388Y-111200000D02*
X123358888Y-110262500D01*
X203800000Y-117400000D02*
X184600000Y-117400000D01*
X144226000Y-113026000D02*
X144226000Y-110826000D01*
X160400000Y-113800000D02*
X160000000Y-113400000D01*
X184200000Y-117000000D02*
X184200000Y-115400000D01*
X177600000Y-115600000D02*
X160800000Y-115600000D01*
X206025000Y-117900000D02*
X204300000Y-117900000D01*
X184200000Y-115400000D02*
X183800000Y-115000000D01*
D24*
%TO.N,Net-(D1-AB)*%
X71975000Y-112000000D02*
X73750000Y-112000000D01*
X174000000Y-113500000D02*
X173400000Y-112900000D01*
X208975000Y-117000000D02*
X208975000Y-116100000D01*
X195975000Y-112900000D02*
X195975000Y-113975000D01*
X168975000Y-112900000D02*
X168975000Y-112000000D01*
X208250000Y-114500000D02*
X208975000Y-115225000D01*
X58350000Y-116100000D02*
X57250000Y-115000000D01*
X197250000Y-114500000D02*
X208250000Y-114500000D01*
X141975000Y-112000000D02*
X143650000Y-112000000D01*
X195975000Y-112000000D02*
X195975000Y-111100000D01*
X187750000Y-112000000D02*
X188000000Y-112250000D01*
X99975000Y-112000000D02*
X101750000Y-112000000D01*
X208975000Y-115225000D02*
X208975000Y-116100000D01*
X182475000Y-117900000D02*
X182475000Y-117000000D01*
X129475000Y-117000000D02*
X129475000Y-116100000D01*
X86475000Y-117900000D02*
X86475000Y-117000000D01*
X155475000Y-117900000D02*
X155475000Y-117000000D01*
X113975000Y-117900000D02*
X113975000Y-117000000D01*
X58975000Y-117000000D02*
X60750000Y-117000000D01*
X195975000Y-112900000D02*
X195975000Y-112000000D01*
X58975000Y-117000000D02*
X58975000Y-116100000D01*
X99975000Y-112900000D02*
X99975000Y-112000000D01*
X188000000Y-112250000D02*
X188000000Y-114250000D01*
X86475000Y-117000000D02*
X86475000Y-116100000D01*
X58975000Y-117900000D02*
X58975000Y-117000000D01*
X168975000Y-112000000D02*
X187750000Y-112000000D01*
X129475000Y-117900000D02*
X129475000Y-117000000D01*
X188000000Y-114250000D02*
X188250000Y-114500000D01*
X155475000Y-117000000D02*
X157250000Y-117000000D01*
X71975000Y-112900000D02*
X71975000Y-112000000D01*
X155475000Y-117000000D02*
X155475000Y-116100000D01*
X141975000Y-112000000D02*
X141975000Y-111100000D01*
X71975000Y-112000000D02*
X71975000Y-111100000D01*
X195975000Y-113975000D02*
X196500000Y-114500000D01*
X141975000Y-112900000D02*
X141975000Y-112000000D01*
X196500000Y-114500000D02*
X197250000Y-114500000D01*
X173400000Y-112900000D02*
X168975000Y-112900000D01*
X113975000Y-117000000D02*
X113975000Y-116100000D01*
X99975000Y-112000000D02*
X99975000Y-111100000D01*
X58975000Y-116100000D02*
X58350000Y-116100000D01*
X113975000Y-117000000D02*
X115750000Y-117000000D01*
X182475000Y-117000000D02*
X182475000Y-116100000D01*
X86475000Y-117000000D02*
X88000000Y-117000000D01*
X188250000Y-114500000D02*
X196500000Y-114500000D01*
X174000000Y-114150000D02*
X174000000Y-113500000D01*
X208975000Y-117900000D02*
X208975000Y-117000000D01*
X168975000Y-112000000D02*
X168975000Y-111100000D01*
X129475000Y-117000000D02*
X131150000Y-117000000D01*
%TO.N,Net-(J4-Pin_1)*%
X98000000Y-104750000D02*
X98250000Y-104500000D01*
X61750000Y-104750000D02*
X63750000Y-104750000D01*
X62750000Y-105750000D02*
X63750000Y-104750000D01*
X119700000Y-104450000D02*
X119500000Y-104250000D01*
X63750000Y-104750000D02*
X98000000Y-104750000D01*
X61250000Y-107250000D02*
X61250000Y-105250000D01*
X98250000Y-104500000D02*
X98750000Y-104500000D01*
X61250000Y-105250000D02*
X61750000Y-104750000D01*
X62750000Y-106337500D02*
X62750000Y-105750000D01*
X119700000Y-106500000D02*
X119700000Y-104450000D01*
%TO.N,Net-(J2-Pin_1)*%
X64337500Y-108162500D02*
X65000000Y-107500000D01*
X122962500Y-104000000D02*
X121750000Y-104000000D01*
X59750000Y-108162500D02*
X62750000Y-108162500D01*
X108250000Y-103500000D02*
X107500000Y-104250000D01*
X82500000Y-106950000D02*
X82500000Y-106250000D01*
X121000000Y-104750000D02*
X122000000Y-104750000D01*
X99000000Y-105500000D02*
X81750000Y-105500000D01*
X133950000Y-102000000D02*
X202000000Y-102000000D01*
X102400057Y-104250000D02*
X100250000Y-104250000D01*
X77000000Y-105500000D02*
X78500000Y-105500000D01*
X122462500Y-104500000D02*
X122250000Y-104500000D01*
X82500000Y-106250000D02*
X81750000Y-105500000D01*
X121000000Y-104750000D02*
X120500000Y-105250000D01*
X62750000Y-108162500D02*
X64337500Y-108162500D01*
X77750000Y-106950000D02*
X77750000Y-106250000D01*
X202000000Y-102000000D02*
X202200000Y-101800000D01*
X78500000Y-105500000D02*
X81750000Y-105500000D01*
X102998943Y-104149000D02*
X102501057Y-104149000D01*
X65000000Y-106000000D02*
X65500000Y-105500000D01*
X122962500Y-104000000D02*
X122462500Y-104500000D01*
X103099943Y-104250000D02*
X102998943Y-104149000D01*
X100250000Y-104250000D02*
X99000000Y-105500000D01*
X120500000Y-105250000D02*
X120500000Y-106500000D01*
X119300000Y-106500000D02*
X119300000Y-105050000D01*
X117750000Y-103500000D02*
X122462500Y-103500000D01*
X202750000Y-101750000D02*
X202750000Y-101800000D01*
X102501057Y-104149000D02*
X102400057Y-104250000D01*
X77750000Y-106250000D02*
X77000000Y-105500000D01*
X117750000Y-103500000D02*
X108250000Y-103500000D01*
X107500000Y-104250000D02*
X103099943Y-104250000D01*
X65500000Y-105500000D02*
X77000000Y-105500000D01*
X119300000Y-105050000D02*
X117750000Y-103500000D01*
X65000000Y-107500000D02*
X65000000Y-106000000D01*
X202200000Y-101800000D02*
X202750000Y-101800000D01*
X133750000Y-101800000D02*
X133950000Y-102000000D01*
X122462500Y-103500000D02*
X122962500Y-104000000D01*
X122000000Y-104750000D02*
X122250000Y-104500000D01*
D27*
%TO.N,GND*%
X121689000Y-106511000D02*
X121689000Y-107311000D01*
X121700000Y-106500000D02*
X121689000Y-106511000D01*
X119900000Y-109100000D02*
X119900000Y-109462500D01*
D24*
X116750000Y-106100000D02*
X117700000Y-106100000D01*
X125037500Y-104000000D02*
X126750000Y-104000000D01*
X121950000Y-106250000D02*
X121700000Y-106500000D01*
X123250000Y-106250000D02*
X121950000Y-106250000D01*
D27*
X118100000Y-106500000D02*
X118139000Y-106539000D01*
D24*
X203250000Y-105000000D02*
X202500000Y-105000000D01*
X111250000Y-105500000D02*
X110750000Y-105000000D01*
X208000000Y-108000000D02*
X205500000Y-108000000D01*
X203750000Y-108000000D02*
X203000000Y-108000000D01*
X203500000Y-105250000D02*
X203250000Y-105000000D01*
X203000000Y-108000000D02*
X202500000Y-107500000D01*
X113212500Y-105500000D02*
X111250000Y-105500000D01*
X117700000Y-106100000D02*
X118100000Y-106500000D01*
X107587500Y-105500000D02*
X106000000Y-105500000D01*
X126750000Y-104000000D02*
X127000000Y-103750000D01*
D27*
X119900000Y-108900000D02*
X119900000Y-109462500D01*
X118139000Y-106539000D02*
X118139000Y-107701500D01*
X121689000Y-107311000D02*
X119900000Y-109100000D01*
D24*
X203500000Y-107750000D02*
X203500000Y-105250000D01*
X203750000Y-108000000D02*
X203500000Y-107750000D01*
X205500000Y-108000000D02*
X203750000Y-108000000D01*
D27*
X118139000Y-107701500D02*
X119900000Y-109462500D01*
D24*
%TO.N,Net-(J10-Pin_1)*%
X120100000Y-104900000D02*
X120750000Y-104250000D01*
X120100000Y-106500000D02*
X120100000Y-104900000D01*
X97750000Y-104000000D02*
X60000000Y-104000000D01*
X59750000Y-104250000D02*
X59750000Y-106337500D01*
X58250000Y-107250000D02*
X58250000Y-104500000D01*
X58750000Y-104000000D02*
X60000000Y-104000000D01*
X60000000Y-104000000D02*
X59750000Y-104250000D01*
X58250000Y-104500000D02*
X58750000Y-104000000D01*
X120731671Y-104231671D02*
X120731671Y-104213343D01*
X120750000Y-104250000D02*
X120731671Y-104231671D01*
%TO.N,Net-(U1-VCAP)*%
X118010274Y-105500000D02*
X115287500Y-105500000D01*
X118500000Y-106500000D02*
X118500000Y-105989726D01*
X118500000Y-105989726D02*
X118010274Y-105500000D01*
%TO.N,Net-(JP1-C)*%
X85250000Y-110750000D02*
X85750000Y-110250000D01*
X85750000Y-110250000D02*
X85750000Y-107000000D01*
D26*
X124477000Y-105477000D02*
X121723000Y-105477000D01*
D24*
X80250000Y-110750000D02*
X85250000Y-110750000D01*
X85750000Y-107000000D02*
X86250000Y-106500000D01*
D26*
X121300000Y-105900000D02*
X121300000Y-106500000D01*
X124750000Y-105750000D02*
X124477000Y-105477000D01*
D24*
X79750000Y-108750000D02*
X79750000Y-110250000D01*
D26*
X124750000Y-106000000D02*
X124750000Y-105750000D01*
D24*
X79750000Y-110250000D02*
X80250000Y-110750000D01*
X102750000Y-105500000D02*
X103750000Y-105500000D01*
X77750000Y-108250000D02*
X79250000Y-108250000D01*
X86250000Y-106500000D02*
X101750000Y-106500000D01*
X79250000Y-108250000D02*
X79750000Y-108750000D01*
D26*
X121723000Y-105477000D02*
X121300000Y-105900000D01*
D24*
X101750000Y-106500000D02*
X102750000Y-105500000D01*
%TO.N,Net-(JP2-C)*%
X82500000Y-108250000D02*
X83750000Y-108250000D01*
X83750000Y-108250000D02*
X84250000Y-107750000D01*
X101500000Y-105000000D02*
X101750000Y-105250000D01*
X84750000Y-106000000D02*
X99750000Y-106000000D01*
D26*
X126000000Y-105600000D02*
X125526000Y-105126000D01*
D24*
X99750000Y-106000000D02*
X100750000Y-105000000D01*
X84250000Y-107750000D02*
X84250000Y-106500000D01*
X100750000Y-105000000D02*
X101500000Y-105000000D01*
D26*
X121374000Y-105126000D02*
X120900000Y-105600000D01*
D24*
X84250000Y-106500000D02*
X84750000Y-106000000D01*
D26*
X125526000Y-105126000D02*
X121374000Y-105126000D01*
X126000000Y-106000000D02*
X126000000Y-105600000D01*
X120900000Y-105600000D02*
X120900000Y-106500000D01*
D24*
%TO.N,Net-(U1-IREF)*%
X109412500Y-104837500D02*
X109412500Y-105500000D01*
X110000000Y-104250000D02*
X109412500Y-104837500D01*
X118900000Y-106500000D02*
X118900000Y-105400000D01*
X118900000Y-105400000D02*
X117750000Y-104250000D01*
X117750000Y-104250000D02*
X110000000Y-104250000D01*
%TD*%
%TA.AperFunction,Conductor*%
%TO.N,GND*%
G36*
X114767539Y-112195185D02*
G01*
X114813294Y-112247989D01*
X114824500Y-112299500D01*
X114824500Y-112700500D01*
X114804815Y-112767539D01*
X114752011Y-112813294D01*
X114700500Y-112824500D01*
X109324233Y-112824500D01*
X109216507Y-112853364D01*
X109216507Y-112853365D01*
X109177865Y-112863719D01*
X109177863Y-112863719D01*
X109177863Y-112863720D01*
X109046635Y-112939485D01*
X109046632Y-112939487D01*
X108539487Y-113446632D01*
X108539485Y-113446635D01*
X108463719Y-113577863D01*
X108430788Y-113700766D01*
X108424500Y-113724234D01*
X108424500Y-117324233D01*
X108424500Y-117324234D01*
X108424500Y-117475766D01*
X108429207Y-117493334D01*
X108463719Y-117622136D01*
X108496220Y-117678428D01*
X108539485Y-117753365D01*
X109039485Y-118253365D01*
X109146635Y-118360515D01*
X109247227Y-118418592D01*
X109277861Y-118436279D01*
X109277865Y-118436281D01*
X109424234Y-118475500D01*
X109784046Y-118475500D01*
X109851085Y-118495185D01*
X109860157Y-118502495D01*
X109860355Y-118502232D01*
X109982664Y-118593793D01*
X109982671Y-118593797D01*
X110117517Y-118644091D01*
X110117516Y-118644091D01*
X110124444Y-118644835D01*
X110177127Y-118650500D01*
X111872872Y-118650499D01*
X111932483Y-118644091D01*
X112067331Y-118593796D01*
X112182546Y-118507546D01*
X112268796Y-118392331D01*
X112319091Y-118257483D01*
X112325500Y-118197873D01*
X112325499Y-117602128D01*
X112319091Y-117542517D01*
X112319089Y-117542511D01*
X112300747Y-117493334D01*
X112298558Y-117462733D01*
X112294190Y-117432354D01*
X112295904Y-117425636D01*
X112295762Y-117423643D01*
X112296985Y-117421402D01*
X112300747Y-117406665D01*
X112319091Y-117357483D01*
X112325500Y-117297873D01*
X112325499Y-116702128D01*
X112319091Y-116642517D01*
X112307447Y-116611298D01*
X112300747Y-116593334D01*
X112298558Y-116562733D01*
X112294190Y-116532354D01*
X112295904Y-116525636D01*
X112295762Y-116523643D01*
X112296985Y-116521402D01*
X112300747Y-116506665D01*
X112319091Y-116457483D01*
X112325500Y-116397873D01*
X112325499Y-115802128D01*
X112325499Y-115802127D01*
X112674500Y-115802127D01*
X112674500Y-115802134D01*
X112674500Y-115802135D01*
X112674500Y-116397870D01*
X112674501Y-116397876D01*
X112680908Y-116457482D01*
X112689252Y-116479852D01*
X112699252Y-116506665D01*
X112699253Y-116506666D01*
X112701441Y-116537272D01*
X112705809Y-116567645D01*
X112703911Y-116571800D01*
X112704237Y-116576358D01*
X112699253Y-116593331D01*
X112680910Y-116642511D01*
X112680910Y-116642514D01*
X112680909Y-116642517D01*
X112674500Y-116702127D01*
X112674500Y-116702134D01*
X112674500Y-116702135D01*
X112674500Y-117297870D01*
X112674501Y-117297876D01*
X112680908Y-117357482D01*
X112689001Y-117379179D01*
X112699252Y-117406665D01*
X112699253Y-117406666D01*
X112701441Y-117437272D01*
X112705809Y-117467645D01*
X112703911Y-117471800D01*
X112704237Y-117476358D01*
X112699253Y-117493331D01*
X112680910Y-117542511D01*
X112680910Y-117542514D01*
X112680909Y-117542517D01*
X112674500Y-117602127D01*
X112674500Y-117602134D01*
X112674500Y-117602135D01*
X112674500Y-118197870D01*
X112674501Y-118197876D01*
X112680908Y-118257483D01*
X112731202Y-118392328D01*
X112731206Y-118392335D01*
X112817452Y-118507544D01*
X112817455Y-118507547D01*
X112932664Y-118593793D01*
X112932671Y-118593797D01*
X113067517Y-118644091D01*
X113067516Y-118644091D01*
X113074444Y-118644835D01*
X113127127Y-118650500D01*
X114822872Y-118650499D01*
X114882483Y-118644091D01*
X115017331Y-118593796D01*
X115132546Y-118507546D01*
X115218796Y-118392331D01*
X115269091Y-118257483D01*
X115275500Y-118197873D01*
X115275499Y-117855487D01*
X115295183Y-117788450D01*
X115347987Y-117742695D01*
X115417146Y-117732751D01*
X115446950Y-117740927D01*
X115516503Y-117769737D01*
X115671153Y-117800499D01*
X115671156Y-117800500D01*
X115671158Y-117800500D01*
X115828844Y-117800500D01*
X115828845Y-117800499D01*
X115983497Y-117769737D01*
X116129179Y-117709394D01*
X116260289Y-117621789D01*
X116371789Y-117510289D01*
X116459394Y-117379179D01*
X116519737Y-117233497D01*
X116550500Y-117078842D01*
X116550500Y-116921158D01*
X116550500Y-116921155D01*
X116550499Y-116921153D01*
X116519738Y-116766510D01*
X116519737Y-116766503D01*
X116468381Y-116642517D01*
X116459397Y-116620827D01*
X116459390Y-116620814D01*
X116371789Y-116489711D01*
X116371786Y-116489707D01*
X116260292Y-116378213D01*
X116260288Y-116378210D01*
X116129185Y-116290609D01*
X116129172Y-116290602D01*
X115983501Y-116230264D01*
X115983489Y-116230261D01*
X115828845Y-116199500D01*
X115828842Y-116199500D01*
X115671158Y-116199500D01*
X115671155Y-116199500D01*
X115516510Y-116230261D01*
X115516503Y-116230263D01*
X115446950Y-116259072D01*
X115377481Y-116266539D01*
X115315002Y-116235264D01*
X115279350Y-116175174D01*
X115275499Y-116144510D01*
X115275499Y-115802129D01*
X115275498Y-115802123D01*
X115269091Y-115742516D01*
X115218797Y-115607671D01*
X115218793Y-115607664D01*
X115132547Y-115492455D01*
X115132544Y-115492452D01*
X115017335Y-115406206D01*
X115017328Y-115406202D01*
X114882482Y-115355908D01*
X114882483Y-115355908D01*
X114822883Y-115349501D01*
X114822881Y-115349500D01*
X114822873Y-115349500D01*
X114822864Y-115349500D01*
X113127129Y-115349500D01*
X113127123Y-115349501D01*
X113067516Y-115355908D01*
X112932671Y-115406202D01*
X112932664Y-115406206D01*
X112817455Y-115492452D01*
X112817452Y-115492455D01*
X112731206Y-115607664D01*
X112731202Y-115607671D01*
X112680910Y-115742513D01*
X112680909Y-115742517D01*
X112674500Y-115802127D01*
X112325499Y-115802127D01*
X112319091Y-115742517D01*
X112319089Y-115742512D01*
X112268797Y-115607671D01*
X112268793Y-115607664D01*
X112182547Y-115492455D01*
X112182544Y-115492452D01*
X112067335Y-115406206D01*
X112067328Y-115406202D01*
X111932482Y-115355908D01*
X111932483Y-115355908D01*
X111872883Y-115349501D01*
X111872881Y-115349500D01*
X111872873Y-115349500D01*
X111872865Y-115349500D01*
X111699500Y-115349500D01*
X111632461Y-115329815D01*
X111586706Y-115277011D01*
X111575500Y-115225500D01*
X111575500Y-114899500D01*
X111595185Y-114832461D01*
X111647989Y-114786706D01*
X111699500Y-114775500D01*
X118200500Y-114775500D01*
X118267539Y-114795185D01*
X118313294Y-114847989D01*
X118324500Y-114899500D01*
X118324500Y-117175765D01*
X118363719Y-117322136D01*
X118396657Y-117379185D01*
X118439485Y-117453365D01*
X118846635Y-117860515D01*
X118957460Y-117924500D01*
X118976290Y-117935372D01*
X118977865Y-117936281D01*
X119124233Y-117975500D01*
X119124234Y-117975500D01*
X124310258Y-117975500D01*
X124377297Y-117995185D01*
X124397939Y-118011819D01*
X124746635Y-118360515D01*
X124847227Y-118418592D01*
X124877861Y-118436279D01*
X124877865Y-118436281D01*
X125024234Y-118475500D01*
X125175767Y-118475500D01*
X125284046Y-118475500D01*
X125351085Y-118495185D01*
X125360157Y-118502495D01*
X125360355Y-118502232D01*
X125482664Y-118593793D01*
X125482671Y-118593797D01*
X125617517Y-118644091D01*
X125617516Y-118644091D01*
X125624444Y-118644835D01*
X125677127Y-118650500D01*
X127372872Y-118650499D01*
X127432483Y-118644091D01*
X127567331Y-118593796D01*
X127682546Y-118507546D01*
X127768796Y-118392331D01*
X127819091Y-118257483D01*
X127825500Y-118197873D01*
X127825499Y-117602128D01*
X127819091Y-117542517D01*
X127819089Y-117542511D01*
X127800747Y-117493334D01*
X127798558Y-117462733D01*
X127794190Y-117432354D01*
X127795904Y-117425636D01*
X127795762Y-117423643D01*
X127796985Y-117421402D01*
X127800747Y-117406665D01*
X127819091Y-117357483D01*
X127825500Y-117297873D01*
X127825499Y-116702128D01*
X127819091Y-116642517D01*
X127807447Y-116611298D01*
X127800747Y-116593334D01*
X127798558Y-116562733D01*
X127794190Y-116532354D01*
X127795904Y-116525636D01*
X127795762Y-116523643D01*
X127796985Y-116521402D01*
X127800747Y-116506665D01*
X127819091Y-116457483D01*
X127825500Y-116397873D01*
X127825499Y-116099498D01*
X127828049Y-116090813D01*
X127826761Y-116081853D01*
X127837738Y-116057816D01*
X127845183Y-116032461D01*
X127852025Y-116026532D01*
X127855786Y-116018297D01*
X127878017Y-116004010D01*
X127897987Y-115986706D01*
X127908502Y-115984418D01*
X127914564Y-115980523D01*
X127949499Y-115975500D01*
X128050500Y-115975500D01*
X128117539Y-115995185D01*
X128163294Y-116047989D01*
X128174500Y-116099500D01*
X128174500Y-116397869D01*
X128174501Y-116397876D01*
X128180908Y-116457482D01*
X128189252Y-116479852D01*
X128199252Y-116506665D01*
X128199253Y-116506666D01*
X128201441Y-116537272D01*
X128205809Y-116567645D01*
X128203911Y-116571800D01*
X128204237Y-116576358D01*
X128199253Y-116593331D01*
X128180910Y-116642511D01*
X128180910Y-116642514D01*
X128180909Y-116642517D01*
X128174500Y-116702127D01*
X128174500Y-116702134D01*
X128174500Y-116702135D01*
X128174500Y-117297870D01*
X128174501Y-117297876D01*
X128180908Y-117357482D01*
X128189001Y-117379179D01*
X128199252Y-117406665D01*
X128199253Y-117406666D01*
X128201441Y-117437272D01*
X128205809Y-117467645D01*
X128203911Y-117471800D01*
X128204237Y-117476358D01*
X128199253Y-117493331D01*
X128180910Y-117542511D01*
X128180910Y-117542514D01*
X128180909Y-117542517D01*
X128174500Y-117602127D01*
X128174500Y-117602134D01*
X128174500Y-117602135D01*
X128174500Y-118197870D01*
X128174501Y-118197876D01*
X128180908Y-118257483D01*
X128231202Y-118392328D01*
X128231206Y-118392335D01*
X128317452Y-118507544D01*
X128317455Y-118507547D01*
X128432664Y-118593793D01*
X128432671Y-118593797D01*
X128567517Y-118644091D01*
X128567516Y-118644091D01*
X128574444Y-118644835D01*
X128627127Y-118650500D01*
X130322872Y-118650499D01*
X130382483Y-118644091D01*
X130517331Y-118593796D01*
X130632546Y-118507546D01*
X130718796Y-118392331D01*
X130769091Y-118257483D01*
X130775500Y-118197873D01*
X130775499Y-117892782D01*
X130795183Y-117825745D01*
X130847987Y-117779990D01*
X130917146Y-117770046D01*
X130923691Y-117771167D01*
X131071155Y-117800500D01*
X131071158Y-117800500D01*
X131228844Y-117800500D01*
X131228845Y-117800499D01*
X131383497Y-117769737D01*
X131529179Y-117709394D01*
X131544274Y-117699307D01*
X131610949Y-117678428D01*
X131678330Y-117696911D01*
X131700847Y-117714727D01*
X131739485Y-117753365D01*
X131846635Y-117860515D01*
X131914159Y-117899500D01*
X131977865Y-117936281D01*
X132124233Y-117975500D01*
X132124234Y-117975500D01*
X150110258Y-117975500D01*
X150177297Y-117995185D01*
X150197939Y-118011819D01*
X150439485Y-118253365D01*
X150546635Y-118360515D01*
X150647227Y-118418592D01*
X150677861Y-118436279D01*
X150677865Y-118436281D01*
X150824234Y-118475500D01*
X151284046Y-118475500D01*
X151351085Y-118495185D01*
X151360157Y-118502495D01*
X151360355Y-118502232D01*
X151482664Y-118593793D01*
X151482671Y-118593797D01*
X151617517Y-118644091D01*
X151617516Y-118644091D01*
X151624444Y-118644835D01*
X151677127Y-118650500D01*
X153372872Y-118650499D01*
X153432483Y-118644091D01*
X153567331Y-118593796D01*
X153682546Y-118507546D01*
X153768796Y-118392331D01*
X153819091Y-118257483D01*
X153825500Y-118197873D01*
X153825499Y-117602128D01*
X153819091Y-117542517D01*
X153819089Y-117542511D01*
X153800747Y-117493334D01*
X153798558Y-117462733D01*
X153794190Y-117432354D01*
X153795904Y-117425636D01*
X153795762Y-117423643D01*
X153796985Y-117421402D01*
X153800747Y-117406665D01*
X153819091Y-117357483D01*
X153825500Y-117297873D01*
X153825499Y-116702128D01*
X153819091Y-116642517D01*
X153807447Y-116611298D01*
X153800747Y-116593334D01*
X153798558Y-116562733D01*
X153794190Y-116532354D01*
X153795904Y-116525636D01*
X153795762Y-116523643D01*
X153796985Y-116521402D01*
X153800747Y-116506665D01*
X153819091Y-116457483D01*
X153825500Y-116397873D01*
X153825499Y-115802128D01*
X153819091Y-115742517D01*
X153819089Y-115742512D01*
X153768797Y-115607671D01*
X153768795Y-115607668D01*
X153768210Y-115606887D01*
X153748609Y-115580703D01*
X153743450Y-115573811D01*
X153719033Y-115508346D01*
X153733885Y-115440074D01*
X153783290Y-115390668D01*
X153842717Y-115375500D01*
X154157283Y-115375500D01*
X154224322Y-115395185D01*
X154270077Y-115447989D01*
X154280021Y-115517147D01*
X154256550Y-115573811D01*
X154231204Y-115607668D01*
X154231202Y-115607671D01*
X154180910Y-115742513D01*
X154180909Y-115742517D01*
X154174500Y-115802127D01*
X154174500Y-115802134D01*
X154174500Y-115802135D01*
X154174500Y-116397870D01*
X154174501Y-116397876D01*
X154180908Y-116457482D01*
X154189252Y-116479852D01*
X154199252Y-116506665D01*
X154199253Y-116506666D01*
X154201441Y-116537272D01*
X154205809Y-116567645D01*
X154203911Y-116571800D01*
X154204237Y-116576358D01*
X154199253Y-116593331D01*
X154180910Y-116642511D01*
X154180910Y-116642514D01*
X154180909Y-116642517D01*
X154174500Y-116702127D01*
X154174500Y-116702134D01*
X154174500Y-116702135D01*
X154174500Y-117297870D01*
X154174501Y-117297876D01*
X154180908Y-117357482D01*
X154189001Y-117379179D01*
X154199252Y-117406665D01*
X154199253Y-117406666D01*
X154201441Y-117437272D01*
X154205809Y-117467645D01*
X154203911Y-117471800D01*
X154204237Y-117476358D01*
X154199253Y-117493331D01*
X154180910Y-117542511D01*
X154180910Y-117542514D01*
X154180909Y-117542517D01*
X154174500Y-117602127D01*
X154174500Y-117602134D01*
X154174500Y-117602135D01*
X154174500Y-118197870D01*
X154174501Y-118197876D01*
X154180908Y-118257483D01*
X154231202Y-118392328D01*
X154231206Y-118392335D01*
X154317452Y-118507544D01*
X154317455Y-118507547D01*
X154432664Y-118593793D01*
X154432671Y-118593797D01*
X154567517Y-118644091D01*
X154567516Y-118644091D01*
X154574444Y-118644835D01*
X154627127Y-118650500D01*
X156322872Y-118650499D01*
X156382483Y-118644091D01*
X156517331Y-118593796D01*
X156632546Y-118507546D01*
X156718796Y-118392331D01*
X156769091Y-118257483D01*
X156775500Y-118197873D01*
X156775499Y-117855487D01*
X156795183Y-117788450D01*
X156847987Y-117742695D01*
X156917146Y-117732751D01*
X156946950Y-117740927D01*
X157016503Y-117769737D01*
X157171153Y-117800499D01*
X157171156Y-117800500D01*
X157171158Y-117800500D01*
X157328844Y-117800500D01*
X157328845Y-117800499D01*
X157483497Y-117769737D01*
X157629179Y-117709394D01*
X157760289Y-117621789D01*
X157871789Y-117510289D01*
X157959394Y-117379179D01*
X158007263Y-117263610D01*
X158051102Y-117209210D01*
X158117396Y-117187144D01*
X158185095Y-117204423D01*
X158209504Y-117223384D01*
X158797635Y-117811515D01*
X158882507Y-117860516D01*
X158915933Y-117879815D01*
X158928865Y-117887281D01*
X159075234Y-117926500D01*
X159226767Y-117926500D01*
X177261258Y-117926500D01*
X177328297Y-117946185D01*
X177348939Y-117962819D01*
X177639483Y-118253363D01*
X177639485Y-118253365D01*
X177746635Y-118360515D01*
X177856999Y-118424234D01*
X177877865Y-118436281D01*
X178024233Y-118475500D01*
X178024234Y-118475500D01*
X178284046Y-118475500D01*
X178351085Y-118495185D01*
X178360157Y-118502495D01*
X178360355Y-118502232D01*
X178482664Y-118593793D01*
X178482671Y-118593797D01*
X178617517Y-118644091D01*
X178617516Y-118644091D01*
X178624444Y-118644835D01*
X178677127Y-118650500D01*
X180372872Y-118650499D01*
X180432483Y-118644091D01*
X180567331Y-118593796D01*
X180682546Y-118507546D01*
X180768796Y-118392331D01*
X180819091Y-118257483D01*
X180825500Y-118197873D01*
X180825499Y-117602128D01*
X180819091Y-117542517D01*
X180819089Y-117542511D01*
X180800747Y-117493334D01*
X180798558Y-117462733D01*
X180794190Y-117432354D01*
X180795904Y-117425636D01*
X180795762Y-117423643D01*
X180796985Y-117421402D01*
X180800747Y-117406665D01*
X180819091Y-117357483D01*
X180825500Y-117297873D01*
X180825499Y-116702128D01*
X180819091Y-116642517D01*
X180807447Y-116611298D01*
X180800747Y-116593334D01*
X180798558Y-116562733D01*
X180794190Y-116532354D01*
X180795904Y-116525636D01*
X180795762Y-116523643D01*
X180796985Y-116521402D01*
X180800747Y-116506665D01*
X180819091Y-116457483D01*
X180825500Y-116397873D01*
X180825499Y-115802128D01*
X180819091Y-115742517D01*
X180819090Y-115742513D01*
X180819090Y-115742512D01*
X180817308Y-115734969D01*
X180818624Y-115734657D01*
X180817019Y-115712223D01*
X180812653Y-115681853D01*
X180814550Y-115677697D01*
X180814225Y-115673142D01*
X180828930Y-115646210D01*
X180841678Y-115618297D01*
X180845520Y-115615827D01*
X180847709Y-115611819D01*
X180874642Y-115597111D01*
X180900456Y-115580523D01*
X180906655Y-115579631D01*
X180909032Y-115578334D01*
X180935391Y-115575500D01*
X181064609Y-115575500D01*
X181131648Y-115595185D01*
X181177403Y-115647989D01*
X181187347Y-115717147D01*
X181181366Y-115740577D01*
X181180910Y-115742508D01*
X181180909Y-115742516D01*
X181180909Y-115742517D01*
X181174500Y-115802127D01*
X181174500Y-115802134D01*
X181174500Y-115802135D01*
X181174500Y-116397870D01*
X181174501Y-116397876D01*
X181180908Y-116457482D01*
X181189252Y-116479852D01*
X181199252Y-116506665D01*
X181199253Y-116506666D01*
X181201441Y-116537272D01*
X181205809Y-116567645D01*
X181203911Y-116571800D01*
X181204237Y-116576358D01*
X181199253Y-116593331D01*
X181180910Y-116642511D01*
X181180910Y-116642514D01*
X181180909Y-116642517D01*
X181174500Y-116702127D01*
X181174500Y-116702134D01*
X181174500Y-116702135D01*
X181174500Y-117297870D01*
X181174501Y-117297876D01*
X181180908Y-117357482D01*
X181189001Y-117379179D01*
X181199252Y-117406665D01*
X181199253Y-117406666D01*
X181201441Y-117437272D01*
X181205809Y-117467645D01*
X181203911Y-117471800D01*
X181204237Y-117476358D01*
X181199253Y-117493331D01*
X181180910Y-117542511D01*
X181180910Y-117542514D01*
X181180909Y-117542517D01*
X181174500Y-117602127D01*
X181174500Y-117602134D01*
X181174500Y-117602135D01*
X181174500Y-118197870D01*
X181174501Y-118197876D01*
X181180908Y-118257483D01*
X181231202Y-118392328D01*
X181231206Y-118392335D01*
X181317452Y-118507544D01*
X181317455Y-118507547D01*
X181432664Y-118593793D01*
X181432671Y-118593797D01*
X181567517Y-118644091D01*
X181567516Y-118644091D01*
X181574444Y-118644835D01*
X181627127Y-118650500D01*
X183322872Y-118650499D01*
X183382483Y-118644091D01*
X183517331Y-118593796D01*
X183575819Y-118550011D01*
X183608920Y-118525233D01*
X183674385Y-118500816D01*
X183683231Y-118500500D01*
X203099903Y-118500500D01*
X203166942Y-118520185D01*
X203187584Y-118536819D01*
X203515139Y-118864374D01*
X203515149Y-118864385D01*
X203519479Y-118868715D01*
X203519480Y-118868716D01*
X203631284Y-118980520D01*
X203711553Y-119026863D01*
X203768215Y-119059577D01*
X203920943Y-119100500D01*
X208288331Y-119100500D01*
X208288347Y-119100501D01*
X208295943Y-119100501D01*
X208454054Y-119100501D01*
X208454057Y-119100501D01*
X208606785Y-119059577D01*
X208663447Y-119026863D01*
X208743716Y-118980520D01*
X208855520Y-118868716D01*
X208855520Y-118868714D01*
X208865723Y-118858512D01*
X208865727Y-118858506D01*
X209037416Y-118686818D01*
X209098739Y-118653333D01*
X209125097Y-118650499D01*
X209822871Y-118650499D01*
X209822872Y-118650499D01*
X209882483Y-118644091D01*
X210017331Y-118593796D01*
X210132546Y-118507546D01*
X210218796Y-118392331D01*
X210269091Y-118257483D01*
X210275500Y-118197873D01*
X210275499Y-117602128D01*
X210269091Y-117542517D01*
X210269089Y-117542511D01*
X210250747Y-117493334D01*
X210245762Y-117423643D01*
X210250747Y-117406665D01*
X210269091Y-117357483D01*
X210275500Y-117297873D01*
X210275499Y-116702128D01*
X210269091Y-116642517D01*
X210257447Y-116611298D01*
X210250747Y-116593334D01*
X210248861Y-116566979D01*
X210243244Y-116541153D01*
X210246081Y-116528109D01*
X210245762Y-116523643D01*
X210250743Y-116506675D01*
X210269091Y-116457483D01*
X210269091Y-116457481D01*
X210270044Y-116454927D01*
X210311916Y-116398993D01*
X210377381Y-116374577D01*
X210441317Y-116387172D01*
X210571307Y-116451641D01*
X210756111Y-116497600D01*
X210798877Y-116500500D01*
X213201122Y-116500499D01*
X213243889Y-116497600D01*
X213243891Y-116497599D01*
X213243895Y-116497599D01*
X213333824Y-116475234D01*
X213345573Y-116472312D01*
X213415382Y-116475234D01*
X213472528Y-116515435D01*
X213498869Y-116580149D01*
X213499500Y-116592646D01*
X213499500Y-118129867D01*
X213479815Y-118196906D01*
X213427011Y-118242661D01*
X213357853Y-118252605D01*
X213294297Y-118223580D01*
X213260939Y-118177319D01*
X213232437Y-118108509D01*
X213232436Y-118108507D01*
X213162464Y-118003788D01*
X213141984Y-117973137D01*
X213141981Y-117973133D01*
X213026866Y-117858018D01*
X213026862Y-117858015D01*
X212891492Y-117767563D01*
X212891490Y-117767562D01*
X212741082Y-117705262D01*
X212741073Y-117705259D01*
X212581406Y-117673500D01*
X212581403Y-117673500D01*
X212418597Y-117673500D01*
X212418594Y-117673500D01*
X212258926Y-117705259D01*
X212258917Y-117705262D01*
X212108509Y-117767562D01*
X212108507Y-117767563D01*
X211973137Y-117858015D01*
X211973133Y-117858018D01*
X211858018Y-117973133D01*
X211858015Y-117973137D01*
X211767563Y-118108507D01*
X211767562Y-118108509D01*
X211705262Y-118258917D01*
X211705259Y-118258926D01*
X211673500Y-118418592D01*
X211673500Y-118581407D01*
X211705259Y-118741073D01*
X211705262Y-118741082D01*
X211767562Y-118891490D01*
X211767563Y-118891492D01*
X211858015Y-119026862D01*
X211858018Y-119026866D01*
X211973133Y-119141981D01*
X211973137Y-119141984D01*
X212108505Y-119232435D01*
X212108506Y-119232435D01*
X212108507Y-119232436D01*
X212108509Y-119232437D01*
X212177320Y-119260939D01*
X212231724Y-119304779D01*
X212253789Y-119371073D01*
X212236510Y-119438773D01*
X212185373Y-119486383D01*
X212129868Y-119499500D01*
X50624500Y-119499500D01*
X50557461Y-119479815D01*
X50511706Y-119427011D01*
X50500500Y-119375500D01*
X50500500Y-118620132D01*
X50520185Y-118553093D01*
X50572989Y-118507338D01*
X50642147Y-118497394D01*
X50705703Y-118526419D01*
X50739061Y-118572680D01*
X50767562Y-118641490D01*
X50767563Y-118641492D01*
X50858015Y-118776862D01*
X50858018Y-118776866D01*
X50973133Y-118891981D01*
X50973137Y-118891984D01*
X51108505Y-118982435D01*
X51108506Y-118982435D01*
X51108507Y-118982436D01*
X51108509Y-118982437D01*
X51179445Y-119011819D01*
X51258919Y-119044738D01*
X51258921Y-119044738D01*
X51258926Y-119044740D01*
X51418592Y-119076499D01*
X51418595Y-119076500D01*
X51418597Y-119076500D01*
X51581405Y-119076500D01*
X51581406Y-119076499D01*
X51661780Y-119060512D01*
X51741073Y-119044740D01*
X51741076Y-119044738D01*
X51741081Y-119044738D01*
X51891495Y-118982435D01*
X52026863Y-118891984D01*
X52141984Y-118776863D01*
X52232435Y-118641495D01*
X52294738Y-118491081D01*
X52297838Y-118475500D01*
X52326500Y-118331404D01*
X52326500Y-118168594D01*
X52326499Y-118168592D01*
X52294740Y-118008926D01*
X52294737Y-118008917D01*
X52285455Y-117986509D01*
X52264274Y-117935372D01*
X52232437Y-117858509D01*
X52232436Y-117858507D01*
X52232109Y-117858018D01*
X52141984Y-117723137D01*
X52141981Y-117723133D01*
X52026866Y-117608018D01*
X52026862Y-117608015D01*
X51891492Y-117517563D01*
X51891490Y-117517562D01*
X51741082Y-117455262D01*
X51741073Y-117455259D01*
X51581406Y-117423500D01*
X51581403Y-117423500D01*
X51418597Y-117423500D01*
X51418594Y-117423500D01*
X51258926Y-117455259D01*
X51258917Y-117455262D01*
X51108509Y-117517562D01*
X51108507Y-117517563D01*
X50973137Y-117608015D01*
X50973133Y-117608018D01*
X50858018Y-117723133D01*
X50858015Y-117723137D01*
X50767563Y-117858507D01*
X50767562Y-117858509D01*
X50739061Y-117927319D01*
X50695220Y-117981723D01*
X50628926Y-118003788D01*
X50561227Y-117986509D01*
X50513616Y-117935372D01*
X50500500Y-117879867D01*
X50500500Y-116592646D01*
X50520185Y-116525607D01*
X50572989Y-116479852D01*
X50642147Y-116469908D01*
X50654424Y-116472311D01*
X50666176Y-116475234D01*
X50756102Y-116497598D01*
X50756103Y-116497598D01*
X50756111Y-116497600D01*
X50798877Y-116500500D01*
X53201122Y-116500499D01*
X53243889Y-116497600D01*
X53270572Y-116490964D01*
X53340380Y-116493886D01*
X53397527Y-116534086D01*
X53423869Y-116598800D01*
X53424500Y-116611298D01*
X53424500Y-117424233D01*
X53424500Y-117424234D01*
X53424500Y-117575766D01*
X53433141Y-117608015D01*
X53463719Y-117722136D01*
X53492028Y-117771167D01*
X53539485Y-117853365D01*
X53939485Y-118253365D01*
X54046635Y-118360515D01*
X54081285Y-118380520D01*
X54177865Y-118436281D01*
X54324233Y-118475500D01*
X54324234Y-118475500D01*
X54784046Y-118475500D01*
X54851085Y-118495185D01*
X54860157Y-118502495D01*
X54860355Y-118502232D01*
X54982664Y-118593793D01*
X54982671Y-118593797D01*
X55117517Y-118644091D01*
X55117516Y-118644091D01*
X55124444Y-118644835D01*
X55177127Y-118650500D01*
X56785257Y-118650499D01*
X56852296Y-118670184D01*
X56872938Y-118686818D01*
X57039485Y-118853365D01*
X57146635Y-118960515D01*
X57261553Y-119026863D01*
X57277865Y-119036281D01*
X57424233Y-119075500D01*
X57424234Y-119075500D01*
X57424235Y-119075500D01*
X61825764Y-119075500D01*
X61825766Y-119075500D01*
X61972135Y-119036281D01*
X62103365Y-118960515D01*
X62452061Y-118611819D01*
X62513384Y-118578334D01*
X62539742Y-118575500D01*
X79325764Y-118575500D01*
X79325766Y-118575500D01*
X79472135Y-118536281D01*
X79603365Y-118460515D01*
X79960514Y-118103366D01*
X79976449Y-118075767D01*
X80036281Y-117972135D01*
X80066189Y-117860515D01*
X80067211Y-117856703D01*
X80068468Y-117852011D01*
X80075500Y-117825767D01*
X80075500Y-117674234D01*
X80075500Y-114664742D01*
X80084144Y-114635301D01*
X80090668Y-114605315D01*
X80094422Y-114600299D01*
X80095185Y-114597703D01*
X80111819Y-114577061D01*
X80275061Y-114413819D01*
X80336384Y-114380334D01*
X80362742Y-114377500D01*
X80759258Y-114377500D01*
X80826297Y-114397185D01*
X80872052Y-114449989D01*
X80881996Y-114519147D01*
X80852971Y-114582703D01*
X80846939Y-114589181D01*
X80739487Y-114696632D01*
X80739485Y-114696635D01*
X80663719Y-114827863D01*
X80634763Y-114935931D01*
X80624500Y-114974234D01*
X80624500Y-117324233D01*
X80624500Y-117324234D01*
X80624500Y-117475766D01*
X80629207Y-117493334D01*
X80663719Y-117622136D01*
X80696220Y-117678428D01*
X80739485Y-117753365D01*
X81346635Y-118360515D01*
X81447227Y-118418592D01*
X81477861Y-118436279D01*
X81477865Y-118436281D01*
X81624234Y-118475500D01*
X81775767Y-118475500D01*
X82284046Y-118475500D01*
X82351085Y-118495185D01*
X82360157Y-118502495D01*
X82360355Y-118502232D01*
X82482664Y-118593793D01*
X82482671Y-118593797D01*
X82617517Y-118644091D01*
X82617516Y-118644091D01*
X82624444Y-118644835D01*
X82677127Y-118650500D01*
X84372872Y-118650499D01*
X84432483Y-118644091D01*
X84501833Y-118618224D01*
X84571523Y-118613241D01*
X84632843Y-118646723D01*
X84939485Y-118953365D01*
X85046635Y-119060515D01*
X85177865Y-119136281D01*
X85324233Y-119175500D01*
X85324234Y-119175500D01*
X85324235Y-119175500D01*
X89075764Y-119175500D01*
X89075766Y-119175500D01*
X89222135Y-119136281D01*
X89353365Y-119060515D01*
X89402061Y-119011819D01*
X89463384Y-118978334D01*
X89489742Y-118975500D01*
X107275764Y-118975500D01*
X107275766Y-118975500D01*
X107422135Y-118936281D01*
X107553365Y-118860515D01*
X108060514Y-118353366D01*
X108073195Y-118331403D01*
X108136281Y-118222135D01*
X108175500Y-118075766D01*
X108175500Y-112299500D01*
X108195185Y-112232461D01*
X108247989Y-112186706D01*
X108299500Y-112175500D01*
X114700500Y-112175500D01*
X114767539Y-112195185D01*
G37*
%TD.AperFunction*%
%TA.AperFunction,Conductor*%
G36*
X187342539Y-112620185D02*
G01*
X187388294Y-112672989D01*
X187399500Y-112724500D01*
X187399500Y-114163330D01*
X187399499Y-114163348D01*
X187399499Y-114329054D01*
X187399498Y-114329054D01*
X187440424Y-114481789D01*
X187440425Y-114481790D01*
X187462186Y-114519480D01*
X187462187Y-114519482D01*
X187519475Y-114618709D01*
X187519481Y-114618717D01*
X187638349Y-114737585D01*
X187638355Y-114737590D01*
X187765139Y-114864374D01*
X187765149Y-114864385D01*
X187769479Y-114868715D01*
X187769480Y-114868716D01*
X187881284Y-114980520D01*
X187881286Y-114980521D01*
X187881290Y-114980524D01*
X187983860Y-115039742D01*
X188018216Y-115059577D01*
X188130019Y-115089534D01*
X188170942Y-115100500D01*
X188170943Y-115100500D01*
X196420943Y-115100500D01*
X197170943Y-115100500D01*
X207949903Y-115100500D01*
X208016942Y-115120185D01*
X208037584Y-115136819D01*
X208068853Y-115168088D01*
X208102338Y-115229411D01*
X208097354Y-115299103D01*
X208055482Y-115355036D01*
X208024505Y-115371951D01*
X207932671Y-115406202D01*
X207932664Y-115406206D01*
X207817455Y-115492452D01*
X207817452Y-115492455D01*
X207731206Y-115607664D01*
X207731202Y-115607671D01*
X207680910Y-115742513D01*
X207680909Y-115742517D01*
X207674500Y-115802127D01*
X207674500Y-115802134D01*
X207674500Y-115802135D01*
X207674500Y-116397870D01*
X207674501Y-116397876D01*
X207680908Y-116457482D01*
X207689252Y-116479852D01*
X207699252Y-116506665D01*
X207699253Y-116506666D01*
X207701441Y-116537272D01*
X207705809Y-116567645D01*
X207704094Y-116574362D01*
X207704237Y-116576358D01*
X207703012Y-116578599D01*
X207699253Y-116593331D01*
X207680910Y-116642511D01*
X207680910Y-116642514D01*
X207680909Y-116642517D01*
X207674500Y-116702127D01*
X207674500Y-116702134D01*
X207674500Y-116702135D01*
X207674500Y-117297870D01*
X207674501Y-117297876D01*
X207680908Y-117357482D01*
X207689001Y-117379179D01*
X207699252Y-117406665D01*
X207699253Y-117406666D01*
X207701441Y-117437272D01*
X207705809Y-117467645D01*
X207704094Y-117474362D01*
X207704237Y-117476358D01*
X207703012Y-117478599D01*
X207699253Y-117493331D01*
X207680909Y-117542514D01*
X207680908Y-117542516D01*
X207677334Y-117575765D01*
X207674501Y-117602123D01*
X207674500Y-117602135D01*
X207674500Y-117775500D01*
X207671949Y-117784185D01*
X207673238Y-117793147D01*
X207662259Y-117817187D01*
X207654815Y-117842539D01*
X207647974Y-117848466D01*
X207644213Y-117856703D01*
X207621978Y-117870992D01*
X207602011Y-117888294D01*
X207591496Y-117890581D01*
X207585435Y-117894477D01*
X207550500Y-117899500D01*
X207449499Y-117899500D01*
X207382460Y-117879815D01*
X207336705Y-117827011D01*
X207325499Y-117775500D01*
X207325499Y-117602129D01*
X207325498Y-117602123D01*
X207319091Y-117542517D01*
X207319089Y-117542511D01*
X207300747Y-117493334D01*
X207298558Y-117462733D01*
X207294190Y-117432354D01*
X207296087Y-117428198D01*
X207295762Y-117423643D01*
X207300747Y-117406665D01*
X207319091Y-117357483D01*
X207325500Y-117297873D01*
X207325499Y-116702128D01*
X207319091Y-116642517D01*
X207307447Y-116611298D01*
X207300747Y-116593334D01*
X207298558Y-116562733D01*
X207294190Y-116532354D01*
X207296087Y-116528198D01*
X207295762Y-116523643D01*
X207300747Y-116506665D01*
X207319091Y-116457483D01*
X207325500Y-116397873D01*
X207325499Y-115802128D01*
X207319091Y-115742517D01*
X207319089Y-115742512D01*
X207268797Y-115607671D01*
X207268793Y-115607664D01*
X207182547Y-115492455D01*
X207182544Y-115492452D01*
X207067335Y-115406206D01*
X207067328Y-115406202D01*
X206932482Y-115355908D01*
X206932483Y-115355908D01*
X206872883Y-115349501D01*
X206872881Y-115349500D01*
X206872873Y-115349500D01*
X206872864Y-115349500D01*
X205177129Y-115349500D01*
X205177123Y-115349501D01*
X205117516Y-115355908D01*
X204982671Y-115406202D01*
X204982664Y-115406206D01*
X204860355Y-115497768D01*
X204858560Y-115495370D01*
X204810404Y-115521666D01*
X204784046Y-115524500D01*
X204224234Y-115524500D01*
X204077863Y-115563719D01*
X203946635Y-115639485D01*
X203946632Y-115639487D01*
X203597939Y-115988181D01*
X203536616Y-116021666D01*
X203510258Y-116024500D01*
X185699500Y-116024500D01*
X185632461Y-116004815D01*
X185586706Y-115952011D01*
X185575500Y-115900500D01*
X185575500Y-114524237D01*
X185575499Y-114524230D01*
X185575410Y-114523898D01*
X185575409Y-114523897D01*
X185574226Y-114519481D01*
X185536281Y-114377865D01*
X185512272Y-114336281D01*
X185460515Y-114246635D01*
X185353365Y-114139485D01*
X184953365Y-113739485D01*
X184886302Y-113700766D01*
X184822136Y-113663719D01*
X184730348Y-113639125D01*
X184675766Y-113624500D01*
X177875766Y-113624500D01*
X177724233Y-113624500D01*
X177577863Y-113663719D01*
X177446635Y-113739485D01*
X177446632Y-113739487D01*
X176997939Y-114188181D01*
X176936616Y-114221666D01*
X176910258Y-114224500D01*
X174924500Y-114224500D01*
X174857461Y-114204815D01*
X174811706Y-114152011D01*
X174800500Y-114100500D01*
X174800500Y-114071155D01*
X174800499Y-114071153D01*
X174792644Y-114031665D01*
X174769737Y-113916503D01*
X174764896Y-113904815D01*
X174709397Y-113770827D01*
X174709390Y-113770814D01*
X174621398Y-113639125D01*
X174600520Y-113572447D01*
X174600500Y-113570234D01*
X174600500Y-113420943D01*
X174593987Y-113396635D01*
X174559577Y-113268215D01*
X174520841Y-113201123D01*
X174498034Y-113161620D01*
X174480521Y-113131285D01*
X174364385Y-113015149D01*
X174364374Y-113015139D01*
X174161416Y-112812181D01*
X174127931Y-112750858D01*
X174132915Y-112681166D01*
X174174787Y-112625233D01*
X174240251Y-112600816D01*
X174249097Y-112600500D01*
X187275500Y-112600500D01*
X187342539Y-112620185D01*
G37*
%TD.AperFunction*%
%TA.AperFunction,Conductor*%
G36*
X102169793Y-109595185D02*
G01*
X102215548Y-109647989D01*
X102225348Y-109716150D01*
X102225561Y-109716178D01*
X102225461Y-109716934D01*
X102225492Y-109717147D01*
X102225328Y-109717939D01*
X102224500Y-109724236D01*
X102224500Y-111144510D01*
X102204815Y-111211549D01*
X102152011Y-111257304D01*
X102082853Y-111267248D01*
X102053048Y-111259071D01*
X101983501Y-111230264D01*
X101983489Y-111230261D01*
X101828845Y-111199500D01*
X101828842Y-111199500D01*
X101671158Y-111199500D01*
X101671155Y-111199500D01*
X101516510Y-111230261D01*
X101516503Y-111230263D01*
X101446950Y-111259072D01*
X101377481Y-111266539D01*
X101315002Y-111235264D01*
X101279350Y-111175174D01*
X101275499Y-111144510D01*
X101275499Y-110802129D01*
X101275498Y-110802123D01*
X101274752Y-110795185D01*
X101270299Y-110753757D01*
X101269091Y-110742516D01*
X101218797Y-110607671D01*
X101218793Y-110607664D01*
X101132547Y-110492455D01*
X101132544Y-110492452D01*
X101017335Y-110406206D01*
X101017328Y-110406202D01*
X100882482Y-110355908D01*
X100882483Y-110355908D01*
X100822883Y-110349501D01*
X100822881Y-110349500D01*
X100822873Y-110349500D01*
X100822864Y-110349500D01*
X99127129Y-110349500D01*
X99127123Y-110349501D01*
X99067516Y-110355908D01*
X98932671Y-110406202D01*
X98932664Y-110406206D01*
X98817455Y-110492452D01*
X98817452Y-110492455D01*
X98731206Y-110607664D01*
X98731202Y-110607671D01*
X98685383Y-110730521D01*
X98680909Y-110742517D01*
X98674500Y-110802127D01*
X98674500Y-110802134D01*
X98674500Y-110802135D01*
X98674500Y-111397870D01*
X98674501Y-111397876D01*
X98680908Y-111457482D01*
X98687912Y-111476260D01*
X98699252Y-111506665D01*
X98699253Y-111506666D01*
X98701441Y-111537272D01*
X98705809Y-111567645D01*
X98704094Y-111574362D01*
X98704237Y-111576358D01*
X98703012Y-111578599D01*
X98699253Y-111593331D01*
X98680910Y-111642511D01*
X98680910Y-111642514D01*
X98680909Y-111642517D01*
X98674500Y-111702127D01*
X98674500Y-111702134D01*
X98674500Y-111702135D01*
X98674500Y-112297870D01*
X98674501Y-112297876D01*
X98680908Y-112357482D01*
X98686985Y-112373775D01*
X98699252Y-112406665D01*
X98699253Y-112406666D01*
X98701441Y-112437272D01*
X98705809Y-112467645D01*
X98704094Y-112474362D01*
X98704237Y-112476358D01*
X98703012Y-112478599D01*
X98699253Y-112493331D01*
X98680910Y-112542511D01*
X98680910Y-112542514D01*
X98680909Y-112542517D01*
X98674500Y-112602127D01*
X98674500Y-112602134D01*
X98674500Y-112602135D01*
X98674500Y-113197870D01*
X98674501Y-113197876D01*
X98680909Y-113257487D01*
X98682692Y-113265031D01*
X98681375Y-113265342D01*
X98682980Y-113287776D01*
X98687347Y-113318147D01*
X98685449Y-113322302D01*
X98685775Y-113326858D01*
X98671069Y-113353789D01*
X98658322Y-113381703D01*
X98654479Y-113384172D01*
X98652291Y-113388181D01*
X98625357Y-113402888D01*
X98599544Y-113419477D01*
X98593344Y-113420368D01*
X98590968Y-113421666D01*
X98564609Y-113424500D01*
X98435391Y-113424500D01*
X98368352Y-113404815D01*
X98322597Y-113352011D01*
X98312653Y-113282853D01*
X98318633Y-113259422D01*
X98319089Y-113257491D01*
X98319089Y-113257487D01*
X98319091Y-113257483D01*
X98325500Y-113197873D01*
X98325499Y-112602128D01*
X98319091Y-112542517D01*
X98300747Y-112493334D01*
X98298558Y-112462733D01*
X98294190Y-112432354D01*
X98296087Y-112428198D01*
X98295762Y-112423643D01*
X98300747Y-112406665D01*
X98319089Y-112357488D01*
X98319088Y-112357488D01*
X98319091Y-112357483D01*
X98325500Y-112297873D01*
X98325499Y-111702128D01*
X98319091Y-111642517D01*
X98314638Y-111630577D01*
X98300747Y-111593334D01*
X98298558Y-111562733D01*
X98294190Y-111532354D01*
X98296087Y-111528198D01*
X98295762Y-111523643D01*
X98300747Y-111506665D01*
X98302338Y-111502400D01*
X98319091Y-111457483D01*
X98325500Y-111397873D01*
X98325499Y-110802128D01*
X98320299Y-110753757D01*
X98319091Y-110742516D01*
X98268797Y-110607671D01*
X98268793Y-110607664D01*
X98182547Y-110492455D01*
X98182544Y-110492452D01*
X98067335Y-110406206D01*
X98067328Y-110406202D01*
X97932482Y-110355908D01*
X97932483Y-110355908D01*
X97872883Y-110349501D01*
X97872881Y-110349500D01*
X97872873Y-110349500D01*
X97872864Y-110349500D01*
X96177129Y-110349500D01*
X96177123Y-110349501D01*
X96117516Y-110355908D01*
X95982671Y-110406202D01*
X95982664Y-110406206D01*
X95860355Y-110497768D01*
X95858560Y-110495370D01*
X95810404Y-110521666D01*
X95784046Y-110524500D01*
X95224233Y-110524500D01*
X95077863Y-110563719D01*
X94946635Y-110639485D01*
X94946632Y-110639487D01*
X94539487Y-111046632D01*
X94539485Y-111046635D01*
X94463719Y-111177863D01*
X94433510Y-111290606D01*
X94424500Y-111324234D01*
X94424500Y-114324233D01*
X94424500Y-114324234D01*
X94424500Y-114475766D01*
X94436124Y-114519147D01*
X94463719Y-114622136D01*
X94471320Y-114635301D01*
X94539485Y-114753365D01*
X94939485Y-115153365D01*
X95046635Y-115260515D01*
X95091263Y-115286281D01*
X95177865Y-115336281D01*
X95324233Y-115375500D01*
X95324234Y-115375500D01*
X95324235Y-115375500D01*
X102875764Y-115375500D01*
X102875766Y-115375500D01*
X103022135Y-115336281D01*
X103153365Y-115260515D01*
X104060515Y-114353365D01*
X104136281Y-114222135D01*
X104175500Y-114075766D01*
X104175500Y-113924233D01*
X104175500Y-110899500D01*
X104195185Y-110832461D01*
X104247989Y-110786706D01*
X104299500Y-110775500D01*
X106165780Y-110775500D01*
X106232819Y-110795185D01*
X106278574Y-110847989D01*
X106288518Y-110917147D01*
X106273167Y-110961501D01*
X106263719Y-110977864D01*
X106224500Y-111124234D01*
X106224500Y-116900500D01*
X106204815Y-116967539D01*
X106152011Y-117013294D01*
X106100500Y-117024500D01*
X89899500Y-117024500D01*
X89832461Y-117004815D01*
X89786706Y-116952011D01*
X89775500Y-116900500D01*
X89775500Y-114874236D01*
X89775500Y-114874234D01*
X89736281Y-114727865D01*
X89660515Y-114596635D01*
X89553365Y-114489485D01*
X89226560Y-114162680D01*
X89193075Y-114101357D01*
X89198059Y-114031665D01*
X89226557Y-113987321D01*
X89660515Y-113553365D01*
X89704105Y-113477865D01*
X89705471Y-113475500D01*
X89732495Y-113428693D01*
X89736281Y-113422135D01*
X89775500Y-113275766D01*
X89775500Y-109889742D01*
X89795185Y-109822703D01*
X89811819Y-109802061D01*
X90002061Y-109611819D01*
X90063384Y-109578334D01*
X90089742Y-109575500D01*
X102102754Y-109575500D01*
X102169793Y-109595185D01*
G37*
%TD.AperFunction*%
%TA.AperFunction,Conductor*%
G36*
X76700046Y-106120185D02*
G01*
X76745801Y-106172989D01*
X76755745Y-106242147D01*
X76731382Y-106299986D01*
X76731297Y-106300098D01*
X76662132Y-106390232D01*
X76662120Y-106390250D01*
X76596303Y-106504248D01*
X76596302Y-106504249D01*
X76545800Y-106626170D01*
X76511724Y-106753341D01*
X76494500Y-106884166D01*
X76494500Y-107500002D01*
X76499645Y-107571941D01*
X76503107Y-107583732D01*
X76504470Y-107634561D01*
X76506738Y-107634805D01*
X76499501Y-107702116D01*
X76499500Y-107702135D01*
X76499500Y-108797870D01*
X76499501Y-108797876D01*
X76505908Y-108857483D01*
X76556202Y-108992328D01*
X76556206Y-108992335D01*
X76642452Y-109107544D01*
X76642455Y-109107547D01*
X76757664Y-109193793D01*
X76757671Y-109193797D01*
X76892517Y-109244091D01*
X76892516Y-109244091D01*
X76899444Y-109244835D01*
X76952127Y-109250500D01*
X78547872Y-109250499D01*
X78607483Y-109244091D01*
X78742331Y-109193796D01*
X78857546Y-109107546D01*
X78926234Y-109015789D01*
X78982167Y-108973920D01*
X79051859Y-108968936D01*
X79113182Y-109002421D01*
X79146666Y-109063745D01*
X79149500Y-109090102D01*
X79149500Y-110163330D01*
X79149499Y-110163348D01*
X79149499Y-110329054D01*
X79149498Y-110329054D01*
X79149499Y-110329057D01*
X79190423Y-110481785D01*
X79214931Y-110524234D01*
X79269480Y-110618716D01*
X79274513Y-110623749D01*
X79282335Y-110636817D01*
X79289382Y-110663994D01*
X79299507Y-110690179D01*
X79298034Y-110697357D01*
X79299874Y-110704449D01*
X79291111Y-110731119D01*
X79285471Y-110758624D01*
X79280352Y-110763866D01*
X79278065Y-110770828D01*
X79256268Y-110788531D01*
X79236658Y-110808615D01*
X79229109Y-110810589D01*
X79223830Y-110814878D01*
X79204475Y-110817034D01*
X79175937Y-110824500D01*
X75774233Y-110824500D01*
X75627863Y-110863719D01*
X75496635Y-110939485D01*
X75496632Y-110939487D01*
X74789487Y-111646632D01*
X74789485Y-111646635D01*
X74729234Y-111750992D01*
X74678666Y-111799207D01*
X74610059Y-111812429D01*
X74545195Y-111786461D01*
X74507286Y-111736443D01*
X74459397Y-111620827D01*
X74459390Y-111620814D01*
X74371789Y-111489711D01*
X74371786Y-111489707D01*
X74260292Y-111378213D01*
X74260288Y-111378210D01*
X74129185Y-111290609D01*
X74129172Y-111290602D01*
X73983501Y-111230264D01*
X73983489Y-111230261D01*
X73828845Y-111199500D01*
X73828842Y-111199500D01*
X73671158Y-111199500D01*
X73671155Y-111199500D01*
X73516510Y-111230261D01*
X73516503Y-111230263D01*
X73446950Y-111259072D01*
X73377481Y-111266539D01*
X73315002Y-111235264D01*
X73279350Y-111175174D01*
X73275499Y-111144510D01*
X73275499Y-110802129D01*
X73275498Y-110802123D01*
X73274752Y-110795185D01*
X73270299Y-110753757D01*
X73269091Y-110742516D01*
X73218797Y-110607671D01*
X73218793Y-110607664D01*
X73132547Y-110492455D01*
X73132544Y-110492452D01*
X73017335Y-110406206D01*
X73017328Y-110406202D01*
X72882482Y-110355908D01*
X72882483Y-110355908D01*
X72822883Y-110349501D01*
X72822881Y-110349500D01*
X72822873Y-110349500D01*
X72822864Y-110349500D01*
X71127129Y-110349500D01*
X71127123Y-110349501D01*
X71067516Y-110355908D01*
X70932671Y-110406202D01*
X70932664Y-110406206D01*
X70817455Y-110492452D01*
X70817452Y-110492455D01*
X70731206Y-110607664D01*
X70731202Y-110607671D01*
X70685383Y-110730521D01*
X70680909Y-110742517D01*
X70674500Y-110802127D01*
X70674500Y-110802134D01*
X70674500Y-110802135D01*
X70674500Y-111397870D01*
X70674501Y-111397876D01*
X70680908Y-111457482D01*
X70687912Y-111476260D01*
X70699252Y-111506665D01*
X70699253Y-111506666D01*
X70701441Y-111537272D01*
X70705809Y-111567645D01*
X70704094Y-111574362D01*
X70704237Y-111576358D01*
X70703012Y-111578599D01*
X70699253Y-111593331D01*
X70680910Y-111642511D01*
X70680910Y-111642514D01*
X70680909Y-111642517D01*
X70674500Y-111702127D01*
X70674500Y-111702134D01*
X70674500Y-111702135D01*
X70674500Y-112297870D01*
X70674501Y-112297876D01*
X70680908Y-112357482D01*
X70686985Y-112373775D01*
X70699252Y-112406665D01*
X70699253Y-112406666D01*
X70701441Y-112437272D01*
X70705809Y-112467645D01*
X70704094Y-112474362D01*
X70704237Y-112476358D01*
X70703012Y-112478599D01*
X70699253Y-112493331D01*
X70680910Y-112542511D01*
X70680910Y-112542514D01*
X70680909Y-112542517D01*
X70674500Y-112602127D01*
X70674500Y-112602134D01*
X70674500Y-112602135D01*
X70674500Y-113197870D01*
X70674501Y-113197876D01*
X70680909Y-113257487D01*
X70682692Y-113265031D01*
X70681375Y-113265342D01*
X70682980Y-113287776D01*
X70687347Y-113318147D01*
X70685449Y-113322302D01*
X70685775Y-113326858D01*
X70671069Y-113353789D01*
X70658322Y-113381703D01*
X70654479Y-113384172D01*
X70652291Y-113388181D01*
X70625357Y-113402888D01*
X70599544Y-113419477D01*
X70593344Y-113420368D01*
X70590968Y-113421666D01*
X70564609Y-113424500D01*
X70435391Y-113424500D01*
X70368352Y-113404815D01*
X70322597Y-113352011D01*
X70312653Y-113282853D01*
X70318633Y-113259422D01*
X70319089Y-113257491D01*
X70319089Y-113257487D01*
X70319091Y-113257483D01*
X70325500Y-113197873D01*
X70325499Y-112602128D01*
X70319091Y-112542517D01*
X70300747Y-112493334D01*
X70298558Y-112462733D01*
X70294190Y-112432354D01*
X70296087Y-112428198D01*
X70295762Y-112423643D01*
X70300747Y-112406665D01*
X70319089Y-112357488D01*
X70319088Y-112357488D01*
X70319091Y-112357483D01*
X70325500Y-112297873D01*
X70325499Y-111702128D01*
X70319091Y-111642517D01*
X70314638Y-111630577D01*
X70300747Y-111593334D01*
X70298558Y-111562733D01*
X70294190Y-111532354D01*
X70296087Y-111528198D01*
X70295762Y-111523643D01*
X70300747Y-111506665D01*
X70302338Y-111502400D01*
X70319091Y-111457483D01*
X70325500Y-111397873D01*
X70325499Y-110802128D01*
X70320299Y-110753757D01*
X70319091Y-110742516D01*
X70268797Y-110607671D01*
X70268793Y-110607664D01*
X70182547Y-110492455D01*
X70182544Y-110492452D01*
X70067335Y-110406206D01*
X70067328Y-110406202D01*
X69932482Y-110355908D01*
X69932483Y-110355908D01*
X69872883Y-110349501D01*
X69872881Y-110349500D01*
X69872873Y-110349500D01*
X69872864Y-110349500D01*
X68177129Y-110349500D01*
X68177123Y-110349501D01*
X68117516Y-110355908D01*
X67982671Y-110406202D01*
X67982664Y-110406206D01*
X67860355Y-110497768D01*
X67858560Y-110495370D01*
X67810404Y-110521666D01*
X67784046Y-110524500D01*
X67324234Y-110524500D01*
X67177863Y-110563719D01*
X67046635Y-110639485D01*
X67046632Y-110639487D01*
X66289487Y-111396632D01*
X66289485Y-111396635D01*
X66213719Y-111527863D01*
X66184114Y-111638352D01*
X66174500Y-111674234D01*
X66174500Y-114424233D01*
X66174500Y-114424234D01*
X66174500Y-114575766D01*
X66186008Y-114618716D01*
X66213719Y-114722136D01*
X66231751Y-114753367D01*
X66289485Y-114853365D01*
X66789485Y-115353365D01*
X66896635Y-115460515D01*
X67027865Y-115536281D01*
X67174234Y-115575500D01*
X67174236Y-115575500D01*
X75825764Y-115575500D01*
X75825766Y-115575500D01*
X75972135Y-115536281D01*
X76103365Y-115460515D01*
X76710515Y-114853365D01*
X76786281Y-114722135D01*
X76825500Y-114575766D01*
X76825500Y-114424233D01*
X76825500Y-113039742D01*
X76834144Y-113010301D01*
X76840668Y-112980315D01*
X76844422Y-112975299D01*
X76845185Y-112972703D01*
X76861819Y-112952061D01*
X77002061Y-112811819D01*
X77063384Y-112778334D01*
X77089742Y-112775500D01*
X78111258Y-112775500D01*
X78178297Y-112795185D01*
X78224052Y-112847989D01*
X78233996Y-112917147D01*
X78204971Y-112980703D01*
X78198939Y-112987181D01*
X78039487Y-113146632D01*
X78039485Y-113146635D01*
X77963719Y-113277863D01*
X77924500Y-113424234D01*
X77924500Y-116300500D01*
X77904815Y-116367539D01*
X77852011Y-116413294D01*
X77800500Y-116424500D01*
X62539741Y-116424500D01*
X62472702Y-116404815D01*
X62452060Y-116388181D01*
X62111819Y-116047939D01*
X62078334Y-115986616D01*
X62075500Y-115960258D01*
X62075500Y-114424235D01*
X62075500Y-114424234D01*
X62068872Y-114399499D01*
X62036281Y-114277865D01*
X62030710Y-114268216D01*
X61960515Y-114146635D01*
X61853365Y-114039485D01*
X61853364Y-114039484D01*
X61849034Y-114035154D01*
X61849023Y-114035144D01*
X61477598Y-113663719D01*
X61103365Y-113289485D01*
X61017132Y-113239698D01*
X60972136Y-113213719D01*
X60898950Y-113194109D01*
X60825766Y-113174500D01*
X60825765Y-113174500D01*
X58913087Y-113174500D01*
X58846048Y-113154815D01*
X58800293Y-113102011D01*
X58790349Y-113032853D01*
X58805698Y-112988503D01*
X58806461Y-112987181D01*
X58809577Y-112981784D01*
X58850501Y-112829057D01*
X58850501Y-112670942D01*
X58850501Y-112663347D01*
X58850500Y-112663329D01*
X58850500Y-111829765D01*
X58870185Y-111762726D01*
X58871398Y-111760874D01*
X58959390Y-111629185D01*
X58959390Y-111629184D01*
X58959394Y-111629179D01*
X58962854Y-111620827D01*
X59003349Y-111523061D01*
X59019737Y-111483497D01*
X59050500Y-111328842D01*
X59050500Y-111224500D01*
X59070185Y-111157461D01*
X59122989Y-111111706D01*
X59174500Y-111100500D01*
X60663331Y-111100500D01*
X60663347Y-111100501D01*
X60670943Y-111100501D01*
X60829054Y-111100501D01*
X60829057Y-111100501D01*
X60981785Y-111059577D01*
X61031904Y-111030639D01*
X61118716Y-110980520D01*
X61230520Y-110868716D01*
X61230521Y-110868714D01*
X61730520Y-110368716D01*
X61809577Y-110231784D01*
X61850501Y-110079057D01*
X61850501Y-110079054D01*
X61851562Y-110070998D01*
X61853018Y-110071189D01*
X61870186Y-110012725D01*
X61871399Y-110010873D01*
X61959390Y-109879185D01*
X61959390Y-109879184D01*
X61959394Y-109879179D01*
X61965937Y-109863384D01*
X61993285Y-109797359D01*
X62019737Y-109733497D01*
X62050500Y-109578842D01*
X62050500Y-109421158D01*
X62050500Y-109421155D01*
X62050499Y-109421153D01*
X62022608Y-109280936D01*
X62019737Y-109266503D01*
X62013992Y-109252633D01*
X62004692Y-109230180D01*
X61997223Y-109160711D01*
X62028499Y-109098232D01*
X62088588Y-109062580D01*
X62158413Y-109065074D01*
X62184349Y-109077190D01*
X62188369Y-109079669D01*
X62198477Y-109085904D01*
X62198478Y-109085904D01*
X62198484Y-109085908D01*
X62362247Y-109140174D01*
X62463323Y-109150500D01*
X63036676Y-109150499D01*
X63036684Y-109150498D01*
X63036687Y-109150498D01*
X63092030Y-109144844D01*
X63137753Y-109140174D01*
X63301516Y-109085908D01*
X63448350Y-108995340D01*
X63570340Y-108873350D01*
X63602072Y-108821904D01*
X63654020Y-108775179D01*
X63707611Y-108763000D01*
X64250831Y-108763000D01*
X64250847Y-108763001D01*
X64258443Y-108763001D01*
X64416554Y-108763001D01*
X64416557Y-108763001D01*
X64569285Y-108722077D01*
X64619404Y-108693139D01*
X64706216Y-108643020D01*
X64818020Y-108531216D01*
X64818020Y-108531214D01*
X64828228Y-108521007D01*
X64828230Y-108521004D01*
X65358506Y-107990728D01*
X65358511Y-107990724D01*
X65368714Y-107980520D01*
X65368716Y-107980520D01*
X65480520Y-107868716D01*
X65559577Y-107731784D01*
X65594754Y-107600501D01*
X65600500Y-107579058D01*
X65600500Y-107420943D01*
X65600500Y-106300097D01*
X65609144Y-106270660D01*
X65615668Y-106240670D01*
X65619423Y-106235653D01*
X65620185Y-106233059D01*
X65636819Y-106212416D01*
X65712418Y-106136818D01*
X65773742Y-106103334D01*
X65800099Y-106100500D01*
X76633007Y-106100500D01*
X76700046Y-106120185D01*
G37*
%TD.AperFunction*%
%TA.AperFunction,Conductor*%
G36*
X135577297Y-114595185D02*
G01*
X135597939Y-114611819D01*
X136246635Y-115260515D01*
X136377865Y-115336281D01*
X136524234Y-115375500D01*
X136675767Y-115375500D01*
X150541096Y-115375500D01*
X150608135Y-115395185D01*
X150653890Y-115447989D01*
X150663834Y-115517147D01*
X150634809Y-115580703D01*
X150603096Y-115606887D01*
X150546638Y-115639483D01*
X150546632Y-115639487D01*
X150197939Y-115988181D01*
X150136616Y-116021666D01*
X150110258Y-116024500D01*
X133299500Y-116024500D01*
X133232461Y-116004815D01*
X133186706Y-115952011D01*
X133175500Y-115900500D01*
X133175500Y-115124235D01*
X133175500Y-115124234D01*
X133163337Y-115078842D01*
X133136281Y-114977865D01*
X133060515Y-114846635D01*
X133001061Y-114787181D01*
X132967576Y-114725858D01*
X132972560Y-114656166D01*
X133014432Y-114600233D01*
X133079896Y-114575816D01*
X133088742Y-114575500D01*
X135510258Y-114575500D01*
X135577297Y-114595185D01*
G37*
%TD.AperFunction*%
%TA.AperFunction,Conductor*%
G36*
X197516942Y-105620185D02*
G01*
X197537584Y-105636819D01*
X197863181Y-105962416D01*
X197896666Y-106023739D01*
X197899500Y-106050097D01*
X197899500Y-112163330D01*
X197899499Y-112163348D01*
X197899499Y-112329054D01*
X197899498Y-112329054D01*
X197911481Y-112373775D01*
X197940423Y-112481785D01*
X197944999Y-112489710D01*
X197945001Y-112489720D01*
X197945004Y-112489719D01*
X198019477Y-112618712D01*
X198019479Y-112618715D01*
X198019480Y-112618716D01*
X198131284Y-112730520D01*
X198131285Y-112730521D01*
X198631284Y-113230520D01*
X198631286Y-113230521D01*
X198631290Y-113230524D01*
X198748058Y-113297939D01*
X198768216Y-113309577D01*
X198920943Y-113350501D01*
X198920945Y-113350501D01*
X199086654Y-113350501D01*
X199086670Y-113350500D01*
X208199903Y-113350500D01*
X208266942Y-113370185D01*
X208287584Y-113386819D01*
X208666138Y-113765373D01*
X208699623Y-113826696D01*
X208694639Y-113896388D01*
X208652767Y-113952321D01*
X208587303Y-113976738D01*
X208519030Y-113961886D01*
X208516540Y-113960489D01*
X208516219Y-113960304D01*
X208516151Y-113960233D01*
X208516138Y-113960257D01*
X208481783Y-113940422D01*
X208425881Y-113925443D01*
X208329057Y-113899499D01*
X208170943Y-113899499D01*
X208163347Y-113899499D01*
X208163331Y-113899500D01*
X196800097Y-113899500D01*
X196770656Y-113890855D01*
X196740670Y-113884332D01*
X196735654Y-113880577D01*
X196733058Y-113879815D01*
X196712416Y-113863181D01*
X196711415Y-113862180D01*
X196677930Y-113800857D01*
X196682914Y-113731165D01*
X196724786Y-113675232D01*
X196790250Y-113650815D01*
X196799096Y-113650499D01*
X196822871Y-113650499D01*
X196822872Y-113650499D01*
X196882483Y-113644091D01*
X197017331Y-113593796D01*
X197132546Y-113507546D01*
X197218796Y-113392331D01*
X197269091Y-113257483D01*
X197275500Y-113197873D01*
X197275499Y-112602128D01*
X197269091Y-112542517D01*
X197250747Y-112493334D01*
X197245762Y-112423643D01*
X197250747Y-112406665D01*
X197269089Y-112357488D01*
X197269088Y-112357488D01*
X197269091Y-112357483D01*
X197275500Y-112297873D01*
X197275499Y-111702128D01*
X197269091Y-111642517D01*
X197264638Y-111630577D01*
X197250747Y-111593334D01*
X197245762Y-111523643D01*
X197250747Y-111506665D01*
X197252338Y-111502400D01*
X197269091Y-111457483D01*
X197275500Y-111397873D01*
X197275499Y-110802128D01*
X197270299Y-110753757D01*
X197269091Y-110742516D01*
X197218797Y-110607671D01*
X197218793Y-110607664D01*
X197132547Y-110492455D01*
X197132544Y-110492452D01*
X197017335Y-110406206D01*
X197017328Y-110406202D01*
X196882482Y-110355908D01*
X196882483Y-110355908D01*
X196822883Y-110349501D01*
X196822881Y-110349500D01*
X196822873Y-110349500D01*
X196822864Y-110349500D01*
X195127129Y-110349500D01*
X195127123Y-110349501D01*
X195067516Y-110355908D01*
X194932671Y-110406202D01*
X194932664Y-110406206D01*
X194817455Y-110492452D01*
X194817452Y-110492455D01*
X194731206Y-110607664D01*
X194731202Y-110607671D01*
X194685383Y-110730521D01*
X194680909Y-110742517D01*
X194674500Y-110802127D01*
X194674500Y-110802134D01*
X194674500Y-110802135D01*
X194674500Y-111397870D01*
X194674501Y-111397876D01*
X194680908Y-111457482D01*
X194687912Y-111476260D01*
X194699252Y-111506665D01*
X194699253Y-111506666D01*
X194701441Y-111537272D01*
X194705809Y-111567645D01*
X194704094Y-111574362D01*
X194704237Y-111576358D01*
X194703012Y-111578599D01*
X194699253Y-111593331D01*
X194680910Y-111642511D01*
X194680910Y-111642514D01*
X194680909Y-111642517D01*
X194674500Y-111702127D01*
X194674500Y-111702134D01*
X194674500Y-111702135D01*
X194674500Y-112297870D01*
X194674501Y-112297876D01*
X194680908Y-112357482D01*
X194686985Y-112373775D01*
X194699252Y-112406665D01*
X194699253Y-112406666D01*
X194701441Y-112437272D01*
X194705809Y-112467645D01*
X194704094Y-112474362D01*
X194704237Y-112476358D01*
X194703012Y-112478599D01*
X194699253Y-112493331D01*
X194680910Y-112542511D01*
X194680910Y-112542514D01*
X194680909Y-112542517D01*
X194674500Y-112602127D01*
X194674500Y-112602134D01*
X194674500Y-112602135D01*
X194674500Y-113197870D01*
X194674501Y-113197876D01*
X194680908Y-113257483D01*
X194731202Y-113392328D01*
X194731206Y-113392335D01*
X194817452Y-113507544D01*
X194817455Y-113507547D01*
X194932664Y-113593793D01*
X194932671Y-113593797D01*
X194948431Y-113599675D01*
X195067517Y-113644091D01*
X195127127Y-113650500D01*
X195250500Y-113650499D01*
X195259185Y-113653049D01*
X195268147Y-113651761D01*
X195292184Y-113662738D01*
X195317539Y-113670183D01*
X195323467Y-113677025D01*
X195331703Y-113680786D01*
X195345989Y-113703017D01*
X195363294Y-113722987D01*
X195365581Y-113733502D01*
X195369477Y-113739564D01*
X195374500Y-113774499D01*
X195374500Y-113775500D01*
X195354815Y-113842539D01*
X195302011Y-113888294D01*
X195250500Y-113899500D01*
X188724500Y-113899500D01*
X188657461Y-113879815D01*
X188611706Y-113827011D01*
X188600500Y-113775500D01*
X188600500Y-112170943D01*
X188595790Y-112153366D01*
X188594754Y-112149500D01*
X188586506Y-112118716D01*
X188559577Y-112018216D01*
X188549790Y-112001264D01*
X188480524Y-111881290D01*
X188480521Y-111881286D01*
X188480520Y-111881284D01*
X188368716Y-111769480D01*
X188368715Y-111769479D01*
X188364385Y-111765149D01*
X188364374Y-111765139D01*
X188237590Y-111638355D01*
X188237588Y-111638352D01*
X188118717Y-111519481D01*
X188118716Y-111519480D01*
X188011334Y-111457483D01*
X188011332Y-111457482D01*
X187981785Y-111440423D01*
X187981784Y-111440422D01*
X187981783Y-111440422D01*
X187919132Y-111423635D01*
X187829057Y-111399499D01*
X187670943Y-111399499D01*
X187663347Y-111399499D01*
X187663331Y-111399500D01*
X170399500Y-111399500D01*
X170332461Y-111379815D01*
X170286706Y-111327011D01*
X170275500Y-111275500D01*
X170275499Y-110802129D01*
X170275498Y-110802123D01*
X170274752Y-110795185D01*
X170270299Y-110753757D01*
X170269091Y-110742516D01*
X170218797Y-110607671D01*
X170218793Y-110607664D01*
X170132547Y-110492455D01*
X170132544Y-110492452D01*
X170017335Y-110406206D01*
X170017328Y-110406202D01*
X169882482Y-110355908D01*
X169882483Y-110355908D01*
X169822883Y-110349501D01*
X169822881Y-110349500D01*
X169822873Y-110349500D01*
X169822864Y-110349500D01*
X168127129Y-110349500D01*
X168127123Y-110349501D01*
X168067516Y-110355908D01*
X167932671Y-110406202D01*
X167932664Y-110406206D01*
X167817455Y-110492452D01*
X167817452Y-110492455D01*
X167731206Y-110607664D01*
X167731202Y-110607671D01*
X167685383Y-110730521D01*
X167680909Y-110742517D01*
X167674500Y-110802127D01*
X167674500Y-110802134D01*
X167674500Y-110802135D01*
X167674500Y-111397870D01*
X167674501Y-111397876D01*
X167680908Y-111457482D01*
X167687912Y-111476260D01*
X167699252Y-111506665D01*
X167699253Y-111506666D01*
X167701441Y-111537272D01*
X167705809Y-111567645D01*
X167704094Y-111574362D01*
X167704237Y-111576358D01*
X167703012Y-111578599D01*
X167699253Y-111593331D01*
X167680910Y-111642511D01*
X167680910Y-111642514D01*
X167680909Y-111642517D01*
X167674500Y-111702127D01*
X167674500Y-111702134D01*
X167674500Y-111702135D01*
X167674500Y-112297870D01*
X167674501Y-112297876D01*
X167680908Y-112357482D01*
X167686985Y-112373775D01*
X167699252Y-112406665D01*
X167699253Y-112406666D01*
X167701441Y-112437272D01*
X167705809Y-112467645D01*
X167704094Y-112474362D01*
X167704237Y-112476358D01*
X167703012Y-112478599D01*
X167699253Y-112493331D01*
X167680910Y-112542511D01*
X167680910Y-112542514D01*
X167680909Y-112542517D01*
X167674500Y-112602127D01*
X167674500Y-112602134D01*
X167674500Y-112602135D01*
X167674500Y-113197870D01*
X167674501Y-113197876D01*
X167680908Y-113257483D01*
X167731202Y-113392328D01*
X167731206Y-113392335D01*
X167817452Y-113507544D01*
X167817455Y-113507547D01*
X167932664Y-113593793D01*
X167932671Y-113593797D01*
X168067517Y-113644091D01*
X168067516Y-113644091D01*
X168074444Y-113644835D01*
X168127127Y-113650500D01*
X169822872Y-113650499D01*
X169882483Y-113644091D01*
X170017331Y-113593796D01*
X170075819Y-113550011D01*
X170108920Y-113525233D01*
X170174385Y-113500816D01*
X170183231Y-113500500D01*
X173099903Y-113500500D01*
X173129343Y-113509144D01*
X173159330Y-113515668D01*
X173164345Y-113519422D01*
X173166942Y-113520185D01*
X173187584Y-113536819D01*
X173271200Y-113620435D01*
X173304685Y-113681758D01*
X173299701Y-113751450D01*
X173292885Y-113766554D01*
X173290608Y-113770814D01*
X173230264Y-113916498D01*
X173230261Y-113916510D01*
X173199500Y-114071153D01*
X173199500Y-114100500D01*
X173179815Y-114167539D01*
X173127011Y-114213294D01*
X173075500Y-114224500D01*
X161899500Y-114224500D01*
X161832461Y-114204815D01*
X161786706Y-114152011D01*
X161775500Y-114100500D01*
X161775500Y-113124234D01*
X161774021Y-113118717D01*
X161774018Y-113118706D01*
X161736281Y-112977865D01*
X161660515Y-112846635D01*
X160953365Y-112139485D01*
X160848329Y-112078842D01*
X160822136Y-112063719D01*
X160724589Y-112037582D01*
X160675766Y-112024500D01*
X160675765Y-112024500D01*
X145699500Y-112024500D01*
X145632461Y-112004815D01*
X145586706Y-111952011D01*
X145575500Y-111900500D01*
X145575500Y-110124235D01*
X145575500Y-110124234D01*
X145563898Y-110080936D01*
X145536281Y-109977865D01*
X145460515Y-109846635D01*
X145401061Y-109787181D01*
X145367576Y-109725858D01*
X145372560Y-109656166D01*
X145414432Y-109600233D01*
X145479896Y-109575816D01*
X145488742Y-109575500D01*
X161910258Y-109575500D01*
X161977297Y-109595185D01*
X161997939Y-109611819D01*
X162188181Y-109802061D01*
X162221666Y-109863384D01*
X162224500Y-109889742D01*
X162224500Y-111624234D01*
X162224500Y-111775766D01*
X162227366Y-111786461D01*
X162263719Y-111922136D01*
X162280968Y-111952011D01*
X162339485Y-112053365D01*
X162339486Y-112053366D01*
X162339487Y-112053367D01*
X163535144Y-113249023D01*
X163535154Y-113249034D01*
X163539484Y-113253364D01*
X163539485Y-113253365D01*
X163646635Y-113360515D01*
X163756999Y-113424234D01*
X163777865Y-113436281D01*
X163924233Y-113475500D01*
X163924234Y-113475500D01*
X164784046Y-113475500D01*
X164851085Y-113495185D01*
X164860157Y-113502495D01*
X164860355Y-113502232D01*
X164982664Y-113593793D01*
X164982671Y-113593797D01*
X165117517Y-113644091D01*
X165117516Y-113644091D01*
X165124444Y-113644835D01*
X165177127Y-113650500D01*
X166872872Y-113650499D01*
X166932483Y-113644091D01*
X167067331Y-113593796D01*
X167182546Y-113507546D01*
X167268796Y-113392331D01*
X167319091Y-113257483D01*
X167325500Y-113197873D01*
X167325499Y-112602128D01*
X167319091Y-112542517D01*
X167300747Y-112493334D01*
X167298558Y-112462733D01*
X167294190Y-112432354D01*
X167296087Y-112428198D01*
X167295762Y-112423643D01*
X167300747Y-112406665D01*
X167319089Y-112357488D01*
X167319088Y-112357488D01*
X167319091Y-112357483D01*
X167325500Y-112297873D01*
X167325499Y-111702128D01*
X167319091Y-111642517D01*
X167314638Y-111630577D01*
X167300747Y-111593334D01*
X167298558Y-111562733D01*
X167294190Y-111532354D01*
X167296087Y-111528198D01*
X167295762Y-111523643D01*
X167300747Y-111506665D01*
X167302338Y-111502400D01*
X167319091Y-111457483D01*
X167325500Y-111397873D01*
X167325499Y-110802128D01*
X167320299Y-110753757D01*
X167319091Y-110742516D01*
X167268797Y-110607671D01*
X167268793Y-110607664D01*
X167182547Y-110492455D01*
X167182544Y-110492452D01*
X167067335Y-110406206D01*
X167067328Y-110406202D01*
X166932482Y-110355908D01*
X166932483Y-110355908D01*
X166872883Y-110349501D01*
X166872881Y-110349500D01*
X166872873Y-110349500D01*
X166872864Y-110349500D01*
X165177129Y-110349500D01*
X165177123Y-110349501D01*
X165117516Y-110355908D01*
X164982671Y-110406202D01*
X164982669Y-110406203D01*
X164907467Y-110462500D01*
X164876804Y-110485455D01*
X164861327Y-110497041D01*
X164795863Y-110521458D01*
X164795862Y-110521457D01*
X164795862Y-110521458D01*
X164781011Y-110518227D01*
X164727590Y-110506607D01*
X164699335Y-110485455D01*
X164611819Y-110397939D01*
X164578334Y-110336616D01*
X164575500Y-110310258D01*
X164575500Y-108924236D01*
X164575500Y-108924234D01*
X164536281Y-108777865D01*
X164460515Y-108646635D01*
X164353365Y-108539485D01*
X163801560Y-107987680D01*
X163768075Y-107926357D01*
X163773059Y-107856665D01*
X163801560Y-107812318D01*
X164177864Y-107436015D01*
X164602060Y-107011819D01*
X164663383Y-106978334D01*
X164689741Y-106975500D01*
X189700500Y-106975500D01*
X189767539Y-106995185D01*
X189813294Y-107047989D01*
X189824500Y-107099500D01*
X189824500Y-112324233D01*
X189824500Y-112324234D01*
X189824500Y-112475766D01*
X189829207Y-112493334D01*
X189863719Y-112622136D01*
X189891898Y-112670942D01*
X189939485Y-112753365D01*
X190439485Y-113253365D01*
X190546635Y-113360515D01*
X190651297Y-113420942D01*
X190677861Y-113436279D01*
X190677865Y-113436281D01*
X190824234Y-113475500D01*
X191784046Y-113475500D01*
X191851085Y-113495185D01*
X191860157Y-113502495D01*
X191860355Y-113502232D01*
X191982664Y-113593793D01*
X191982671Y-113593797D01*
X192117517Y-113644091D01*
X192117516Y-113644091D01*
X192124444Y-113644835D01*
X192177127Y-113650500D01*
X193872872Y-113650499D01*
X193932483Y-113644091D01*
X194067331Y-113593796D01*
X194182546Y-113507546D01*
X194268796Y-113392331D01*
X194319091Y-113257483D01*
X194325500Y-113197873D01*
X194325499Y-112602128D01*
X194319091Y-112542517D01*
X194300747Y-112493334D01*
X194298558Y-112462733D01*
X194294190Y-112432354D01*
X194296087Y-112428198D01*
X194295762Y-112423643D01*
X194300747Y-112406665D01*
X194319089Y-112357488D01*
X194319088Y-112357488D01*
X194319091Y-112357483D01*
X194325500Y-112297873D01*
X194325499Y-111702128D01*
X194319091Y-111642517D01*
X194314638Y-111630577D01*
X194300747Y-111593334D01*
X194298558Y-111562733D01*
X194294190Y-111532354D01*
X194296087Y-111528198D01*
X194295762Y-111523643D01*
X194300747Y-111506665D01*
X194302338Y-111502400D01*
X194319091Y-111457483D01*
X194325500Y-111397873D01*
X194325499Y-110802128D01*
X194320299Y-110753757D01*
X194319091Y-110742516D01*
X194268797Y-110607671D01*
X194268793Y-110607664D01*
X194182547Y-110492455D01*
X194182544Y-110492452D01*
X194067335Y-110406206D01*
X194067328Y-110406202D01*
X193932482Y-110355908D01*
X193932483Y-110355908D01*
X193872883Y-110349501D01*
X193872881Y-110349500D01*
X193872873Y-110349500D01*
X193872864Y-110349500D01*
X192177129Y-110349500D01*
X192177123Y-110349501D01*
X192117516Y-110355908D01*
X191982671Y-110406202D01*
X191982665Y-110406206D01*
X191973810Y-110412835D01*
X191908346Y-110437252D01*
X191840073Y-110422400D01*
X191790668Y-110372995D01*
X191775500Y-110313568D01*
X191775500Y-105924234D01*
X191774674Y-105921153D01*
X191771865Y-105910669D01*
X191736281Y-105777865D01*
X191732970Y-105772131D01*
X191729007Y-105758010D01*
X191729339Y-105730172D01*
X191726363Y-105702482D01*
X191729751Y-105695712D01*
X191729842Y-105688145D01*
X191745174Y-105664902D01*
X191757639Y-105640003D01*
X191764148Y-105636141D01*
X191768316Y-105629823D01*
X191793778Y-105618560D01*
X191817728Y-105604351D01*
X191829147Y-105602916D01*
X191832215Y-105601560D01*
X191835665Y-105602098D01*
X191848393Y-105600500D01*
X197449903Y-105600500D01*
X197516942Y-105620185D01*
G37*
%TD.AperFunction*%
%TA.AperFunction,Conductor*%
G36*
X116928899Y-112446644D02*
G01*
X116943436Y-112452377D01*
X117031898Y-112463000D01*
X117375500Y-112463000D01*
X117442539Y-112482685D01*
X117488294Y-112535489D01*
X117499500Y-112587000D01*
X117499500Y-112830602D01*
X117502234Y-112853365D01*
X117510122Y-112919063D01*
X117515854Y-112933596D01*
X117517181Y-112940579D01*
X117519477Y-112944152D01*
X117524500Y-112979087D01*
X117524500Y-113100500D01*
X117504815Y-113167539D01*
X117452011Y-113213294D01*
X117400500Y-113224500D01*
X116099500Y-113224500D01*
X116032461Y-113204815D01*
X115986706Y-113152011D01*
X115975500Y-113100500D01*
X115975500Y-112562000D01*
X115995185Y-112494961D01*
X116047989Y-112449206D01*
X116099500Y-112438000D01*
X116883412Y-112438000D01*
X116928899Y-112446644D01*
G37*
%TD.AperFunction*%
%TA.AperFunction,Conductor*%
G36*
X56016942Y-104620185D02*
G01*
X56037584Y-104636819D01*
X56613181Y-105212416D01*
X56646666Y-105273739D01*
X56649500Y-105300097D01*
X56649500Y-107663330D01*
X56649499Y-107663348D01*
X56649499Y-107829054D01*
X56649498Y-107829054D01*
X56649499Y-107829057D01*
X56690423Y-107981785D01*
X56690424Y-107981787D01*
X56690423Y-107981787D01*
X56700236Y-107998782D01*
X56700237Y-107998783D01*
X56769477Y-108118712D01*
X56769481Y-108118717D01*
X56888349Y-108237585D01*
X56888355Y-108237590D01*
X57177639Y-108526874D01*
X57177649Y-108526885D01*
X57181979Y-108531215D01*
X57181980Y-108531216D01*
X57293784Y-108643020D01*
X57380595Y-108693139D01*
X57380597Y-108693141D01*
X57418651Y-108715111D01*
X57430715Y-108722077D01*
X57583443Y-108763000D01*
X57741557Y-108763000D01*
X58792389Y-108763000D01*
X58859428Y-108782685D01*
X58897928Y-108821904D01*
X58925761Y-108867030D01*
X58929660Y-108873350D01*
X59051650Y-108995340D01*
X59198484Y-109085908D01*
X59362247Y-109140174D01*
X59463323Y-109150500D01*
X60036676Y-109150499D01*
X60036684Y-109150498D01*
X60036687Y-109150498D01*
X60092030Y-109144844D01*
X60137753Y-109140174D01*
X60301516Y-109085908D01*
X60315648Y-109077191D01*
X60383036Y-109058749D01*
X60449701Y-109079669D01*
X60494473Y-109133309D01*
X60503137Y-109202639D01*
X60495308Y-109230178D01*
X60480264Y-109266498D01*
X60480261Y-109266510D01*
X60449500Y-109421153D01*
X60449500Y-109578846D01*
X60480261Y-109733489D01*
X60482031Y-109739324D01*
X60479279Y-109740158D01*
X60485503Y-109797359D01*
X60454309Y-109859878D01*
X60394266Y-109895608D01*
X60363445Y-109899500D01*
X58086670Y-109899500D01*
X58086654Y-109899499D01*
X58079058Y-109899499D01*
X57920943Y-109899499D01*
X57844579Y-109919961D01*
X57768214Y-109940423D01*
X57768209Y-109940426D01*
X57631290Y-110019475D01*
X57631282Y-110019481D01*
X57124217Y-110526546D01*
X57124214Y-110526548D01*
X57124215Y-110526549D01*
X57019477Y-110631287D01*
X56976677Y-110705421D01*
X56976677Y-110705422D01*
X56940423Y-110768214D01*
X56940423Y-110768215D01*
X56899499Y-110920943D01*
X56899499Y-110920945D01*
X56899499Y-111089046D01*
X56899500Y-111089059D01*
X56899500Y-111949901D01*
X56890856Y-111979337D01*
X56884333Y-112009327D01*
X56880577Y-112014344D01*
X56879815Y-112016940D01*
X56863182Y-112037582D01*
X56787584Y-112113181D01*
X56726261Y-112146666D01*
X56699902Y-112149500D01*
X54066916Y-112149500D01*
X53999877Y-112129815D01*
X53954122Y-112077011D01*
X53952425Y-112072887D01*
X53867032Y-111900707D01*
X53867030Y-111900704D01*
X53747722Y-111752278D01*
X53747721Y-111752277D01*
X53599295Y-111632969D01*
X53554613Y-111610809D01*
X53503300Y-111563388D01*
X53485772Y-111495753D01*
X53507592Y-111429377D01*
X53554615Y-111388632D01*
X53599025Y-111366607D01*
X53747366Y-111247367D01*
X53747367Y-111247366D01*
X53866607Y-111099025D01*
X53866609Y-111099022D01*
X53951168Y-110928523D01*
X53997102Y-110743824D01*
X54000000Y-110701096D01*
X54000000Y-110500000D01*
X52124000Y-110500000D01*
X52056961Y-110480315D01*
X52011206Y-110427511D01*
X52000000Y-110376000D01*
X52000000Y-110124000D01*
X52019685Y-110056961D01*
X52072489Y-110011206D01*
X52124000Y-110000000D01*
X54000000Y-110000000D01*
X54000000Y-109798903D01*
X53997102Y-109756175D01*
X53951168Y-109571476D01*
X53866609Y-109400977D01*
X53866607Y-109400974D01*
X53747367Y-109252633D01*
X53747366Y-109252632D01*
X53599025Y-109133392D01*
X53554613Y-109111366D01*
X53503301Y-109063945D01*
X53485772Y-108996310D01*
X53507591Y-108929935D01*
X53554613Y-108889190D01*
X53599296Y-108867030D01*
X53747722Y-108747722D01*
X53867030Y-108599296D01*
X53951641Y-108428693D01*
X53997600Y-108243889D01*
X54000500Y-108201123D01*
X54000499Y-107298878D01*
X53997600Y-107256111D01*
X53975411Y-107166887D01*
X53978335Y-107097081D01*
X54018535Y-107039935D01*
X54033839Y-107029523D01*
X54034647Y-107029057D01*
X54118716Y-106980520D01*
X54230520Y-106868716D01*
X54230520Y-106868714D01*
X54240723Y-106858512D01*
X54240727Y-106858506D01*
X54358506Y-106740728D01*
X54358511Y-106740724D01*
X54368714Y-106730520D01*
X54368716Y-106730520D01*
X54480520Y-106618716D01*
X54559577Y-106481784D01*
X54594754Y-106350501D01*
X54600500Y-106329058D01*
X54600500Y-106170943D01*
X54600500Y-105300097D01*
X54620185Y-105233058D01*
X54636819Y-105212416D01*
X55212417Y-104636819D01*
X55273740Y-104603334D01*
X55300098Y-104600500D01*
X55949903Y-104600500D01*
X56016942Y-104620185D01*
G37*
%TD.AperFunction*%
%TA.AperFunction,Conductor*%
G36*
X210240790Y-104008566D02*
G01*
X210268961Y-104013685D01*
X210273890Y-104018285D01*
X210280359Y-104020185D01*
X210299104Y-104041818D01*
X210320040Y-104061358D01*
X210321699Y-104067894D01*
X210326114Y-104072989D01*
X210330188Y-104101328D01*
X210337235Y-104129079D01*
X210335098Y-104135472D01*
X210336058Y-104142147D01*
X210324163Y-104168191D01*
X210315089Y-104195346D01*
X210308576Y-104202324D01*
X210307033Y-104205703D01*
X210291014Y-104221140D01*
X210264882Y-104242147D01*
X210252275Y-104252280D01*
X210132969Y-104400704D01*
X210132967Y-104400707D01*
X210048360Y-104571302D01*
X210002400Y-104756107D01*
X209999500Y-104798879D01*
X209999500Y-105100902D01*
X209979815Y-105167941D01*
X209927011Y-105213696D01*
X209857853Y-105223640D01*
X209794297Y-105194615D01*
X209787819Y-105188583D01*
X209618717Y-105019481D01*
X209618709Y-105019475D01*
X209512514Y-104958164D01*
X209512511Y-104958163D01*
X209481786Y-104940423D01*
X209481787Y-104940423D01*
X209409888Y-104921158D01*
X209329057Y-104899499D01*
X209170943Y-104899499D01*
X209163347Y-104899499D01*
X209163331Y-104899500D01*
X207579766Y-104899500D01*
X207512727Y-104879815D01*
X207510875Y-104878602D01*
X207379185Y-104790609D01*
X207379172Y-104790602D01*
X207233501Y-104730264D01*
X207233489Y-104730261D01*
X207078845Y-104699500D01*
X207078842Y-104699500D01*
X206921158Y-104699500D01*
X206921155Y-104699500D01*
X206766510Y-104730261D01*
X206766498Y-104730264D01*
X206620827Y-104790602D01*
X206620814Y-104790609D01*
X206489711Y-104878210D01*
X206489707Y-104878213D01*
X206378213Y-104989707D01*
X206378210Y-104989711D01*
X206290609Y-105120814D01*
X206290602Y-105120827D01*
X206230264Y-105266498D01*
X206230261Y-105266510D01*
X206199500Y-105421153D01*
X206199500Y-105578846D01*
X206230261Y-105733489D01*
X206230264Y-105733501D01*
X206290602Y-105879172D01*
X206290609Y-105879185D01*
X206378210Y-106010288D01*
X206378213Y-106010292D01*
X206489707Y-106121786D01*
X206489711Y-106121789D01*
X206620814Y-106209390D01*
X206620827Y-106209397D01*
X206766498Y-106269735D01*
X206766503Y-106269737D01*
X206890160Y-106294334D01*
X206921153Y-106300499D01*
X206921156Y-106300500D01*
X206921158Y-106300500D01*
X207078844Y-106300500D01*
X207078845Y-106300499D01*
X207233497Y-106269737D01*
X207379179Y-106209394D01*
X207395706Y-106198351D01*
X207510875Y-106121398D01*
X207577553Y-106100520D01*
X207579766Y-106100500D01*
X208949903Y-106100500D01*
X208979343Y-106109144D01*
X209009330Y-106115668D01*
X209014345Y-106119422D01*
X209016942Y-106120185D01*
X209037583Y-106136818D01*
X209113181Y-106212416D01*
X209146666Y-106273739D01*
X209149500Y-106300097D01*
X209149500Y-106913330D01*
X209149499Y-106913348D01*
X209149499Y-107079054D01*
X209149498Y-107079054D01*
X209190424Y-107231789D01*
X209190425Y-107231790D01*
X209212186Y-107269480D01*
X209212187Y-107269482D01*
X209269475Y-107368709D01*
X209269481Y-107368717D01*
X209388349Y-107487585D01*
X209388355Y-107487590D01*
X209963181Y-108062416D01*
X209996666Y-108123739D01*
X209999500Y-108150095D01*
X209999500Y-108201120D01*
X209999501Y-108201125D01*
X210002399Y-108243886D01*
X210002399Y-108243887D01*
X210048360Y-108428696D01*
X210132967Y-108599292D01*
X210132969Y-108599295D01*
X210252277Y-108747721D01*
X210252278Y-108747722D01*
X210400704Y-108867030D01*
X210400707Y-108867032D01*
X210445385Y-108889190D01*
X210496698Y-108936610D01*
X210514228Y-109004245D01*
X210492408Y-109070621D01*
X210445387Y-109111366D01*
X210400973Y-109133393D01*
X210252633Y-109252632D01*
X210252632Y-109252633D01*
X210133392Y-109400974D01*
X210133390Y-109400977D01*
X210048831Y-109571476D01*
X210002897Y-109756175D01*
X210000000Y-109798903D01*
X210000000Y-110000000D01*
X211876000Y-110000000D01*
X211943039Y-110019685D01*
X211988794Y-110072489D01*
X212000000Y-110124000D01*
X212000000Y-110376000D01*
X211980315Y-110443039D01*
X211927511Y-110488794D01*
X211876000Y-110500000D01*
X210000000Y-110500000D01*
X210000000Y-110701096D01*
X210002897Y-110743824D01*
X210048831Y-110928523D01*
X210133390Y-111099022D01*
X210133392Y-111099025D01*
X210252632Y-111247366D01*
X210252633Y-111247367D01*
X210400972Y-111366605D01*
X210445385Y-111388632D01*
X210496698Y-111436053D01*
X210514228Y-111503688D01*
X210492408Y-111570064D01*
X210445387Y-111610809D01*
X210400703Y-111632970D01*
X210252278Y-111752277D01*
X210252277Y-111752278D01*
X210132969Y-111900704D01*
X210132967Y-111900707D01*
X210045372Y-112077329D01*
X210043464Y-112076382D01*
X210036115Y-112086298D01*
X210026797Y-112106703D01*
X210015713Y-112113825D01*
X210007869Y-112124410D01*
X209986890Y-112132349D01*
X209968019Y-112144477D01*
X209946770Y-112147532D01*
X209942522Y-112149140D01*
X209933084Y-112149500D01*
X209800098Y-112149500D01*
X209733059Y-112129815D01*
X209712417Y-112113181D01*
X209368717Y-111769481D01*
X209368716Y-111769480D01*
X209272134Y-111713719D01*
X209272133Y-111713718D01*
X209231783Y-111690422D01*
X209171368Y-111674234D01*
X209079057Y-111649499D01*
X208920943Y-111649499D01*
X208913347Y-111649499D01*
X208913331Y-111649500D01*
X200050098Y-111649500D01*
X200020657Y-111640855D01*
X199990671Y-111634332D01*
X199985655Y-111630577D01*
X199983059Y-111629815D01*
X199962417Y-111613181D01*
X199886819Y-111537583D01*
X199853334Y-111476260D01*
X199850500Y-111449902D01*
X199850500Y-105214059D01*
X199850501Y-105214046D01*
X199850501Y-105045945D01*
X199850501Y-105045943D01*
X199809577Y-104893215D01*
X199772535Y-104829057D01*
X199738139Y-104769480D01*
X199730522Y-104756287D01*
X199730521Y-104756286D01*
X199730520Y-104756284D01*
X199618716Y-104644480D01*
X199618715Y-104644479D01*
X199614385Y-104640149D01*
X199614374Y-104640139D01*
X199186416Y-104212181D01*
X199152931Y-104150858D01*
X199157915Y-104081166D01*
X199199787Y-104025233D01*
X199265251Y-104000816D01*
X199274097Y-104000500D01*
X210213320Y-104000500D01*
X210240790Y-104008566D01*
G37*
%TD.AperFunction*%
%TA.AperFunction,Conductor*%
G36*
X118718434Y-107402376D02*
G01*
X118718436Y-107402377D01*
X118790821Y-107411069D01*
X118806897Y-107413000D01*
X118806898Y-107413000D01*
X118993103Y-107413000D01*
X119009178Y-107411069D01*
X119081564Y-107402377D01*
X119081565Y-107402376D01*
X119085215Y-107401938D01*
X119114785Y-107401938D01*
X119118434Y-107402376D01*
X119118436Y-107402377D01*
X119190821Y-107411069D01*
X119206897Y-107413000D01*
X119206898Y-107413000D01*
X119393103Y-107413000D01*
X119409178Y-107411069D01*
X119481564Y-107402377D01*
X119481565Y-107402376D01*
X119485215Y-107401938D01*
X119514785Y-107401938D01*
X119518434Y-107402376D01*
X119518436Y-107402377D01*
X119590821Y-107411069D01*
X119606897Y-107413000D01*
X119606898Y-107413000D01*
X119793103Y-107413000D01*
X119809178Y-107411069D01*
X119881564Y-107402377D01*
X119881565Y-107402376D01*
X119885215Y-107401938D01*
X119914785Y-107401938D01*
X119918434Y-107402376D01*
X119918436Y-107402377D01*
X119990821Y-107411069D01*
X120006897Y-107413000D01*
X120006898Y-107413000D01*
X120193103Y-107413000D01*
X120209178Y-107411069D01*
X120281564Y-107402377D01*
X120281565Y-107402376D01*
X120285215Y-107401938D01*
X120314785Y-107401938D01*
X120318434Y-107402376D01*
X120318436Y-107402377D01*
X120390821Y-107411069D01*
X120406897Y-107413000D01*
X120406898Y-107413000D01*
X120593103Y-107413000D01*
X120609178Y-107411069D01*
X120681564Y-107402377D01*
X120681565Y-107402376D01*
X120685215Y-107401938D01*
X120714785Y-107401938D01*
X120718434Y-107402376D01*
X120718436Y-107402377D01*
X120790821Y-107411069D01*
X120806897Y-107413000D01*
X120806898Y-107413000D01*
X120993103Y-107413000D01*
X121009178Y-107411069D01*
X121081564Y-107402377D01*
X121081565Y-107402376D01*
X121085215Y-107401938D01*
X121114785Y-107401938D01*
X121118434Y-107402376D01*
X121118436Y-107402377D01*
X121190821Y-107411069D01*
X121206897Y-107413000D01*
X121325500Y-107413000D01*
X121328449Y-107413866D01*
X121331438Y-107413142D01*
X121361759Y-107423647D01*
X121392539Y-107432685D01*
X121394552Y-107435008D01*
X121397458Y-107436015D01*
X121417291Y-107461250D01*
X121438294Y-107485489D01*
X121439303Y-107489258D01*
X121440632Y-107490949D01*
X121442874Y-107502592D01*
X121448942Y-107525251D01*
X121449500Y-107531113D01*
X121449500Y-107555602D01*
X121460123Y-107644064D01*
X121460291Y-107644490D01*
X121460887Y-107650751D01*
X121460561Y-107652439D01*
X121460561Y-107677283D01*
X121454718Y-107725940D01*
X121449500Y-107769398D01*
X121449500Y-107955602D01*
X121452645Y-107981790D01*
X121460561Y-108047717D01*
X121460561Y-108077283D01*
X121455587Y-108118709D01*
X121449500Y-108169398D01*
X121449500Y-108355602D01*
X121452584Y-108381282D01*
X121460561Y-108447717D01*
X121460561Y-108477283D01*
X121455647Y-108518209D01*
X121449500Y-108569398D01*
X121449500Y-108755602D01*
X121455222Y-108803254D01*
X121460561Y-108847717D01*
X121460561Y-108877283D01*
X121455849Y-108916524D01*
X121449500Y-108969398D01*
X121449500Y-109155602D01*
X121450114Y-109160711D01*
X121460561Y-109247717D01*
X121460561Y-109277283D01*
X121454718Y-109325940D01*
X121449500Y-109369398D01*
X121449500Y-109555602D01*
X121454253Y-109595185D01*
X121460561Y-109647717D01*
X121460561Y-109677283D01*
X121455679Y-109717939D01*
X121449500Y-109769398D01*
X121449500Y-109955602D01*
X121454832Y-110000000D01*
X121460561Y-110047717D01*
X121460561Y-110077283D01*
X121456251Y-110113181D01*
X121449500Y-110169398D01*
X121449500Y-110355602D01*
X121450223Y-110361620D01*
X121460561Y-110447717D01*
X121460561Y-110477283D01*
X121457040Y-110506607D01*
X121449500Y-110569398D01*
X121449500Y-110755602D01*
X121455087Y-110802127D01*
X121460561Y-110847717D01*
X121460561Y-110877283D01*
X121454718Y-110925940D01*
X121449500Y-110969398D01*
X121449500Y-111155602D01*
X121454772Y-111199500D01*
X121460561Y-111247717D01*
X121460887Y-111274249D01*
X121460291Y-111280509D01*
X121460123Y-111280936D01*
X121449500Y-111369398D01*
X121449500Y-111393886D01*
X121448942Y-111399749D01*
X121438065Y-111426942D01*
X121429815Y-111455039D01*
X121425242Y-111459001D01*
X121422994Y-111464622D01*
X121399138Y-111481620D01*
X121377011Y-111500794D01*
X121370129Y-111502291D01*
X121366092Y-111505168D01*
X121354307Y-111505732D01*
X121325500Y-111512000D01*
X121206898Y-111512000D01*
X121163440Y-111517218D01*
X121114783Y-111523061D01*
X121085217Y-111523061D01*
X121036559Y-111517218D01*
X120993102Y-111512000D01*
X120806898Y-111512000D01*
X120763440Y-111517218D01*
X120714783Y-111523061D01*
X120685217Y-111523061D01*
X120636559Y-111517218D01*
X120593102Y-111512000D01*
X120406898Y-111512000D01*
X120363440Y-111517218D01*
X120314783Y-111523061D01*
X120285217Y-111523061D01*
X120236559Y-111517218D01*
X120193102Y-111512000D01*
X120006898Y-111512000D01*
X119963440Y-111517218D01*
X119914783Y-111523061D01*
X119885217Y-111523061D01*
X119836559Y-111517218D01*
X119793102Y-111512000D01*
X119606898Y-111512000D01*
X119563440Y-111517218D01*
X119514783Y-111523061D01*
X119485217Y-111523061D01*
X119436559Y-111517218D01*
X119393102Y-111512000D01*
X119206898Y-111512000D01*
X119163440Y-111517218D01*
X119114783Y-111523061D01*
X119085217Y-111523061D01*
X119036559Y-111517218D01*
X118993102Y-111512000D01*
X118806898Y-111512000D01*
X118763440Y-111517218D01*
X118714783Y-111523061D01*
X118693441Y-111523771D01*
X118683083Y-111523222D01*
X118681564Y-111522623D01*
X118593102Y-111512000D01*
X118471226Y-111512000D01*
X118467941Y-111511826D01*
X118437958Y-111501270D01*
X118407461Y-111492315D01*
X118405238Y-111489750D01*
X118402036Y-111488623D01*
X118382513Y-111463523D01*
X118361706Y-111439511D01*
X118360879Y-111435710D01*
X118359139Y-111433473D01*
X118358252Y-111423635D01*
X118350500Y-111388000D01*
X118350500Y-111369397D01*
X118345076Y-111324234D01*
X118339877Y-111280936D01*
X118339876Y-111280934D01*
X118339438Y-111277285D01*
X118339438Y-111247715D01*
X118339876Y-111244065D01*
X118339877Y-111244064D01*
X118350500Y-111155602D01*
X118350500Y-110969398D01*
X118339877Y-110880936D01*
X118339876Y-110880934D01*
X118339438Y-110877285D01*
X118339438Y-110847715D01*
X118339876Y-110844065D01*
X118339877Y-110844064D01*
X118350500Y-110755602D01*
X118350500Y-110569398D01*
X118339877Y-110480936D01*
X118339876Y-110480934D01*
X118339438Y-110477285D01*
X118339438Y-110447715D01*
X118339876Y-110444065D01*
X118339877Y-110444064D01*
X118350500Y-110355602D01*
X118350500Y-110169398D01*
X118349773Y-110163348D01*
X118347770Y-110146666D01*
X118339877Y-110080936D01*
X118339876Y-110080934D01*
X118339438Y-110077285D01*
X118339438Y-110047715D01*
X118339876Y-110044065D01*
X118339877Y-110044064D01*
X118350500Y-109955602D01*
X118350500Y-109769398D01*
X118339877Y-109680936D01*
X118339876Y-109680934D01*
X118339438Y-109677285D01*
X118339438Y-109647715D01*
X118339876Y-109644065D01*
X118339877Y-109644064D01*
X118350500Y-109555602D01*
X118350500Y-109369398D01*
X118339877Y-109280936D01*
X118339876Y-109280934D01*
X118339438Y-109277285D01*
X118339438Y-109247715D01*
X118339876Y-109244065D01*
X118339877Y-109244064D01*
X118350500Y-109155602D01*
X118350500Y-108969398D01*
X118339877Y-108880936D01*
X118339876Y-108880934D01*
X118339438Y-108877285D01*
X118339438Y-108847715D01*
X118339876Y-108844065D01*
X118339877Y-108844064D01*
X118350500Y-108755602D01*
X118350500Y-108569398D01*
X118339877Y-108480936D01*
X118339876Y-108480934D01*
X118339438Y-108477285D01*
X118339438Y-108447715D01*
X118339876Y-108444065D01*
X118339877Y-108444064D01*
X118350500Y-108355602D01*
X118350500Y-108169398D01*
X118339877Y-108080936D01*
X118339876Y-108080934D01*
X118339438Y-108077285D01*
X118339438Y-108047715D01*
X118339876Y-108044065D01*
X118339877Y-108044064D01*
X118350500Y-107955602D01*
X118350500Y-107769398D01*
X118339877Y-107680936D01*
X118339876Y-107680934D01*
X118339438Y-107677285D01*
X118339111Y-107650749D01*
X118339706Y-107644497D01*
X118339877Y-107644064D01*
X118350500Y-107555602D01*
X118350500Y-107531110D01*
X118351058Y-107525249D01*
X118361935Y-107498055D01*
X118370185Y-107469961D01*
X118374758Y-107465997D01*
X118377007Y-107460377D01*
X118400859Y-107443381D01*
X118422989Y-107424206D01*
X118429873Y-107422708D01*
X118433910Y-107419832D01*
X118445690Y-107419267D01*
X118474500Y-107413000D01*
X118593103Y-107413000D01*
X118609178Y-107411069D01*
X118681564Y-107402377D01*
X118681565Y-107402376D01*
X118685215Y-107401938D01*
X118714785Y-107401938D01*
X118718434Y-107402376D01*
G37*
%TD.AperFunction*%
%TA.AperFunction,Conductor*%
G36*
X81450046Y-106120185D02*
G01*
X81495801Y-106172989D01*
X81505745Y-106242147D01*
X81481382Y-106299986D01*
X81481297Y-106300098D01*
X81412132Y-106390232D01*
X81412120Y-106390250D01*
X81346303Y-106504248D01*
X81346302Y-106504249D01*
X81295800Y-106626170D01*
X81261724Y-106753341D01*
X81244500Y-106884166D01*
X81244500Y-107500002D01*
X81249645Y-107571941D01*
X81253107Y-107583732D01*
X81254470Y-107634561D01*
X81256738Y-107634805D01*
X81249501Y-107702116D01*
X81249500Y-107702135D01*
X81249500Y-108797870D01*
X81249501Y-108797876D01*
X81255908Y-108857483D01*
X81306202Y-108992328D01*
X81306206Y-108992335D01*
X81392452Y-109107544D01*
X81392455Y-109107547D01*
X81507664Y-109193793D01*
X81507671Y-109193797D01*
X81642517Y-109244091D01*
X81642516Y-109244091D01*
X81649444Y-109244835D01*
X81702127Y-109250500D01*
X83297872Y-109250499D01*
X83357483Y-109244091D01*
X83492331Y-109193796D01*
X83607546Y-109107546D01*
X83693796Y-108992331D01*
X83702348Y-108969403D01*
X83716609Y-108931168D01*
X83758480Y-108875234D01*
X83821041Y-108851899D01*
X83820997Y-108851562D01*
X83822466Y-108851368D01*
X83823945Y-108850817D01*
X83827663Y-108850684D01*
X83829054Y-108850501D01*
X83829057Y-108850501D01*
X83981785Y-108809577D01*
X84036711Y-108777865D01*
X84118716Y-108730520D01*
X84230520Y-108618716D01*
X84230521Y-108618714D01*
X84730520Y-108118716D01*
X84809577Y-107981784D01*
X84850501Y-107829057D01*
X84850501Y-107670942D01*
X84850501Y-107663339D01*
X84850500Y-107663329D01*
X84850500Y-106800098D01*
X84870185Y-106733059D01*
X84886819Y-106712416D01*
X84962418Y-106636818D01*
X84989348Y-106622113D01*
X85015164Y-106605523D01*
X85021366Y-106604631D01*
X85023742Y-106603334D01*
X85050099Y-106600500D01*
X85074314Y-106600500D01*
X85141353Y-106620185D01*
X85187108Y-106672989D01*
X85197052Y-106742147D01*
X85192086Y-106760245D01*
X85192527Y-106760364D01*
X85190423Y-106768214D01*
X85190423Y-106768215D01*
X85149499Y-106920943D01*
X85149499Y-106920945D01*
X85149499Y-107089046D01*
X85149500Y-107089059D01*
X85149500Y-109949901D01*
X85140856Y-109979337D01*
X85134333Y-110009327D01*
X85130577Y-110014344D01*
X85129815Y-110016940D01*
X85113182Y-110037582D01*
X85037584Y-110113181D01*
X84976261Y-110146666D01*
X84949902Y-110149500D01*
X80550098Y-110149500D01*
X80483059Y-110129815D01*
X80462417Y-110113181D01*
X80386819Y-110037583D01*
X80353334Y-109976260D01*
X80350500Y-109949902D01*
X80350500Y-108839060D01*
X80350501Y-108839047D01*
X80350501Y-108670944D01*
X80350501Y-108670943D01*
X80309577Y-108518216D01*
X80257893Y-108428696D01*
X80230524Y-108381290D01*
X80230518Y-108381282D01*
X79618717Y-107769481D01*
X79618716Y-107769480D01*
X79515679Y-107709992D01*
X79481785Y-107690423D01*
X79329057Y-107649499D01*
X79170943Y-107649499D01*
X79163347Y-107649499D01*
X79163331Y-107649500D01*
X79127109Y-107649500D01*
X79060070Y-107629815D01*
X79014315Y-107577011D01*
X79004371Y-107507857D01*
X79004371Y-107507851D01*
X79005499Y-107500008D01*
X79005500Y-107499997D01*
X79005500Y-106884180D01*
X79005499Y-106884166D01*
X79003453Y-106868629D01*
X78988275Y-106753338D01*
X78954200Y-106626171D01*
X78903701Y-106504257D01*
X78903698Y-106504252D01*
X78903697Y-106504249D01*
X78903696Y-106504248D01*
X78837879Y-106390250D01*
X78837875Y-106390243D01*
X78837313Y-106389511D01*
X78791720Y-106330093D01*
X78768617Y-106299986D01*
X78743423Y-106234819D01*
X78757461Y-106166374D01*
X78806274Y-106116383D01*
X78866993Y-106100500D01*
X81383007Y-106100500D01*
X81450046Y-106120185D01*
G37*
%TD.AperFunction*%
%TA.AperFunction,Conductor*%
G36*
X130101257Y-103270185D02*
G01*
X130121899Y-103286819D01*
X130469735Y-103634655D01*
X130469764Y-103634686D01*
X130612215Y-103777137D01*
X130643289Y-103797900D01*
X130688094Y-103851513D01*
X130696801Y-103920838D01*
X130666646Y-103983865D01*
X130662079Y-103988683D01*
X130174315Y-104476448D01*
X130112992Y-104509933D01*
X130043301Y-104504949D01*
X130039182Y-104503328D01*
X129983501Y-104480264D01*
X129983489Y-104480261D01*
X129828845Y-104449500D01*
X129828842Y-104449500D01*
X129671158Y-104449500D01*
X129671155Y-104449500D01*
X129516510Y-104480261D01*
X129516498Y-104480264D01*
X129370827Y-104540602D01*
X129370814Y-104540609D01*
X129239711Y-104628210D01*
X129239707Y-104628213D01*
X129128213Y-104739707D01*
X129128210Y-104739711D01*
X129040609Y-104870814D01*
X129040602Y-104870827D01*
X128980264Y-105016498D01*
X128980261Y-105016510D01*
X128949500Y-105171153D01*
X128949500Y-105328846D01*
X128980261Y-105483489D01*
X128980264Y-105483501D01*
X129040602Y-105629172D01*
X129040609Y-105629185D01*
X129128210Y-105760288D01*
X129128213Y-105760292D01*
X129239707Y-105871786D01*
X129239711Y-105871789D01*
X129370814Y-105959390D01*
X129370827Y-105959397D01*
X129516498Y-106019735D01*
X129516503Y-106019737D01*
X129609946Y-106038324D01*
X129671153Y-106050499D01*
X129671156Y-106050500D01*
X129671158Y-106050500D01*
X129828844Y-106050500D01*
X129828845Y-106050499D01*
X129983497Y-106019737D01*
X130129179Y-105959394D01*
X130186725Y-105920943D01*
X130260873Y-105871399D01*
X130321124Y-105852532D01*
X130320997Y-105851562D01*
X130326568Y-105850828D01*
X130327550Y-105850521D01*
X130329002Y-105850507D01*
X130329054Y-105850501D01*
X130329057Y-105850501D01*
X130481785Y-105809577D01*
X130544299Y-105773484D01*
X130618716Y-105730520D01*
X130730520Y-105618716D01*
X130730520Y-105618714D01*
X130740724Y-105608511D01*
X130740727Y-105608506D01*
X131462417Y-104886819D01*
X131489344Y-104872115D01*
X131515163Y-104855523D01*
X131521363Y-104854631D01*
X131523740Y-104853334D01*
X131550098Y-104850500D01*
X131575500Y-104850500D01*
X131642539Y-104870185D01*
X131688294Y-104922989D01*
X131699500Y-104974500D01*
X131699500Y-105078846D01*
X131730261Y-105233489D01*
X131730264Y-105233501D01*
X131790602Y-105379172D01*
X131790609Y-105379185D01*
X131878210Y-105510288D01*
X131878213Y-105510292D01*
X131989707Y-105621786D01*
X131989711Y-105621789D01*
X132120814Y-105709390D01*
X132120827Y-105709397D01*
X132266498Y-105769735D01*
X132266503Y-105769737D01*
X132421153Y-105800499D01*
X132421156Y-105800500D01*
X132421158Y-105800500D01*
X132578844Y-105800500D01*
X132578845Y-105800499D01*
X132733497Y-105769737D01*
X132846166Y-105723067D01*
X132879172Y-105709397D01*
X132879172Y-105709396D01*
X132879179Y-105709394D01*
X132889524Y-105702482D01*
X133010875Y-105621398D01*
X133077553Y-105600520D01*
X133079766Y-105600500D01*
X162886259Y-105600500D01*
X162953298Y-105620185D01*
X162999053Y-105672989D01*
X163008997Y-105742147D01*
X162979972Y-105805703D01*
X162973944Y-105812176D01*
X162775832Y-106010288D01*
X162597939Y-106188181D01*
X162536616Y-106221666D01*
X162510258Y-106224500D01*
X134924233Y-106224500D01*
X134816507Y-106253364D01*
X134816507Y-106253365D01*
X134777865Y-106263719D01*
X134777863Y-106263719D01*
X134777863Y-106263720D01*
X134646635Y-106339485D01*
X134646632Y-106339487D01*
X133597939Y-107388181D01*
X133536616Y-107421666D01*
X133510258Y-107424500D01*
X126189741Y-107424500D01*
X126122702Y-107404815D01*
X126102060Y-107388181D01*
X125702421Y-106988541D01*
X125668936Y-106927218D01*
X125673920Y-106857526D01*
X125715792Y-106801593D01*
X125781256Y-106777176D01*
X125814291Y-106779242D01*
X125848848Y-106786116D01*
X125921155Y-106800500D01*
X125921158Y-106800500D01*
X126078844Y-106800500D01*
X126078845Y-106800499D01*
X126233497Y-106769737D01*
X126379179Y-106709394D01*
X126510289Y-106621789D01*
X126621789Y-106510289D01*
X126709394Y-106379179D01*
X126769737Y-106233497D01*
X126800500Y-106078842D01*
X126800500Y-105921158D01*
X126800500Y-105921155D01*
X126800499Y-105921153D01*
X126786449Y-105850521D01*
X126769737Y-105766503D01*
X126762901Y-105750000D01*
X126709397Y-105620827D01*
X126709390Y-105620814D01*
X126621789Y-105489711D01*
X126621786Y-105489707D01*
X126569416Y-105437338D01*
X126545287Y-105403272D01*
X126540304Y-105392882D01*
X126536281Y-105377865D01*
X126519904Y-105349500D01*
X126460515Y-105246635D01*
X126353365Y-105139485D01*
X126353363Y-105139483D01*
X126100658Y-104886778D01*
X126067173Y-104825455D01*
X126070633Y-104760093D01*
X126114505Y-104627697D01*
X126114506Y-104627690D01*
X126124999Y-104524986D01*
X126125000Y-104524973D01*
X126125000Y-104250000D01*
X125161500Y-104250000D01*
X125094461Y-104230315D01*
X125048706Y-104177511D01*
X125037500Y-104126000D01*
X125037500Y-103874000D01*
X125057185Y-103806961D01*
X125109989Y-103761206D01*
X125161500Y-103750000D01*
X126124999Y-103750000D01*
X126124999Y-103475028D01*
X126124998Y-103475010D01*
X126116018Y-103387101D01*
X126128788Y-103318408D01*
X126176669Y-103267524D01*
X126239376Y-103250500D01*
X130034218Y-103250500D01*
X130101257Y-103270185D01*
G37*
%TD.AperFunction*%
%TA.AperFunction,Conductor*%
G36*
X123867164Y-106059743D02*
G01*
X123892655Y-106063098D01*
X123900135Y-106069425D01*
X123909535Y-106072185D01*
X123926369Y-106091613D01*
X123946002Y-106108218D01*
X123952253Y-106121485D01*
X123955290Y-106124989D01*
X123958306Y-106134329D01*
X123961047Y-106140145D01*
X123962888Y-106146149D01*
X123980263Y-106233497D01*
X124016508Y-106321002D01*
X124018239Y-106326645D01*
X124018588Y-106355912D01*
X124021718Y-106385017D01*
X124019001Y-106390443D01*
X124019074Y-106396510D01*
X124003547Y-106421316D01*
X123990443Y-106447496D01*
X123985223Y-106450592D01*
X123982005Y-106455735D01*
X123955530Y-106468210D01*
X123930354Y-106483148D01*
X123924290Y-106482931D01*
X123918801Y-106485518D01*
X123899688Y-106487000D01*
X122916588Y-106487000D01*
X122871100Y-106478355D01*
X122856564Y-106472623D01*
X122856563Y-106472622D01*
X122856561Y-106472622D01*
X122810926Y-106467142D01*
X122768102Y-106462000D01*
X122424000Y-106462000D01*
X122356961Y-106442315D01*
X122311206Y-106389511D01*
X122300000Y-106338000D01*
X122300000Y-106176500D01*
X122319685Y-106109461D01*
X122372489Y-106063706D01*
X122424000Y-106052500D01*
X123842496Y-106052500D01*
X123867164Y-106059743D01*
G37*
%TD.AperFunction*%
%TA.AperFunction,Conductor*%
G36*
X117443039Y-106120185D02*
G01*
X117488794Y-106172989D01*
X117500000Y-106224500D01*
X117500000Y-106338000D01*
X117480315Y-106405039D01*
X117427511Y-106450794D01*
X117376000Y-106462000D01*
X117032046Y-106462000D01*
X116999953Y-106457775D01*
X116942254Y-106442315D01*
X116875766Y-106424500D01*
X116875765Y-106424500D01*
X116438401Y-106424500D01*
X116411077Y-106416477D01*
X116383043Y-106411457D01*
X116377984Y-106406759D01*
X116371362Y-106404815D01*
X116352714Y-106383295D01*
X116331843Y-106363914D01*
X116330126Y-106357227D01*
X116325607Y-106352011D01*
X116321554Y-106323825D01*
X116314474Y-106296238D01*
X116316200Y-106286593D01*
X116315663Y-106282853D01*
X116320695Y-106261496D01*
X116323390Y-106253365D01*
X116345879Y-106185494D01*
X116385652Y-106128051D01*
X116450168Y-106101228D01*
X116463585Y-106100500D01*
X117376000Y-106100500D01*
X117443039Y-106120185D01*
G37*
%TD.AperFunction*%
%TA.AperFunction,Conductor*%
G36*
X106592406Y-104870185D02*
G01*
X106638161Y-104922989D01*
X106648105Y-104992147D01*
X106643073Y-105013504D01*
X106610319Y-105112348D01*
X106600000Y-105213345D01*
X106600000Y-105250000D01*
X107463500Y-105250000D01*
X107530539Y-105269685D01*
X107576294Y-105322489D01*
X107587500Y-105374000D01*
X107587500Y-105626000D01*
X107567815Y-105693039D01*
X107515011Y-105738794D01*
X107463500Y-105750000D01*
X106600001Y-105750000D01*
X106600001Y-105786654D01*
X106610319Y-105887652D01*
X106664546Y-106051300D01*
X106664551Y-106051311D01*
X106755052Y-106198034D01*
X106755055Y-106198038D01*
X106769836Y-106212819D01*
X106803321Y-106274142D01*
X106798337Y-106343834D01*
X106756465Y-106399767D01*
X106691001Y-106424184D01*
X106682155Y-106424500D01*
X104216024Y-106424500D01*
X104148985Y-106404815D01*
X104103230Y-106352011D01*
X104093286Y-106282853D01*
X104122311Y-106219297D01*
X104147133Y-106197398D01*
X104232817Y-106140145D01*
X104260289Y-106121789D01*
X104371789Y-106010289D01*
X104459394Y-105879179D01*
X104519737Y-105733497D01*
X104550500Y-105578842D01*
X104550500Y-105421158D01*
X104550500Y-105421155D01*
X104550499Y-105421153D01*
X104542593Y-105381407D01*
X104519737Y-105266503D01*
X104511508Y-105246636D01*
X104459397Y-105120827D01*
X104459395Y-105120823D01*
X104459394Y-105120821D01*
X104431347Y-105078846D01*
X104407657Y-105043391D01*
X104386779Y-104976714D01*
X104405263Y-104909334D01*
X104457242Y-104862643D01*
X104510759Y-104850500D01*
X106525367Y-104850500D01*
X106592406Y-104870185D01*
G37*
%TD.AperFunction*%
%TA.AperFunction,Conductor*%
G36*
X112068039Y-104870185D02*
G01*
X112113794Y-104922989D01*
X112125000Y-104974500D01*
X112125000Y-105250000D01*
X113088500Y-105250000D01*
X113155539Y-105269685D01*
X113201294Y-105322489D01*
X113212500Y-105374000D01*
X113212500Y-105626000D01*
X113192815Y-105693039D01*
X113140011Y-105738794D01*
X113088500Y-105750000D01*
X112125001Y-105750000D01*
X112125001Y-106024986D01*
X112135494Y-106127697D01*
X112179831Y-106261496D01*
X112182233Y-106331324D01*
X112146501Y-106391366D01*
X112083981Y-106422559D01*
X112062125Y-106424500D01*
X110318552Y-106424500D01*
X110251513Y-106404815D01*
X110205758Y-106352011D01*
X110195814Y-106282853D01*
X110224839Y-106219297D01*
X110230871Y-106212819D01*
X110234300Y-106209390D01*
X110245340Y-106198350D01*
X110335908Y-106051516D01*
X110390174Y-105887753D01*
X110400500Y-105786677D01*
X110400499Y-105213324D01*
X110399552Y-105204057D01*
X110390174Y-105112247D01*
X110379106Y-105078846D01*
X110357452Y-105013501D01*
X110355051Y-104943677D01*
X110390782Y-104883634D01*
X110453302Y-104852441D01*
X110475159Y-104850500D01*
X112001000Y-104850500D01*
X112068039Y-104870185D01*
G37*
%TD.AperFunction*%
%TD*%
M02*
