M48
; DRILL file {KiCad 9.0.7} date 2026-04-21T22:19:30+0200
; FORMAT={-:-/ absolute / metric / decimal}
; #@! TF.CreationDate,2026-04-21T22:19:30+02:00
; #@! TF.GenerationSoftware,Kicad,Pcbnew,9.0.7
; #@! TF.FileFunction,Plated,1,2,PTH
FMAT,2
METRIC
; #@! TA.AperFunction,Plated,PTH,ViaDrill
T1C0.300
%
G90
G05
T1
X51.0Y-115.0
X51.0Y-117.5
X51.0Y-119.0
X52.5Y-115.0
X52.5Y-117.5
X52.5Y-119.0
X54.25Y-119.0
X54.5Y-107.0
X54.5Y-109.25
X55.5Y-104.5
X56.0Y-107.0
X56.0Y-108.25
X56.0Y-109.5
X57.25Y-104.75
X57.25Y-115.0
X58.25Y-107.25
X58.25Y-111.25
X60.0Y-112.0
X60.75Y-117.0
X61.25Y-107.25
X61.25Y-109.5
X62.5Y-112.5
X62.5Y-115.0
X65.0Y-110.0
X65.0Y-112.5
X65.0Y-115.0
X67.5Y-107.5
X67.5Y-110.0
X67.5Y-116.0
X70.0Y-107.5
X70.0Y-116.0
X72.5Y-107.5
X72.5Y-116.0
X73.75Y-112.0
X75.0Y-107.5
X75.0Y-110.0
X77.5Y-115.0
X80.0Y-106.75
X88.0Y-117.0
X92.0Y-110.5
X92.0Y-112.75
X92.0Y-115.25
X92.5Y-116.5
X95.0Y-116.5
X97.5Y-116.5
X97.75Y-104.0
X98.75Y-104.5
X100.0Y-116.5
X101.75Y-105.25
X101.75Y-112.0
X102.5Y-116.5
X102.75Y-104.75
X103.75Y-105.5
X105.25Y-112.0
X105.25Y-114.75
X105.25Y-116.75
X106.25Y-104.85
X108.75Y-119.0
X109.5Y-112.25
X110.75Y-105.0
X110.75Y-106.25
X113.0Y-112.25
X115.75Y-117.0
X116.0Y-115.0
X116.0Y-119.0
X116.75Y-106.1
X116.75Y-112.75
X117.0Y-104.9
X117.5Y-115.0
X118.0Y-119.0
X119.0Y-109.0
X119.0Y-110.75
X119.5Y-104.25
X120.5Y-119.0
X120.732Y-104.213
X120.75Y-109.0
X120.75Y-110.75
X121.75Y-104.0
X123.25Y-106.25
X123.75Y-119.0
X124.75Y-106.25
X126.0Y-106.25
X127.0Y-103.75
X127.5Y-106.25
X128.5Y-103.75
X129.75Y-105.25
X131.15Y-117.0
X131.25Y-106.25
X131.25Y-119.0
X132.5Y-105.0
X132.5Y-119.0
X133.75Y-101.8
X134.0Y-115.25
X134.75Y-119.0
X137.5Y-119.0
X140.0Y-119.0
X142.5Y-119.0
X143.65Y-112.0
X145.0Y-119.0
X147.5Y-110.0
X147.5Y-119.0
X150.0Y-110.0
X150.0Y-119.0
X152.5Y-110.0
X155.0Y-110.0
X157.25Y-117.0
X157.5Y-110.0
X160.0Y-110.0
X160.0Y-119.0
X162.5Y-119.0
X165.0Y-119.0
X165.5Y-108.5
X167.5Y-119.0
X170.0Y-119.0
X172.25Y-119.0
X172.5Y-110.0
X173.5Y-109.25
X174.0Y-114.15
X175.0Y-110.0
X175.0Y-119.0
X177.5Y-110.0
X177.5Y-119.0
X180.0Y-110.0
X182.5Y-110.0
X185.0Y-110.0
X185.75Y-109.25
X187.5Y-110.0
X190.0Y-115.75
X192.5Y-107.5
X192.5Y-115.75
X194.75Y-115.75
X195.0Y-107.5
X197.0Y-107.5
X197.5Y-115.75
X198.25Y-113.25
X200.0Y-115.75
X202.5Y-105.0
X202.5Y-107.5
X202.5Y-111.75
X202.5Y-115.75
X202.75Y-101.8
X205.0Y-107.5
X205.0Y-111.75
X206.0Y-105.5
X207.5Y-104.5
X207.5Y-107.5
X207.5Y-111.75
X208.75Y-104.5
X210.0Y-114.75
X211.5Y-115.0
X212.0Y-117.25
X212.5Y-115.0
M30
