%TF.GenerationSoftware,KiCad,Pcbnew,9.0.7*%
%TF.CreationDate,2026-04-21T22:19:25+02:00*%
%TF.ProjectId,playLight_rev_A,706c6179-4c69-4676-9874-5f7265765f41,rev?*%
%TF.SameCoordinates,Original*%
%TF.FileFunction,Legend,Top*%
%TF.FilePolarity,Positive*%
%FSLAX46Y46*%
G04 Gerber Fmt 4.6, Leading zero omitted, Abs format (unit mm)*
G04 Created by KiCad (PCBNEW 9.0.7) date 2026-04-21 22:19:25*
%MOMM*%
%LPD*%
G01*
G04 APERTURE LIST*
%ADD10C,0.125000*%
%ADD11C,0.200000*%
%ADD12C,0.150000*%
%ADD13C,0.120000*%
G04 APERTURE END LIST*
D10*
X54022712Y-113323500D02*
X54165569Y-113371119D01*
X54165569Y-113371119D02*
X54403664Y-113371119D01*
X54403664Y-113371119D02*
X54498902Y-113323500D01*
X54498902Y-113323500D02*
X54546521Y-113275880D01*
X54546521Y-113275880D02*
X54594140Y-113180642D01*
X54594140Y-113180642D02*
X54594140Y-113085404D01*
X54594140Y-113085404D02*
X54546521Y-112990166D01*
X54546521Y-112990166D02*
X54498902Y-112942547D01*
X54498902Y-112942547D02*
X54403664Y-112894928D01*
X54403664Y-112894928D02*
X54213188Y-112847309D01*
X54213188Y-112847309D02*
X54117950Y-112799690D01*
X54117950Y-112799690D02*
X54070331Y-112752071D01*
X54070331Y-112752071D02*
X54022712Y-112656833D01*
X54022712Y-112656833D02*
X54022712Y-112561595D01*
X54022712Y-112561595D02*
X54070331Y-112466357D01*
X54070331Y-112466357D02*
X54117950Y-112418738D01*
X54117950Y-112418738D02*
X54213188Y-112371119D01*
X54213188Y-112371119D02*
X54451283Y-112371119D01*
X54451283Y-112371119D02*
X54594140Y-112418738D01*
X55022712Y-113371119D02*
X55022712Y-112371119D01*
X55022712Y-112371119D02*
X55260807Y-112371119D01*
X55260807Y-112371119D02*
X55403664Y-112418738D01*
X55403664Y-112418738D02*
X55498902Y-112513976D01*
X55498902Y-112513976D02*
X55546521Y-112609214D01*
X55546521Y-112609214D02*
X55594140Y-112799690D01*
X55594140Y-112799690D02*
X55594140Y-112942547D01*
X55594140Y-112942547D02*
X55546521Y-113133023D01*
X55546521Y-113133023D02*
X55498902Y-113228261D01*
X55498902Y-113228261D02*
X55403664Y-113323500D01*
X55403664Y-113323500D02*
X55260807Y-113371119D01*
X55260807Y-113371119D02*
X55022712Y-113371119D01*
X55975093Y-113085404D02*
X56451283Y-113085404D01*
X55879855Y-113371119D02*
X56213188Y-112371119D01*
X56213188Y-112371119D02*
X56546521Y-113371119D01*
X201272712Y-109335404D02*
X201748902Y-109335404D01*
X201177474Y-109621119D02*
X201510807Y-108621119D01*
X201510807Y-108621119D02*
X201844140Y-109621119D01*
X202177474Y-108954452D02*
X202177474Y-109954452D01*
X202177474Y-109002071D02*
X202272712Y-108954452D01*
X202272712Y-108954452D02*
X202463188Y-108954452D01*
X202463188Y-108954452D02*
X202558426Y-109002071D01*
X202558426Y-109002071D02*
X202606045Y-109049690D01*
X202606045Y-109049690D02*
X202653664Y-109144928D01*
X202653664Y-109144928D02*
X202653664Y-109430642D01*
X202653664Y-109430642D02*
X202606045Y-109525880D01*
X202606045Y-109525880D02*
X202558426Y-109573500D01*
X202558426Y-109573500D02*
X202463188Y-109621119D01*
X202463188Y-109621119D02*
X202272712Y-109621119D01*
X202272712Y-109621119D02*
X202177474Y-109573500D01*
X203082236Y-109621119D02*
X203082236Y-108954452D01*
X203082236Y-109144928D02*
X203129855Y-109049690D01*
X203129855Y-109049690D02*
X203177474Y-109002071D01*
X203177474Y-109002071D02*
X203272712Y-108954452D01*
X203272712Y-108954452D02*
X203367950Y-108954452D01*
X203701284Y-109621119D02*
X203701284Y-108954452D01*
X203701284Y-108621119D02*
X203653665Y-108668738D01*
X203653665Y-108668738D02*
X203701284Y-108716357D01*
X203701284Y-108716357D02*
X203748903Y-108668738D01*
X203748903Y-108668738D02*
X203701284Y-108621119D01*
X203701284Y-108621119D02*
X203701284Y-108716357D01*
X204320331Y-109621119D02*
X204225093Y-109573500D01*
X204225093Y-109573500D02*
X204177474Y-109478261D01*
X204177474Y-109478261D02*
X204177474Y-108621119D01*
X205415570Y-108716357D02*
X205463189Y-108668738D01*
X205463189Y-108668738D02*
X205558427Y-108621119D01*
X205558427Y-108621119D02*
X205796522Y-108621119D01*
X205796522Y-108621119D02*
X205891760Y-108668738D01*
X205891760Y-108668738D02*
X205939379Y-108716357D01*
X205939379Y-108716357D02*
X205986998Y-108811595D01*
X205986998Y-108811595D02*
X205986998Y-108906833D01*
X205986998Y-108906833D02*
X205939379Y-109049690D01*
X205939379Y-109049690D02*
X205367951Y-109621119D01*
X205367951Y-109621119D02*
X205986998Y-109621119D01*
X206606046Y-108621119D02*
X206701284Y-108621119D01*
X206701284Y-108621119D02*
X206796522Y-108668738D01*
X206796522Y-108668738D02*
X206844141Y-108716357D01*
X206844141Y-108716357D02*
X206891760Y-108811595D01*
X206891760Y-108811595D02*
X206939379Y-109002071D01*
X206939379Y-109002071D02*
X206939379Y-109240166D01*
X206939379Y-109240166D02*
X206891760Y-109430642D01*
X206891760Y-109430642D02*
X206844141Y-109525880D01*
X206844141Y-109525880D02*
X206796522Y-109573500D01*
X206796522Y-109573500D02*
X206701284Y-109621119D01*
X206701284Y-109621119D02*
X206606046Y-109621119D01*
X206606046Y-109621119D02*
X206510808Y-109573500D01*
X206510808Y-109573500D02*
X206463189Y-109525880D01*
X206463189Y-109525880D02*
X206415570Y-109430642D01*
X206415570Y-109430642D02*
X206367951Y-109240166D01*
X206367951Y-109240166D02*
X206367951Y-109002071D01*
X206367951Y-109002071D02*
X206415570Y-108811595D01*
X206415570Y-108811595D02*
X206463189Y-108716357D01*
X206463189Y-108716357D02*
X206510808Y-108668738D01*
X206510808Y-108668738D02*
X206606046Y-108621119D01*
X207320332Y-108716357D02*
X207367951Y-108668738D01*
X207367951Y-108668738D02*
X207463189Y-108621119D01*
X207463189Y-108621119D02*
X207701284Y-108621119D01*
X207701284Y-108621119D02*
X207796522Y-108668738D01*
X207796522Y-108668738D02*
X207844141Y-108716357D01*
X207844141Y-108716357D02*
X207891760Y-108811595D01*
X207891760Y-108811595D02*
X207891760Y-108906833D01*
X207891760Y-108906833D02*
X207844141Y-109049690D01*
X207844141Y-109049690D02*
X207272713Y-109621119D01*
X207272713Y-109621119D02*
X207891760Y-109621119D01*
X208748903Y-108621119D02*
X208558427Y-108621119D01*
X208558427Y-108621119D02*
X208463189Y-108668738D01*
X208463189Y-108668738D02*
X208415570Y-108716357D01*
X208415570Y-108716357D02*
X208320332Y-108859214D01*
X208320332Y-108859214D02*
X208272713Y-109049690D01*
X208272713Y-109049690D02*
X208272713Y-109430642D01*
X208272713Y-109430642D02*
X208320332Y-109525880D01*
X208320332Y-109525880D02*
X208367951Y-109573500D01*
X208367951Y-109573500D02*
X208463189Y-109621119D01*
X208463189Y-109621119D02*
X208653665Y-109621119D01*
X208653665Y-109621119D02*
X208748903Y-109573500D01*
X208748903Y-109573500D02*
X208796522Y-109525880D01*
X208796522Y-109525880D02*
X208844141Y-109430642D01*
X208844141Y-109430642D02*
X208844141Y-109192547D01*
X208844141Y-109192547D02*
X208796522Y-109097309D01*
X208796522Y-109097309D02*
X208748903Y-109049690D01*
X208748903Y-109049690D02*
X208653665Y-109002071D01*
X208653665Y-109002071D02*
X208463189Y-109002071D01*
X208463189Y-109002071D02*
X208367951Y-109049690D01*
X208367951Y-109049690D02*
X208320332Y-109097309D01*
X208320332Y-109097309D02*
X208272713Y-109192547D01*
X207522712Y-111073500D02*
X207665569Y-111121119D01*
X207665569Y-111121119D02*
X207903664Y-111121119D01*
X207903664Y-111121119D02*
X207998902Y-111073500D01*
X207998902Y-111073500D02*
X208046521Y-111025880D01*
X208046521Y-111025880D02*
X208094140Y-110930642D01*
X208094140Y-110930642D02*
X208094140Y-110835404D01*
X208094140Y-110835404D02*
X208046521Y-110740166D01*
X208046521Y-110740166D02*
X207998902Y-110692547D01*
X207998902Y-110692547D02*
X207903664Y-110644928D01*
X207903664Y-110644928D02*
X207713188Y-110597309D01*
X207713188Y-110597309D02*
X207617950Y-110549690D01*
X207617950Y-110549690D02*
X207570331Y-110502071D01*
X207570331Y-110502071D02*
X207522712Y-110406833D01*
X207522712Y-110406833D02*
X207522712Y-110311595D01*
X207522712Y-110311595D02*
X207570331Y-110216357D01*
X207570331Y-110216357D02*
X207617950Y-110168738D01*
X207617950Y-110168738D02*
X207713188Y-110121119D01*
X207713188Y-110121119D02*
X207951283Y-110121119D01*
X207951283Y-110121119D02*
X208094140Y-110168738D01*
X209094140Y-111025880D02*
X209046521Y-111073500D01*
X209046521Y-111073500D02*
X208903664Y-111121119D01*
X208903664Y-111121119D02*
X208808426Y-111121119D01*
X208808426Y-111121119D02*
X208665569Y-111073500D01*
X208665569Y-111073500D02*
X208570331Y-110978261D01*
X208570331Y-110978261D02*
X208522712Y-110883023D01*
X208522712Y-110883023D02*
X208475093Y-110692547D01*
X208475093Y-110692547D02*
X208475093Y-110549690D01*
X208475093Y-110549690D02*
X208522712Y-110359214D01*
X208522712Y-110359214D02*
X208570331Y-110263976D01*
X208570331Y-110263976D02*
X208665569Y-110168738D01*
X208665569Y-110168738D02*
X208808426Y-110121119D01*
X208808426Y-110121119D02*
X208903664Y-110121119D01*
X208903664Y-110121119D02*
X209046521Y-110168738D01*
X209046521Y-110168738D02*
X209094140Y-110216357D01*
X209998902Y-111121119D02*
X209522712Y-111121119D01*
X209522712Y-111121119D02*
X209522712Y-110121119D01*
X203820331Y-102990166D02*
X204582236Y-102990166D01*
X204201283Y-103371119D02*
X204201283Y-102609214D01*
X205534616Y-102371119D02*
X205058426Y-102371119D01*
X205058426Y-102371119D02*
X205010807Y-102847309D01*
X205010807Y-102847309D02*
X205058426Y-102799690D01*
X205058426Y-102799690D02*
X205153664Y-102752071D01*
X205153664Y-102752071D02*
X205391759Y-102752071D01*
X205391759Y-102752071D02*
X205486997Y-102799690D01*
X205486997Y-102799690D02*
X205534616Y-102847309D01*
X205534616Y-102847309D02*
X205582235Y-102942547D01*
X205582235Y-102942547D02*
X205582235Y-103180642D01*
X205582235Y-103180642D02*
X205534616Y-103275880D01*
X205534616Y-103275880D02*
X205486997Y-103323500D01*
X205486997Y-103323500D02*
X205391759Y-103371119D01*
X205391759Y-103371119D02*
X205153664Y-103371119D01*
X205153664Y-103371119D02*
X205058426Y-103323500D01*
X205058426Y-103323500D02*
X205010807Y-103275880D01*
X205867950Y-102371119D02*
X206201283Y-103371119D01*
X206201283Y-103371119D02*
X206534616Y-102371119D01*
X208106045Y-103371119D02*
X207629855Y-103371119D01*
X207629855Y-103371119D02*
X207629855Y-102371119D01*
X208439379Y-102847309D02*
X208772712Y-102847309D01*
X208915569Y-103371119D02*
X208439379Y-103371119D01*
X208439379Y-103371119D02*
X208439379Y-102371119D01*
X208439379Y-102371119D02*
X208915569Y-102371119D01*
X209344141Y-103371119D02*
X209344141Y-102371119D01*
X209344141Y-102371119D02*
X209582236Y-102371119D01*
X209582236Y-102371119D02*
X209725093Y-102418738D01*
X209725093Y-102418738D02*
X209820331Y-102513976D01*
X209820331Y-102513976D02*
X209867950Y-102609214D01*
X209867950Y-102609214D02*
X209915569Y-102799690D01*
X209915569Y-102799690D02*
X209915569Y-102942547D01*
X209915569Y-102942547D02*
X209867950Y-103133023D01*
X209867950Y-103133023D02*
X209820331Y-103228261D01*
X209820331Y-103228261D02*
X209725093Y-103323500D01*
X209725093Y-103323500D02*
X209582236Y-103371119D01*
X209582236Y-103371119D02*
X209344141Y-103371119D01*
X192570331Y-106871119D02*
X192570331Y-106204452D01*
X192570331Y-106394928D02*
X192617950Y-106299690D01*
X192617950Y-106299690D02*
X192665569Y-106252071D01*
X192665569Y-106252071D02*
X192760807Y-106204452D01*
X192760807Y-106204452D02*
X192856045Y-106204452D01*
X193570331Y-106823500D02*
X193475093Y-106871119D01*
X193475093Y-106871119D02*
X193284617Y-106871119D01*
X193284617Y-106871119D02*
X193189379Y-106823500D01*
X193189379Y-106823500D02*
X193141760Y-106728261D01*
X193141760Y-106728261D02*
X193141760Y-106347309D01*
X193141760Y-106347309D02*
X193189379Y-106252071D01*
X193189379Y-106252071D02*
X193284617Y-106204452D01*
X193284617Y-106204452D02*
X193475093Y-106204452D01*
X193475093Y-106204452D02*
X193570331Y-106252071D01*
X193570331Y-106252071D02*
X193617950Y-106347309D01*
X193617950Y-106347309D02*
X193617950Y-106442547D01*
X193617950Y-106442547D02*
X193141760Y-106537785D01*
X193951284Y-106204452D02*
X194189379Y-106871119D01*
X194189379Y-106871119D02*
X194427474Y-106204452D01*
X195522713Y-106585404D02*
X195998903Y-106585404D01*
X195427475Y-106871119D02*
X195760808Y-105871119D01*
X195760808Y-105871119D02*
X196094141Y-106871119D01*
X76085404Y-109227287D02*
X76085404Y-108751097D01*
X76371119Y-109322525D02*
X75371119Y-108989192D01*
X75371119Y-108989192D02*
X76371119Y-108655859D01*
X75371119Y-108132049D02*
X75371119Y-108036811D01*
X75371119Y-108036811D02*
X75418738Y-107941573D01*
X75418738Y-107941573D02*
X75466357Y-107893954D01*
X75466357Y-107893954D02*
X75561595Y-107846335D01*
X75561595Y-107846335D02*
X75752071Y-107798716D01*
X75752071Y-107798716D02*
X75990166Y-107798716D01*
X75990166Y-107798716D02*
X76180642Y-107846335D01*
X76180642Y-107846335D02*
X76275880Y-107893954D01*
X76275880Y-107893954D02*
X76323500Y-107941573D01*
X76323500Y-107941573D02*
X76371119Y-108036811D01*
X76371119Y-108036811D02*
X76371119Y-108132049D01*
X76371119Y-108132049D02*
X76323500Y-108227287D01*
X76323500Y-108227287D02*
X76275880Y-108274906D01*
X76275880Y-108274906D02*
X76180642Y-108322525D01*
X76180642Y-108322525D02*
X75990166Y-108370144D01*
X75990166Y-108370144D02*
X75752071Y-108370144D01*
X75752071Y-108370144D02*
X75561595Y-108322525D01*
X75561595Y-108322525D02*
X75466357Y-108274906D01*
X75466357Y-108274906D02*
X75418738Y-108227287D01*
X75418738Y-108227287D02*
X75371119Y-108132049D01*
X80835404Y-109227287D02*
X80835404Y-108751097D01*
X81121119Y-109322525D02*
X80121119Y-108989192D01*
X80121119Y-108989192D02*
X81121119Y-108655859D01*
X81121119Y-107798716D02*
X81121119Y-108370144D01*
X81121119Y-108084430D02*
X80121119Y-108084430D01*
X80121119Y-108084430D02*
X80263976Y-108179668D01*
X80263976Y-108179668D02*
X80359214Y-108274906D01*
X80359214Y-108274906D02*
X80406833Y-108370144D01*
X54594140Y-107418738D02*
X54498902Y-107371119D01*
X54498902Y-107371119D02*
X54356045Y-107371119D01*
X54356045Y-107371119D02*
X54213188Y-107418738D01*
X54213188Y-107418738D02*
X54117950Y-107513976D01*
X54117950Y-107513976D02*
X54070331Y-107609214D01*
X54070331Y-107609214D02*
X54022712Y-107799690D01*
X54022712Y-107799690D02*
X54022712Y-107942547D01*
X54022712Y-107942547D02*
X54070331Y-108133023D01*
X54070331Y-108133023D02*
X54117950Y-108228261D01*
X54117950Y-108228261D02*
X54213188Y-108323500D01*
X54213188Y-108323500D02*
X54356045Y-108371119D01*
X54356045Y-108371119D02*
X54451283Y-108371119D01*
X54451283Y-108371119D02*
X54594140Y-108323500D01*
X54594140Y-108323500D02*
X54641759Y-108275880D01*
X54641759Y-108275880D02*
X54641759Y-107942547D01*
X54641759Y-107942547D02*
X54451283Y-107942547D01*
X55070331Y-108371119D02*
X55070331Y-107371119D01*
X55070331Y-107371119D02*
X55641759Y-108371119D01*
X55641759Y-108371119D02*
X55641759Y-107371119D01*
X56117950Y-108371119D02*
X56117950Y-107371119D01*
X56117950Y-107371119D02*
X56356045Y-107371119D01*
X56356045Y-107371119D02*
X56498902Y-107418738D01*
X56498902Y-107418738D02*
X56594140Y-107513976D01*
X56594140Y-107513976D02*
X56641759Y-107609214D01*
X56641759Y-107609214D02*
X56689378Y-107799690D01*
X56689378Y-107799690D02*
X56689378Y-107942547D01*
X56689378Y-107942547D02*
X56641759Y-108133023D01*
X56641759Y-108133023D02*
X56594140Y-108228261D01*
X56594140Y-108228261D02*
X56498902Y-108323500D01*
X56498902Y-108323500D02*
X56356045Y-108371119D01*
X56356045Y-108371119D02*
X56117950Y-108371119D01*
X54022712Y-110823500D02*
X54165569Y-110871119D01*
X54165569Y-110871119D02*
X54403664Y-110871119D01*
X54403664Y-110871119D02*
X54498902Y-110823500D01*
X54498902Y-110823500D02*
X54546521Y-110775880D01*
X54546521Y-110775880D02*
X54594140Y-110680642D01*
X54594140Y-110680642D02*
X54594140Y-110585404D01*
X54594140Y-110585404D02*
X54546521Y-110490166D01*
X54546521Y-110490166D02*
X54498902Y-110442547D01*
X54498902Y-110442547D02*
X54403664Y-110394928D01*
X54403664Y-110394928D02*
X54213188Y-110347309D01*
X54213188Y-110347309D02*
X54117950Y-110299690D01*
X54117950Y-110299690D02*
X54070331Y-110252071D01*
X54070331Y-110252071D02*
X54022712Y-110156833D01*
X54022712Y-110156833D02*
X54022712Y-110061595D01*
X54022712Y-110061595D02*
X54070331Y-109966357D01*
X54070331Y-109966357D02*
X54117950Y-109918738D01*
X54117950Y-109918738D02*
X54213188Y-109871119D01*
X54213188Y-109871119D02*
X54451283Y-109871119D01*
X54451283Y-109871119D02*
X54594140Y-109918738D01*
X55594140Y-110775880D02*
X55546521Y-110823500D01*
X55546521Y-110823500D02*
X55403664Y-110871119D01*
X55403664Y-110871119D02*
X55308426Y-110871119D01*
X55308426Y-110871119D02*
X55165569Y-110823500D01*
X55165569Y-110823500D02*
X55070331Y-110728261D01*
X55070331Y-110728261D02*
X55022712Y-110633023D01*
X55022712Y-110633023D02*
X54975093Y-110442547D01*
X54975093Y-110442547D02*
X54975093Y-110299690D01*
X54975093Y-110299690D02*
X55022712Y-110109214D01*
X55022712Y-110109214D02*
X55070331Y-110013976D01*
X55070331Y-110013976D02*
X55165569Y-109918738D01*
X55165569Y-109918738D02*
X55308426Y-109871119D01*
X55308426Y-109871119D02*
X55403664Y-109871119D01*
X55403664Y-109871119D02*
X55546521Y-109918738D01*
X55546521Y-109918738D02*
X55594140Y-109966357D01*
X56498902Y-110871119D02*
X56022712Y-110871119D01*
X56022712Y-110871119D02*
X56022712Y-109871119D01*
D11*
X170548244Y-107950552D02*
X170548244Y-108760076D01*
X170548244Y-108760076D02*
X170500625Y-108855314D01*
X170500625Y-108855314D02*
X170453006Y-108902933D01*
X170453006Y-108902933D02*
X170357768Y-108950552D01*
X170357768Y-108950552D02*
X170214911Y-108950552D01*
X170214911Y-108950552D02*
X170119673Y-108902933D01*
X170548244Y-108569600D02*
X170453006Y-108617219D01*
X170453006Y-108617219D02*
X170262530Y-108617219D01*
X170262530Y-108617219D02*
X170167292Y-108569600D01*
X170167292Y-108569600D02*
X170119673Y-108521980D01*
X170119673Y-108521980D02*
X170072054Y-108426742D01*
X170072054Y-108426742D02*
X170072054Y-108141028D01*
X170072054Y-108141028D02*
X170119673Y-108045790D01*
X170119673Y-108045790D02*
X170167292Y-107998171D01*
X170167292Y-107998171D02*
X170262530Y-107950552D01*
X170262530Y-107950552D02*
X170453006Y-107950552D01*
X170453006Y-107950552D02*
X170548244Y-107998171D01*
X171453006Y-108617219D02*
X171453006Y-108093409D01*
X171453006Y-108093409D02*
X171405387Y-107998171D01*
X171405387Y-107998171D02*
X171310149Y-107950552D01*
X171310149Y-107950552D02*
X171119673Y-107950552D01*
X171119673Y-107950552D02*
X171024435Y-107998171D01*
X171453006Y-108569600D02*
X171357768Y-108617219D01*
X171357768Y-108617219D02*
X171119673Y-108617219D01*
X171119673Y-108617219D02*
X171024435Y-108569600D01*
X171024435Y-108569600D02*
X170976816Y-108474361D01*
X170976816Y-108474361D02*
X170976816Y-108379123D01*
X170976816Y-108379123D02*
X171024435Y-108283885D01*
X171024435Y-108283885D02*
X171119673Y-108236266D01*
X171119673Y-108236266D02*
X171357768Y-108236266D01*
X171357768Y-108236266D02*
X171453006Y-108188647D01*
X171929197Y-107950552D02*
X171929197Y-108617219D01*
X171929197Y-108045790D02*
X171976816Y-107998171D01*
X171976816Y-107998171D02*
X172072054Y-107950552D01*
X172072054Y-107950552D02*
X172214911Y-107950552D01*
X172214911Y-107950552D02*
X172310149Y-107998171D01*
X172310149Y-107998171D02*
X172357768Y-108093409D01*
X172357768Y-108093409D02*
X172357768Y-108617219D01*
X173262530Y-107950552D02*
X173262530Y-108760076D01*
X173262530Y-108760076D02*
X173214911Y-108855314D01*
X173214911Y-108855314D02*
X173167292Y-108902933D01*
X173167292Y-108902933D02*
X173072054Y-108950552D01*
X173072054Y-108950552D02*
X172929197Y-108950552D01*
X172929197Y-108950552D02*
X172833959Y-108902933D01*
X173262530Y-108569600D02*
X173167292Y-108617219D01*
X173167292Y-108617219D02*
X172976816Y-108617219D01*
X172976816Y-108617219D02*
X172881578Y-108569600D01*
X172881578Y-108569600D02*
X172833959Y-108521980D01*
X172833959Y-108521980D02*
X172786340Y-108426742D01*
X172786340Y-108426742D02*
X172786340Y-108141028D01*
X172786340Y-108141028D02*
X172833959Y-108045790D01*
X172833959Y-108045790D02*
X172881578Y-107998171D01*
X172881578Y-107998171D02*
X172976816Y-107950552D01*
X172976816Y-107950552D02*
X173167292Y-107950552D01*
X173167292Y-107950552D02*
X173262530Y-107998171D01*
X174405387Y-108712457D02*
X174310149Y-108664838D01*
X174310149Y-108664838D02*
X174214911Y-108569600D01*
X174214911Y-108569600D02*
X174072054Y-108426742D01*
X174072054Y-108426742D02*
X173976816Y-108379123D01*
X173976816Y-108379123D02*
X173881578Y-108379123D01*
X173929197Y-108617219D02*
X173833959Y-108569600D01*
X173833959Y-108569600D02*
X173738721Y-108474361D01*
X173738721Y-108474361D02*
X173691102Y-108283885D01*
X173691102Y-108283885D02*
X173691102Y-107950552D01*
X173691102Y-107950552D02*
X173738721Y-107760076D01*
X173738721Y-107760076D02*
X173833959Y-107664838D01*
X173833959Y-107664838D02*
X173929197Y-107617219D01*
X173929197Y-107617219D02*
X174119673Y-107617219D01*
X174119673Y-107617219D02*
X174214911Y-107664838D01*
X174214911Y-107664838D02*
X174310149Y-107760076D01*
X174310149Y-107760076D02*
X174357768Y-107950552D01*
X174357768Y-107950552D02*
X174357768Y-108283885D01*
X174357768Y-108283885D02*
X174310149Y-108474361D01*
X174310149Y-108474361D02*
X174214911Y-108569600D01*
X174214911Y-108569600D02*
X174119673Y-108617219D01*
X174119673Y-108617219D02*
X173929197Y-108617219D01*
X174786340Y-108617219D02*
X174786340Y-107950552D01*
X174786340Y-107617219D02*
X174738721Y-107664838D01*
X174738721Y-107664838D02*
X174786340Y-107712457D01*
X174786340Y-107712457D02*
X174833959Y-107664838D01*
X174833959Y-107664838D02*
X174786340Y-107617219D01*
X174786340Y-107617219D02*
X174786340Y-107712457D01*
X175262530Y-107950552D02*
X175262530Y-108617219D01*
X175262530Y-108045790D02*
X175310149Y-107998171D01*
X175310149Y-107998171D02*
X175405387Y-107950552D01*
X175405387Y-107950552D02*
X175548244Y-107950552D01*
X175548244Y-107950552D02*
X175643482Y-107998171D01*
X175643482Y-107998171D02*
X175691101Y-108093409D01*
X175691101Y-108093409D02*
X175691101Y-108617219D01*
X176929197Y-107950552D02*
X176929197Y-108950552D01*
X176929197Y-107998171D02*
X177024435Y-107950552D01*
X177024435Y-107950552D02*
X177214911Y-107950552D01*
X177214911Y-107950552D02*
X177310149Y-107998171D01*
X177310149Y-107998171D02*
X177357768Y-108045790D01*
X177357768Y-108045790D02*
X177405387Y-108141028D01*
X177405387Y-108141028D02*
X177405387Y-108426742D01*
X177405387Y-108426742D02*
X177357768Y-108521980D01*
X177357768Y-108521980D02*
X177310149Y-108569600D01*
X177310149Y-108569600D02*
X177214911Y-108617219D01*
X177214911Y-108617219D02*
X177024435Y-108617219D01*
X177024435Y-108617219D02*
X176929197Y-108569600D01*
X177976816Y-108617219D02*
X177881578Y-108569600D01*
X177881578Y-108569600D02*
X177833959Y-108474361D01*
X177833959Y-108474361D02*
X177833959Y-107617219D01*
X178786340Y-108617219D02*
X178786340Y-108093409D01*
X178786340Y-108093409D02*
X178738721Y-107998171D01*
X178738721Y-107998171D02*
X178643483Y-107950552D01*
X178643483Y-107950552D02*
X178453007Y-107950552D01*
X178453007Y-107950552D02*
X178357769Y-107998171D01*
X178786340Y-108569600D02*
X178691102Y-108617219D01*
X178691102Y-108617219D02*
X178453007Y-108617219D01*
X178453007Y-108617219D02*
X178357769Y-108569600D01*
X178357769Y-108569600D02*
X178310150Y-108474361D01*
X178310150Y-108474361D02*
X178310150Y-108379123D01*
X178310150Y-108379123D02*
X178357769Y-108283885D01*
X178357769Y-108283885D02*
X178453007Y-108236266D01*
X178453007Y-108236266D02*
X178691102Y-108236266D01*
X178691102Y-108236266D02*
X178786340Y-108188647D01*
X179167293Y-107950552D02*
X179405388Y-108617219D01*
X179643483Y-107950552D02*
X179405388Y-108617219D01*
X179405388Y-108617219D02*
X179310150Y-108855314D01*
X179310150Y-108855314D02*
X179262531Y-108902933D01*
X179262531Y-108902933D02*
X179167293Y-108950552D01*
X180500626Y-108617219D02*
X180024436Y-108617219D01*
X180024436Y-108617219D02*
X180024436Y-107617219D01*
X180833960Y-108617219D02*
X180833960Y-107950552D01*
X180833960Y-107617219D02*
X180786341Y-107664838D01*
X180786341Y-107664838D02*
X180833960Y-107712457D01*
X180833960Y-107712457D02*
X180881579Y-107664838D01*
X180881579Y-107664838D02*
X180833960Y-107617219D01*
X180833960Y-107617219D02*
X180833960Y-107712457D01*
X181738721Y-107950552D02*
X181738721Y-108760076D01*
X181738721Y-108760076D02*
X181691102Y-108855314D01*
X181691102Y-108855314D02*
X181643483Y-108902933D01*
X181643483Y-108902933D02*
X181548245Y-108950552D01*
X181548245Y-108950552D02*
X181405388Y-108950552D01*
X181405388Y-108950552D02*
X181310150Y-108902933D01*
X181738721Y-108569600D02*
X181643483Y-108617219D01*
X181643483Y-108617219D02*
X181453007Y-108617219D01*
X181453007Y-108617219D02*
X181357769Y-108569600D01*
X181357769Y-108569600D02*
X181310150Y-108521980D01*
X181310150Y-108521980D02*
X181262531Y-108426742D01*
X181262531Y-108426742D02*
X181262531Y-108141028D01*
X181262531Y-108141028D02*
X181310150Y-108045790D01*
X181310150Y-108045790D02*
X181357769Y-107998171D01*
X181357769Y-107998171D02*
X181453007Y-107950552D01*
X181453007Y-107950552D02*
X181643483Y-107950552D01*
X181643483Y-107950552D02*
X181738721Y-107998171D01*
X182214912Y-108617219D02*
X182214912Y-107617219D01*
X182643483Y-108617219D02*
X182643483Y-108093409D01*
X182643483Y-108093409D02*
X182595864Y-107998171D01*
X182595864Y-107998171D02*
X182500626Y-107950552D01*
X182500626Y-107950552D02*
X182357769Y-107950552D01*
X182357769Y-107950552D02*
X182262531Y-107998171D01*
X182262531Y-107998171D02*
X182214912Y-108045790D01*
X182976817Y-107950552D02*
X183357769Y-107950552D01*
X183119674Y-107617219D02*
X183119674Y-108474361D01*
X183119674Y-108474361D02*
X183167293Y-108569600D01*
X183167293Y-108569600D02*
X183262531Y-108617219D01*
X183262531Y-108617219D02*
X183357769Y-108617219D01*
D10*
X207522712Y-113573500D02*
X207665569Y-113621119D01*
X207665569Y-113621119D02*
X207903664Y-113621119D01*
X207903664Y-113621119D02*
X207998902Y-113573500D01*
X207998902Y-113573500D02*
X208046521Y-113525880D01*
X208046521Y-113525880D02*
X208094140Y-113430642D01*
X208094140Y-113430642D02*
X208094140Y-113335404D01*
X208094140Y-113335404D02*
X208046521Y-113240166D01*
X208046521Y-113240166D02*
X207998902Y-113192547D01*
X207998902Y-113192547D02*
X207903664Y-113144928D01*
X207903664Y-113144928D02*
X207713188Y-113097309D01*
X207713188Y-113097309D02*
X207617950Y-113049690D01*
X207617950Y-113049690D02*
X207570331Y-113002071D01*
X207570331Y-113002071D02*
X207522712Y-112906833D01*
X207522712Y-112906833D02*
X207522712Y-112811595D01*
X207522712Y-112811595D02*
X207570331Y-112716357D01*
X207570331Y-112716357D02*
X207617950Y-112668738D01*
X207617950Y-112668738D02*
X207713188Y-112621119D01*
X207713188Y-112621119D02*
X207951283Y-112621119D01*
X207951283Y-112621119D02*
X208094140Y-112668738D01*
X208522712Y-113621119D02*
X208522712Y-112621119D01*
X208522712Y-112621119D02*
X208760807Y-112621119D01*
X208760807Y-112621119D02*
X208903664Y-112668738D01*
X208903664Y-112668738D02*
X208998902Y-112763976D01*
X208998902Y-112763976D02*
X209046521Y-112859214D01*
X209046521Y-112859214D02*
X209094140Y-113049690D01*
X209094140Y-113049690D02*
X209094140Y-113192547D01*
X209094140Y-113192547D02*
X209046521Y-113383023D01*
X209046521Y-113383023D02*
X208998902Y-113478261D01*
X208998902Y-113478261D02*
X208903664Y-113573500D01*
X208903664Y-113573500D02*
X208760807Y-113621119D01*
X208760807Y-113621119D02*
X208522712Y-113621119D01*
X209475093Y-113335404D02*
X209951283Y-113335404D01*
X209379855Y-113621119D02*
X209713188Y-112621119D01*
X209713188Y-112621119D02*
X210046521Y-113621119D01*
X54070331Y-102990166D02*
X54832236Y-102990166D01*
X54451283Y-103371119D02*
X54451283Y-102609214D01*
X55784616Y-102371119D02*
X55308426Y-102371119D01*
X55308426Y-102371119D02*
X55260807Y-102847309D01*
X55260807Y-102847309D02*
X55308426Y-102799690D01*
X55308426Y-102799690D02*
X55403664Y-102752071D01*
X55403664Y-102752071D02*
X55641759Y-102752071D01*
X55641759Y-102752071D02*
X55736997Y-102799690D01*
X55736997Y-102799690D02*
X55784616Y-102847309D01*
X55784616Y-102847309D02*
X55832235Y-102942547D01*
X55832235Y-102942547D02*
X55832235Y-103180642D01*
X55832235Y-103180642D02*
X55784616Y-103275880D01*
X55784616Y-103275880D02*
X55736997Y-103323500D01*
X55736997Y-103323500D02*
X55641759Y-103371119D01*
X55641759Y-103371119D02*
X55403664Y-103371119D01*
X55403664Y-103371119D02*
X55308426Y-103323500D01*
X55308426Y-103323500D02*
X55260807Y-103275880D01*
X56117950Y-102371119D02*
X56451283Y-103371119D01*
X56451283Y-103371119D02*
X56784616Y-102371119D01*
X58356045Y-103371119D02*
X57879855Y-103371119D01*
X57879855Y-103371119D02*
X57879855Y-102371119D01*
X58689379Y-102847309D02*
X59022712Y-102847309D01*
X59165569Y-103371119D02*
X58689379Y-103371119D01*
X58689379Y-103371119D02*
X58689379Y-102371119D01*
X58689379Y-102371119D02*
X59165569Y-102371119D01*
X59594141Y-103371119D02*
X59594141Y-102371119D01*
X59594141Y-102371119D02*
X59832236Y-102371119D01*
X59832236Y-102371119D02*
X59975093Y-102418738D01*
X59975093Y-102418738D02*
X60070331Y-102513976D01*
X60070331Y-102513976D02*
X60117950Y-102609214D01*
X60117950Y-102609214D02*
X60165569Y-102799690D01*
X60165569Y-102799690D02*
X60165569Y-102942547D01*
X60165569Y-102942547D02*
X60117950Y-103133023D01*
X60117950Y-103133023D02*
X60070331Y-103228261D01*
X60070331Y-103228261D02*
X59975093Y-103323500D01*
X59975093Y-103323500D02*
X59832236Y-103371119D01*
X59832236Y-103371119D02*
X59594141Y-103371119D01*
X54070331Y-105490166D02*
X54832236Y-105490166D01*
X54451283Y-105871119D02*
X54451283Y-105109214D01*
X55213188Y-104871119D02*
X55832235Y-104871119D01*
X55832235Y-104871119D02*
X55498902Y-105252071D01*
X55498902Y-105252071D02*
X55641759Y-105252071D01*
X55641759Y-105252071D02*
X55736997Y-105299690D01*
X55736997Y-105299690D02*
X55784616Y-105347309D01*
X55784616Y-105347309D02*
X55832235Y-105442547D01*
X55832235Y-105442547D02*
X55832235Y-105680642D01*
X55832235Y-105680642D02*
X55784616Y-105775880D01*
X55784616Y-105775880D02*
X55736997Y-105823500D01*
X55736997Y-105823500D02*
X55641759Y-105871119D01*
X55641759Y-105871119D02*
X55356045Y-105871119D01*
X55356045Y-105871119D02*
X55260807Y-105823500D01*
X55260807Y-105823500D02*
X55213188Y-105775880D01*
X56117950Y-104871119D02*
X56451283Y-105871119D01*
X56451283Y-105871119D02*
X56784616Y-104871119D01*
X57022712Y-104871119D02*
X57641759Y-104871119D01*
X57641759Y-104871119D02*
X57308426Y-105252071D01*
X57308426Y-105252071D02*
X57451283Y-105252071D01*
X57451283Y-105252071D02*
X57546521Y-105299690D01*
X57546521Y-105299690D02*
X57594140Y-105347309D01*
X57594140Y-105347309D02*
X57641759Y-105442547D01*
X57641759Y-105442547D02*
X57641759Y-105680642D01*
X57641759Y-105680642D02*
X57594140Y-105775880D01*
X57594140Y-105775880D02*
X57546521Y-105823500D01*
X57546521Y-105823500D02*
X57451283Y-105871119D01*
X57451283Y-105871119D02*
X57165569Y-105871119D01*
X57165569Y-105871119D02*
X57070331Y-105823500D01*
X57070331Y-105823500D02*
X57022712Y-105775880D01*
X206320331Y-105490166D02*
X207082236Y-105490166D01*
X206701283Y-105871119D02*
X206701283Y-105109214D01*
X207463188Y-104871119D02*
X208082235Y-104871119D01*
X208082235Y-104871119D02*
X207748902Y-105252071D01*
X207748902Y-105252071D02*
X207891759Y-105252071D01*
X207891759Y-105252071D02*
X207986997Y-105299690D01*
X207986997Y-105299690D02*
X208034616Y-105347309D01*
X208034616Y-105347309D02*
X208082235Y-105442547D01*
X208082235Y-105442547D02*
X208082235Y-105680642D01*
X208082235Y-105680642D02*
X208034616Y-105775880D01*
X208034616Y-105775880D02*
X207986997Y-105823500D01*
X207986997Y-105823500D02*
X207891759Y-105871119D01*
X207891759Y-105871119D02*
X207606045Y-105871119D01*
X207606045Y-105871119D02*
X207510807Y-105823500D01*
X207510807Y-105823500D02*
X207463188Y-105775880D01*
X208367950Y-104871119D02*
X208701283Y-105871119D01*
X208701283Y-105871119D02*
X209034616Y-104871119D01*
X209272712Y-104871119D02*
X209891759Y-104871119D01*
X209891759Y-104871119D02*
X209558426Y-105252071D01*
X209558426Y-105252071D02*
X209701283Y-105252071D01*
X209701283Y-105252071D02*
X209796521Y-105299690D01*
X209796521Y-105299690D02*
X209844140Y-105347309D01*
X209844140Y-105347309D02*
X209891759Y-105442547D01*
X209891759Y-105442547D02*
X209891759Y-105680642D01*
X209891759Y-105680642D02*
X209844140Y-105775880D01*
X209844140Y-105775880D02*
X209796521Y-105823500D01*
X209796521Y-105823500D02*
X209701283Y-105871119D01*
X209701283Y-105871119D02*
X209415569Y-105871119D01*
X209415569Y-105871119D02*
X209320331Y-105823500D01*
X209320331Y-105823500D02*
X209272712Y-105775880D01*
D12*
X97761905Y-109954819D02*
X97761905Y-108954819D01*
X97761905Y-108954819D02*
X98000000Y-108954819D01*
X98000000Y-108954819D02*
X98142857Y-109002438D01*
X98142857Y-109002438D02*
X98238095Y-109097676D01*
X98238095Y-109097676D02*
X98285714Y-109192914D01*
X98285714Y-109192914D02*
X98333333Y-109383390D01*
X98333333Y-109383390D02*
X98333333Y-109526247D01*
X98333333Y-109526247D02*
X98285714Y-109716723D01*
X98285714Y-109716723D02*
X98238095Y-109811961D01*
X98238095Y-109811961D02*
X98142857Y-109907200D01*
X98142857Y-109907200D02*
X98000000Y-109954819D01*
X98000000Y-109954819D02*
X97761905Y-109954819D01*
X99190476Y-109288152D02*
X99190476Y-109954819D01*
X98952381Y-108907200D02*
X98714286Y-109621485D01*
X98714286Y-109621485D02*
X99333333Y-109621485D01*
X111761905Y-114954819D02*
X111761905Y-113954819D01*
X111761905Y-113954819D02*
X112000000Y-113954819D01*
X112000000Y-113954819D02*
X112142857Y-114002438D01*
X112142857Y-114002438D02*
X112238095Y-114097676D01*
X112238095Y-114097676D02*
X112285714Y-114192914D01*
X112285714Y-114192914D02*
X112333333Y-114383390D01*
X112333333Y-114383390D02*
X112333333Y-114526247D01*
X112333333Y-114526247D02*
X112285714Y-114716723D01*
X112285714Y-114716723D02*
X112238095Y-114811961D01*
X112238095Y-114811961D02*
X112142857Y-114907200D01*
X112142857Y-114907200D02*
X112000000Y-114954819D01*
X112000000Y-114954819D02*
X111761905Y-114954819D01*
X113238095Y-113954819D02*
X112761905Y-113954819D01*
X112761905Y-113954819D02*
X112714286Y-114431009D01*
X112714286Y-114431009D02*
X112761905Y-114383390D01*
X112761905Y-114383390D02*
X112857143Y-114335771D01*
X112857143Y-114335771D02*
X113095238Y-114335771D01*
X113095238Y-114335771D02*
X113190476Y-114383390D01*
X113190476Y-114383390D02*
X113238095Y-114431009D01*
X113238095Y-114431009D02*
X113285714Y-114526247D01*
X113285714Y-114526247D02*
X113285714Y-114764342D01*
X113285714Y-114764342D02*
X113238095Y-114859580D01*
X113238095Y-114859580D02*
X113190476Y-114907200D01*
X113190476Y-114907200D02*
X113095238Y-114954819D01*
X113095238Y-114954819D02*
X112857143Y-114954819D01*
X112857143Y-114954819D02*
X112761905Y-114907200D01*
X112761905Y-114907200D02*
X112714286Y-114859580D01*
X126833333Y-104359580D02*
X126785714Y-104407200D01*
X126785714Y-104407200D02*
X126642857Y-104454819D01*
X126642857Y-104454819D02*
X126547619Y-104454819D01*
X126547619Y-104454819D02*
X126404762Y-104407200D01*
X126404762Y-104407200D02*
X126309524Y-104311961D01*
X126309524Y-104311961D02*
X126261905Y-104216723D01*
X126261905Y-104216723D02*
X126214286Y-104026247D01*
X126214286Y-104026247D02*
X126214286Y-103883390D01*
X126214286Y-103883390D02*
X126261905Y-103692914D01*
X126261905Y-103692914D02*
X126309524Y-103597676D01*
X126309524Y-103597676D02*
X126404762Y-103502438D01*
X126404762Y-103502438D02*
X126547619Y-103454819D01*
X126547619Y-103454819D02*
X126642857Y-103454819D01*
X126642857Y-103454819D02*
X126785714Y-103502438D01*
X126785714Y-103502438D02*
X126833333Y-103550057D01*
X127214286Y-103550057D02*
X127261905Y-103502438D01*
X127261905Y-103502438D02*
X127357143Y-103454819D01*
X127357143Y-103454819D02*
X127595238Y-103454819D01*
X127595238Y-103454819D02*
X127690476Y-103502438D01*
X127690476Y-103502438D02*
X127738095Y-103550057D01*
X127738095Y-103550057D02*
X127785714Y-103645295D01*
X127785714Y-103645295D02*
X127785714Y-103740533D01*
X127785714Y-103740533D02*
X127738095Y-103883390D01*
X127738095Y-103883390D02*
X127166667Y-104454819D01*
X127166667Y-104454819D02*
X127785714Y-104454819D01*
X193285714Y-109954819D02*
X193285714Y-108954819D01*
X193285714Y-108954819D02*
X193523809Y-108954819D01*
X193523809Y-108954819D02*
X193666666Y-109002438D01*
X193666666Y-109002438D02*
X193761904Y-109097676D01*
X193761904Y-109097676D02*
X193809523Y-109192914D01*
X193809523Y-109192914D02*
X193857142Y-109383390D01*
X193857142Y-109383390D02*
X193857142Y-109526247D01*
X193857142Y-109526247D02*
X193809523Y-109716723D01*
X193809523Y-109716723D02*
X193761904Y-109811961D01*
X193761904Y-109811961D02*
X193666666Y-109907200D01*
X193666666Y-109907200D02*
X193523809Y-109954819D01*
X193523809Y-109954819D02*
X193285714Y-109954819D01*
X194809523Y-109954819D02*
X194238095Y-109954819D01*
X194523809Y-109954819D02*
X194523809Y-108954819D01*
X194523809Y-108954819D02*
X194428571Y-109097676D01*
X194428571Y-109097676D02*
X194333333Y-109192914D01*
X194333333Y-109192914D02*
X194238095Y-109240533D01*
X195761904Y-109954819D02*
X195190476Y-109954819D01*
X195476190Y-109954819D02*
X195476190Y-108954819D01*
X195476190Y-108954819D02*
X195380952Y-109097676D01*
X195380952Y-109097676D02*
X195285714Y-109192914D01*
X195285714Y-109192914D02*
X195190476Y-109240533D01*
X62583333Y-110204819D02*
X62250000Y-109728628D01*
X62011905Y-110204819D02*
X62011905Y-109204819D01*
X62011905Y-109204819D02*
X62392857Y-109204819D01*
X62392857Y-109204819D02*
X62488095Y-109252438D01*
X62488095Y-109252438D02*
X62535714Y-109300057D01*
X62535714Y-109300057D02*
X62583333Y-109395295D01*
X62583333Y-109395295D02*
X62583333Y-109538152D01*
X62583333Y-109538152D02*
X62535714Y-109633390D01*
X62535714Y-109633390D02*
X62488095Y-109681009D01*
X62488095Y-109681009D02*
X62392857Y-109728628D01*
X62392857Y-109728628D02*
X62011905Y-109728628D01*
X63535714Y-110204819D02*
X62964286Y-110204819D01*
X63250000Y-110204819D02*
X63250000Y-109204819D01*
X63250000Y-109204819D02*
X63154762Y-109347676D01*
X63154762Y-109347676D02*
X63059524Y-109442914D01*
X63059524Y-109442914D02*
X62964286Y-109490533D01*
X153261905Y-114954819D02*
X153261905Y-113954819D01*
X153261905Y-113954819D02*
X153500000Y-113954819D01*
X153500000Y-113954819D02*
X153642857Y-114002438D01*
X153642857Y-114002438D02*
X153738095Y-114097676D01*
X153738095Y-114097676D02*
X153785714Y-114192914D01*
X153785714Y-114192914D02*
X153833333Y-114383390D01*
X153833333Y-114383390D02*
X153833333Y-114526247D01*
X153833333Y-114526247D02*
X153785714Y-114716723D01*
X153785714Y-114716723D02*
X153738095Y-114811961D01*
X153738095Y-114811961D02*
X153642857Y-114907200D01*
X153642857Y-114907200D02*
X153500000Y-114954819D01*
X153500000Y-114954819D02*
X153261905Y-114954819D01*
X154404762Y-114383390D02*
X154309524Y-114335771D01*
X154309524Y-114335771D02*
X154261905Y-114288152D01*
X154261905Y-114288152D02*
X154214286Y-114192914D01*
X154214286Y-114192914D02*
X154214286Y-114145295D01*
X154214286Y-114145295D02*
X154261905Y-114050057D01*
X154261905Y-114050057D02*
X154309524Y-114002438D01*
X154309524Y-114002438D02*
X154404762Y-113954819D01*
X154404762Y-113954819D02*
X154595238Y-113954819D01*
X154595238Y-113954819D02*
X154690476Y-114002438D01*
X154690476Y-114002438D02*
X154738095Y-114050057D01*
X154738095Y-114050057D02*
X154785714Y-114145295D01*
X154785714Y-114145295D02*
X154785714Y-114192914D01*
X154785714Y-114192914D02*
X154738095Y-114288152D01*
X154738095Y-114288152D02*
X154690476Y-114335771D01*
X154690476Y-114335771D02*
X154595238Y-114383390D01*
X154595238Y-114383390D02*
X154404762Y-114383390D01*
X154404762Y-114383390D02*
X154309524Y-114431009D01*
X154309524Y-114431009D02*
X154261905Y-114478628D01*
X154261905Y-114478628D02*
X154214286Y-114573866D01*
X154214286Y-114573866D02*
X154214286Y-114764342D01*
X154214286Y-114764342D02*
X154261905Y-114859580D01*
X154261905Y-114859580D02*
X154309524Y-114907200D01*
X154309524Y-114907200D02*
X154404762Y-114954819D01*
X154404762Y-114954819D02*
X154595238Y-114954819D01*
X154595238Y-114954819D02*
X154690476Y-114907200D01*
X154690476Y-114907200D02*
X154738095Y-114859580D01*
X154738095Y-114859580D02*
X154785714Y-114764342D01*
X154785714Y-114764342D02*
X154785714Y-114573866D01*
X154785714Y-114573866D02*
X154738095Y-114478628D01*
X154738095Y-114478628D02*
X154690476Y-114431009D01*
X154690476Y-114431009D02*
X154595238Y-114383390D01*
X139761905Y-109954819D02*
X139761905Y-108954819D01*
X139761905Y-108954819D02*
X140000000Y-108954819D01*
X140000000Y-108954819D02*
X140142857Y-109002438D01*
X140142857Y-109002438D02*
X140238095Y-109097676D01*
X140238095Y-109097676D02*
X140285714Y-109192914D01*
X140285714Y-109192914D02*
X140333333Y-109383390D01*
X140333333Y-109383390D02*
X140333333Y-109526247D01*
X140333333Y-109526247D02*
X140285714Y-109716723D01*
X140285714Y-109716723D02*
X140238095Y-109811961D01*
X140238095Y-109811961D02*
X140142857Y-109907200D01*
X140142857Y-109907200D02*
X140000000Y-109954819D01*
X140000000Y-109954819D02*
X139761905Y-109954819D01*
X140666667Y-108954819D02*
X141333333Y-108954819D01*
X141333333Y-108954819D02*
X140904762Y-109954819D01*
X206285714Y-114954819D02*
X206285714Y-113954819D01*
X206285714Y-113954819D02*
X206523809Y-113954819D01*
X206523809Y-113954819D02*
X206666666Y-114002438D01*
X206666666Y-114002438D02*
X206761904Y-114097676D01*
X206761904Y-114097676D02*
X206809523Y-114192914D01*
X206809523Y-114192914D02*
X206857142Y-114383390D01*
X206857142Y-114383390D02*
X206857142Y-114526247D01*
X206857142Y-114526247D02*
X206809523Y-114716723D01*
X206809523Y-114716723D02*
X206761904Y-114811961D01*
X206761904Y-114811961D02*
X206666666Y-114907200D01*
X206666666Y-114907200D02*
X206523809Y-114954819D01*
X206523809Y-114954819D02*
X206285714Y-114954819D01*
X207809523Y-114954819D02*
X207238095Y-114954819D01*
X207523809Y-114954819D02*
X207523809Y-113954819D01*
X207523809Y-113954819D02*
X207428571Y-114097676D01*
X207428571Y-114097676D02*
X207333333Y-114192914D01*
X207333333Y-114192914D02*
X207238095Y-114240533D01*
X208190476Y-114050057D02*
X208238095Y-114002438D01*
X208238095Y-114002438D02*
X208333333Y-113954819D01*
X208333333Y-113954819D02*
X208571428Y-113954819D01*
X208571428Y-113954819D02*
X208666666Y-114002438D01*
X208666666Y-114002438D02*
X208714285Y-114050057D01*
X208714285Y-114050057D02*
X208761904Y-114145295D01*
X208761904Y-114145295D02*
X208761904Y-114240533D01*
X208761904Y-114240533D02*
X208714285Y-114383390D01*
X208714285Y-114383390D02*
X208142857Y-114954819D01*
X208142857Y-114954819D02*
X208761904Y-114954819D01*
X104833333Y-105954819D02*
X104500000Y-105478628D01*
X104261905Y-105954819D02*
X104261905Y-104954819D01*
X104261905Y-104954819D02*
X104642857Y-104954819D01*
X104642857Y-104954819D02*
X104738095Y-105002438D01*
X104738095Y-105002438D02*
X104785714Y-105050057D01*
X104785714Y-105050057D02*
X104833333Y-105145295D01*
X104833333Y-105145295D02*
X104833333Y-105288152D01*
X104833333Y-105288152D02*
X104785714Y-105383390D01*
X104785714Y-105383390D02*
X104738095Y-105431009D01*
X104738095Y-105431009D02*
X104642857Y-105478628D01*
X104642857Y-105478628D02*
X104261905Y-105478628D01*
X105166667Y-104954819D02*
X105785714Y-104954819D01*
X105785714Y-104954819D02*
X105452381Y-105335771D01*
X105452381Y-105335771D02*
X105595238Y-105335771D01*
X105595238Y-105335771D02*
X105690476Y-105383390D01*
X105690476Y-105383390D02*
X105738095Y-105431009D01*
X105738095Y-105431009D02*
X105785714Y-105526247D01*
X105785714Y-105526247D02*
X105785714Y-105764342D01*
X105785714Y-105764342D02*
X105738095Y-105859580D01*
X105738095Y-105859580D02*
X105690476Y-105907200D01*
X105690476Y-105907200D02*
X105595238Y-105954819D01*
X105595238Y-105954819D02*
X105309524Y-105954819D01*
X105309524Y-105954819D02*
X105214286Y-105907200D01*
X105214286Y-105907200D02*
X105166667Y-105859580D01*
X56761905Y-114954819D02*
X56761905Y-113954819D01*
X56761905Y-113954819D02*
X57000000Y-113954819D01*
X57000000Y-113954819D02*
X57142857Y-114002438D01*
X57142857Y-114002438D02*
X57238095Y-114097676D01*
X57238095Y-114097676D02*
X57285714Y-114192914D01*
X57285714Y-114192914D02*
X57333333Y-114383390D01*
X57333333Y-114383390D02*
X57333333Y-114526247D01*
X57333333Y-114526247D02*
X57285714Y-114716723D01*
X57285714Y-114716723D02*
X57238095Y-114811961D01*
X57238095Y-114811961D02*
X57142857Y-114907200D01*
X57142857Y-114907200D02*
X57000000Y-114954819D01*
X57000000Y-114954819D02*
X56761905Y-114954819D01*
X58285714Y-114954819D02*
X57714286Y-114954819D01*
X58000000Y-114954819D02*
X58000000Y-113954819D01*
X58000000Y-113954819D02*
X57904762Y-114097676D01*
X57904762Y-114097676D02*
X57809524Y-114192914D01*
X57809524Y-114192914D02*
X57714286Y-114240533D01*
X111083333Y-105859580D02*
X111035714Y-105907200D01*
X111035714Y-105907200D02*
X110892857Y-105954819D01*
X110892857Y-105954819D02*
X110797619Y-105954819D01*
X110797619Y-105954819D02*
X110654762Y-105907200D01*
X110654762Y-105907200D02*
X110559524Y-105811961D01*
X110559524Y-105811961D02*
X110511905Y-105716723D01*
X110511905Y-105716723D02*
X110464286Y-105526247D01*
X110464286Y-105526247D02*
X110464286Y-105383390D01*
X110464286Y-105383390D02*
X110511905Y-105192914D01*
X110511905Y-105192914D02*
X110559524Y-105097676D01*
X110559524Y-105097676D02*
X110654762Y-105002438D01*
X110654762Y-105002438D02*
X110797619Y-104954819D01*
X110797619Y-104954819D02*
X110892857Y-104954819D01*
X110892857Y-104954819D02*
X111035714Y-105002438D01*
X111035714Y-105002438D02*
X111083333Y-105050057D01*
X112035714Y-105954819D02*
X111464286Y-105954819D01*
X111750000Y-105954819D02*
X111750000Y-104954819D01*
X111750000Y-104954819D02*
X111654762Y-105097676D01*
X111654762Y-105097676D02*
X111559524Y-105192914D01*
X111559524Y-105192914D02*
X111464286Y-105240533D01*
X119138095Y-104587319D02*
X119138095Y-105396842D01*
X119138095Y-105396842D02*
X119185714Y-105492080D01*
X119185714Y-105492080D02*
X119233333Y-105539700D01*
X119233333Y-105539700D02*
X119328571Y-105587319D01*
X119328571Y-105587319D02*
X119519047Y-105587319D01*
X119519047Y-105587319D02*
X119614285Y-105539700D01*
X119614285Y-105539700D02*
X119661904Y-105492080D01*
X119661904Y-105492080D02*
X119709523Y-105396842D01*
X119709523Y-105396842D02*
X119709523Y-104587319D01*
X120709523Y-105587319D02*
X120138095Y-105587319D01*
X120423809Y-105587319D02*
X120423809Y-104587319D01*
X120423809Y-104587319D02*
X120328571Y-104730176D01*
X120328571Y-104730176D02*
X120233333Y-104825414D01*
X120233333Y-104825414D02*
X120138095Y-104873033D01*
X69761905Y-109954819D02*
X69761905Y-108954819D01*
X69761905Y-108954819D02*
X70000000Y-108954819D01*
X70000000Y-108954819D02*
X70142857Y-109002438D01*
X70142857Y-109002438D02*
X70238095Y-109097676D01*
X70238095Y-109097676D02*
X70285714Y-109192914D01*
X70285714Y-109192914D02*
X70333333Y-109383390D01*
X70333333Y-109383390D02*
X70333333Y-109526247D01*
X70333333Y-109526247D02*
X70285714Y-109716723D01*
X70285714Y-109716723D02*
X70238095Y-109811961D01*
X70238095Y-109811961D02*
X70142857Y-109907200D01*
X70142857Y-109907200D02*
X70000000Y-109954819D01*
X70000000Y-109954819D02*
X69761905Y-109954819D01*
X70714286Y-109050057D02*
X70761905Y-109002438D01*
X70761905Y-109002438D02*
X70857143Y-108954819D01*
X70857143Y-108954819D02*
X71095238Y-108954819D01*
X71095238Y-108954819D02*
X71190476Y-109002438D01*
X71190476Y-109002438D02*
X71238095Y-109050057D01*
X71238095Y-109050057D02*
X71285714Y-109145295D01*
X71285714Y-109145295D02*
X71285714Y-109240533D01*
X71285714Y-109240533D02*
X71238095Y-109383390D01*
X71238095Y-109383390D02*
X70666667Y-109954819D01*
X70666667Y-109954819D02*
X71285714Y-109954819D01*
X179785714Y-114954819D02*
X179785714Y-113954819D01*
X179785714Y-113954819D02*
X180023809Y-113954819D01*
X180023809Y-113954819D02*
X180166666Y-114002438D01*
X180166666Y-114002438D02*
X180261904Y-114097676D01*
X180261904Y-114097676D02*
X180309523Y-114192914D01*
X180309523Y-114192914D02*
X180357142Y-114383390D01*
X180357142Y-114383390D02*
X180357142Y-114526247D01*
X180357142Y-114526247D02*
X180309523Y-114716723D01*
X180309523Y-114716723D02*
X180261904Y-114811961D01*
X180261904Y-114811961D02*
X180166666Y-114907200D01*
X180166666Y-114907200D02*
X180023809Y-114954819D01*
X180023809Y-114954819D02*
X179785714Y-114954819D01*
X181309523Y-114954819D02*
X180738095Y-114954819D01*
X181023809Y-114954819D02*
X181023809Y-113954819D01*
X181023809Y-113954819D02*
X180928571Y-114097676D01*
X180928571Y-114097676D02*
X180833333Y-114192914D01*
X180833333Y-114192914D02*
X180738095Y-114240533D01*
X181928571Y-113954819D02*
X182023809Y-113954819D01*
X182023809Y-113954819D02*
X182119047Y-114002438D01*
X182119047Y-114002438D02*
X182166666Y-114050057D01*
X182166666Y-114050057D02*
X182214285Y-114145295D01*
X182214285Y-114145295D02*
X182261904Y-114335771D01*
X182261904Y-114335771D02*
X182261904Y-114573866D01*
X182261904Y-114573866D02*
X182214285Y-114764342D01*
X182214285Y-114764342D02*
X182166666Y-114859580D01*
X182166666Y-114859580D02*
X182119047Y-114907200D01*
X182119047Y-114907200D02*
X182023809Y-114954819D01*
X182023809Y-114954819D02*
X181928571Y-114954819D01*
X181928571Y-114954819D02*
X181833333Y-114907200D01*
X181833333Y-114907200D02*
X181785714Y-114859580D01*
X181785714Y-114859580D02*
X181738095Y-114764342D01*
X181738095Y-114764342D02*
X181690476Y-114573866D01*
X181690476Y-114573866D02*
X181690476Y-114335771D01*
X181690476Y-114335771D02*
X181738095Y-114145295D01*
X181738095Y-114145295D02*
X181785714Y-114050057D01*
X181785714Y-114050057D02*
X181833333Y-114002438D01*
X181833333Y-114002438D02*
X181928571Y-113954819D01*
X84261905Y-114954819D02*
X84261905Y-113954819D01*
X84261905Y-113954819D02*
X84500000Y-113954819D01*
X84500000Y-113954819D02*
X84642857Y-114002438D01*
X84642857Y-114002438D02*
X84738095Y-114097676D01*
X84738095Y-114097676D02*
X84785714Y-114192914D01*
X84785714Y-114192914D02*
X84833333Y-114383390D01*
X84833333Y-114383390D02*
X84833333Y-114526247D01*
X84833333Y-114526247D02*
X84785714Y-114716723D01*
X84785714Y-114716723D02*
X84738095Y-114811961D01*
X84738095Y-114811961D02*
X84642857Y-114907200D01*
X84642857Y-114907200D02*
X84500000Y-114954819D01*
X84500000Y-114954819D02*
X84261905Y-114954819D01*
X85166667Y-113954819D02*
X85785714Y-113954819D01*
X85785714Y-113954819D02*
X85452381Y-114335771D01*
X85452381Y-114335771D02*
X85595238Y-114335771D01*
X85595238Y-114335771D02*
X85690476Y-114383390D01*
X85690476Y-114383390D02*
X85738095Y-114431009D01*
X85738095Y-114431009D02*
X85785714Y-114526247D01*
X85785714Y-114526247D02*
X85785714Y-114764342D01*
X85785714Y-114764342D02*
X85738095Y-114859580D01*
X85738095Y-114859580D02*
X85690476Y-114907200D01*
X85690476Y-114907200D02*
X85595238Y-114954819D01*
X85595238Y-114954819D02*
X85309524Y-114954819D01*
X85309524Y-114954819D02*
X85214286Y-114907200D01*
X85214286Y-114907200D02*
X85166667Y-114859580D01*
X127261905Y-114954819D02*
X127261905Y-113954819D01*
X127261905Y-113954819D02*
X127500000Y-113954819D01*
X127500000Y-113954819D02*
X127642857Y-114002438D01*
X127642857Y-114002438D02*
X127738095Y-114097676D01*
X127738095Y-114097676D02*
X127785714Y-114192914D01*
X127785714Y-114192914D02*
X127833333Y-114383390D01*
X127833333Y-114383390D02*
X127833333Y-114526247D01*
X127833333Y-114526247D02*
X127785714Y-114716723D01*
X127785714Y-114716723D02*
X127738095Y-114811961D01*
X127738095Y-114811961D02*
X127642857Y-114907200D01*
X127642857Y-114907200D02*
X127500000Y-114954819D01*
X127500000Y-114954819D02*
X127261905Y-114954819D01*
X128690476Y-113954819D02*
X128500000Y-113954819D01*
X128500000Y-113954819D02*
X128404762Y-114002438D01*
X128404762Y-114002438D02*
X128357143Y-114050057D01*
X128357143Y-114050057D02*
X128261905Y-114192914D01*
X128261905Y-114192914D02*
X128214286Y-114383390D01*
X128214286Y-114383390D02*
X128214286Y-114764342D01*
X128214286Y-114764342D02*
X128261905Y-114859580D01*
X128261905Y-114859580D02*
X128309524Y-114907200D01*
X128309524Y-114907200D02*
X128404762Y-114954819D01*
X128404762Y-114954819D02*
X128595238Y-114954819D01*
X128595238Y-114954819D02*
X128690476Y-114907200D01*
X128690476Y-114907200D02*
X128738095Y-114859580D01*
X128738095Y-114859580D02*
X128785714Y-114764342D01*
X128785714Y-114764342D02*
X128785714Y-114526247D01*
X128785714Y-114526247D02*
X128738095Y-114431009D01*
X128738095Y-114431009D02*
X128690476Y-114383390D01*
X128690476Y-114383390D02*
X128595238Y-114335771D01*
X128595238Y-114335771D02*
X128404762Y-114335771D01*
X128404762Y-114335771D02*
X128309524Y-114383390D01*
X128309524Y-114383390D02*
X128261905Y-114431009D01*
X128261905Y-114431009D02*
X128214286Y-114526247D01*
X59583333Y-110204819D02*
X59250000Y-109728628D01*
X59011905Y-110204819D02*
X59011905Y-109204819D01*
X59011905Y-109204819D02*
X59392857Y-109204819D01*
X59392857Y-109204819D02*
X59488095Y-109252438D01*
X59488095Y-109252438D02*
X59535714Y-109300057D01*
X59535714Y-109300057D02*
X59583333Y-109395295D01*
X59583333Y-109395295D02*
X59583333Y-109538152D01*
X59583333Y-109538152D02*
X59535714Y-109633390D01*
X59535714Y-109633390D02*
X59488095Y-109681009D01*
X59488095Y-109681009D02*
X59392857Y-109728628D01*
X59392857Y-109728628D02*
X59011905Y-109728628D01*
X59964286Y-109300057D02*
X60011905Y-109252438D01*
X60011905Y-109252438D02*
X60107143Y-109204819D01*
X60107143Y-109204819D02*
X60345238Y-109204819D01*
X60345238Y-109204819D02*
X60440476Y-109252438D01*
X60440476Y-109252438D02*
X60488095Y-109300057D01*
X60488095Y-109300057D02*
X60535714Y-109395295D01*
X60535714Y-109395295D02*
X60535714Y-109490533D01*
X60535714Y-109490533D02*
X60488095Y-109633390D01*
X60488095Y-109633390D02*
X59916667Y-110204819D01*
X59916667Y-110204819D02*
X60535714Y-110204819D01*
X166761905Y-109954819D02*
X166761905Y-108954819D01*
X166761905Y-108954819D02*
X167000000Y-108954819D01*
X167000000Y-108954819D02*
X167142857Y-109002438D01*
X167142857Y-109002438D02*
X167238095Y-109097676D01*
X167238095Y-109097676D02*
X167285714Y-109192914D01*
X167285714Y-109192914D02*
X167333333Y-109383390D01*
X167333333Y-109383390D02*
X167333333Y-109526247D01*
X167333333Y-109526247D02*
X167285714Y-109716723D01*
X167285714Y-109716723D02*
X167238095Y-109811961D01*
X167238095Y-109811961D02*
X167142857Y-109907200D01*
X167142857Y-109907200D02*
X167000000Y-109954819D01*
X167000000Y-109954819D02*
X166761905Y-109954819D01*
X167809524Y-109954819D02*
X168000000Y-109954819D01*
X168000000Y-109954819D02*
X168095238Y-109907200D01*
X168095238Y-109907200D02*
X168142857Y-109859580D01*
X168142857Y-109859580D02*
X168238095Y-109716723D01*
X168238095Y-109716723D02*
X168285714Y-109526247D01*
X168285714Y-109526247D02*
X168285714Y-109145295D01*
X168285714Y-109145295D02*
X168238095Y-109050057D01*
X168238095Y-109050057D02*
X168190476Y-109002438D01*
X168190476Y-109002438D02*
X168095238Y-108954819D01*
X168095238Y-108954819D02*
X167904762Y-108954819D01*
X167904762Y-108954819D02*
X167809524Y-109002438D01*
X167809524Y-109002438D02*
X167761905Y-109050057D01*
X167761905Y-109050057D02*
X167714286Y-109145295D01*
X167714286Y-109145295D02*
X167714286Y-109383390D01*
X167714286Y-109383390D02*
X167761905Y-109478628D01*
X167761905Y-109478628D02*
X167809524Y-109526247D01*
X167809524Y-109526247D02*
X167904762Y-109573866D01*
X167904762Y-109573866D02*
X168095238Y-109573866D01*
X168095238Y-109573866D02*
X168190476Y-109526247D01*
X168190476Y-109526247D02*
X168238095Y-109478628D01*
X168238095Y-109478628D02*
X168285714Y-109383390D01*
D13*
%TO.C,D4*%
X95950000Y-110850000D02*
X95950000Y-113500000D01*
X95950000Y-113500000D02*
X101000000Y-113500000D01*
X96300000Y-110500000D02*
X95950000Y-110850000D01*
X96300000Y-110500000D02*
X101000000Y-110500000D01*
X101000000Y-110500000D02*
X101000000Y-113500000D01*
%TO.C,D5*%
X109950000Y-115850000D02*
X109950000Y-118500000D01*
X109950000Y-118500000D02*
X115000000Y-118500000D01*
X110300000Y-115500000D02*
X109950000Y-115850000D01*
X110300000Y-115500000D02*
X115000000Y-115500000D01*
X115000000Y-115500000D02*
X115000000Y-118500000D01*
%TO.C,JP2*%
X81500000Y-109650000D02*
X81500000Y-106850000D01*
X82200000Y-106200000D02*
X82800000Y-106200000D01*
X82800000Y-110300000D02*
X82200000Y-110300000D01*
X83500000Y-106850000D02*
X83500000Y-109650000D01*
X83700000Y-109450000D02*
X84000000Y-109150000D01*
X83700000Y-109450000D02*
X84000000Y-109750000D01*
X84000000Y-109750000D02*
X84000000Y-109150000D01*
X81500000Y-106900000D02*
G75*
G02*
X82200000Y-106200000I700000J0D01*
G01*
X82200000Y-110300000D02*
G75*
G02*
X81500000Y-109600000I-1J699999D01*
G01*
X82800000Y-106200000D02*
G75*
G02*
X83500000Y-106900000I0J-700000D01*
G01*
X83500000Y-109600000D02*
G75*
G02*
X82800000Y-110300000I-699999J-1D01*
G01*
%TO.C,C2*%
X123738748Y-103265000D02*
X124261252Y-103265000D01*
X123738748Y-104735000D02*
X124261252Y-104735000D01*
%TO.C,D11*%
X191950000Y-110850000D02*
X191950000Y-113500000D01*
X191950000Y-113500000D02*
X197000000Y-113500000D01*
X192300000Y-110500000D02*
X191950000Y-110850000D01*
X192300000Y-110500000D02*
X197000000Y-110500000D01*
X197000000Y-110500000D02*
X197000000Y-113500000D01*
%TO.C,R1*%
X62227500Y-107504724D02*
X62227500Y-106995276D01*
X63272500Y-107504724D02*
X63272500Y-106995276D01*
%TO.C,D8*%
X151450000Y-115850000D02*
X151450000Y-118500000D01*
X151450000Y-118500000D02*
X156500000Y-118500000D01*
X151800000Y-115500000D02*
X151450000Y-115850000D01*
X151800000Y-115500000D02*
X156500000Y-115500000D01*
X156500000Y-115500000D02*
X156500000Y-118500000D01*
%TO.C,D7*%
X137950000Y-110850000D02*
X137950000Y-113500000D01*
X137950000Y-113500000D02*
X143000000Y-113500000D01*
X138300000Y-110500000D02*
X137950000Y-110850000D01*
X138300000Y-110500000D02*
X143000000Y-110500000D01*
X143000000Y-110500000D02*
X143000000Y-113500000D01*
%TO.C,D12*%
X204950000Y-115850000D02*
X204950000Y-118500000D01*
X204950000Y-118500000D02*
X210000000Y-118500000D01*
X205300000Y-115500000D02*
X204950000Y-115850000D01*
X205300000Y-115500000D02*
X210000000Y-115500000D01*
X210000000Y-115500000D02*
X210000000Y-118500000D01*
%TO.C,R3*%
X108754724Y-104977500D02*
X108245276Y-104977500D01*
X108754724Y-106022500D02*
X108245276Y-106022500D01*
%TO.C,D1*%
X54950000Y-115850000D02*
X54950000Y-118500000D01*
X54950000Y-118500000D02*
X60000000Y-118500000D01*
X55300000Y-115500000D02*
X54950000Y-115850000D01*
X55300000Y-115500000D02*
X60000000Y-115500000D01*
X60000000Y-115500000D02*
X60000000Y-118500000D01*
%TO.C,C1*%
X114511252Y-104765000D02*
X113988748Y-104765000D01*
X114511252Y-106235000D02*
X113988748Y-106235000D01*
%TO.C,U1*%
X117290000Y-106352500D02*
X117740000Y-106352500D01*
X117290000Y-106702500D02*
X117290000Y-106352500D01*
X117290000Y-112572500D02*
X117290000Y-112222500D01*
X117740000Y-112572500D02*
X117290000Y-112572500D01*
X122060000Y-106352500D02*
X122510000Y-106352500D01*
X122510000Y-106352500D02*
X122510000Y-106702500D01*
X122510000Y-112222500D02*
X122510000Y-112572500D01*
X122510000Y-112572500D02*
X122060000Y-112572500D01*
X116760000Y-107052500D02*
X116430000Y-107292500D01*
X116430000Y-106812500D01*
X116760000Y-107052500D01*
G36*
X116760000Y-107052500D02*
G01*
X116430000Y-107292500D01*
X116430000Y-106812500D01*
X116760000Y-107052500D01*
G37*
%TO.C,D2*%
X67950000Y-110850000D02*
X67950000Y-113500000D01*
X67950000Y-113500000D02*
X73000000Y-113500000D01*
X68300000Y-110500000D02*
X67950000Y-110850000D01*
X68300000Y-110500000D02*
X73000000Y-110500000D01*
X73000000Y-110500000D02*
X73000000Y-113500000D01*
%TO.C,D10*%
X178450000Y-115850000D02*
X178450000Y-118500000D01*
X178450000Y-118500000D02*
X183500000Y-118500000D01*
X178800000Y-115500000D02*
X178450000Y-115850000D01*
X178800000Y-115500000D02*
X183500000Y-115500000D01*
X183500000Y-115500000D02*
X183500000Y-118500000D01*
%TO.C,D3*%
X82450000Y-115850000D02*
X82450000Y-118500000D01*
X82450000Y-118500000D02*
X87500000Y-118500000D01*
X82800000Y-115500000D02*
X82450000Y-115850000D01*
X82800000Y-115500000D02*
X87500000Y-115500000D01*
X87500000Y-115500000D02*
X87500000Y-118500000D01*
%TO.C,D6*%
X125450000Y-115850000D02*
X125450000Y-118500000D01*
X125450000Y-118500000D02*
X130500000Y-118500000D01*
X125800000Y-115500000D02*
X125450000Y-115850000D01*
X125800000Y-115500000D02*
X130500000Y-115500000D01*
X130500000Y-115500000D02*
X130500000Y-118500000D01*
%TO.C,R2*%
X59227500Y-107504724D02*
X59227500Y-106995276D01*
X60272500Y-107504724D02*
X60272500Y-106995276D01*
%TO.C,D9*%
X164950000Y-110850000D02*
X164950000Y-113500000D01*
X164950000Y-113500000D02*
X170000000Y-113500000D01*
X165300000Y-110500000D02*
X164950000Y-110850000D01*
X165300000Y-110500000D02*
X170000000Y-110500000D01*
X170000000Y-110500000D02*
X170000000Y-113500000D01*
%TO.C,JP1*%
X76750000Y-109650000D02*
X76750000Y-106850000D01*
X77450000Y-106200000D02*
X78050000Y-106200000D01*
X78050000Y-110300000D02*
X77450000Y-110300000D01*
X78750000Y-106850000D02*
X78750000Y-109650000D01*
X78950000Y-109450000D02*
X79250000Y-109150000D01*
X78950000Y-109450000D02*
X79250000Y-109750000D01*
X79250000Y-109750000D02*
X79250000Y-109150000D01*
X76750000Y-106900000D02*
G75*
G02*
X77450000Y-106200000I700000J0D01*
G01*
X77450000Y-110300000D02*
G75*
G02*
X76750000Y-109600000I-1J699999D01*
G01*
X78050000Y-106200000D02*
G75*
G02*
X78750000Y-106900000I0J-700000D01*
G01*
X78750000Y-109600000D02*
G75*
G02*
X78050000Y-110300000I-699999J-1D01*
G01*
%TD*%
M02*
