%TF.GenerationSoftware,KiCad,Pcbnew,9.0.7*%
%TF.CreationDate,2026-04-21T22:19:25+02:00*%
%TF.ProjectId,playLight_rev_A,706c6179-4c69-4676-9874-5f7265765f41,rev?*%
%TF.SameCoordinates,Original*%
%TF.FileFunction,Copper,L2,Bot*%
%TF.FilePolarity,Positive*%
%FSLAX46Y46*%
G04 Gerber Fmt 4.6, Leading zero omitted, Abs format (unit mm)*
G04 Created by KiCad (PCBNEW 9.0.7) date 2026-04-21 22:19:25*
%MOMM*%
%LPD*%
G01*
G04 APERTURE LIST*
%TA.AperFunction,ViaPad*%
%ADD10C,0.600000*%
%TD*%
%TA.AperFunction,Conductor*%
%ADD11C,0.200000*%
%TD*%
G04 APERTURE END LIST*
D10*
%TO.N,Net-(D1-AB)*%
X131150000Y-117000000D03*
X88000000Y-117000000D03*
X73750000Y-112000000D03*
X157250000Y-117000000D03*
X174000000Y-114150000D03*
X60750000Y-117000000D03*
X101750000Y-112000000D03*
X57250000Y-104750000D03*
X57250000Y-115000000D03*
X143650000Y-112000000D03*
X115750000Y-117000000D03*
%TO.N,Net-(J4-Pin_1)*%
X98750000Y-104500000D03*
X61250000Y-109500000D03*
X129750000Y-105250000D03*
X119500000Y-104250000D03*
X61250000Y-107250000D03*
%TO.N,Net-(J2-Pin_1)*%
X121750000Y-104000000D03*
X133750000Y-101800000D03*
X206000000Y-105500000D03*
X202750000Y-101800000D03*
%TO.N,GND*%
X137500000Y-119000000D03*
X54500000Y-107000000D03*
X170000000Y-119000000D03*
X56000000Y-107000000D03*
X207500000Y-107500000D03*
X190000000Y-115750000D03*
X56000000Y-109500000D03*
X207500000Y-104500000D03*
X207500000Y-111750000D03*
X92500000Y-116500000D03*
X157500000Y-110000000D03*
X65000000Y-115000000D03*
X56000000Y-108250000D03*
X197500000Y-115750000D03*
X187500000Y-110000000D03*
X197000000Y-107500000D03*
X180000000Y-110000000D03*
X165000000Y-119000000D03*
X145000000Y-119000000D03*
X51000000Y-115000000D03*
X118000000Y-119000000D03*
X134750000Y-119000000D03*
X147500000Y-110000000D03*
X60000000Y-112000000D03*
X92000000Y-110500000D03*
X75000000Y-107500000D03*
X162500000Y-119000000D03*
X109500000Y-112250000D03*
X97500000Y-116500000D03*
X172250000Y-119000000D03*
X194750000Y-115750000D03*
X62500000Y-115000000D03*
X212500000Y-115000000D03*
X155000000Y-110000000D03*
X134000000Y-115250000D03*
X110750000Y-105000000D03*
X195000000Y-107500000D03*
X52500000Y-115000000D03*
X175000000Y-119000000D03*
X65000000Y-112500000D03*
X55500000Y-104500000D03*
X70000000Y-107500000D03*
X70000000Y-116000000D03*
X102500000Y-116500000D03*
X198250000Y-113250000D03*
X150000000Y-119000000D03*
X67500000Y-116000000D03*
X92000000Y-115250000D03*
X140000000Y-119000000D03*
X127500000Y-106250000D03*
X172500000Y-110000000D03*
X202500000Y-107500000D03*
X67500000Y-110000000D03*
X117500000Y-115000000D03*
X116750000Y-106100000D03*
X80000000Y-106750000D03*
X167500000Y-119000000D03*
X52500000Y-119000000D03*
X177500000Y-119000000D03*
X106250000Y-104850000D03*
X192500000Y-107500000D03*
X123250000Y-106250000D03*
X182500000Y-110000000D03*
X131250000Y-106250000D03*
X116000000Y-115000000D03*
X150000000Y-110000000D03*
X62500000Y-112500000D03*
X192500000Y-115750000D03*
X67500000Y-107500000D03*
X160000000Y-110000000D03*
X120750000Y-109000000D03*
X160000000Y-119000000D03*
X127000000Y-103750000D03*
X132500000Y-119000000D03*
X185750000Y-109250000D03*
X105250000Y-116750000D03*
X102750000Y-104750000D03*
X202500000Y-105000000D03*
X211500000Y-115000000D03*
X205000000Y-111750000D03*
X212000000Y-117250000D03*
X147500000Y-119000000D03*
X120750000Y-110750000D03*
X52500000Y-117500000D03*
X208750000Y-104500000D03*
X116750000Y-112750000D03*
X152500000Y-110000000D03*
X77500000Y-115000000D03*
X173500000Y-109250000D03*
X202500000Y-111750000D03*
X119000000Y-109000000D03*
X51000000Y-119000000D03*
X202500000Y-115750000D03*
X105250000Y-114750000D03*
X51000000Y-117500000D03*
X185000000Y-110000000D03*
X95000000Y-116500000D03*
X120500000Y-119000000D03*
X100000000Y-116500000D03*
X165500000Y-108500000D03*
X105250000Y-112000000D03*
X210000000Y-114750000D03*
X65000000Y-110000000D03*
X110750000Y-106250000D03*
X54500000Y-109250000D03*
X117000000Y-104900000D03*
X72500000Y-107500000D03*
X142500000Y-119000000D03*
X177500000Y-110000000D03*
X92000000Y-112750000D03*
X108750000Y-119000000D03*
X75000000Y-110000000D03*
X175000000Y-110000000D03*
X123750000Y-119000000D03*
X128500000Y-103750000D03*
X116000000Y-119000000D03*
X131250000Y-119000000D03*
X205000000Y-107500000D03*
X72500000Y-116000000D03*
X113000000Y-112250000D03*
X119000000Y-110750000D03*
X54250000Y-119000000D03*
X200000000Y-115750000D03*
%TO.N,Net-(J10-Pin_1)*%
X58250000Y-107250000D03*
X97750000Y-104000000D03*
X120731671Y-104213343D03*
X58250000Y-111250000D03*
X132500000Y-105000000D03*
%TO.N,Net-(JP1-C)*%
X103750000Y-105500000D03*
X124750000Y-106250000D03*
%TO.N,Net-(JP2-C)*%
X101750000Y-105250000D03*
X126000000Y-106250000D03*
%TD*%
D11*
%TO.N,Net-(D1-AB)*%
X158250000Y-117750000D02*
X158250000Y-117500000D01*
X75500000Y-118000000D02*
X75750000Y-118250000D01*
X89000000Y-117000000D02*
X88000000Y-117000000D01*
X117750000Y-118250000D02*
X117750000Y-117500000D01*
X104000000Y-112500000D02*
X103500000Y-112000000D01*
X143650000Y-112000000D02*
X144500000Y-112000000D01*
X75750000Y-118250000D02*
X90250000Y-118250000D01*
X174000000Y-117750000D02*
X174000000Y-114150000D01*
X63500000Y-118250000D02*
X62250000Y-117000000D01*
X103500000Y-112000000D02*
X101750000Y-112000000D01*
X57250000Y-115000000D02*
X57250000Y-109500000D01*
X134500000Y-118250000D02*
X141500000Y-118250000D01*
X73250000Y-113750000D02*
X73750000Y-113250000D01*
X146000000Y-118250000D02*
X158750000Y-118250000D01*
X145250000Y-117500000D02*
X146000000Y-118250000D01*
X104500000Y-118250000D02*
X117750000Y-118250000D01*
X104500000Y-118250000D02*
X104000000Y-117750000D01*
X75500000Y-112750000D02*
X75500000Y-118000000D01*
X104000000Y-117750000D02*
X104000000Y-112500000D01*
X158250000Y-117500000D02*
X157750000Y-117000000D01*
X130750000Y-118250000D02*
X134500000Y-118250000D01*
X145250000Y-112750000D02*
X145250000Y-117500000D01*
X57250000Y-113000000D02*
X58000000Y-113750000D01*
X134500000Y-118250000D02*
X133250000Y-117000000D01*
X144500000Y-112000000D02*
X145250000Y-112750000D01*
X157750000Y-117000000D02*
X157250000Y-117000000D01*
X117750000Y-117500000D02*
X117250000Y-117000000D01*
X58000000Y-113750000D02*
X73250000Y-113750000D01*
X75750000Y-118250000D02*
X63500000Y-118250000D01*
X158750000Y-118250000D02*
X158250000Y-117750000D01*
X90250000Y-118250000D02*
X104500000Y-118250000D01*
X57250000Y-109500000D02*
X57250000Y-113000000D01*
X117250000Y-117000000D02*
X115750000Y-117000000D01*
X173500000Y-118250000D02*
X173000000Y-118250000D01*
X73750000Y-112000000D02*
X74750000Y-112000000D01*
X133250000Y-117000000D02*
X131150000Y-117000000D01*
X117750000Y-118250000D02*
X130750000Y-118250000D01*
X173500000Y-118250000D02*
X174000000Y-117750000D01*
X57250000Y-109500000D02*
X57250000Y-104750000D01*
X158750000Y-118250000D02*
X173500000Y-118250000D01*
X62250000Y-117000000D02*
X60750000Y-117000000D01*
X141500000Y-118250000D02*
X146000000Y-118250000D01*
X74750000Y-112000000D02*
X75500000Y-112750000D01*
X90250000Y-118250000D02*
X89000000Y-117000000D01*
X73750000Y-113250000D02*
X73750000Y-112000000D01*
%TO.N,Net-(J4-Pin_1)*%
X119000000Y-103750000D02*
X100000000Y-103750000D01*
X99250000Y-104500000D02*
X98750000Y-104500000D01*
X119500000Y-104250000D02*
X119000000Y-103750000D01*
X129750000Y-105250000D02*
X120500000Y-105250000D01*
X120500000Y-105250000D02*
X119500000Y-104250000D01*
X61250000Y-109500000D02*
X61250000Y-107250000D01*
X100000000Y-103750000D02*
X99250000Y-104500000D01*
%TO.N,Net-(J2-Pin_1)*%
X126750000Y-102500000D02*
X131500000Y-102500000D01*
X121250000Y-102500000D02*
X126750000Y-102500000D01*
X205250000Y-105500000D02*
X206000000Y-105500000D01*
X121000000Y-103250000D02*
X121000000Y-102750000D01*
X131500000Y-102500000D02*
X132250000Y-101750000D01*
X204500000Y-102500000D02*
X204500000Y-104750000D01*
X121000000Y-102750000D02*
X121250000Y-102500000D01*
X121750000Y-104000000D02*
X121250000Y-103500000D01*
X132250000Y-101750000D02*
X133750000Y-101750000D01*
X133750000Y-101750000D02*
X133750000Y-101800000D01*
X202750000Y-101800000D02*
X203800000Y-101800000D01*
X204500000Y-104750000D02*
X205250000Y-105500000D01*
X121250000Y-103500000D02*
X121000000Y-103250000D01*
X203800000Y-101800000D02*
X204500000Y-102500000D01*
%TO.N,Net-(J10-Pin_1)*%
X58250000Y-111250000D02*
X58250000Y-107250000D01*
X119768328Y-103250000D02*
X119500000Y-103250000D01*
X121250000Y-104750000D02*
X120731671Y-104231671D01*
X119500000Y-103250000D02*
X100750000Y-103250000D01*
X130500000Y-104500000D02*
X129250000Y-104500000D01*
X100750000Y-103250000D02*
X98500000Y-103250000D01*
X120731671Y-104213343D02*
X119768328Y-103250000D01*
X120731671Y-104231671D02*
X120731671Y-104213343D01*
X98500000Y-103250000D02*
X97750000Y-104000000D01*
X131000000Y-105000000D02*
X130500000Y-104500000D01*
X129250000Y-104500000D02*
X129000000Y-104750000D01*
X132500000Y-105000000D02*
X131000000Y-105000000D01*
X129000000Y-104750000D02*
X121250000Y-104750000D01*
%TO.N,Net-(JP1-C)*%
X106000000Y-107250000D02*
X104250000Y-105500000D01*
X104250000Y-105500000D02*
X103750000Y-105500000D01*
X123750000Y-107250000D02*
X106000000Y-107250000D01*
X124750000Y-106250000D02*
X123750000Y-107250000D01*
%TO.N,Net-(JP2-C)*%
X125250000Y-107750000D02*
X104250000Y-107750000D01*
X126000000Y-106250000D02*
X126000000Y-107000000D01*
X104250000Y-107750000D02*
X101750000Y-105250000D01*
X126000000Y-107000000D02*
X125250000Y-107750000D01*
%TD*%
%TA.AperFunction,Conductor*%
%TO.N,GND*%
G36*
X131417942Y-101520185D02*
G01*
X131463697Y-101572989D01*
X131473641Y-101642147D01*
X131444616Y-101705703D01*
X131438584Y-101712181D01*
X131287584Y-101863181D01*
X131226261Y-101896666D01*
X131199903Y-101899500D01*
X121170940Y-101899500D01*
X121130019Y-101910464D01*
X121130019Y-101910465D01*
X121092751Y-101920451D01*
X121018214Y-101940423D01*
X121018209Y-101940426D01*
X120881290Y-102019475D01*
X120881282Y-102019481D01*
X120519481Y-102381282D01*
X120519479Y-102381285D01*
X120469361Y-102468094D01*
X120469359Y-102468096D01*
X120440425Y-102518209D01*
X120440424Y-102518210D01*
X120426617Y-102569738D01*
X120399499Y-102670943D01*
X120399499Y-102670945D01*
X120399499Y-102732573D01*
X120379814Y-102799612D01*
X120327010Y-102845367D01*
X120257852Y-102855311D01*
X120201825Y-102832313D01*
X120194371Y-102826807D01*
X120137044Y-102769480D01*
X120050232Y-102719360D01*
X120000113Y-102690423D01*
X119847385Y-102649499D01*
X119689271Y-102649499D01*
X119681675Y-102649499D01*
X119681659Y-102649500D01*
X119579057Y-102649500D01*
X100829057Y-102649500D01*
X98579057Y-102649500D01*
X98420943Y-102649500D01*
X98268215Y-102690423D01*
X98268214Y-102690423D01*
X98268212Y-102690424D01*
X98268209Y-102690425D01*
X98218096Y-102719359D01*
X98218095Y-102719360D01*
X98174689Y-102744420D01*
X98131285Y-102769479D01*
X98131282Y-102769481D01*
X97735339Y-103165425D01*
X97674016Y-103198910D01*
X97671850Y-103199361D01*
X97516508Y-103230261D01*
X97516498Y-103230264D01*
X97370827Y-103290602D01*
X97370814Y-103290609D01*
X97239711Y-103378210D01*
X97239707Y-103378213D01*
X97128213Y-103489707D01*
X97128210Y-103489711D01*
X97040609Y-103620814D01*
X97040602Y-103620827D01*
X96980264Y-103766498D01*
X96980261Y-103766510D01*
X96949500Y-103921153D01*
X96949500Y-104078846D01*
X96980261Y-104233489D01*
X96980264Y-104233501D01*
X97040602Y-104379172D01*
X97040609Y-104379185D01*
X97128210Y-104510288D01*
X97128213Y-104510292D01*
X97239707Y-104621786D01*
X97239711Y-104621789D01*
X97370814Y-104709390D01*
X97370827Y-104709397D01*
X97506450Y-104765573D01*
X97516503Y-104769737D01*
X97636736Y-104793653D01*
X97671153Y-104800499D01*
X97671156Y-104800500D01*
X97671158Y-104800500D01*
X97828843Y-104800500D01*
X97845304Y-104797225D01*
X97894568Y-104787426D01*
X97964158Y-104793653D01*
X98019336Y-104836515D01*
X98033320Y-104861589D01*
X98040606Y-104879179D01*
X98040609Y-104879185D01*
X98128210Y-105010288D01*
X98128213Y-105010292D01*
X98239707Y-105121786D01*
X98239711Y-105121789D01*
X98370814Y-105209390D01*
X98370827Y-105209397D01*
X98499577Y-105262726D01*
X98516503Y-105269737D01*
X98671153Y-105300499D01*
X98671156Y-105300500D01*
X98671158Y-105300500D01*
X98828844Y-105300500D01*
X98828845Y-105300499D01*
X98983497Y-105269737D01*
X99129179Y-105209394D01*
X99186411Y-105171153D01*
X99260873Y-105121399D01*
X99321124Y-105102532D01*
X99320997Y-105101562D01*
X99326568Y-105100828D01*
X99327550Y-105100521D01*
X99329002Y-105100507D01*
X99329054Y-105100501D01*
X99329057Y-105100501D01*
X99481785Y-105059577D01*
X99531904Y-105030639D01*
X99618716Y-104980520D01*
X99730520Y-104868716D01*
X99730520Y-104868714D01*
X99740728Y-104858507D01*
X99740729Y-104858504D01*
X100212416Y-104386819D01*
X100273739Y-104353334D01*
X100300097Y-104350500D01*
X101246561Y-104350500D01*
X101313600Y-104370185D01*
X101359355Y-104422989D01*
X101369299Y-104492147D01*
X101340274Y-104555703D01*
X101315452Y-104577602D01*
X101239711Y-104628210D01*
X101239707Y-104628213D01*
X101128213Y-104739707D01*
X101128210Y-104739711D01*
X101040609Y-104870814D01*
X101040602Y-104870827D01*
X100980264Y-105016498D01*
X100980261Y-105016510D01*
X100949500Y-105171153D01*
X100949500Y-105328846D01*
X100980261Y-105483489D01*
X100980264Y-105483501D01*
X101040602Y-105629172D01*
X101040609Y-105629185D01*
X101128210Y-105760288D01*
X101128213Y-105760292D01*
X101239707Y-105871786D01*
X101239711Y-105871789D01*
X101370814Y-105959390D01*
X101370827Y-105959397D01*
X101508695Y-106016503D01*
X101516503Y-106019737D01*
X101571311Y-106030639D01*
X101671849Y-106050638D01*
X101733760Y-106083023D01*
X101735339Y-106084574D01*
X103765139Y-108114374D01*
X103765149Y-108114385D01*
X103769479Y-108118715D01*
X103769480Y-108118716D01*
X103881284Y-108230520D01*
X103968095Y-108280639D01*
X103968097Y-108280641D01*
X104006151Y-108302611D01*
X104018215Y-108309577D01*
X104170943Y-108350501D01*
X104170946Y-108350501D01*
X104336653Y-108350501D01*
X104336669Y-108350500D01*
X125163331Y-108350500D01*
X125163347Y-108350501D01*
X125170943Y-108350501D01*
X125329054Y-108350501D01*
X125329057Y-108350501D01*
X125481785Y-108309577D01*
X125531904Y-108280639D01*
X125618716Y-108230520D01*
X125730520Y-108118716D01*
X125730520Y-108118714D01*
X125740728Y-108108507D01*
X125740730Y-108108504D01*
X126368713Y-107480521D01*
X126368716Y-107480520D01*
X126480520Y-107368716D01*
X126530639Y-107281904D01*
X126559577Y-107231785D01*
X126600500Y-107079057D01*
X126600500Y-106920943D01*
X126600500Y-106829765D01*
X126620185Y-106762726D01*
X126621398Y-106760874D01*
X126709390Y-106629185D01*
X126709390Y-106629184D01*
X126709394Y-106629179D01*
X126769737Y-106483497D01*
X126800500Y-106328842D01*
X126800500Y-106171158D01*
X126800500Y-106171155D01*
X126800499Y-106171153D01*
X126778305Y-106059577D01*
X126769737Y-106016503D01*
X126769732Y-106016492D01*
X126767969Y-106010676D01*
X126770720Y-106009841D01*
X126764497Y-105952641D01*
X126795691Y-105890122D01*
X126855734Y-105854392D01*
X126886555Y-105850500D01*
X129170234Y-105850500D01*
X129237273Y-105870185D01*
X129239125Y-105871398D01*
X129370814Y-105959390D01*
X129370827Y-105959397D01*
X129508695Y-106016503D01*
X129516503Y-106019737D01*
X129671153Y-106050499D01*
X129671156Y-106050500D01*
X129671158Y-106050500D01*
X129828844Y-106050500D01*
X129828845Y-106050499D01*
X129983497Y-106019737D01*
X130129179Y-105959394D01*
X130260289Y-105871789D01*
X130371789Y-105760289D01*
X130459394Y-105629179D01*
X130488151Y-105559752D01*
X130531989Y-105505351D01*
X130598283Y-105483285D01*
X130664711Y-105499819D01*
X130768216Y-105559577D01*
X130920943Y-105600501D01*
X130920945Y-105600501D01*
X131086654Y-105600501D01*
X131086670Y-105600500D01*
X131920234Y-105600500D01*
X131987273Y-105620185D01*
X131989125Y-105621398D01*
X132120814Y-105709390D01*
X132120827Y-105709397D01*
X132266498Y-105769735D01*
X132266503Y-105769737D01*
X132421153Y-105800499D01*
X132421156Y-105800500D01*
X132421158Y-105800500D01*
X132578844Y-105800500D01*
X132578845Y-105800499D01*
X132733497Y-105769737D01*
X132879179Y-105709394D01*
X133010289Y-105621789D01*
X133121789Y-105510289D01*
X133209394Y-105379179D01*
X133269737Y-105233497D01*
X133300500Y-105078842D01*
X133300500Y-104921158D01*
X133300500Y-104921155D01*
X133300499Y-104921153D01*
X133296192Y-104899499D01*
X133269737Y-104766503D01*
X133267163Y-104760288D01*
X133209397Y-104620827D01*
X133209390Y-104620814D01*
X133121789Y-104489711D01*
X133121786Y-104489707D01*
X133010292Y-104378213D01*
X133010288Y-104378210D01*
X132879185Y-104290609D01*
X132879172Y-104290602D01*
X132733501Y-104230264D01*
X132733489Y-104230261D01*
X132578845Y-104199500D01*
X132578842Y-104199500D01*
X132421158Y-104199500D01*
X132421155Y-104199500D01*
X132266510Y-104230261D01*
X132266498Y-104230264D01*
X132120827Y-104290602D01*
X132120814Y-104290609D01*
X131989125Y-104378602D01*
X131922447Y-104399480D01*
X131920234Y-104399500D01*
X131300098Y-104399500D01*
X131233059Y-104379815D01*
X131212417Y-104363181D01*
X130868717Y-104019481D01*
X130868716Y-104019480D01*
X130781904Y-103969360D01*
X130781904Y-103969359D01*
X130781900Y-103969358D01*
X130731785Y-103940423D01*
X130579057Y-103899499D01*
X130420943Y-103899499D01*
X130413347Y-103899499D01*
X130413331Y-103899500D01*
X129170940Y-103899500D01*
X129130019Y-103910464D01*
X129130019Y-103910465D01*
X129092751Y-103920451D01*
X129018214Y-103940423D01*
X129018209Y-103940426D01*
X128881290Y-104019475D01*
X128881282Y-104019481D01*
X128787583Y-104113181D01*
X128726260Y-104146666D01*
X128699902Y-104149500D01*
X122674500Y-104149500D01*
X122607461Y-104129815D01*
X122561706Y-104077011D01*
X122550500Y-104025500D01*
X122550500Y-103921155D01*
X122550499Y-103921153D01*
X122519738Y-103766510D01*
X122519737Y-103766503D01*
X122519735Y-103766498D01*
X122459397Y-103620827D01*
X122459390Y-103620814D01*
X122371789Y-103489711D01*
X122371786Y-103489707D01*
X122260292Y-103378213D01*
X122260288Y-103378210D01*
X122184548Y-103327602D01*
X122139743Y-103273990D01*
X122131036Y-103204665D01*
X122161190Y-103141637D01*
X122220634Y-103104918D01*
X122253439Y-103100500D01*
X126670943Y-103100500D01*
X131413331Y-103100500D01*
X131413347Y-103100501D01*
X131420943Y-103100501D01*
X131579054Y-103100501D01*
X131579057Y-103100501D01*
X131731785Y-103059577D01*
X131803424Y-103018216D01*
X131868716Y-102980520D01*
X131980520Y-102868716D01*
X131980520Y-102868714D01*
X131990724Y-102858511D01*
X131990727Y-102858506D01*
X132462416Y-102386819D01*
X132523739Y-102353334D01*
X132550097Y-102350500D01*
X133117060Y-102350500D01*
X133184099Y-102370185D01*
X133204742Y-102386820D01*
X133239707Y-102421786D01*
X133239711Y-102421789D01*
X133370814Y-102509390D01*
X133370827Y-102509397D01*
X133516498Y-102569735D01*
X133516503Y-102569737D01*
X133671153Y-102600499D01*
X133671156Y-102600500D01*
X133671158Y-102600500D01*
X133828844Y-102600500D01*
X133828845Y-102600499D01*
X133983497Y-102569737D01*
X134129179Y-102509394D01*
X134260289Y-102421789D01*
X134371789Y-102310289D01*
X134459394Y-102179179D01*
X134519737Y-102033497D01*
X134550500Y-101878842D01*
X134550500Y-101721158D01*
X134550500Y-101721155D01*
X134550499Y-101721153D01*
X134536086Y-101648691D01*
X134542313Y-101579100D01*
X134585176Y-101523922D01*
X134651066Y-101500678D01*
X134657703Y-101500500D01*
X201842297Y-101500500D01*
X201909336Y-101520185D01*
X201955091Y-101572989D01*
X201965035Y-101642147D01*
X201963914Y-101648691D01*
X201949500Y-101721153D01*
X201949500Y-101878846D01*
X201980261Y-102033489D01*
X201980264Y-102033501D01*
X202040602Y-102179172D01*
X202040609Y-102179185D01*
X202128210Y-102310288D01*
X202128213Y-102310292D01*
X202239707Y-102421786D01*
X202239711Y-102421789D01*
X202370814Y-102509390D01*
X202370827Y-102509397D01*
X202516498Y-102569735D01*
X202516503Y-102569737D01*
X202671153Y-102600499D01*
X202671156Y-102600500D01*
X202671158Y-102600500D01*
X202828844Y-102600500D01*
X202828845Y-102600499D01*
X202983497Y-102569737D01*
X203129179Y-102509394D01*
X203190986Y-102468096D01*
X203260875Y-102421398D01*
X203278921Y-102415747D01*
X203294831Y-102405523D01*
X203325792Y-102401071D01*
X203327553Y-102400520D01*
X203329766Y-102400500D01*
X203499903Y-102400500D01*
X203566942Y-102420185D01*
X203587584Y-102436819D01*
X203863181Y-102712416D01*
X203896666Y-102773739D01*
X203899500Y-102800097D01*
X203899500Y-104663330D01*
X203899499Y-104663348D01*
X203899499Y-104829054D01*
X203899498Y-104829054D01*
X203940424Y-104981789D01*
X203940425Y-104981790D01*
X203962186Y-105019480D01*
X203962187Y-105019482D01*
X204019475Y-105118709D01*
X204019481Y-105118717D01*
X204138349Y-105237585D01*
X204138355Y-105237590D01*
X204765139Y-105864374D01*
X204765149Y-105864385D01*
X204769479Y-105868715D01*
X204769480Y-105868716D01*
X204881284Y-105980520D01*
X204968095Y-106030639D01*
X204968097Y-106030641D01*
X205002492Y-106050499D01*
X205018215Y-106059577D01*
X205170943Y-106100500D01*
X205329057Y-106100500D01*
X205420234Y-106100500D01*
X205487273Y-106120185D01*
X205489125Y-106121398D01*
X205620814Y-106209390D01*
X205620827Y-106209397D01*
X205692784Y-106239202D01*
X205766503Y-106269737D01*
X205894413Y-106295180D01*
X205921153Y-106300499D01*
X205921156Y-106300500D01*
X205921158Y-106300500D01*
X206078844Y-106300500D01*
X206078845Y-106300499D01*
X206233497Y-106269737D01*
X206379179Y-106209394D01*
X206510289Y-106121789D01*
X206621789Y-106010289D01*
X206709394Y-105879179D01*
X206769737Y-105733497D01*
X206800500Y-105578842D01*
X206800500Y-105421158D01*
X206800500Y-105421155D01*
X206800499Y-105421153D01*
X206784957Y-105343020D01*
X206769737Y-105266503D01*
X206754833Y-105230521D01*
X206709397Y-105120827D01*
X206709390Y-105120814D01*
X206621789Y-104989711D01*
X206621786Y-104989707D01*
X206510292Y-104878213D01*
X206510288Y-104878210D01*
X206379185Y-104790609D01*
X206379172Y-104790602D01*
X206233501Y-104730264D01*
X206233489Y-104730261D01*
X206078845Y-104699500D01*
X206078842Y-104699500D01*
X205921158Y-104699500D01*
X205921155Y-104699500D01*
X205766510Y-104730261D01*
X205766498Y-104730264D01*
X205620827Y-104790602D01*
X205620814Y-104790609D01*
X205566972Y-104826586D01*
X205500294Y-104847464D01*
X205432914Y-104828979D01*
X205410400Y-104811165D01*
X205136819Y-104537584D01*
X205103334Y-104476261D01*
X205100500Y-104449903D01*
X205100500Y-102420945D01*
X205100500Y-102420943D01*
X205059577Y-102268216D01*
X205059573Y-102268209D01*
X204980524Y-102131290D01*
X204980521Y-102131286D01*
X204980520Y-102131284D01*
X204868716Y-102019480D01*
X204868715Y-102019479D01*
X204864385Y-102015149D01*
X204864374Y-102015139D01*
X204561416Y-101712181D01*
X204527931Y-101650858D01*
X204532915Y-101581166D01*
X204574787Y-101525233D01*
X204640251Y-101500816D01*
X204649097Y-101500500D01*
X213375500Y-101500500D01*
X213442539Y-101520185D01*
X213488294Y-101572989D01*
X213499500Y-101624500D01*
X213499500Y-119375500D01*
X213479815Y-119442539D01*
X213427011Y-119488294D01*
X213375500Y-119499500D01*
X50624500Y-119499500D01*
X50557461Y-119479815D01*
X50511706Y-119427011D01*
X50500500Y-119375500D01*
X50500500Y-104671153D01*
X56449500Y-104671153D01*
X56449500Y-104828846D01*
X56480261Y-104983489D01*
X56480264Y-104983501D01*
X56540602Y-105129172D01*
X56540609Y-105129185D01*
X56628602Y-105260874D01*
X56649480Y-105327551D01*
X56649500Y-105329765D01*
X56649500Y-109420943D01*
X56649500Y-112920939D01*
X56649499Y-112920943D01*
X56649499Y-113079057D01*
X56649500Y-113079060D01*
X56649500Y-114420234D01*
X56629815Y-114487273D01*
X56628602Y-114489125D01*
X56540609Y-114620814D01*
X56540602Y-114620827D01*
X56480264Y-114766498D01*
X56480261Y-114766510D01*
X56449500Y-114921153D01*
X56449500Y-115078846D01*
X56480261Y-115233489D01*
X56480264Y-115233501D01*
X56540602Y-115379172D01*
X56540609Y-115379185D01*
X56628210Y-115510288D01*
X56628213Y-115510292D01*
X56739707Y-115621786D01*
X56739711Y-115621789D01*
X56870814Y-115709390D01*
X56870827Y-115709397D01*
X57016498Y-115769735D01*
X57016503Y-115769737D01*
X57171153Y-115800499D01*
X57171156Y-115800500D01*
X57171158Y-115800500D01*
X57328844Y-115800500D01*
X57328845Y-115800499D01*
X57483497Y-115769737D01*
X57629179Y-115709394D01*
X57760289Y-115621789D01*
X57871789Y-115510289D01*
X57959394Y-115379179D01*
X58019737Y-115233497D01*
X58050500Y-115078842D01*
X58050500Y-114921158D01*
X58050500Y-114921155D01*
X58050499Y-114921153D01*
X58019738Y-114766510D01*
X58019737Y-114766503D01*
X58003603Y-114727551D01*
X57959397Y-114620827D01*
X57959395Y-114620823D01*
X57959394Y-114620821D01*
X57907657Y-114543391D01*
X57886779Y-114476714D01*
X57905263Y-114409334D01*
X57957242Y-114362643D01*
X58010759Y-114350500D01*
X73163331Y-114350500D01*
X73163347Y-114350501D01*
X73170943Y-114350501D01*
X73329054Y-114350501D01*
X73329057Y-114350501D01*
X73481785Y-114309577D01*
X73531904Y-114280639D01*
X73618716Y-114230520D01*
X73730520Y-114118716D01*
X73730521Y-114118714D01*
X74230520Y-113618716D01*
X74309577Y-113481784D01*
X74350501Y-113329057D01*
X74350501Y-113170942D01*
X74350501Y-113163347D01*
X74350500Y-113163329D01*
X74350500Y-112749097D01*
X74370185Y-112682058D01*
X74422989Y-112636303D01*
X74492147Y-112626359D01*
X74555703Y-112655384D01*
X74562181Y-112661416D01*
X74863181Y-112962416D01*
X74896666Y-113023739D01*
X74899500Y-113050097D01*
X74899500Y-117525500D01*
X74879815Y-117592539D01*
X74827011Y-117638294D01*
X74775500Y-117649500D01*
X63800097Y-117649500D01*
X63733058Y-117629815D01*
X63712416Y-117613181D01*
X62737590Y-116638355D01*
X62737588Y-116638352D01*
X62618717Y-116519481D01*
X62618716Y-116519480D01*
X62531904Y-116469360D01*
X62531904Y-116469359D01*
X62531900Y-116469358D01*
X62481785Y-116440423D01*
X62329057Y-116399499D01*
X62170943Y-116399499D01*
X62163347Y-116399499D01*
X62163331Y-116399500D01*
X61329766Y-116399500D01*
X61262727Y-116379815D01*
X61260875Y-116378602D01*
X61129185Y-116290609D01*
X61129172Y-116290602D01*
X60983501Y-116230264D01*
X60983489Y-116230261D01*
X60828845Y-116199500D01*
X60828842Y-116199500D01*
X60671158Y-116199500D01*
X60671155Y-116199500D01*
X60516510Y-116230261D01*
X60516498Y-116230264D01*
X60370827Y-116290602D01*
X60370814Y-116290609D01*
X60239711Y-116378210D01*
X60239707Y-116378213D01*
X60128213Y-116489707D01*
X60128210Y-116489711D01*
X60040609Y-116620814D01*
X60040602Y-116620827D01*
X59980264Y-116766498D01*
X59980261Y-116766510D01*
X59949500Y-116921153D01*
X59949500Y-117078846D01*
X59980261Y-117233489D01*
X59980264Y-117233501D01*
X60040602Y-117379172D01*
X60040609Y-117379185D01*
X60128210Y-117510288D01*
X60128213Y-117510292D01*
X60239707Y-117621786D01*
X60239711Y-117621789D01*
X60370814Y-117709390D01*
X60370827Y-117709397D01*
X60516498Y-117769735D01*
X60516503Y-117769737D01*
X60671153Y-117800499D01*
X60671156Y-117800500D01*
X60671158Y-117800500D01*
X60828844Y-117800500D01*
X60828845Y-117800499D01*
X60983497Y-117769737D01*
X61129179Y-117709394D01*
X61129185Y-117709390D01*
X61260875Y-117621398D01*
X61327553Y-117600520D01*
X61329766Y-117600500D01*
X61949903Y-117600500D01*
X62016942Y-117620185D01*
X62037584Y-117636819D01*
X63015139Y-118614374D01*
X63015149Y-118614385D01*
X63019479Y-118618715D01*
X63019480Y-118618716D01*
X63131284Y-118730520D01*
X63218095Y-118780639D01*
X63218097Y-118780641D01*
X63256151Y-118802611D01*
X63268215Y-118809577D01*
X63420943Y-118850501D01*
X63420946Y-118850501D01*
X63586653Y-118850501D01*
X63586669Y-118850500D01*
X75670942Y-118850500D01*
X75670943Y-118850500D01*
X90170939Y-118850500D01*
X90170943Y-118850501D01*
X90329057Y-118850501D01*
X90329061Y-118850500D01*
X104413331Y-118850500D01*
X104413347Y-118850501D01*
X104420943Y-118850501D01*
X104586654Y-118850501D01*
X104586670Y-118850500D01*
X117670943Y-118850500D01*
X130670943Y-118850500D01*
X134420939Y-118850500D01*
X134420943Y-118850501D01*
X134579057Y-118850501D01*
X134579061Y-118850500D01*
X141420943Y-118850500D01*
X145920943Y-118850500D01*
X146079057Y-118850500D01*
X158663331Y-118850500D01*
X158663347Y-118850501D01*
X158670943Y-118850501D01*
X158836654Y-118850501D01*
X158836670Y-118850500D01*
X172920943Y-118850500D01*
X173413331Y-118850500D01*
X173413347Y-118850501D01*
X173420943Y-118850501D01*
X173579054Y-118850501D01*
X173579057Y-118850501D01*
X173731785Y-118809577D01*
X173781904Y-118780639D01*
X173868716Y-118730520D01*
X173980520Y-118618716D01*
X173980521Y-118618714D01*
X174480520Y-118118716D01*
X174559577Y-117981784D01*
X174600501Y-117829057D01*
X174600501Y-117670942D01*
X174600501Y-117663347D01*
X174600500Y-117663329D01*
X174600500Y-114729765D01*
X174620185Y-114662726D01*
X174621398Y-114660874D01*
X174709390Y-114529185D01*
X174709390Y-114529184D01*
X174709394Y-114529179D01*
X174769737Y-114383497D01*
X174800500Y-114228842D01*
X174800500Y-114071158D01*
X174800500Y-114071155D01*
X174800499Y-114071153D01*
X174769738Y-113916510D01*
X174769737Y-113916503D01*
X174769735Y-113916498D01*
X174709397Y-113770827D01*
X174709390Y-113770814D01*
X174621789Y-113639711D01*
X174621786Y-113639707D01*
X174510292Y-113528213D01*
X174510288Y-113528210D01*
X174379185Y-113440609D01*
X174379172Y-113440602D01*
X174233501Y-113380264D01*
X174233489Y-113380261D01*
X174078845Y-113349500D01*
X174078842Y-113349500D01*
X173921158Y-113349500D01*
X173921155Y-113349500D01*
X173766510Y-113380261D01*
X173766498Y-113380264D01*
X173620827Y-113440602D01*
X173620814Y-113440609D01*
X173489711Y-113528210D01*
X173489707Y-113528213D01*
X173378213Y-113639707D01*
X173378210Y-113639711D01*
X173290609Y-113770814D01*
X173290602Y-113770827D01*
X173230264Y-113916498D01*
X173230261Y-113916510D01*
X173199500Y-114071153D01*
X173199500Y-114228846D01*
X173230261Y-114383489D01*
X173230264Y-114383501D01*
X173290602Y-114529172D01*
X173290609Y-114529185D01*
X173378602Y-114660874D01*
X173399480Y-114727551D01*
X173399500Y-114729765D01*
X173399500Y-117449901D01*
X173390856Y-117479337D01*
X173384333Y-117509327D01*
X173380577Y-117514344D01*
X173379815Y-117516940D01*
X173363182Y-117537582D01*
X173287584Y-117613181D01*
X173226261Y-117646666D01*
X173199902Y-117649500D01*
X159050098Y-117649500D01*
X158983059Y-117629815D01*
X158962417Y-117613181D01*
X158886820Y-117537584D01*
X158853335Y-117476261D01*
X158850501Y-117449903D01*
X158850501Y-117420944D01*
X158848461Y-117413331D01*
X158809577Y-117268216D01*
X158809573Y-117268209D01*
X158730524Y-117131290D01*
X158730518Y-117131282D01*
X158118717Y-116519481D01*
X158118716Y-116519480D01*
X158031904Y-116469360D01*
X158031904Y-116469359D01*
X158031900Y-116469358D01*
X157981785Y-116440423D01*
X157829061Y-116399500D01*
X157829054Y-116399498D01*
X157820997Y-116398438D01*
X157821188Y-116396981D01*
X157762725Y-116379814D01*
X157760873Y-116378601D01*
X157629185Y-116290609D01*
X157629172Y-116290602D01*
X157483501Y-116230264D01*
X157483489Y-116230261D01*
X157328845Y-116199500D01*
X157328842Y-116199500D01*
X157171158Y-116199500D01*
X157171155Y-116199500D01*
X157016510Y-116230261D01*
X157016498Y-116230264D01*
X156870827Y-116290602D01*
X156870814Y-116290609D01*
X156739711Y-116378210D01*
X156739707Y-116378213D01*
X156628213Y-116489707D01*
X156628210Y-116489711D01*
X156540609Y-116620814D01*
X156540602Y-116620827D01*
X156480264Y-116766498D01*
X156480261Y-116766510D01*
X156449500Y-116921153D01*
X156449500Y-117078846D01*
X156480261Y-117233489D01*
X156480264Y-117233501D01*
X156540602Y-117379172D01*
X156540609Y-117379184D01*
X156592343Y-117456609D01*
X156613221Y-117523286D01*
X156594737Y-117590666D01*
X156542758Y-117637357D01*
X156489241Y-117649500D01*
X146300097Y-117649500D01*
X146233058Y-117629815D01*
X146212416Y-117613181D01*
X145886819Y-117287584D01*
X145853334Y-117226261D01*
X145850500Y-117199903D01*
X145850500Y-112670945D01*
X145850500Y-112670943D01*
X145809577Y-112518216D01*
X145809577Y-112518215D01*
X145809577Y-112518214D01*
X145780639Y-112468095D01*
X145780637Y-112468092D01*
X145753417Y-112420944D01*
X145730520Y-112381284D01*
X145618716Y-112269480D01*
X145618715Y-112269479D01*
X145614385Y-112265149D01*
X145614374Y-112265139D01*
X144987590Y-111638355D01*
X144987588Y-111638352D01*
X144868717Y-111519481D01*
X144868716Y-111519480D01*
X144781904Y-111469360D01*
X144781904Y-111469359D01*
X144781900Y-111469358D01*
X144731785Y-111440423D01*
X144579057Y-111399499D01*
X144420943Y-111399499D01*
X144413347Y-111399499D01*
X144413331Y-111399500D01*
X144229766Y-111399500D01*
X144162727Y-111379815D01*
X144160875Y-111378602D01*
X144029185Y-111290609D01*
X144029172Y-111290602D01*
X143883501Y-111230264D01*
X143883489Y-111230261D01*
X143728845Y-111199500D01*
X143728842Y-111199500D01*
X143571158Y-111199500D01*
X143571155Y-111199500D01*
X143416510Y-111230261D01*
X143416498Y-111230264D01*
X143270827Y-111290602D01*
X143270814Y-111290609D01*
X143139711Y-111378210D01*
X143139707Y-111378213D01*
X143028213Y-111489707D01*
X143028210Y-111489711D01*
X142940609Y-111620814D01*
X142940602Y-111620827D01*
X142880264Y-111766498D01*
X142880261Y-111766510D01*
X142849500Y-111921153D01*
X142849500Y-112078846D01*
X142880261Y-112233489D01*
X142880264Y-112233501D01*
X142940602Y-112379172D01*
X142940609Y-112379185D01*
X143028210Y-112510288D01*
X143028213Y-112510292D01*
X143139707Y-112621786D01*
X143139711Y-112621789D01*
X143270814Y-112709390D01*
X143270827Y-112709397D01*
X143365799Y-112748735D01*
X143416503Y-112769737D01*
X143569132Y-112800097D01*
X143571153Y-112800499D01*
X143571156Y-112800500D01*
X143571158Y-112800500D01*
X143728844Y-112800500D01*
X143728845Y-112800499D01*
X143883497Y-112769737D01*
X144029179Y-112709394D01*
X144142973Y-112633358D01*
X144209650Y-112612481D01*
X144277030Y-112630965D01*
X144299545Y-112648780D01*
X144613181Y-112962416D01*
X144646666Y-113023739D01*
X144649500Y-113050097D01*
X144649500Y-117420939D01*
X144649499Y-117420943D01*
X144649499Y-117476260D01*
X144649499Y-117525501D01*
X144629814Y-117592540D01*
X144577009Y-117638295D01*
X144576998Y-117638296D01*
X144525499Y-117649500D01*
X134800097Y-117649500D01*
X134733058Y-117629815D01*
X134712416Y-117613181D01*
X133737590Y-116638355D01*
X133737588Y-116638352D01*
X133618717Y-116519481D01*
X133618716Y-116519480D01*
X133531904Y-116469360D01*
X133531904Y-116469359D01*
X133531900Y-116469358D01*
X133481785Y-116440423D01*
X133329057Y-116399499D01*
X133170943Y-116399499D01*
X133163347Y-116399499D01*
X133163331Y-116399500D01*
X131729766Y-116399500D01*
X131662727Y-116379815D01*
X131660875Y-116378602D01*
X131529185Y-116290609D01*
X131529172Y-116290602D01*
X131383501Y-116230264D01*
X131383489Y-116230261D01*
X131228845Y-116199500D01*
X131228842Y-116199500D01*
X131071158Y-116199500D01*
X131071155Y-116199500D01*
X130916510Y-116230261D01*
X130916498Y-116230264D01*
X130770827Y-116290602D01*
X130770814Y-116290609D01*
X130639711Y-116378210D01*
X130639707Y-116378213D01*
X130528213Y-116489707D01*
X130528210Y-116489711D01*
X130440609Y-116620814D01*
X130440602Y-116620827D01*
X130380264Y-116766498D01*
X130380261Y-116766510D01*
X130349500Y-116921153D01*
X130349500Y-117078846D01*
X130380261Y-117233489D01*
X130380264Y-117233501D01*
X130440602Y-117379172D01*
X130440609Y-117379184D01*
X130492343Y-117456609D01*
X130513221Y-117523286D01*
X130494737Y-117590666D01*
X130442758Y-117637357D01*
X130389241Y-117649500D01*
X118474501Y-117649500D01*
X118407462Y-117629815D01*
X118361707Y-117577011D01*
X118350501Y-117525500D01*
X118350501Y-117420944D01*
X118348461Y-117413331D01*
X118309577Y-117268216D01*
X118309573Y-117268209D01*
X118230524Y-117131290D01*
X118230518Y-117131282D01*
X117618717Y-116519481D01*
X117618716Y-116519480D01*
X117531904Y-116469360D01*
X117531904Y-116469359D01*
X117531900Y-116469358D01*
X117481785Y-116440423D01*
X117329057Y-116399499D01*
X117170943Y-116399499D01*
X117163347Y-116399499D01*
X117163331Y-116399500D01*
X116329766Y-116399500D01*
X116262727Y-116379815D01*
X116260875Y-116378602D01*
X116129185Y-116290609D01*
X116129172Y-116290602D01*
X115983501Y-116230264D01*
X115983489Y-116230261D01*
X115828845Y-116199500D01*
X115828842Y-116199500D01*
X115671158Y-116199500D01*
X115671155Y-116199500D01*
X115516510Y-116230261D01*
X115516498Y-116230264D01*
X115370827Y-116290602D01*
X115370814Y-116290609D01*
X115239711Y-116378210D01*
X115239707Y-116378213D01*
X115128213Y-116489707D01*
X115128210Y-116489711D01*
X115040609Y-116620814D01*
X115040602Y-116620827D01*
X114980264Y-116766498D01*
X114980261Y-116766510D01*
X114949500Y-116921153D01*
X114949500Y-117078846D01*
X114980261Y-117233489D01*
X114980264Y-117233501D01*
X115040602Y-117379172D01*
X115040609Y-117379184D01*
X115092343Y-117456609D01*
X115113221Y-117523286D01*
X115094737Y-117590666D01*
X115042758Y-117637357D01*
X114989241Y-117649500D01*
X104800098Y-117649500D01*
X104770657Y-117640855D01*
X104740671Y-117634332D01*
X104735655Y-117630577D01*
X104733059Y-117629815D01*
X104712417Y-117613181D01*
X104636819Y-117537583D01*
X104603334Y-117476260D01*
X104600500Y-117449902D01*
X104600500Y-112589060D01*
X104600501Y-112589047D01*
X104600501Y-112420944D01*
X104589874Y-112381284D01*
X104559577Y-112268216D01*
X104557801Y-112265139D01*
X104480524Y-112131290D01*
X104480518Y-112131282D01*
X103868717Y-111519481D01*
X103868716Y-111519480D01*
X103781904Y-111469360D01*
X103781904Y-111469359D01*
X103781900Y-111469358D01*
X103731785Y-111440423D01*
X103579057Y-111399499D01*
X103420943Y-111399499D01*
X103413347Y-111399499D01*
X103413331Y-111399500D01*
X102329766Y-111399500D01*
X102262727Y-111379815D01*
X102260875Y-111378602D01*
X102129185Y-111290609D01*
X102129172Y-111290602D01*
X101983501Y-111230264D01*
X101983489Y-111230261D01*
X101828845Y-111199500D01*
X101828842Y-111199500D01*
X101671158Y-111199500D01*
X101671155Y-111199500D01*
X101516510Y-111230261D01*
X101516498Y-111230264D01*
X101370827Y-111290602D01*
X101370814Y-111290609D01*
X101239711Y-111378210D01*
X101239707Y-111378213D01*
X101128213Y-111489707D01*
X101128210Y-111489711D01*
X101040609Y-111620814D01*
X101040602Y-111620827D01*
X100980264Y-111766498D01*
X100980261Y-111766510D01*
X100949500Y-111921153D01*
X100949500Y-112078846D01*
X100980261Y-112233489D01*
X100980264Y-112233501D01*
X101040602Y-112379172D01*
X101040609Y-112379185D01*
X101128210Y-112510288D01*
X101128213Y-112510292D01*
X101239707Y-112621786D01*
X101239711Y-112621789D01*
X101370814Y-112709390D01*
X101370827Y-112709397D01*
X101465799Y-112748735D01*
X101516503Y-112769737D01*
X101669132Y-112800097D01*
X101671153Y-112800499D01*
X101671156Y-112800500D01*
X101671158Y-112800500D01*
X101828844Y-112800500D01*
X101828845Y-112800499D01*
X101983497Y-112769737D01*
X102129179Y-112709394D01*
X102186725Y-112670943D01*
X102260875Y-112621398D01*
X102327553Y-112600520D01*
X102329766Y-112600500D01*
X103199903Y-112600500D01*
X103229343Y-112609144D01*
X103259330Y-112615668D01*
X103264345Y-112619422D01*
X103266942Y-112620185D01*
X103287584Y-112636819D01*
X103363181Y-112712416D01*
X103396666Y-112773739D01*
X103399500Y-112800097D01*
X103399500Y-117525500D01*
X103379815Y-117592539D01*
X103327011Y-117638294D01*
X103275500Y-117649500D01*
X90550097Y-117649500D01*
X90483058Y-117629815D01*
X90462416Y-117613181D01*
X89487590Y-116638355D01*
X89487588Y-116638352D01*
X89368717Y-116519481D01*
X89368716Y-116519480D01*
X89281904Y-116469360D01*
X89281904Y-116469359D01*
X89281900Y-116469358D01*
X89231785Y-116440423D01*
X89079057Y-116399499D01*
X88920943Y-116399499D01*
X88913347Y-116399499D01*
X88913331Y-116399500D01*
X88579766Y-116399500D01*
X88512727Y-116379815D01*
X88510875Y-116378602D01*
X88379185Y-116290609D01*
X88379172Y-116290602D01*
X88233501Y-116230264D01*
X88233489Y-116230261D01*
X88078845Y-116199500D01*
X88078842Y-116199500D01*
X87921158Y-116199500D01*
X87921155Y-116199500D01*
X87766510Y-116230261D01*
X87766498Y-116230264D01*
X87620827Y-116290602D01*
X87620814Y-116290609D01*
X87489711Y-116378210D01*
X87489707Y-116378213D01*
X87378213Y-116489707D01*
X87378210Y-116489711D01*
X87290609Y-116620814D01*
X87290602Y-116620827D01*
X87230264Y-116766498D01*
X87230261Y-116766510D01*
X87199500Y-116921153D01*
X87199500Y-117078846D01*
X87230261Y-117233489D01*
X87230264Y-117233501D01*
X87290602Y-117379172D01*
X87290609Y-117379184D01*
X87342343Y-117456609D01*
X87363221Y-117523286D01*
X87344737Y-117590666D01*
X87292758Y-117637357D01*
X87239241Y-117649500D01*
X76224500Y-117649500D01*
X76157461Y-117629815D01*
X76111706Y-117577011D01*
X76100500Y-117525500D01*
X76100500Y-112670945D01*
X76100500Y-112670943D01*
X76059577Y-112518216D01*
X76059577Y-112518215D01*
X76059577Y-112518214D01*
X76030639Y-112468095D01*
X76030637Y-112468092D01*
X76003417Y-112420944D01*
X75980520Y-112381284D01*
X75868716Y-112269480D01*
X75868715Y-112269479D01*
X75864385Y-112265149D01*
X75864374Y-112265139D01*
X75237590Y-111638355D01*
X75237588Y-111638352D01*
X75118717Y-111519481D01*
X75118716Y-111519480D01*
X75031904Y-111469360D01*
X75031904Y-111469359D01*
X75031900Y-111469358D01*
X74981785Y-111440423D01*
X74829057Y-111399499D01*
X74670943Y-111399499D01*
X74663347Y-111399499D01*
X74663331Y-111399500D01*
X74329766Y-111399500D01*
X74262727Y-111379815D01*
X74260875Y-111378602D01*
X74129185Y-111290609D01*
X74129172Y-111290602D01*
X73983501Y-111230264D01*
X73983489Y-111230261D01*
X73828845Y-111199500D01*
X73828842Y-111199500D01*
X73671158Y-111199500D01*
X73671155Y-111199500D01*
X73516510Y-111230261D01*
X73516498Y-111230264D01*
X73370827Y-111290602D01*
X73370814Y-111290609D01*
X73239711Y-111378210D01*
X73239707Y-111378213D01*
X73128213Y-111489707D01*
X73128210Y-111489711D01*
X73040609Y-111620814D01*
X73040602Y-111620827D01*
X72980264Y-111766498D01*
X72980261Y-111766510D01*
X72949500Y-111921153D01*
X72949500Y-112078846D01*
X72980261Y-112233489D01*
X72980264Y-112233501D01*
X73040602Y-112379172D01*
X73040609Y-112379185D01*
X73128602Y-112510874D01*
X73149480Y-112577551D01*
X73149500Y-112579765D01*
X73149500Y-112949901D01*
X73140856Y-112979337D01*
X73134333Y-113009327D01*
X73130577Y-113014344D01*
X73129815Y-113016940D01*
X73113182Y-113037582D01*
X73037584Y-113113181D01*
X72976261Y-113146666D01*
X72949902Y-113149500D01*
X58300097Y-113149500D01*
X58233058Y-113129815D01*
X58212416Y-113113181D01*
X57886819Y-112787584D01*
X57853334Y-112726261D01*
X57850500Y-112699903D01*
X57850500Y-112136555D01*
X57870185Y-112069516D01*
X57922989Y-112023761D01*
X57992147Y-112013817D01*
X58010411Y-112018840D01*
X58010676Y-112017969D01*
X58016492Y-112019732D01*
X58016503Y-112019737D01*
X58171153Y-112050499D01*
X58171156Y-112050500D01*
X58171158Y-112050500D01*
X58328844Y-112050500D01*
X58328845Y-112050499D01*
X58483497Y-112019737D01*
X58629179Y-111959394D01*
X58760289Y-111871789D01*
X58871789Y-111760289D01*
X58959394Y-111629179D01*
X58962854Y-111620827D01*
X59017163Y-111489711D01*
X59019737Y-111483497D01*
X59050500Y-111328842D01*
X59050500Y-111171158D01*
X59050500Y-111171155D01*
X59050499Y-111171153D01*
X59019738Y-111016510D01*
X59019737Y-111016503D01*
X59019735Y-111016498D01*
X58959397Y-110870827D01*
X58959390Y-110870814D01*
X58871398Y-110739125D01*
X58850520Y-110672447D01*
X58850500Y-110670234D01*
X58850500Y-107829765D01*
X58870185Y-107762726D01*
X58871398Y-107760874D01*
X58959390Y-107629185D01*
X58959390Y-107629184D01*
X58959394Y-107629179D01*
X59019737Y-107483497D01*
X59050500Y-107328842D01*
X59050500Y-107171158D01*
X59050500Y-107171155D01*
X59050499Y-107171153D01*
X60449500Y-107171153D01*
X60449500Y-107328846D01*
X60480261Y-107483489D01*
X60480264Y-107483501D01*
X60540602Y-107629172D01*
X60540609Y-107629185D01*
X60628602Y-107760874D01*
X60649480Y-107827551D01*
X60649500Y-107829765D01*
X60649500Y-108920234D01*
X60629815Y-108987273D01*
X60628602Y-108989125D01*
X60540609Y-109120814D01*
X60540602Y-109120827D01*
X60480264Y-109266498D01*
X60480261Y-109266510D01*
X60449500Y-109421153D01*
X60449500Y-109578846D01*
X60480261Y-109733489D01*
X60480264Y-109733501D01*
X60540602Y-109879172D01*
X60540609Y-109879185D01*
X60628210Y-110010288D01*
X60628213Y-110010292D01*
X60739707Y-110121786D01*
X60739711Y-110121789D01*
X60870814Y-110209390D01*
X60870827Y-110209397D01*
X61016498Y-110269735D01*
X61016503Y-110269737D01*
X61171153Y-110300499D01*
X61171156Y-110300500D01*
X61171158Y-110300500D01*
X61328844Y-110300500D01*
X61328845Y-110300499D01*
X61483497Y-110269737D01*
X61629179Y-110209394D01*
X61760289Y-110121789D01*
X61871789Y-110010289D01*
X61959394Y-109879179D01*
X62019737Y-109733497D01*
X62050500Y-109578842D01*
X62050500Y-109421158D01*
X62050500Y-109421155D01*
X62050499Y-109421153D01*
X62019738Y-109266510D01*
X62019737Y-109266503D01*
X62019735Y-109266498D01*
X61959397Y-109120827D01*
X61959390Y-109120814D01*
X61871398Y-108989125D01*
X61850520Y-108922447D01*
X61850500Y-108920234D01*
X61850500Y-107829765D01*
X61870185Y-107762726D01*
X61871398Y-107760874D01*
X61959390Y-107629185D01*
X61959390Y-107629184D01*
X61959394Y-107629179D01*
X62019737Y-107483497D01*
X62050500Y-107328842D01*
X62050500Y-107171158D01*
X62050500Y-107171155D01*
X62050499Y-107171153D01*
X62046129Y-107149184D01*
X62019737Y-107016503D01*
X61995196Y-106957255D01*
X61959397Y-106870827D01*
X61959390Y-106870814D01*
X61871789Y-106739711D01*
X61871786Y-106739707D01*
X61760292Y-106628213D01*
X61760288Y-106628210D01*
X61629185Y-106540609D01*
X61629172Y-106540602D01*
X61483501Y-106480264D01*
X61483489Y-106480261D01*
X61328845Y-106449500D01*
X61328842Y-106449500D01*
X61171158Y-106449500D01*
X61171155Y-106449500D01*
X61016510Y-106480261D01*
X61016498Y-106480264D01*
X60870827Y-106540602D01*
X60870814Y-106540609D01*
X60739711Y-106628210D01*
X60739707Y-106628213D01*
X60628213Y-106739707D01*
X60628210Y-106739711D01*
X60540609Y-106870814D01*
X60540602Y-106870827D01*
X60480264Y-107016498D01*
X60480261Y-107016510D01*
X60449500Y-107171153D01*
X59050499Y-107171153D01*
X59046129Y-107149184D01*
X59019737Y-107016503D01*
X58995196Y-106957255D01*
X58959397Y-106870827D01*
X58959390Y-106870814D01*
X58871789Y-106739711D01*
X58871786Y-106739707D01*
X58760292Y-106628213D01*
X58760288Y-106628210D01*
X58629185Y-106540609D01*
X58629172Y-106540602D01*
X58483501Y-106480264D01*
X58483489Y-106480261D01*
X58328845Y-106449500D01*
X58328842Y-106449500D01*
X58171158Y-106449500D01*
X58171155Y-106449500D01*
X58016510Y-106480261D01*
X58010676Y-106482031D01*
X58009873Y-106479385D01*
X57952056Y-106485396D01*
X57889687Y-106453902D01*
X57854245Y-106393689D01*
X57850500Y-106363444D01*
X57850500Y-105329765D01*
X57870185Y-105262726D01*
X57871398Y-105260874D01*
X57959390Y-105129185D01*
X57959390Y-105129184D01*
X57959394Y-105129179D01*
X57962854Y-105120827D01*
X58000210Y-105030639D01*
X58019737Y-104983497D01*
X58050500Y-104828842D01*
X58050500Y-104671158D01*
X58050500Y-104671155D01*
X58050499Y-104671153D01*
X58019738Y-104516510D01*
X58019737Y-104516503D01*
X58013425Y-104501265D01*
X57959397Y-104370827D01*
X57959390Y-104370814D01*
X57871789Y-104239711D01*
X57871786Y-104239707D01*
X57760292Y-104128213D01*
X57760288Y-104128210D01*
X57629185Y-104040609D01*
X57629172Y-104040602D01*
X57483501Y-103980264D01*
X57483489Y-103980261D01*
X57328845Y-103949500D01*
X57328842Y-103949500D01*
X57171158Y-103949500D01*
X57171155Y-103949500D01*
X57016510Y-103980261D01*
X57016498Y-103980264D01*
X56870827Y-104040602D01*
X56870814Y-104040609D01*
X56739711Y-104128210D01*
X56739707Y-104128213D01*
X56628213Y-104239707D01*
X56628210Y-104239711D01*
X56540609Y-104370814D01*
X56540602Y-104370827D01*
X56480264Y-104516498D01*
X56480261Y-104516510D01*
X56449500Y-104671153D01*
X50500500Y-104671153D01*
X50500500Y-101624500D01*
X50520185Y-101557461D01*
X50572989Y-101511706D01*
X50624500Y-101500500D01*
X131350903Y-101500500D01*
X131417942Y-101520185D01*
G37*
%TD.AperFunction*%
%TA.AperFunction,Conductor*%
G36*
X118632505Y-104359444D02*
G01*
X118663404Y-104366746D01*
X118665789Y-104369217D01*
X118669083Y-104370185D01*
X118689864Y-104394167D01*
X118711920Y-104417025D01*
X118713464Y-104421404D01*
X118714838Y-104422989D01*
X118723661Y-104450309D01*
X118730261Y-104483489D01*
X118730264Y-104483501D01*
X118790602Y-104629172D01*
X118790609Y-104629185D01*
X118878210Y-104760288D01*
X118878213Y-104760292D01*
X118989707Y-104871786D01*
X118989711Y-104871789D01*
X119120814Y-104959390D01*
X119120827Y-104959397D01*
X119265885Y-105019481D01*
X119266503Y-105019737D01*
X119321311Y-105030639D01*
X119421849Y-105050638D01*
X119483760Y-105083023D01*
X119485336Y-105084571D01*
X120131284Y-105730520D01*
X120131286Y-105730521D01*
X120131290Y-105730524D01*
X120199210Y-105769737D01*
X120268216Y-105809577D01*
X120420943Y-105850501D01*
X120420945Y-105850501D01*
X120586654Y-105850501D01*
X120586670Y-105850500D01*
X123863445Y-105850500D01*
X123930484Y-105870185D01*
X123976239Y-105922989D01*
X123986183Y-105992147D01*
X123984891Y-105999539D01*
X123982513Y-106011068D01*
X123980263Y-106016503D01*
X123949500Y-106171158D01*
X123949500Y-106171197D01*
X123949191Y-106172696D01*
X123932950Y-106203222D01*
X123916977Y-106233759D01*
X123916383Y-106234363D01*
X123916375Y-106234379D01*
X123916359Y-106234387D01*
X123915426Y-106235338D01*
X123537584Y-106613181D01*
X123476261Y-106646666D01*
X123449903Y-106649500D01*
X106300098Y-106649500D01*
X106233059Y-106629815D01*
X106212417Y-106613181D01*
X104737590Y-105138355D01*
X104737588Y-105138352D01*
X104618716Y-105019480D01*
X104618714Y-105019479D01*
X104514643Y-104959394D01*
X104514642Y-104959393D01*
X104481783Y-104940422D01*
X104329054Y-104899498D01*
X104320997Y-104898438D01*
X104321188Y-104896981D01*
X104262725Y-104879814D01*
X104260873Y-104878601D01*
X104129185Y-104790609D01*
X104129172Y-104790602D01*
X103983501Y-104730264D01*
X103983489Y-104730261D01*
X103828845Y-104699500D01*
X103828842Y-104699500D01*
X103671158Y-104699500D01*
X103671155Y-104699500D01*
X103516510Y-104730261D01*
X103516498Y-104730264D01*
X103370827Y-104790602D01*
X103370814Y-104790609D01*
X103239711Y-104878210D01*
X103239707Y-104878213D01*
X103128213Y-104989707D01*
X103128210Y-104989711D01*
X103040609Y-105120814D01*
X103040602Y-105120827D01*
X102980264Y-105266498D01*
X102980261Y-105266508D01*
X102965042Y-105343020D01*
X102960332Y-105352024D01*
X102959607Y-105362162D01*
X102944410Y-105382461D01*
X102932657Y-105404931D01*
X102923824Y-105409960D01*
X102917735Y-105418095D01*
X102893979Y-105426955D01*
X102871941Y-105439505D01*
X102861792Y-105438960D01*
X102852271Y-105442512D01*
X102827492Y-105437121D01*
X102802171Y-105435764D01*
X102792110Y-105429424D01*
X102783998Y-105427660D01*
X102755744Y-105406509D01*
X102584574Y-105235339D01*
X102551089Y-105174016D01*
X102550638Y-105171849D01*
X102520380Y-105019735D01*
X102519737Y-105016503D01*
X102517163Y-105010288D01*
X102459397Y-104870827D01*
X102459390Y-104870814D01*
X102371789Y-104739711D01*
X102371786Y-104739707D01*
X102260292Y-104628213D01*
X102260288Y-104628210D01*
X102184548Y-104577602D01*
X102139743Y-104523990D01*
X102131036Y-104454665D01*
X102161190Y-104391637D01*
X102220634Y-104354918D01*
X102253439Y-104350500D01*
X118602044Y-104350500D01*
X118632505Y-104359444D01*
G37*
%TD.AperFunction*%
%TD*%
M02*
